<svg width="361" height="361" viewBox="0 0 361 361" fill="none" xmlns="http://www.w3.org/2000/svg">
<path d="M158.84 45.6126C159.652 51.9481 163.551 52.9409 163.551 52.9409C169.923 53.3741 167.685 47.6883 167.685 47.6883C161.151 34.6021 145.212 38.9521 145.212 38.9521C145.212 38.9521 157.956 39.277 158.84 45.6126ZM251.166 70.0523C260.299 57.5436 244.09 47.9771 244.09 47.9771C245.157 52.847 245.157 57.8902 244.09 62.7601C243.224 74.6189 251.166 70.0523 251.166 70.0523Z" fill="#5669FF"/>
<path d="M333.925 81.5683C333.925 81.5683 315.875 35.9018 251.292 17.4908C186.709 -0.920194 137.866 37.3458 137.866 37.3458C199.741 17.4908 211.492 33.5012 211.492 33.5012C211.492 33.5012 222.069 45.5405 231.798 44.0785C241.527 42.6164 235.047 33.2485 235.047 33.2485C258.386 37.9054 262.212 51.5692 267.952 63.1754C273.692 74.7815 280.587 68.8431 287.158 62.309C293.728 55.7749 300.641 63.6086 300.641 63.6086C306.513 71.7411 310.282 81.2004 311.611 91.1432C312.94 101.086 311.788 111.203 308.258 120.592C296.291 153.66 316.958 155.609 316.958 155.609C358.924 148.119 333.925 81.5683 333.925 81.5683ZM277.591 54.4933C274.125 55.5944 272.375 49.3852 272.375 49.3852C271.971 48.5647 271.882 47.6248 272.125 46.7433C272.368 45.8617 272.925 45.0999 273.692 44.6019C277.663 42.7969 279.107 47.9231 279.107 47.9231C279.107 47.9231 281.057 53.4645 277.573 54.5475L277.591 54.4933ZM330.315 104.69C330.762 104.694 331.202 104.805 331.597 105.015C331.992 105.225 332.33 105.527 332.584 105.895C332.837 106.264 332.998 106.688 333.052 107.132C333.107 107.576 333.053 108.026 332.896 108.445C331.958 112.055 328.113 109.185 328.113 109.185C327.841 108.761 327.682 108.275 327.653 107.773C327.624 107.27 327.725 106.769 327.947 106.317C328.168 105.865 328.502 105.477 328.917 105.192C329.332 104.908 329.814 104.735 330.315 104.69ZM325.424 143.426C325.424 143.426 323.799 142.126 325.424 138.011C326.766 133.824 327.75 129.531 328.366 125.177C330.423 118.102 334.882 123.119 334.882 123.119C334.882 123.119 338.041 128.119 333.257 137.794C328.474 147.469 325.424 143.444 325.424 143.444V143.426ZM134.202 108.3C134.24 108.3 134.277 108.285 134.304 108.258C134.331 108.231 134.346 108.194 134.346 108.156C134.346 108.118 134.331 108.081 134.304 108.054C134.277 108.027 134.24 108.012 134.202 108.012C134.164 108.012 134.127 108.027 134.1 108.054C134.073 108.081 134.057 108.118 134.057 108.156C134.057 108.194 134.073 108.231 134.1 108.258C134.127 108.285 134.164 108.3 134.202 108.3ZM150.194 120.033C150.023 120.191 149.836 120.33 149.635 120.448C149.612 120.468 149.595 120.495 149.589 120.525C149.582 120.555 149.585 120.586 149.597 120.614C149.609 120.642 149.629 120.665 149.656 120.681C149.682 120.697 149.712 120.704 149.743 120.701C152.126 120.051 149.905 118.156 149.743 116.892C149.743 116.621 149.129 116.892 150.429 119.022C150.493 119.195 150.506 119.383 150.464 119.563C150.422 119.743 150.328 119.906 150.194 120.033ZM152.613 114.455C152.486 115.087 152.486 115.737 152.613 116.369C152.635 116.399 152.663 116.423 152.696 116.44C152.729 116.456 152.765 116.465 152.802 116.465C152.839 116.465 152.876 116.456 152.909 116.44C152.942 116.423 152.97 116.399 152.992 116.369C153.075 115.77 153.075 115.163 152.992 114.564C153.118 114.239 152.649 114.167 152.613 114.455ZM145.122 114.654C144.972 115.353 145.055 116.082 145.357 116.73C145.391 116.763 145.434 116.786 145.48 116.799C145.526 116.811 145.574 116.812 145.621 116.802C145.667 116.791 145.71 116.769 145.746 116.737C145.782 116.706 145.809 116.666 145.826 116.621C145.875 115.957 145.796 115.289 145.591 114.654C145.568 114.613 145.533 114.578 145.492 114.555C145.451 114.531 145.404 114.518 145.357 114.518C145.309 114.518 145.262 114.531 145.221 114.555C145.18 114.578 145.146 114.613 145.122 114.654ZM143.101 113.138C143.498 112.759 145.23 111.513 145.591 111.17C145.952 110.827 145.122 110.34 142.848 112.885C142.685 113.048 142.938 113.318 143.101 113.138ZM153.985 112.344C153.549 111.746 152.981 111.258 152.324 110.918C152.071 110.809 151.873 111.261 152.144 111.369C152.414 111.477 154.183 113.336 153.985 112.344ZM143.75 124.942C143.859 125.069 144.039 124.942 143.967 124.78C143.41 124.055 143.106 123.167 143.101 122.253C145.122 124.473 147.342 123.932 146.476 123.697C145.221 123.42 144.07 122.794 143.155 121.892C142.703 121.459 142.433 123.39 143.75 124.942ZM132.686 110.466C132.619 110.466 132.554 110.493 132.507 110.54C132.46 110.588 132.433 110.652 132.433 110.719C132.433 110.786 132.46 110.85 132.507 110.898C132.554 110.945 132.619 110.972 132.686 110.972C132.753 110.972 132.817 110.945 132.864 110.898C132.912 110.85 132.938 110.786 132.938 110.719C132.938 110.652 132.912 110.588 132.864 110.54C132.817 110.493 132.753 110.466 132.686 110.466ZM134.761 112.362C134.838 112.362 134.911 112.331 134.966 112.277C135.02 112.223 135.05 112.149 135.05 112.073C135.05 111.996 135.02 111.923 134.966 111.869C134.911 111.814 134.838 111.784 134.761 111.784C134.685 111.784 134.611 111.814 134.557 111.869C134.503 111.923 134.473 111.996 134.473 112.073C134.473 112.149 134.503 112.223 134.557 112.277C134.611 112.331 134.685 112.362 134.761 112.362ZM135.086 109.943C135.144 109.928 135.195 109.894 135.232 109.846C135.268 109.799 135.288 109.741 135.288 109.681C135.288 109.621 135.268 109.563 135.232 109.516C135.195 109.469 135.144 109.435 135.086 109.419C135.029 109.435 134.978 109.469 134.941 109.516C134.905 109.563 134.885 109.621 134.885 109.681C134.885 109.741 134.905 109.799 134.941 109.846C134.978 109.894 135.029 109.928 135.086 109.943ZM137.956 110.34C138.018 110.324 138.073 110.288 138.113 110.237C138.152 110.187 138.173 110.124 138.173 110.06C138.173 109.996 138.152 109.934 138.113 109.883C138.073 109.832 138.018 109.796 137.956 109.78C137.894 109.796 137.839 109.832 137.8 109.883C137.76 109.934 137.739 109.996 137.739 110.06C137.739 110.124 137.76 110.187 137.8 110.237C137.839 110.288 137.894 110.324 137.956 110.34ZM138.606 115.25C139.13 115.069 138.444 114.473 138.299 114.943C138.245 115.087 138.426 115.322 138.606 115.25ZM137.74 113.102C137.783 113.102 137.824 113.085 137.855 113.054C137.885 113.024 137.902 112.982 137.902 112.939C137.902 112.896 137.885 112.855 137.855 112.824C137.824 112.794 137.783 112.777 137.74 112.777C137.697 112.777 137.655 112.794 137.625 112.824C137.594 112.855 137.577 112.896 137.577 112.939C137.577 112.982 137.594 113.024 137.625 113.054C137.655 113.085 137.697 113.102 137.74 113.102ZM132.523 113.715C132.475 113.715 132.429 113.734 132.396 113.768C132.362 113.802 132.343 113.848 132.343 113.896C132.343 113.944 132.362 113.99 132.396 114.023C132.429 114.057 132.475 114.076 132.523 114.076C132.571 114.076 132.617 114.057 132.651 114.023C132.685 113.99 132.704 113.944 132.704 113.896C132.704 113.848 132.685 113.802 132.651 113.768C132.617 113.734 132.571 113.715 132.523 113.715ZM134.418 121.062C134.374 121.075 134.335 121.102 134.307 121.14C134.279 121.177 134.264 121.223 134.264 121.269C134.264 121.316 134.279 121.361 134.307 121.399C134.335 121.436 134.374 121.464 134.418 121.477C134.463 121.464 134.502 121.436 134.53 121.399C134.558 121.361 134.573 121.316 134.573 121.269C134.573 121.223 134.558 121.177 134.53 121.14C134.502 121.102 134.463 121.075 134.418 121.062ZM132.09 116.188C132.013 116.188 131.94 116.219 131.886 116.273C131.832 116.327 131.801 116.4 131.801 116.477C131.801 116.554 131.832 116.627 131.886 116.681C131.94 116.735 132.013 116.766 132.09 116.766C132.167 116.766 132.24 116.735 132.294 116.681C132.348 116.627 132.379 116.554 132.379 116.477C132.379 116.4 132.348 116.327 132.294 116.273C132.24 116.219 132.167 116.188 132.09 116.188ZM134.761 113.715C134.724 113.705 134.685 113.704 134.646 113.711C134.608 113.718 134.572 113.734 134.541 113.758C134.51 113.782 134.485 113.812 134.468 113.847C134.451 113.882 134.442 113.92 134.442 113.959C134.442 113.998 134.451 114.036 134.468 114.071C134.485 114.106 134.51 114.136 134.541 114.16C134.572 114.184 134.608 114.2 134.646 114.207C134.685 114.215 134.724 114.213 134.761 114.203C134.815 114.188 134.862 114.156 134.895 114.112C134.929 114.068 134.947 114.014 134.947 113.959C134.947 113.904 134.929 113.85 134.895 113.806C134.862 113.762 134.815 113.73 134.761 113.715ZM136.765 112.199C136.827 112.199 136.887 112.174 136.931 112.13C136.975 112.086 137 112.027 137 111.965C137 111.902 136.975 111.843 136.931 111.799C136.887 111.755 136.827 111.73 136.765 111.73C136.703 111.73 136.643 111.755 136.599 111.799C136.555 111.843 136.53 111.902 136.53 111.965C136.53 112.027 136.555 112.086 136.599 112.13C136.643 112.174 136.703 112.199 136.765 112.199ZM112.235 172.342C112.252 172.258 112.252 172.172 112.235 172.089C112.036 170.284 109.13 171.836 110.43 173.316C110.553 173.439 110.71 173.521 110.881 173.551C111.054 173.589 111.234 173.586 111.406 173.541C111.577 173.496 111.735 173.411 111.868 173.293C112 173.175 112.102 173.027 112.166 172.862C112.23 172.696 112.253 172.518 112.235 172.342ZM114.329 162.198C114.461 162.329 114.627 162.422 114.808 162.467C114.989 162.511 115.179 162.506 115.358 162.45C115.499 162.401 115.628 162.323 115.738 162.221C115.847 162.118 115.933 161.994 115.991 161.856C116.049 161.718 116.077 161.57 116.074 161.42C116.07 161.271 116.035 161.124 115.971 160.988C115.646 159.635 113.065 160.88 114.329 162.198ZM118.498 168.443C118.609 168.146 118.609 167.819 118.498 167.522C116.206 165.519 116.387 171.06 118.498 168.443ZM101.405 176.584C102.542 177.396 103.625 176.277 102.632 175.103C102.253 174.652 100.033 175.555 101.405 176.584ZM111.694 180.861C109.347 179.165 109.004 184.255 111.459 182.666C111.702 182.441 111.863 182.141 111.915 181.814C111.968 181.486 111.909 181.151 111.748 180.861H111.694ZM118.697 153.137C118.155 154.256 119.942 155.23 120.358 153.498C120.358 153.1 120.358 152.577 119.437 152.505C119.265 152.526 119.104 152.597 118.972 152.71C118.841 152.822 118.745 152.97 118.697 153.137ZM117.325 146.205C117.499 146.301 117.699 146.34 117.897 146.314C118.094 146.289 118.278 146.202 118.423 146.066C118.567 145.929 118.665 145.75 118.701 145.555C118.737 145.359 118.711 145.157 118.625 144.978C118.083 143.931 116.116 145.122 117.325 146.205ZM120.737 138.57C120.737 139.599 122.65 139.455 122.542 138.281C122.54 138.163 122.51 138.047 122.453 137.943C122.397 137.839 122.315 137.751 122.217 137.686C121.802 137.18 120.267 137.559 120.737 138.57ZM128.57 128.047C129.599 127.433 128.931 125.935 127.939 126.477C126.639 126.603 127.397 128.733 128.57 128.047ZM121.549 120.051C121.557 119.991 121.557 119.93 121.549 119.87C121.577 119.728 121.569 119.582 121.525 119.444C121.482 119.306 121.405 119.181 121.3 119.08C121.196 118.98 121.069 118.907 120.929 118.868C120.79 118.83 120.643 118.827 120.502 118.86C120.355 118.898 120.22 118.976 120.113 119.084C120.006 119.192 119.93 119.327 119.893 119.475C119.857 119.622 119.86 119.777 119.904 119.923C119.947 120.069 120.029 120.2 120.141 120.304C120.21 120.451 120.326 120.572 120.471 120.647C120.616 120.722 120.781 120.747 120.942 120.718C121.103 120.69 121.249 120.609 121.359 120.488C121.469 120.367 121.535 120.214 121.549 120.051ZM110.105 111.91C109.257 110.809 107.885 112.181 108.733 113.084C108.81 113.154 108.895 113.214 108.986 113.264C109.582 113.842 110.881 112.813 110.105 111.91ZM111.224 100.918C110.791 101.333 110.845 102.47 111.603 102.56C111.779 102.641 111.976 102.662 112.164 102.62C112.352 102.578 112.522 102.475 112.647 102.328C112.771 102.181 112.844 101.997 112.855 101.804C112.865 101.612 112.812 101.421 112.704 101.261C112.639 101.132 112.545 101.019 112.431 100.93C112.317 100.841 112.185 100.778 112.044 100.745C111.903 100.712 111.757 100.711 111.615 100.741C111.473 100.771 111.34 100.831 111.224 100.918ZM114.239 89.5825C114.044 89.4867 113.822 89.4613 113.61 89.5109C113.399 89.5604 113.211 89.6818 113.079 89.8542C112.947 90.0267 112.879 90.2396 112.886 90.4566C112.894 90.6737 112.976 90.8815 113.119 91.0446C113.165 91.227 113.257 91.3946 113.387 91.5307C113.516 91.6668 113.679 91.7667 113.86 91.8207C113.976 91.8358 114.094 91.8277 114.207 91.7967C114.32 91.7658 114.426 91.7126 114.518 91.6404C114.611 91.5682 114.688 91.4783 114.745 91.376C114.802 91.2737 114.839 91.161 114.852 91.0446C114.891 90.8667 114.887 90.6821 114.84 90.5062C114.793 90.3303 114.704 90.1683 114.582 90.0338C114.528 89.8455 114.406 89.6843 114.239 89.5825ZM107.704 95.9542C108.138 94.5643 105.791 94.4199 105.791 95.7195C105.795 95.9562 105.889 96.1826 106.053 96.3533C106.217 96.524 106.439 96.6264 106.676 96.6401C106.899 96.659 107.123 96.6014 107.31 96.4769C107.497 96.3523 107.636 96.168 107.704 95.9542ZM106.82 166.205C107.578 167.522 109.239 165.158 107.289 165.032C106.982 165.23 106.495 165.393 106.82 166.205ZM150.88 172.576C151.064 172.546 151.236 172.464 151.376 172.341C151.516 172.217 151.618 172.057 151.671 171.878C151.723 171.699 151.725 171.508 151.674 171.329C151.624 171.149 151.524 170.987 151.385 170.862C150.483 169.887 148.967 172.486 150.88 172.576ZM152.956 159.057C153.172 158.624 153.172 158.064 152.631 157.884C150.032 157.487 151.385 161.458 152.956 159.057ZM148.696 148.389C148.518 148.344 148.332 148.344 148.155 148.389C145.375 150.321 151.349 150.934 148.696 148.389ZM155.23 145.429C155.88 144.852 155.916 143.516 154.653 143.624C153.389 143.732 153.714 146.332 155.23 145.429ZM158.605 152.162C158.589 152.044 158.546 151.931 158.48 151.831C158.415 151.731 158.328 151.647 158.226 151.584C158.094 151.49 157.935 151.439 157.772 151.438C157.609 151.437 157.45 151.487 157.316 151.579C157.182 151.672 157.08 151.803 157.023 151.956C156.966 152.109 156.958 152.275 156.999 152.433C157.035 152.646 157.154 152.836 157.33 152.961C157.506 153.086 157.725 153.136 157.938 153.1C158.151 153.065 158.341 152.945 158.466 152.769C158.591 152.593 158.641 152.375 158.605 152.162ZM163.768 157.685C163.943 157.642 164.1 157.543 164.214 157.403C164.328 157.263 164.393 157.089 164.4 156.909C164.455 156.72 164.432 156.517 164.337 156.344C164.243 156.171 164.083 156.044 163.894 155.988C163.705 155.933 163.502 155.956 163.329 156.051C163.157 156.145 163.029 156.305 162.974 156.494C162.703 156.765 162.847 157.92 163.768 157.685ZM162.252 166.169C162.068 166.253 161.921 166.4 161.836 166.584C160.753 170.266 165.573 166.223 162.252 166.169ZM175.338 166.855C175.312 166.657 175.215 166.475 175.066 166.342C174.917 166.21 174.725 166.135 174.526 166.133C171.601 166.945 174.832 169.67 175.338 166.855ZM177.955 156.386C178.731 156.747 179.363 155.212 178.442 154.797C177.937 154.4 176.854 155.285 177.522 156.169C177.633 156.294 177.788 156.372 177.955 156.386ZM184.814 159.274C185.626 159.274 186.15 157.469 184.814 157.469C184.435 157.469 184.02 157.685 183.93 158.371C183.919 158.491 183.934 158.611 183.975 158.724C184.015 158.838 184.08 158.941 184.164 159.026C184.248 159.112 184.349 159.179 184.462 159.221C184.574 159.264 184.694 159.282 184.814 159.274ZM159.183 184.219C159.422 184.195 159.642 184.077 159.795 183.891C159.947 183.704 160.019 183.465 159.995 183.226C159.971 182.987 159.853 182.766 159.667 182.614C159.481 182.462 159.242 182.39 159.003 182.414C158.763 182.438 158.543 182.556 158.391 182.742C158.239 182.928 158.166 183.167 158.19 183.406C158.214 183.646 158.332 183.866 158.518 184.018C158.705 184.17 158.944 184.243 159.183 184.219ZM151.187 194.471C151.963 195.103 153.479 193.893 152.613 192.81C152.017 191.782 150.122 193.244 151.187 194.471ZM161.782 197.142C161.972 197.017 162.114 196.831 162.183 196.614C162.252 196.397 162.244 196.163 162.161 195.951C162.161 195.428 160.934 194.615 160.591 195.789C160.482 195.96 160.431 196.163 160.447 196.366C160.462 196.568 160.543 196.761 160.678 196.913C160.812 197.066 160.993 197.171 161.192 197.212C161.391 197.254 161.598 197.229 161.782 197.142ZM149.941 181.547C149.725 181.421 149.635 181.403 149.093 181.547C148.552 181.692 148.497 182.323 149.093 182.865C149.689 183.406 151.259 182.305 149.941 181.547ZM214.687 128.643C214.732 128.353 214.705 128.057 214.61 127.78C214.515 127.503 214.354 127.254 214.14 127.053C213.927 126.852 213.668 126.706 213.386 126.628C213.104 126.55 212.807 126.541 212.521 126.603C212.158 126.742 211.861 127.012 211.691 127.361C211.547 127.5 211.436 127.669 211.367 127.857C211.298 128.045 211.273 128.245 211.293 128.444C210.788 130.448 214.199 131.116 214.687 128.643ZM219.217 134.563C221.347 136.061 224.001 132.939 222.593 131.079C222.26 130.609 221.775 130.266 221.22 130.108C220.665 129.951 220.073 129.988 219.542 130.213C218.044 131.007 217.412 133.661 219.217 134.563ZM220.932 144.743C222.087 147.324 226.347 143.335 223.513 141.548C221.654 140.357 220.03 143.245 220.932 144.743ZM215.625 154.274C215.943 154.309 216.265 154.277 216.569 154.18C216.874 154.083 217.154 153.923 217.393 153.71C217.631 153.497 217.822 153.236 217.953 152.945C218.084 152.653 218.152 152.337 218.152 152.017C218.983 149.815 216.564 148.516 215.102 148.877C212.882 149.418 213.423 154.544 215.625 154.274ZM205.933 156.819C206.303 157.106 206.758 157.261 207.227 157.261C207.696 157.261 208.151 157.104 208.521 156.817C208.891 156.53 209.155 156.127 209.271 155.673C209.388 155.219 209.35 154.74 209.164 154.31C208.135 151.909 204.832 152.902 205.247 155.736C205.384 156.147 205.619 156.519 205.933 156.819ZM200.355 148.444C200.131 148.42 199.905 148.443 199.691 148.511C199.476 148.58 199.278 148.692 199.11 148.841C198.171 149.671 198.153 151.963 199.579 152.216C201.384 152.956 203.045 150.104 201.51 148.913C201.174 148.656 200.775 148.494 200.355 148.444Z" fill="#5669FF"/>
<path d="M195.752 269.433C186.204 268.35 176.078 267.519 166.62 269.794L151.331 235.769C154.941 230.463 157.18 222.16 158.714 214.904C166.493 215.987 174.327 212.936 171.583 205.644C169.941 201.366 167.251 196.98 165.97 192.576C164.637 187.725 164.113 182.688 164.418 177.666C165.318 178.022 166.268 178.241 167.233 178.316C170.699 178.551 173.37 176.511 175.879 174.436C181.749 169.486 186.582 163.425 190.103 156.602C189.718 155.656 189.266 154.739 188.749 153.859C190.369 153.286 191.886 152.457 193.243 151.404C193.929 160.609 201.998 166.295 207.99 165.212C216.384 163.714 221.817 158.209 227.051 151.422C229.618 148.387 231.315 144.713 231.961 140.79C232.773 134.22 231.672 125.015 225.282 121.441C223.644 120.548 221.817 120.059 219.952 120.015C218.087 119.971 216.239 120.373 214.56 121.188C210.603 122.86 207.451 126.006 205.77 129.96C202.629 124.979 191.601 128.372 194.579 138.985C192.533 139.761 190.775 141.147 189.543 142.956C188.824 143.979 188.028 144.944 187.161 145.844C186.439 146.494 185.518 146.855 184.76 147.469C184.616 147.354 184.488 147.221 184.381 147.072H184.146C178.79 150.256 173.797 154.015 169.255 158.281C164.977 149.436 157.811 137.632 149.815 132.523C149.707 130.845 149.562 128.913 149.58 128.913C151.909 127.578 154.995 127.325 155.988 121.693C156.686 117.166 156.428 112.542 155.23 108.12C160.194 106.315 161.169 99.3475 159.833 100.792C159.198 101.581 158.302 102.119 157.306 102.308C158.696 100.577 159.41 98.3988 159.313 96.1805C159.217 93.9622 158.318 91.8546 156.782 90.2503C156.719 90.1724 156.631 90.117 156.534 90.0924C156.436 90.0678 156.333 90.0753 156.24 90.1137C156.147 90.1522 156.069 90.2196 156.017 90.3059C155.965 90.3923 155.942 90.493 155.952 90.5933C156.159 91.7535 155.928 92.9491 155.305 93.9491C154.681 94.9492 153.709 95.6828 152.577 96.0083V94.0047C152.58 93.9307 152.558 93.8577 152.514 93.798C152.47 93.7383 152.407 93.6954 152.335 93.6764C152.264 93.6575 152.188 93.6636 152.12 93.6938C152.052 93.7239 151.997 93.7763 151.963 93.8423C151.478 94.6664 150.834 95.3859 150.069 95.9592C149.304 96.5324 148.432 96.9479 147.505 97.1815C147.755 96.3204 147.959 95.4468 148.118 94.5643C148.127 94.4694 148.11 94.3739 148.068 94.2881C148.027 94.2023 147.963 94.1294 147.883 94.0774C147.803 94.0254 147.71 93.9962 147.615 93.9929C147.52 93.9897 147.426 94.0125 147.342 94.0589L143.227 96.5498C143.227 96.5498 143.877 94.8892 141.909 95.0336C141.909 95.0336 135.501 100.99 133.209 100.864C131.567 100.864 130.863 103.86 133.48 106.279C128.661 109.889 130.068 119.762 134.725 123.065C133.552 124.87 133.372 125.069 133.624 125.123C134.271 125.337 134.947 125.447 135.628 125.448C134.865 125.656 134.135 125.972 133.462 126.386C128.837 120.694 123.825 115.326 118.462 110.322C118.047 97.5245 117.596 85.7378 116.477 85.3227C116.17 85.2168 115.857 85.1323 115.538 85.07C116.603 81.6044 115.538 76.6767 111.928 75.1425C125.069 60.522 126.783 60.0888 126.134 57.3813C128.498 58.8794 131.549 57.1827 133.011 55.1972C139.274 52.8868 138.227 38.4107 136.296 40.3782C135.574 41.1182 136.097 43.7896 132.09 43.8979C129.834 43.8979 127.415 43.1218 126.224 44.1687C121.711 44.4033 120.015 51.7858 122.217 54.764C121.489 54.9069 120.8 55.2022 120.195 55.6304L107.434 72.2003C106.964 72.2003 104.907 70.9368 104.365 72.9945C104.251 73.4264 104.251 73.8804 104.365 74.3122C103.83 74.113 103.24 74.113 102.705 74.3122C102.318 74.4247 101.979 74.6636 101.744 74.9907C101.508 75.3179 101.389 75.7144 101.405 76.1172C101.393 76.415 101.469 76.7098 101.622 76.9655C101.359 76.9916 101.113 77.1056 100.923 77.289C100.733 77.4725 100.61 77.7146 100.575 77.9763C100.513 78.3185 100.526 78.67 100.613 79.0066C100.7 79.3432 100.86 79.6568 101.08 79.9257L85.9723 96.3693C85.9723 96.3693 83.8604 98.6977 84.9976 99.8349C84.9976 99.8349 86.0986 100.936 88.6076 98.427L105.593 82.6693C105.596 83.2041 105.741 83.7283 106.014 84.1882C106.287 84.6481 106.677 85.0272 107.145 85.2866C106.692 85.3018 106.24 85.344 105.791 85.4129C105.683 85.4129 105.791 85.5934 105.791 85.5934C116.134 85.2866 116.423 85.792 116.477 85.7739C116.621 89.781 118.137 106.08 117.975 110.214C117.967 110.255 117.967 110.298 117.975 110.34C117.975 110.737 126.44 118.769 133.011 126.585C130.902 128.202 129.155 130.244 127.884 132.578C122.848 140.917 121.025 166.367 120.935 174.76C119.491 187.883 110.105 190.843 107.145 187.269C104.962 184.818 102.544 182.587 99.9249 180.609C98.0116 178.443 94.9612 175.428 92.5786 176.277C96.6218 172.486 103.752 170.862 108.102 162.125C115.051 148.137 114.672 129.401 113.95 137.469C107.919 130.42 103.956 121.839 102.5 112.677C101.044 103.515 102.152 94.1288 105.701 85.5573C105.701 85.3768 105.448 85.2324 105.376 85.431C92.2717 115.177 113.715 137.92 113.805 138.101C113.303 142.823 112.385 147.492 111.062 152.054C106.134 169.67 101.567 168.569 93.2284 174.923C92.0324 175.675 91.0792 176.756 90.4836 178.037C89.888 179.318 89.6753 180.744 89.8711 182.143C66.2075 191.168 70.9727 211.6 70.9727 211.6L77.3083 251.094C58.6085 258.458 40.1433 266.382 21.985 275.01C21.8587 275.01 21.8948 275.335 22.0753 275.317C35.5586 274.198 48.4644 277.682 60.3413 283.638C57.0248 284.493 53.7833 285.616 50.6484 286.995C47.5258 288.223 44.4392 289.576 41.4068 291.02C34.9424 294.14 28.7322 297.761 22.8334 301.85C22.5807 301.85 22.689 302.266 22.8334 302.211C33.1219 300.406 40.7209 299.107 50.5943 300.118C40.9014 305.334 21.245 316.236 21.0825 316.236L22.2558 320.731H98.8961C98.8961 320.731 100.34 315.207 104.401 321.453C104.401 321.453 136.296 326.092 171.818 351.903V346.687C171.818 346.687 146.548 324.467 102.145 316.453C115.231 315.803 128.985 313.782 141.855 317.662C161.62 323.655 175.717 333.907 176.313 333.438C198.839 312.662 191.023 320.911 212.81 301.49C215.751 302.802 218.764 303.947 221.835 304.919C219.308 306.58 198.803 320.334 172.468 346.434L172.757 351.939C172.757 351.939 200.68 321.417 222.087 308.258C222.087 308.258 222.087 304.648 221.979 304.648C219.037 303.511 216.041 302.248 212.954 301.363C219.235 295.804 221.618 295.28 220.643 294.865C216.633 292.839 212.483 291.102 208.225 289.667C213.929 285.028 226.076 275.732 225.788 275.624C213.911 271.364 212.99 271.4 195.752 269.433ZM125.809 44.5838C125.57 44.9231 125.423 45.3176 125.38 45.7298C125.336 46.1421 125.399 46.5586 125.562 46.9399C125.724 47.3212 125.982 47.6547 126.309 47.9089C126.636 48.163 127.023 48.3295 127.433 48.3924C130.808 48.3924 126.982 50.3779 126.837 50.793C126.788 51.0108 126.815 51.239 126.913 51.4395C127.012 51.6399 127.176 51.8004 127.379 51.8941C128.408 52.3814 129.292 51.3706 130.159 51.1721C130.7 51.0457 131.386 51.2984 131.44 51.8399C131.494 52.3814 130.718 52.8507 130.447 53.4464C130.339 53.7282 130.331 54.0391 130.427 54.3257C130.522 54.6123 130.715 54.8566 130.971 55.0167C131.285 55.2121 131.648 55.3124 132.018 55.3055C131.343 56.2162 130.377 56.8686 129.281 57.1543C128.184 57.4399 127.022 57.3417 125.989 56.8759C125.8 56.2093 125.394 55.6251 124.834 55.2163C124.275 54.8074 123.595 54.5974 122.903 54.6196C121.404 53.1576 120.339 46.443 125.809 44.5838ZM106.658 72.3808C106.859 72.4456 107.064 72.4999 107.271 72.5433C108.174 73.0306 108.102 74.5107 108.047 75.0161C107.452 75.0161 107.253 75.702 107.181 76.1713C106.333 75.9367 105.99 76.0269 105.376 75.1244C105.251 74.9672 105.142 74.7979 105.051 74.619C104.239 73.2111 104.889 71.7671 106.658 72.3808ZM102.885 74.619C103.511 74.51 104.155 74.6387 104.69 74.98C104.898 75.4398 105.237 75.8284 105.663 76.0979C106.09 76.3674 106.586 76.5059 107.091 76.4962C107.067 76.7791 107.11 77.0636 107.217 77.3265C107.053 77.6485 106.787 77.9067 106.46 78.0603C106.133 78.214 105.764 78.2543 105.412 78.1749C104.822 78.2336 104.225 78.1604 103.667 77.9606C103.108 77.7608 102.601 77.4395 102.181 77.0197C102.025 76.8289 101.918 76.603 101.869 76.3615C101.82 76.12 101.831 75.8703 101.9 75.6338C101.97 75.3974 102.096 75.1814 102.267 75.0046C102.439 74.8278 102.651 74.6955 102.885 74.619ZM101.441 79.8355C101.15 79.4973 100.978 79.072 100.954 78.6261C100.954 78.0305 101.17 77.146 101.947 77.3807C102.37 77.7932 102.873 78.1137 103.426 78.3218C103.979 78.5299 104.569 78.6213 105.159 78.59C105.041 78.9502 104.841 79.2779 104.574 79.5469C104.307 79.816 103.981 80.0191 103.621 80.14C103.262 80.2609 102.88 80.2963 102.504 80.2435C102.129 80.1906 101.771 80.0509 101.459 79.8355H101.441ZM115.141 84.9256L107.668 85.1241C107.136 84.9163 106.673 84.5651 106.328 84.1094C105.984 83.6537 105.773 83.1114 105.719 82.543L108.932 79.5828C109.636 81.3878 112.109 81.3878 111.351 81.0448C110.592 80.7019 109.437 80.5033 109.185 79.1315C109.159 78.8185 109.256 78.5078 109.455 78.2651C108.845 78.0533 108.267 77.7555 107.741 77.3807C107.499 77.0478 107.396 76.6341 107.453 76.2267C107.51 75.8194 107.723 75.4501 108.047 75.1966H111.513C115.358 77.3807 115.52 80.8824 115.159 84.9256H115.141ZM166.89 277.664C167.301 279.043 167.801 280.393 168.389 281.707C166.628 283.391 164.564 284.726 162.306 285.642C159.959 282.898 160.501 283.494 159.959 282.844C162.458 281.385 164.783 279.647 166.89 277.664ZM167.919 290.1C166.493 291.4 160.699 296.309 158.894 297.32C158.172 296.797 158.894 295.064 159.129 294.486C160.573 291.995 161.62 292.194 161.746 286.021C163.93 285.858 168.136 282.645 168.966 281.58C170.065 283.551 170.937 285.64 171.565 287.808C171.259 288.006 170.861 288.259 170.609 288.457C170.319 287.699 169.891 287.001 169.345 286.4C169.074 286.075 168.695 285.569 168.208 285.804C167.721 286.039 167.558 286.959 167.504 287.392C167.431 288.31 167.554 289.233 167.865 290.1H167.919ZM170.609 210.572C168.804 214.669 162.811 214.579 158.912 214.001C160.086 208.297 160.627 204.29 160.717 203.171C164.887 203.64 171.078 206.023 170.609 210.572ZM195.879 130.592C198.117 127.867 203.315 126.747 205.355 130.267C205.369 130.3 205.392 130.329 205.42 130.351C205.449 130.373 205.482 130.388 205.517 130.394C205.531 130.42 205.552 130.442 205.577 130.458C205.603 130.473 205.632 130.482 205.662 130.482C205.692 130.482 205.721 130.473 205.746 130.458C205.772 130.442 205.793 130.42 205.806 130.394C212.304 117.199 231.654 115.268 231.401 138.462C231.401 145.682 226.636 151.368 221.961 156.386C203.911 175.699 188.641 156.891 195.103 143.317C195.129 143.248 195.129 143.171 195.103 143.101C196.093 142.548 197.175 142.181 198.297 142.018C197.485 145.935 204.452 146.151 205.012 141.566C205.101 140.655 204.876 139.741 204.374 138.976C203.871 138.211 203.122 137.641 202.25 137.361C201.461 137.17 200.627 137.301 199.934 137.724C199.24 138.147 198.743 138.828 198.55 139.617C197.446 138.866 196.095 138.569 194.778 138.787C194.471 135.953 194.02 132.975 195.969 130.592H195.879ZM198.676 139.852C198.89 139.131 199.38 138.525 200.04 138.167C200.7 137.808 201.476 137.726 202.196 137.938C202.836 138.159 203.396 138.566 203.804 139.106C204.212 139.646 204.45 140.295 204.489 140.971C204.615 144.581 198.261 146.079 198.46 142.036H198.64C198.785 142.036 198.983 141.801 199.001 141.747C199.143 141.441 199.197 141.101 199.155 140.766C199.114 140.431 198.979 140.114 198.767 139.852H198.676ZM189.254 143.588C190.416 141.86 191.992 140.451 193.839 139.491C195.229 138.877 199.254 138.931 198.55 141.585C197.234 141.643 195.97 142.117 194.94 142.938C194.326 142.938 193.009 147.505 193.135 150.934C191.673 151.927 190.067 152.739 188.605 153.714C183.172 143.444 183.731 150.61 189.345 143.588H189.254ZM154.959 108.192C157.252 125.737 154.219 125.989 149.292 128.408C149.252 128.428 149.219 128.46 149.197 128.498C149.175 128.536 149.164 128.58 149.165 128.625C149.146 130.651 149.248 132.676 149.472 134.689C147.599 136.866 145.573 138.905 143.407 140.79C139.741 138.122 137.062 134.313 135.79 129.96C136.038 128.433 136.087 126.88 135.935 125.34C137.054 125.34 138.227 125.177 139.202 125.123C139.4 125.123 139.491 124.708 139.472 124.672C138.802 122.782 137.937 120.968 136.891 119.257C136.891 119.437 136.53 119.888 136.44 120.069C136.424 120.059 136.405 120.054 136.386 120.054C136.367 120.054 136.348 120.059 136.332 120.069C133.101 120.069 132.541 115.376 135.447 115.213C137.252 115.105 137.252 117.109 138.57 117.65C138.587 117.658 138.605 117.662 138.624 117.662C138.643 117.662 138.661 117.658 138.678 117.65C139.563 117.867 140.303 117.073 140.483 116.134C140.718 114.564 139.13 112.524 140.79 109.6C146.873 110.773 151.223 109.131 154.977 108.192H154.959ZM133.66 106.261C135.639 107.787 137.933 108.854 140.375 109.383C138.949 111.423 140.213 114.076 140.213 115.304C140.189 115.759 140.017 116.193 139.724 116.542C139.431 116.89 139.032 117.134 138.588 117.235C137.776 116.459 137.541 115.304 136.386 114.871C135.886 114.694 135.342 114.683 134.835 114.839C134.328 114.995 133.884 115.31 133.57 115.737C133.309 116.207 133.178 116.738 133.191 117.275C133.204 117.812 133.36 118.336 133.643 118.793C133.927 119.249 134.327 119.622 134.803 119.871C135.279 120.121 135.813 120.239 136.35 120.213C135.917 121.026 135.429 121.784 134.942 122.56C132.77 120.471 131.441 117.658 131.205 114.654C130.968 111.65 131.842 108.664 133.66 106.261ZM133.949 124.744C135.061 123.282 136.068 121.744 136.964 120.141C137.216 120.791 138.552 123.751 138.985 124.527C138.065 124.545 134.689 124.636 133.949 124.744ZM135.574 125.827C135.574 126.26 135.14 129.762 135.574 130.014C136.032 132.313 136.945 134.497 138.259 136.437C139.573 138.378 141.262 140.036 143.227 141.314C145.758 139.516 147.983 137.322 149.815 134.816C149.847 134.797 149.874 134.771 149.893 134.74C149.912 134.708 149.922 134.672 149.923 134.635C149.923 134.31 149.923 133.643 149.815 132.83C158.371 140.502 161.475 143.859 168.84 158.407C168.966 158.642 169.255 158.515 169.291 158.299C174.309 154.689 178.821 150.375 184.182 147.18C185.987 150.321 187.792 153.317 189.597 156.476C185.338 164.255 176.403 175.591 170.139 177.54C165.771 178.894 160.826 175.248 159.418 173.93L159.309 174.038C160.65 175.569 162.298 176.799 164.147 177.648C162.649 184.525 165.122 192.269 167.576 198.586C168.804 201.727 171.565 205.806 170.988 209.416C170.518 204.399 164.183 200.987 141.007 199.706L142.595 187.72C143.714 181.926 141.404 174.472 141.963 160.916C142.776 141.693 148.173 139.924 152.089 135.285C152.104 135.272 152.115 135.256 152.123 135.239C152.131 135.221 152.136 135.202 152.137 135.183C152.138 135.164 152.135 135.145 152.128 135.127C152.122 135.108 152.111 135.092 152.098 135.078C152.085 135.063 152.07 135.052 152.052 135.044C152.035 135.035 152.016 135.031 151.997 135.03C151.977 135.029 151.958 135.032 151.94 135.039C151.922 135.045 151.905 135.055 151.891 135.068C146.025 140.357 142.866 143.335 141.657 157.667C140.592 169.941 142.776 179.508 142.288 186.06L121.314 174.887C122.74 153.317 123.209 131.332 135.574 125.827ZM91.279 177.63C93.806 175.41 96.2066 177.63 98.3365 179.724C95.626 180.274 92.9595 181.022 90.3584 181.962C90.1702 181.218 90.1553 180.44 90.3149 179.689C90.4745 178.938 90.8043 178.234 91.279 177.63ZM96.3149 215.102C104.419 214.344 119.148 208.731 119.148 208.731C119.148 208.731 119.69 193.081 120.339 191.944C120.989 190.807 120.881 191.944 120.881 191.944C117.632 239.56 130.231 253.152 130.231 253.152L148.01 274.36C146.736 274.779 145.488 275.273 144.274 275.84C139.686 267.535 133.786 260.025 126.801 253.603C123.488 250.527 119.857 247.81 115.971 245.498C112.091 243.242 107.65 241.112 103.066 241.455C102.939 241.239 103.409 241.112 94.2392 244.542L96.3149 215.102ZM23.3207 301.742C29.1063 297.97 35.1362 294.588 41.3707 291.616C44.71 290.028 48.1214 288.566 51.569 287.248C54.6555 286.057 57.9406 285.226 60.955 283.909C75.827 291.703 89.1161 302.201 100.142 314.865C90.1418 307.645 77.2902 304.991 65.4855 302.23C49.9445 298.565 41.2444 298.114 23.3207 301.814V301.742ZM22.4543 316.182C22.6348 316.092 51.4426 300.388 51.587 300.208C61.4604 301.345 88.6437 307.067 100.845 316.218C99.2751 316.218 68.5901 314.648 22.4543 316.272V316.182ZM22.8695 274.83C40.7751 266.406 58.9394 258.585 77.3624 251.365L78.3732 257.61L80.828 257.7C81.1088 259.315 81.5626 260.894 82.1818 262.411C81.2793 262.411 80.7017 264.216 79.0952 266.021C77.9895 267.021 76.7792 267.898 75.4852 268.638C73.8968 269.794 74.33 271.039 76.0628 271.599C79.0772 272.555 83.0662 270.768 85.8279 269.794C86.1469 268.797 86.539 267.826 87.0011 266.888C88.03 265.913 88.2105 268.945 88.1744 269.397C88.9782 269.541 89.7977 269.577 90.6111 269.505C91.043 267.015 90.9384 264.461 90.3043 262.014H89.9252C90.1356 260.725 90.2443 259.421 90.2501 258.115L93.2103 258.224L94.1489 245.047C102.885 241.87 102.885 242.033 103.048 241.87C112.325 242.069 121.098 249.09 127.451 255.155C133.848 261.368 139.352 268.439 143.804 276.165C136.584 279.775 130.718 285.822 124.816 291.093C116.167 298.501 108.332 306.809 101.441 315.875C83.0301 294.215 51.1899 271.436 22.8695 274.92V274.83ZM85.7918 269.415C83.373 270.22 80.8917 270.824 78.3732 271.22C77.579 271.22 73.6622 271.22 75.6296 268.837C78.435 267.583 80.6874 265.35 81.9652 262.556C84.7041 262.963 87.497 262.816 90.1779 262.122C90.1779 263.747 90.3765 262.538 90.3223 269.144C89.7914 269.137 89.2607 269.168 88.7339 269.234C88.9325 265.57 86.5318 265.137 85.7918 269.559V269.415ZM89.6184 261.96C87.2752 262.294 84.9091 262.438 82.5428 262.393C82.5428 262.393 81.7486 259.234 81.2973 257.7L89.9613 258.007C89.7628 259.433 89.6003 262.068 89.6184 262.104V261.96ZM220.012 295.046C212.268 300.009 206.113 307.139 198.893 312.771C190.768 318.864 183.155 325.614 176.132 332.951C165.19 326.432 153.577 321.113 141.494 317.085C131.422 313.998 112 314.449 102.308 316.056C115.141 310.641 124.058 309.883 136.837 311.236C149.617 312.59 158.371 314.612 169.742 322.066C170.5 322.572 182.919 310.027 207.918 289.703C212.033 291.472 216.004 293.385 220.012 295.19V295.046ZM224.975 275.732C206.113 290.353 187.702 305.461 170.23 321.706C170.22 321.667 170.203 321.63 170.178 321.599C170.153 321.568 170.121 321.543 170.085 321.525C159.995 314.81 148.768 311.995 136.837 310.695C124.202 309.359 114.545 310.081 101.82 315.803C108.666 307.322 116.149 299.376 124.202 292.031C137.036 280.299 141.097 277.032 148.353 274.649L156.223 284.071C157.381 283.845 158.496 283.437 159.526 282.862L162.017 285.587C161.927 285.587 161.475 285.696 161.475 285.858C161.006 291.833 161.151 290.28 158.768 294.468C158.414 294.973 158.245 295.586 158.291 296.201C158.338 296.816 158.595 297.397 159.021 297.843C159.129 297.843 168.425 290.19 168.389 290.136C168.352 290.082 167.288 286.309 168.533 286.237C169.454 286.237 170.609 288.692 170.699 288.656C171.119 288.485 171.509 288.247 171.854 287.952C171.35 285.511 170.395 283.184 169.038 281.093C169.038 281.093 168.695 281.237 168.641 281.292C168.19 279.92 167.721 278.548 167.197 277.194C168.407 276.075 169.165 275.281 169.165 275.281L166.746 269.866C176.36 268.458 186.123 268.403 195.752 269.703C212.25 271.815 213.748 271.797 224.975 275.877V275.732Z" fill="#5669FF"/>
<path d="M296.561 193.027V192.919H296.435C296.392 192.912 296.349 192.922 296.312 192.945C296.276 192.968 296.249 193.004 296.237 193.045L274.811 205.03C273.837 210.012 274.992 209.705 273.295 228.387C271.743 230.3 270.768 233.044 265.245 235.102C262.15 236.018 259.132 237.176 256.22 238.567C252.429 240.715 251.436 244.686 255.245 247.592C255.165 247.649 255.092 247.715 255.028 247.791L254.487 248.098C254.414 248.149 254.359 248.221 254.327 248.303C254.295 248.386 254.288 248.477 254.307 248.564C254.327 248.65 254.371 248.729 254.435 248.791C254.499 248.853 254.58 248.894 254.667 248.91C254.902 249.126 255.101 249.018 255.317 248.91C255.326 249.036 255.326 249.163 255.317 249.289C255.317 249.394 255.359 249.495 255.434 249.57C255.508 249.644 255.609 249.686 255.714 249.686C255.82 249.686 255.921 249.644 255.995 249.57C256.07 249.495 256.111 249.394 256.111 249.289V248.531L256.436 248.35C259.126 249.902 262.988 250.643 263.801 254.144C264.396 256.743 262.375 259.92 259.812 261.743C259.812 261.743 259.505 259.198 259.487 259.162C259.36 258.801 258.765 258.801 258.783 259.252V260.101L258.115 258.982C258.051 258.908 257.964 258.859 257.868 258.843C257.772 258.827 257.673 258.845 257.589 258.895C257.505 258.944 257.442 259.022 257.409 259.113C257.376 259.205 257.377 259.306 257.411 259.397C257.88 260.408 258.332 261.418 258.819 262.429C252.285 266.039 249.938 258.007 245.841 254.614C246.364 251.834 246.491 251.888 246.382 251.635C246.398 251.58 246.402 251.521 246.395 251.464C246.388 251.407 246.37 251.351 246.341 251.301C246.313 251.251 246.275 251.207 246.229 251.171C246.183 251.135 246.131 251.109 246.076 251.094C246.02 251.078 245.962 251.074 245.904 251.081C245.847 251.088 245.792 251.107 245.741 251.135C245.691 251.164 245.647 251.202 245.611 251.247C245.576 251.293 245.55 251.345 245.534 251.401C245.408 251.708 245.318 252.032 245.209 252.357C245.101 252.682 245.083 252.538 244.993 252.881L244.794 252.285C244.77 252.197 244.712 252.121 244.632 252.075C244.553 252.03 244.458 252.017 244.37 252.041C244.281 252.065 244.206 252.123 244.16 252.203C244.115 252.283 244.102 252.377 244.126 252.466C244.036 252.646 244.126 252.935 244.289 253.531C243.419 252.98 242.486 252.537 241.509 252.213C238.97 251.469 236.247 251.661 233.838 252.754C233.693 252.068 233.585 251.365 233.495 250.679C233.405 249.993 232.845 250.354 232.755 250.679C232.642 250.728 232.551 250.818 232.502 250.931C232.376 250.751 232.231 250.462 231.888 250.606C231.832 250.587 231.771 250.585 231.713 250.6C231.656 250.615 231.603 250.646 231.563 250.69C231.523 250.734 231.496 250.789 231.487 250.848C231.477 250.907 231.485 250.967 231.509 251.022C231.961 251.744 232.394 252.466 232.827 253.188C229.793 254.787 227.081 256.935 224.831 259.523C224.809 259.561 224.801 259.605 224.807 259.648C224.812 259.691 224.832 259.731 224.863 259.762C224.894 259.792 224.934 259.812 224.977 259.818C225.02 259.824 225.064 259.815 225.102 259.794C227.536 257.627 230.165 255.687 232.953 254C233.098 254.866 233.278 255.805 233.459 256.581C233.459 257.068 234.379 256.96 234.307 256.473C234.316 256.365 234.316 256.256 234.307 256.148C234.375 256.084 234.425 256.003 234.451 255.913L234.614 256.166C234.661 256.253 234.735 256.323 234.826 256.363C234.916 256.404 235.018 256.414 235.114 256.391C235.211 256.369 235.297 256.315 235.36 256.238C235.423 256.162 235.459 256.066 235.462 255.967V255.877C235.463 255.828 235.452 255.779 235.43 255.735C235.408 255.691 235.376 255.653 235.336 255.624C234.975 254.897 234.571 254.192 234.127 253.512C235.802 252.732 237.658 252.422 239.496 252.616C241.334 252.81 243.084 253.5 244.559 254.614V254.758C244.559 255.155 244.415 255.552 244.325 255.949C244.235 256.346 244.18 256.635 244.126 256.978C244.072 257.321 244.92 257.826 245.011 257.231V256.978C245.084 256.923 245.141 256.848 245.173 256.762L245.715 258.169C245.913 258.675 246.725 258.476 246.545 257.935C246.364 257.393 246.058 256.455 245.805 255.733C249.27 259.162 252.158 266.779 258.909 263.332C259.036 264.541 259.054 264.902 259.216 266.4C259.237 266.502 259.292 266.594 259.373 266.66C259.453 266.726 259.554 266.762 259.658 266.762C259.762 266.762 259.863 266.726 259.944 266.66C260.024 266.594 260.08 266.502 260.1 266.4C260.1 266.021 260.1 265.642 260.01 265.263C260.029 265.186 260.029 265.106 260.01 265.028C260.057 265.047 260.108 265.047 260.155 265.028C260.461 265.227 260.985 265.028 260.841 264.541C260.591 263.889 260.307 263.251 259.992 262.628C263.187 260.426 265.678 256.238 263.855 252.809C262.501 250.282 259.523 249.469 256.888 248.134C257.736 247.556 259.072 247.321 258.277 246.69C258.043 245.769 257.267 246.69 256.021 247.321V246.563C256.021 246.506 255.998 246.451 255.958 246.41C255.917 246.369 255.862 246.347 255.805 246.347C255.747 246.347 255.692 246.369 255.651 246.41C255.611 246.451 255.588 246.506 255.588 246.563C255.588 246.816 255.498 247.051 255.444 247.303C252.104 244.848 252.935 241.257 256.364 239.253C259.794 237.249 263.963 236.509 267.627 234.993C268.982 234.383 270.203 233.51 271.219 232.426C272.235 231.342 273.026 230.067 273.548 228.676L298.619 216.257C298.667 216.269 298.717 216.263 298.761 216.239C298.804 216.216 298.837 216.177 298.854 216.131C298.493 214.488 296.742 193.135 296.561 193.027ZM286.381 210.86L273.746 228.297C274.107 225.012 275.551 209.128 275.046 205.175L286.417 210.86L296.309 193.514C296.721 201.022 297.51 208.504 298.673 215.932L286.381 210.86ZM33.934 230.481L31.9665 227.214L31.2445 230.77L27.9955 231.492L30.5586 233.315L29.8005 236.78L32.8329 234.289L36.3888 235.914L34.7462 232.647L36.9123 229.975L33.934 230.481ZM222.25 227.394L219.47 222.972L218.441 227.791L213.784 228.766L217.43 231.239L216.365 235.95L220.679 232.556L225.751 234.777L223.405 230.354L226.473 226.708L222.25 227.394ZM95.1054 37.2916C97.0548 37.6165 99.5457 37.1833 100.647 39.1868L100.105 39.5659C99.9955 40.0673 100.066 40.5913 100.304 41.046C100.636 41.7559 101.108 42.3918 101.691 42.9158C102.274 43.4398 102.956 43.8413 103.697 44.0964L104.112 43.9881C105.141 44.656 106.549 45.1253 107.524 44.0784C108.499 43.0315 107.849 41.3709 107.867 41.3348C109.943 38.4648 105.629 35.7212 105.629 35.7212L105.123 36.0822C103.21 32.4722 108.372 29.0066 103.86 22.7794C98.6071 15.5594 84.6184 18.8986 88.6255 31.1546C89.0306 32.6776 89.8511 34.0581 90.9954 35.1418C92.1397 36.2255 93.5626 36.9698 95.1054 37.2916ZM102.181 38.1399C99.8076 35.773 97.2484 33.6 94.5278 31.6419C95.2859 31.8224 95.7372 32.2195 96.3328 31.5517V31.299C97.0368 29.494 97.47 31.3892 98.3905 30.0174V29.6384C98.8959 28.9164 98.8237 29.512 99.3111 29.4579C99.5434 29.4723 99.7763 29.4417 99.997 29.3676C100.557 29.1149 100.448 28.2124 101.423 28.3207C101.863 31.3181 102.644 34.2553 103.751 37.075L102.181 38.1399ZM107.397 41.9124C107.543 42.2541 107.59 42.6298 107.532 42.9968C107.475 43.3637 107.315 43.7072 107.073 43.9881C106.314 44.6921 105.268 44.295 104.546 43.8257C105.626 43.4062 106.6 42.7528 107.397 41.9124ZM104.979 26.624C105.773 30.234 102.885 33.844 104.708 36.371L104.112 36.7862C102.524 31.5336 100.737 23.4292 101.297 27.8695C99.5999 27.7612 100.015 28.4471 99.7082 28.6998C99.4014 28.9525 98.571 28.6998 98.0115 28.9705C97.849 28.9705 98.0115 29.3496 97.849 29.4218C96.748 30.577 97.0909 29.7286 96.1704 30.0355C95.8274 30.1618 95.8094 30.2521 95.6469 30.5409C95.4845 30.8297 96.0801 31.1726 95.4845 31.4975C95.4845 31.4975 94.4917 31.3531 94.1127 31.3351C90.5027 28.5193 98.1559 35.4505 101.676 38.5551L100.954 39.0605C98.8418 34.8368 89.5099 40.2337 88.5172 27.707C87.723 17.3102 102.885 16.8229 104.979 26.624ZM234.09 311.995C234.049 312.415 234.156 312.837 234.394 313.187C234.631 313.536 234.984 313.792 235.39 313.908C237.448 314.07 237.628 312.59 237.628 312.59L238.549 309.161L234.939 308.782L234.09 311.995ZM94.6722 9.20579C94.6722 8.93504 94.1488 8.97114 94.1849 9.20579C94.3895 11.1674 94.715 13.1145 95.1596 15.0359C95.3762 15.6677 96.5855 15.8121 94.6722 9.20579ZM104.509 19.4221C105.309 18.0047 105.916 16.4872 106.314 14.9096C106.308 14.8624 106.29 14.8176 106.261 14.7798C106.232 14.742 106.194 14.7124 106.15 14.6941C106.106 14.6758 106.058 14.6694 106.011 14.6755C105.964 14.6817 105.919 14.7001 105.881 14.7291C105.001 16.1036 104.326 17.5996 103.878 19.1694C103.769 19.5123 104.347 19.8553 104.509 19.4221ZM84.4921 20.108C84.5317 20.1232 84.5745 20.1283 84.6166 20.1226C84.6586 20.117 84.6986 20.1008 84.7328 20.0756C84.7669 20.0504 84.7942 20.017 84.8121 19.9785C84.83 19.94 84.8378 19.8976 84.835 19.8553C83.6275 17.9949 82.2301 16.2649 80.6654 14.693C80.4669 14.5305 80.1239 14.693 80.2864 14.9818C80.9362 15.794 83.6798 19.2957 84.4921 20.108ZM76.6042 32.761C82.6148 31.9307 82.0192 30.956 81.604 30.956C79.799 31.1726 78.1745 31.8946 76.4598 32.2376C76.0988 32.2917 76.2612 32.8152 76.6042 32.761ZM88.806 39.8908C88.9684 39.6742 88.6977 39.3493 88.445 39.4395C87.0122 40.3349 85.6486 41.3364 84.3657 42.4358C84.0769 42.6705 84.3657 43.1398 84.7448 42.9412C86.1705 42.024 87.5278 41.0045 88.806 39.8908ZM95.1054 41.6055C94.7986 43.1217 94.8527 44.7282 94.6361 46.2624C94.6361 46.6415 95.1596 46.822 95.2318 46.4249C95.6367 44.8526 95.783 43.2248 95.665 41.6055C95.665 41.5313 95.6355 41.4602 95.5831 41.4077C95.5306 41.3552 95.4594 41.3258 95.3852 41.3258C95.311 41.3258 95.2399 41.3552 95.1874 41.4077C95.1349 41.4602 95.1054 41.5313 95.1054 41.6055ZM88.3367 62.7601C88.7712 62.7965 89.2085 62.7398 89.6195 62.5938C90.0304 62.4479 90.4055 62.216 90.7197 61.9137C91.034 61.6114 91.2802 61.2456 91.442 60.8406C91.6038 60.4357 91.6774 60.0009 91.6579 59.5653C91.333 55.1069 84.9794 55.6845 84.8169 59.3306C84.8623 60.241 85.2503 61.1006 85.9032 61.7367C86.5561 62.3729 87.4254 62.7385 88.3367 62.7601ZM90.8998 59.1501C90.9901 59.5233 90.9903 59.9127 90.9003 60.286C90.8103 60.6592 90.6327 61.0057 90.3822 61.2967C90.1318 61.5878 89.8156 61.815 89.4599 61.9596C89.1042 62.1042 88.7192 62.1621 88.3367 62.1284C87.6096 62.1438 86.9023 61.891 86.3497 61.4183C85.7971 60.9456 85.4378 60.286 85.3404 59.5653C85.3794 58.8869 85.6625 58.2456 86.1372 57.7595C86.612 57.2735 87.2465 56.9755 87.9237 56.9205C88.601 56.8655 89.2752 57.0573 89.8222 57.4604C90.3691 57.8636 90.7519 58.4509 90.8998 59.114V59.1501ZM171.98 99.6363C172.125 100.069 190.951 100.882 195.102 100.791C194.562 101.297 194.177 101.945 193.992 102.661C193.807 103.377 193.829 104.131 194.056 104.835C194.597 106.188 196.294 106.459 197.557 106.64C204.326 107.542 211.059 108.896 218.549 107.38C228.766 105.322 223.351 95.1779 217.196 99.8529C217.425 98.5278 217.254 97.1643 216.704 95.9371C216.154 94.71 215.25 93.6752 214.107 92.9653C212.965 92.2555 211.637 91.9031 210.293 91.9532C208.949 92.0033 207.65 92.4537 206.564 93.2466C206.564 88.6438 199.741 84.7992 196.853 88.9326C197.593 82.3624 191.763 78.229 185.464 79.4564C178.695 80.7379 177.486 88.4453 180.5 93.6437C179.585 92.9028 178.453 92.4805 177.276 92.4408C176.099 92.4011 174.941 92.7462 173.978 93.4237C173.015 94.1012 172.299 95.0742 171.938 96.1953C171.578 97.3164 171.593 98.5244 171.98 99.6363ZM206.925 93.6798C211.799 90.7737 217.051 93.6798 216.582 100.376C216.582 100.376 217.033 100.557 217.069 100.521C222.827 95.8999 227.52 104.762 219.145 106.676C212.34 108.228 204.164 107.217 197.178 105.99C191.763 105.033 195.842 97.8493 199.94 100.665C200.247 100.882 200.355 98.4089 202.395 98.3908C203.387 98.3908 204.741 98.7338 205.066 99.7807C205.066 99.7807 205.427 99.3114 205.391 99.2031C204.922 97.1815 204.904 94.8891 206.925 93.6798ZM196.095 89.5824C196.095 89.9434 196.655 89.6907 196.673 89.5824C199.94 85.3407 205.698 89.059 205.878 93.5715C205.16 94.1021 204.644 94.861 204.415 95.7237C204.185 96.5863 204.256 97.5014 204.615 98.3186C202.81 97.1093 199.904 97.6327 199.705 100.124C199.393 99.8513 199.029 99.6439 198.636 99.5135C198.242 99.3832 197.826 99.3325 197.413 99.3644C197 99.3963 196.597 99.5102 196.228 99.6995C195.859 99.8887 195.532 100.149 195.265 100.467C188.045 99.4558 173.244 99.546 172.468 99.2031C171.692 98.8601 172.468 95.9541 173.009 95.0877C173.456 94.4978 174.028 94.0137 174.683 93.6698C175.338 93.3258 176.061 93.1305 176.8 93.0978C177.54 93.0651 178.277 93.1957 178.96 93.4803C179.643 93.765 180.255 94.1967 180.753 94.7447C181.042 94.9974 181.132 94.2754 181.114 94.2574C172.738 75.1605 198.712 76.2074 196.185 89.5824H196.095ZM215.806 58.1574C215.474 55.8087 214.5 53.5974 212.99 51.7677C206.095 45.4863 191.691 52.4175 198.893 66.2077C199.695 67.4697 200.581 68.6759 201.546 69.8177C203.171 72.1642 203.911 77.4167 204.254 80.2506C204.254 80.3224 204.282 80.3913 204.333 80.442C204.384 80.4928 204.453 80.5213 204.525 80.5213H209.705C210.553 80.5213 209.434 74.0594 210.499 71.1173C212.051 66.6048 217.015 63.5182 215.806 58.1574ZM204.795 50.1612C205.986 49.911 207.215 49.911 208.405 50.1612C209.646 53.5086 210.192 57.0733 210.012 60.6385C209.832 64.2038 208.929 67.6952 207.358 70.9007H205.896C204.327 67.6958 203.42 64.2069 203.231 60.6432C203.042 57.0796 203.574 53.5144 204.795 50.1612ZM198.857 64.7456C196.709 59.3306 196.673 54.6196 201.528 51.515C198.568 55.3596 199.272 65.5398 205.138 70.9187C204.308 70.9187 203.496 70.666 202.665 70.5758C201.272 68.716 200 66.7686 198.857 64.7456ZM209.272 80.052C208.117 80.1784 206.997 80.052 205.842 80.052C204.687 80.052 204.922 80.6838 204.326 76.9294C206.078 77.2088 207.863 77.2088 209.615 76.9294C209.643 77.981 209.528 79.0316 209.272 80.052ZM209.615 76.442C207.81 76.6767 206.005 76.442 204.2 76.6225C203.803 74.6489 203.285 72.7018 202.647 70.7924C205.035 71.6044 207.619 71.6423 210.03 70.9007C209.583 72.7178 209.443 74.5968 209.615 76.4601V76.442ZM210.283 70.3953C209.676 70.4576 209.073 70.554 208.477 70.6841C214.29 64.9803 214.56 55.0167 211.745 51.4428C214.615 53.4463 216.456 59.7638 214.723 63.2294C213.459 65.7203 211.438 67.7961 210.355 70.4494L210.283 70.3953ZM225.011 83.7342C225.39 84.6367 225.733 78.9149 229.632 78.4275C229.777 78.4275 229.903 78.2831 229.777 78.1568C228.982 77.3806 226.762 77.3445 226.491 72.5432C226.491 72.3447 226.112 72.2725 226.112 72.5432C226.004 77.9582 219.362 78.1207 220.697 78.5178C223.982 79.4203 224.542 82.6332 225.011 83.7342ZM226.293 74.0053C226.344 74.8395 226.595 75.6492 227.026 76.3656C227.456 77.082 228.053 77.684 228.766 78.1207C227.88 78.608 227.104 79.2707 226.483 80.0683C225.862 80.8659 225.411 81.7816 225.156 82.7595C224.858 81.8181 224.373 80.9463 223.731 80.1959C223.089 79.4455 222.303 78.8318 221.419 78.3914C222.543 78.1477 223.584 77.6149 224.439 76.8456C225.293 76.0764 225.933 75.0973 226.293 74.0053ZM248.783 103.77C248.639 103.77 248.675 104.059 248.783 104.095C249.798 104.319 250.707 104.879 251.362 105.686C252.018 106.492 252.381 107.496 252.393 108.535C252.393 108.661 252.664 108.697 252.7 108.535C252.736 108.372 252.7 104.925 254.938 103.589C255.083 103.589 255.155 103.192 254.938 103.21C252.483 103.571 251.057 98.6796 251.039 98.6074C251.021 98.5352 250.678 98.4991 250.733 98.6074C250.938 99.5642 250.864 100.56 250.518 101.476C250.172 102.391 249.57 103.188 248.783 103.77ZM251.382 100.16C251.96 101.604 252.899 103.409 254.306 103.643C253.436 104.482 252.855 105.575 252.646 106.766C252.054 105.463 250.98 104.441 249.65 103.914C250.677 102.902 251.294 101.545 251.382 100.106V100.16ZM128.516 76.2435V76.4059C129.413 76.5704 130.239 77.0038 130.883 77.6486C131.528 78.2934 131.962 79.119 132.126 80.0159C132.138 80.052 132.161 80.0835 132.192 80.1058C132.222 80.1281 132.259 80.1401 132.297 80.1401C132.335 80.1401 132.373 80.1281 132.403 80.1058C132.434 80.0835 132.457 80.052 132.469 80.0159C132.974 78.3734 133.317 76.6045 136.079 76.2074C136.187 76.2074 136.223 75.9727 136.079 75.9727C132.812 75.6478 132.18 71.6046 132.054 71.3158C131.927 71.027 131.747 71.3158 131.765 71.3158C132.252 74.3843 129.491 75.6839 128.516 76.2435ZM132.27 72.9223C132.491 73.5988 132.853 74.2206 133.332 74.7465C133.811 75.2724 134.397 75.6904 135.05 75.9727C134.417 76.2487 133.853 76.6625 133.401 77.184C132.948 77.7055 132.617 78.3215 132.433 78.9871C132.126 78.2967 131.657 77.6904 131.067 77.2192C130.476 76.748 129.781 76.4257 129.039 76.2796C129.814 76.0314 130.515 75.5946 131.079 75.0086C131.643 74.4226 132.052 73.7057 132.27 72.9223ZM296.886 141.891C295.081 135.682 294.829 129.906 294.107 130.628C291.832 132.884 286.887 137.361 286.887 137.379C286.887 137.397 293.475 140.556 296.417 142.216C296.489 142.27 296.941 142.054 296.886 141.891ZM287.591 137.271C290 135.407 292.219 133.309 294.215 131.007C294.424 134.584 295.11 138.117 296.255 141.512C293.294 139.942 290.479 138.985 287.591 137.271ZM279.775 141.133C279.281 142.912 278.902 144.721 278.638 146.548C278.638 146.927 279.143 147.09 279.215 146.711C279.688 144.874 279.966 142.992 280.046 141.097C280.032 141.07 280.011 141.048 279.984 141.034C279.958 141.02 279.927 141.015 279.897 141.019C279.868 141.023 279.84 141.036 279.818 141.056C279.796 141.077 279.781 141.104 279.775 141.133ZM277.212 154.454C277.796 152.689 278.231 150.877 278.511 149.039C278.511 148.804 278.187 148.786 278.114 149.039C277.535 150.769 277.1 152.544 276.815 154.346C276.817 154.391 276.834 154.435 276.862 154.471C276.891 154.506 276.93 154.532 276.974 154.544C277.018 154.556 277.065 154.554 277.108 154.537C277.15 154.521 277.187 154.492 277.212 154.454ZM283.728 149.96C283.795 149.981 283.868 149.977 283.933 149.948C283.997 149.919 284.049 149.867 284.078 149.802C284.107 149.738 284.111 149.665 284.09 149.597C284.069 149.53 284.023 149.473 283.963 149.436C282.535 148.711 280.999 148.223 279.414 147.992C278.096 148.01 282.825 149.815 283.728 149.96ZM276.923 146.981C275.353 146.548 273.8 145.989 272.23 145.574C271.887 145.574 270.66 145.916 276.743 147.649C276.831 147.673 276.926 147.661 277.005 147.615C277.085 147.57 277.143 147.494 277.167 147.406C277.191 147.317 277.178 147.223 277.133 147.143C277.087 147.063 277.012 147.005 276.923 146.981ZM231.202 170.284C228.621 171.602 226.455 175.916 227.43 178.713C227.43 178.713 227.574 178.84 227.61 178.858C231.942 179.291 258.295 179.255 266.996 179.074C267.058 179.073 267.118 179.054 267.171 179.021C267.223 178.988 267.266 178.94 267.294 178.885C267.321 178.829 267.333 178.767 267.329 178.705C267.324 178.643 267.302 178.584 267.266 178.533C267.546 177.322 267.431 176.054 266.937 174.914C266.443 173.773 265.597 172.821 264.523 172.197C263.319 171.739 262.03 171.544 260.745 171.625C259.459 171.705 258.205 172.061 257.068 172.667C258.314 170.446 257.068 167.992 255.552 166.078C253.747 163.732 251.761 161.476 248.639 161.259C245.878 160.888 243.076 161.529 240.751 163.064C238.459 164.977 238.657 167.793 239.054 170.446C237.321 168.082 233.531 169.093 231.202 170.284ZM240.823 163.966C241.766 163.106 242.881 162.456 244.093 162.058C245.306 161.661 246.589 161.525 247.858 161.659C249.127 161.794 250.354 162.197 251.456 162.84C252.558 163.484 253.511 164.353 254.252 165.392C255.913 167.45 258.187 170.338 256.184 172.937C255.949 173.244 256.743 173.19 256.761 173.172C264.613 170.699 266.617 173.389 266.743 178.406C258.115 178.894 229.632 178.244 227.665 178.533C227.105 169.959 236.69 167.703 239.343 171.566C239.451 171.728 239.686 171.566 239.523 171.259C239.271 168.84 238.982 165.844 240.823 163.966ZM259.613 194.471C259.812 194.345 259.613 194.038 259.523 194.092C256.454 195.175 254.667 190.807 254.541 190.626C254.415 190.446 254.216 190.626 254.27 190.735C255.119 192.865 254.866 195.373 252.465 196.276C252.433 196.287 252.406 196.308 252.386 196.335C252.367 196.363 252.356 196.396 252.356 196.429C252.356 196.463 252.367 196.496 252.386 196.524C252.406 196.551 252.433 196.572 252.465 196.583C253.479 196.432 254.514 196.642 255.388 197.176C256.262 197.711 256.921 198.536 257.249 199.507C257.249 199.724 257.682 199.687 257.664 199.507C257.646 199.326 257.14 195.915 259.613 194.471ZM257.176 198.261C256.772 197.669 256.235 197.18 255.609 196.832C254.982 196.484 254.283 196.288 253.566 196.258C254.136 195.808 254.576 195.215 254.842 194.54C255.108 193.865 255.191 193.131 255.083 192.413C255.448 193.061 255.97 193.606 256.601 194C257.231 194.394 257.95 194.624 258.693 194.67C258.216 195.139 257.837 195.698 257.577 196.315C257.317 196.931 257.181 197.592 257.176 198.261ZM188.911 264.722C193.045 252.195 203.044 241.257 213.893 234.037C214.235 233.802 213.893 233.26 213.568 233.477C191.077 248.44 187.558 268.945 188.911 264.722ZM182.052 251.96C188.207 242.556 194.146 238.784 203.983 233.531C204.362 233.333 203.983 232.773 203.658 232.972C195.301 237.141 186.077 243.188 181.872 251.852C181.865 251.875 181.865 251.9 181.874 251.923C181.883 251.945 181.899 251.965 181.919 251.977C181.94 251.99 181.965 251.995 181.989 251.992C182.013 251.989 182.035 251.977 182.052 251.96ZM210.066 225.986C210.914 225.878 210.192 224.633 202.521 226.383C186.15 229.993 182.359 237.538 183.244 236.564C191.131 227.936 202.756 226.925 210.066 225.986ZM44.5474 192.233C41.9843 193.587 39.9807 191.547 39.2948 189.236C39.2948 189.056 38.9158 189.074 38.9338 189.236C39.4031 194.904 48.0672 194.76 46.8036 187.431C45.9131 183.742 44.3992 180.232 42.3272 177.053C37.7606 169.273 33.7174 166.439 34.5296 167.45C39.2226 173.28 50.9371 188.875 44.5474 192.233ZM65.6298 202.269C66.7128 201.601 66.1171 199.904 66.2254 198.875C66.2254 198.622 65.8464 198.586 65.7922 198.875C65.7232 199.402 65.6811 199.932 65.6659 200.464C65.3049 202.269 63.5721 201.781 62.3627 201.204C60.493 200.108 58.9142 198.579 57.76 196.745C55.4315 193.514 53.4099 190.031 51.3883 186.619C38.7533 165.555 37.8509 166.873 38.1035 167.179C44.3127 175.248 49.114 184.11 54.4749 192.738C56.4784 195.987 58.6625 200.066 62.3266 201.763C63.175 202.16 64.7273 202.81 65.6298 202.269ZM46.0455 172.829C45.9192 172.667 45.6484 172.829 45.7568 173.046C54.4388 185.464 53.049 181.258 46.0455 172.829ZM26.5515 160.356C22.6888 166.187 29.4395 168.894 29.4395 168.894C28.9446 168.17 28.7489 167.283 28.8936 166.418C29.0383 165.554 29.5121 164.778 30.2157 164.255C30.7346 164.611 31.2774 164.931 31.8402 165.212C33.5315 164.626 35.0425 163.612 36.2263 162.27C36.0325 161.602 35.7725 160.955 35.4502 160.338C36.2047 159.836 37.1261 159.649 38.017 159.817C38.9078 159.986 39.697 160.497 40.2154 161.241C40.2154 161.241 40.2154 153.732 32.9954 155.519C24.9451 141.386 12.3642 136.657 25.27 158.227C25.6129 158.949 26.0642 159.653 26.5515 160.356ZM24.8548 146.079C26.8945 148.353 31.0821 150.628 35.8112 162.017C34.609 163.126 33.2896 164.1 31.8763 164.923C23.7899 156.295 24.2953 154.617 20.8477 148.949L24.8548 146.079ZM67.3084 114.401C63.6984 114.943 58.0307 118.878 59.4025 123.155C58.2611 122.233 56.8526 121.703 55.3861 121.645C53.9196 121.586 52.4734 122.002 51.262 122.831C49.787 123.962 48.7152 125.538 48.2049 127.326C47.6946 129.114 47.7729 131.018 48.4281 132.758H80.7557C83.8422 132.758 84.8711 118.715 74.1133 122.975C74.5337 121.943 74.6722 120.819 74.5146 119.716C74.357 118.613 73.909 117.572 73.2164 116.699C72.5239 115.827 71.6118 115.154 70.5736 114.75C69.5355 114.346 68.4086 114.226 67.3084 114.401ZM73.7703 123.679C79.4741 120.069 84.9974 126.152 80.8279 132.397C80.8279 132.397 50.5761 131.964 48.9335 132.289C46.1177 123.264 55.8467 118.896 59.8899 124.311C60.0162 124.491 59.8899 123.715 59.7455 123.516C58.0668 117.524 68.2651 111.748 72.6151 116.567C75.5031 119.744 72.922 124.238 73.7703 123.679ZM38.1035 74.9078C37.9961 75.0917 37.9306 75.2971 37.9119 75.5094C37.8932 75.7216 37.9216 75.9353 37.9952 76.1352C37.3274 76.8752 38.4826 79.0051 40.2154 77.8319C43.239 79.0934 46.4321 79.9023 49.6916 80.2325C48.7711 83.1566 46.6592 90.8279 49.2945 92.3802C51.9298 93.9325 55.594 85.1602 56.677 82.5429C57.4427 82.279 58.1527 81.8751 58.7708 81.3516C63.3736 81.7307 73.4274 82.0556 70.3408 77.5611C69.0954 75.7561 61.9656 74.4024 59.7996 74.0594C61.009 70.3592 64.258 59.2765 58.861 61.4244C56.5687 62.3089 54.3846 67.6878 52.8685 71.4602C51.8886 71.6872 50.9935 72.188 50.2873 72.9042C47.3451 72.6154 39.3129 72.2003 38.1035 74.9078ZM59.944 74.4746C62.0378 74.7995 69.2037 76.2796 69.9618 77.7777C72.0195 81.7126 63.5179 80.9906 59.3303 80.756C60.1611 79.9519 60.6789 78.8787 60.7913 77.728C60.9038 76.5774 60.6034 75.4242 59.944 74.4746ZM58.9693 61.8396C63.3735 60.558 60.5216 69.6372 59.2401 73.7345C58.502 72.916 57.5863 72.2774 56.5632 71.8675C55.5401 71.4577 54.4368 71.2875 53.3377 71.37C54.15 69.3664 56.9658 62.3811 58.9693 61.8035V61.8396ZM56.0633 82.7776C51.0273 96.5678 45.865 94.1852 50.1068 80.4852C50.7197 81.4574 51.6326 82.2035 52.7073 82.6106C53.782 83.0177 54.9601 83.0637 56.0633 82.7415V82.7776ZM50.0165 73.3374C49.3802 74.2604 49.0057 75.3383 48.9326 76.457C48.8595 77.5756 49.0906 78.6932 49.6014 79.691C49.6014 79.691 42.0926 78.5178 40.5764 77.4889C41.172 76.9294 40.7569 75.3771 38.5729 75.6839C38.2119 74.6912 39.6558 74.1316 40.2876 73.8789C43.4595 73.0386 46.7675 72.8422 50.0165 73.3013V73.3374ZM36.5874 52.0565C37.4492 52.4254 38.2057 53.003 38.7886 53.7372C39.3716 54.4714 39.7626 55.3391 39.9266 56.2621C40.4139 57.291 39.9266 52.2009 42.7965 51.9843C42.9229 51.9843 42.9951 51.7677 42.7965 51.6955C41.533 51.0457 39.7822 50.8471 38.6631 45.8653C38.6631 45.5765 38.0855 45.7209 38.2299 45.9917C39.349 48.1577 36.5512 51.8038 36.5332 51.8038C36.4997 51.811 36.4704 51.8312 36.4518 51.8599C36.4332 51.8887 36.4267 51.9237 36.4339 51.9572C36.4411 51.9907 36.4613 52.02 36.4901 52.0386C36.5188 52.0572 36.5538 52.0637 36.5874 52.0565ZM38.8256 47.9772C39.024 48.8012 39.3997 49.5721 39.9265 50.2361C40.4534 50.9001 41.1186 51.4413 41.876 51.8218C41.325 52.1205 40.8557 52.5499 40.5095 53.0723C40.1633 53.5948 39.9508 54.1943 39.8905 54.8181C39.6849 54.0884 39.2891 53.4264 38.7436 52.8999C38.1981 52.3734 37.5225 52.0014 36.7859 51.8218C37.9061 50.8273 38.6302 49.4623 38.8256 47.9772ZM36.3346 32.4903C39.5715 31.7531 42.7554 30.8004 45.865 29.6384C47.7964 30.6131 40.2334 22.4184 37.3635 20.4329C37.2372 20.3426 37.0928 20.5412 37.183 20.6495C36.6234 24.4789 36.2619 28.3347 36.1 32.2015C36.1 32.2015 36.2624 32.4903 36.3346 32.4903ZM37.3815 20.83C43.4824 26.9489 43.1214 27.2377 45.4318 29.2593C42.4716 30.216 39.5475 31.4614 36.5332 32.1834C36.7498 28.3749 37.0205 24.5844 37.3815 20.8119V20.83ZM35.721 127.433C35.7521 127.472 35.7971 127.496 35.8462 127.501C35.8953 127.506 35.9444 127.491 35.9827 127.46C36.021 127.429 36.0453 127.384 36.0504 127.335C36.0555 127.286 36.0409 127.237 36.0098 127.199C35.853 126.302 35.9247 125.381 36.2181 124.52C36.5115 123.659 37.0171 122.885 37.6884 122.271C37.905 122.072 37.6884 121.657 37.4898 121.802C34.5296 123.444 32.4539 120.123 32.4178 119.997C32.3817 119.87 32.0387 119.997 32.111 120.123C33.5008 123.733 31.3889 125.087 30.4684 125.538C30.3781 125.538 30.4684 125.755 30.4684 125.719C31.3994 125.293 32.4562 125.234 33.4292 125.551C34.4022 125.869 35.2202 126.541 35.721 127.433ZM32.8149 121.224C33.3189 121.79 33.9629 122.212 34.6821 122.45C35.4014 122.688 36.1706 122.732 36.9123 122.578C35.958 123.637 35.4361 125.015 35.4502 126.441C35.0187 125.967 34.4814 125.603 33.8823 125.377C33.2831 125.151 32.6391 125.07 32.0026 125.141C32.4615 124.612 32.777 123.974 32.9192 123.288C33.0614 122.603 33.0255 121.892 32.8149 121.224ZM58.139 162.017C58.0488 162.017 58.139 162.198 58.139 162.198C59.0387 161.742 60.0792 161.651 61.0441 161.944C62.0091 162.236 62.824 162.89 63.3194 163.768C63.4458 163.948 63.6984 163.768 63.6082 163.533C63.4754 162.638 63.5585 161.723 63.8504 160.866C64.1424 160.009 64.6349 159.234 65.2868 158.606C65.4854 158.407 65.2868 158.028 65.0883 158.136C64.638 158.358 64.1478 158.487 63.6468 158.516C63.1457 158.545 62.6439 158.474 62.171 158.305C61.6981 158.137 61.2638 157.876 60.8937 157.537C60.5236 157.197 60.2252 156.788 60.0162 156.331C60.0162 156.169 59.6372 156.331 59.7094 156.458C61.2256 160.068 59.0776 161.476 58.139 162.017ZM60.4855 157.559C60.9895 158.124 61.6335 158.547 62.3528 158.785C63.0721 159.022 63.8412 159.066 64.5829 158.912C63.7213 160.021 63.2289 161.372 63.175 162.775C62.751 162.292 62.2148 161.921 61.6136 161.695C61.0123 161.468 60.3646 161.393 59.7274 161.476C60.1771 160.941 60.4827 160.301 60.6154 159.616C60.7481 158.93 60.7034 158.222 60.4855 157.559ZM25.7393 183.027C25.7704 183.066 25.8155 183.09 25.8646 183.095C25.9136 183.1 25.9627 183.085 26.001 183.054C26.0393 183.023 26.0637 182.978 26.0688 182.929C26.0738 182.88 26.0592 182.831 26.0281 182.793C25.649 180.861 26.0281 180.067 27.7428 177.901C27.9233 177.684 27.7428 177.323 27.5443 177.432C27.0936 177.659 26.6016 177.793 26.0979 177.824C25.5942 177.856 25.0892 177.786 24.6136 177.617C24.1379 177.448 23.7013 177.185 23.3302 176.843C22.959 176.501 22.6611 176.087 22.4542 175.627C22.4542 175.464 22.0932 175.627 22.1654 175.753C22.4396 176.218 22.6149 176.734 22.6804 177.269C22.7459 177.804 22.7001 178.347 22.5459 178.864C22.3917 179.381 22.1324 179.861 21.7843 180.273C21.4362 180.684 21.0067 181.02 20.5228 181.258V181.439C21.4316 180.992 22.4762 180.908 23.4449 181.203C24.4135 181.498 25.2338 182.15 25.7393 183.027ZM22.8513 176.89C23.3525 177.454 23.9934 177.876 24.7095 178.114C25.4256 178.352 26.1917 178.396 26.9306 178.244C26.4439 178.763 26.0642 179.373 25.8134 180.039C25.5625 180.705 25.4453 181.414 25.4685 182.125C25.0407 181.651 24.5072 181.285 23.9113 181.056C23.3155 180.827 22.674 180.742 22.039 180.807C22.4949 180.276 22.8085 179.639 22.9505 178.953C23.0926 178.268 23.0585 177.559 22.8513 176.89ZM39.1685 233.17C43.7216 234.629 47.8864 237.097 51.3522 240.39C54.4966 243.66 57.4439 247.114 60.1787 250.733C60.3592 250.949 60.6841 250.733 60.5397 250.462C55.9911 242.538 48.1574 235.3 39.2046 233.026C39.1143 233.008 39.0963 233.152 39.1685 233.17ZM60.0162 237.448C60.2148 237.556 60.4494 237.268 60.2689 237.123C56.9902 234.023 52.732 232.166 48.2296 231.871C48.031 231.871 48.031 232.177 48.2296 232.195C52.8143 232.52 56.2979 235.065 60.0162 237.448ZM60.7383 229.975C57.5252 227.722 53.7918 226.322 49.8891 225.909C45.9863 225.495 42.0425 226.081 38.4285 227.611C38.3021 227.611 38.4285 227.882 38.4285 227.845C42.0583 226.612 45.9145 226.189 49.7254 226.607C53.5363 227.025 57.2092 228.273 60.4855 230.264C60.5238 230.298 60.5739 230.315 60.6247 230.311C60.6754 230.308 60.7228 230.284 60.7563 230.246C60.7898 230.208 60.8067 230.158 60.8033 230.107C60.8 230.056 60.7765 230.009 60.7383 229.975ZM244.036 274.866C242.989 277.357 240.733 282.248 240.715 282.284C238.454 290.261 236.682 298.369 235.408 306.561C235.408 306.561 239.018 307.229 239.018 307.193C241.509 299.143 242.881 290.696 245.119 282.609C245.119 282.609 244.325 274.992 244.343 274.956C244.361 274.92 244.09 274.703 244.036 274.866ZM244.198 275.335C244.162 275.864 244.162 276.395 244.198 276.923H243.621C243.874 276.328 244.036 275.822 244.198 275.335ZM235.625 306.273C236.672 301.868 240.462 285.984 241.04 282.465C241.04 282.465 242.159 282.338 242.718 282.338C240.498 290.244 237.123 306.435 237.123 306.453C236.632 306.335 236.129 306.274 235.625 306.273ZM238.874 306.742L237.448 306.507C239.253 298.475 242.989 282.338 242.989 282.32C243.605 282.395 244.211 282.54 244.794 282.753C243.26 286.4 239.866 302.59 238.874 306.742ZM241.022 282.104C241.978 280.568 242.805 278.956 243.494 277.284C243.757 277.373 244.03 277.428 244.307 277.447C244.307 277.718 244.596 281.057 244.74 282.356C243.513 282.137 242.267 282.052 241.022 282.104ZM238.549 307.392C237.469 307.173 236.378 307.01 235.282 306.904C235.155 306.904 235.083 307.085 235.282 307.157C236.318 307.527 237.398 307.764 238.495 307.861C238.729 307.933 238.856 307.446 238.549 307.392ZM235.065 308.096C235.913 308.836 237.213 308.493 238.188 308.908C238.221 308.93 238.258 308.945 238.297 308.951C238.336 308.957 238.376 308.954 238.414 308.944C238.452 308.933 238.487 308.913 238.517 308.888C238.547 308.862 238.57 308.829 238.586 308.793C238.602 308.757 238.61 308.718 238.61 308.678C238.609 308.639 238.6 308.6 238.582 308.565C238.565 308.529 238.54 308.498 238.509 308.473C238.479 308.448 238.443 308.43 238.404 308.421C237.863 308.24 234.65 307.663 235.065 308.096ZM265.624 292.789C264.619 292.573 263.57 292.726 262.668 293.219C261.766 293.713 261.073 294.515 260.714 295.479C259.216 300.894 267.573 303.024 268.728 297.663C268.955 296.605 268.756 295.502 268.175 294.59C267.594 293.678 266.678 293.031 265.624 292.789ZM261.4 294.883C262.23 293.078 265.01 292.97 265.534 293.078C266.378 293.345 267.107 293.89 267.602 294.624C268.097 295.358 268.329 296.238 268.259 297.121C267.916 302.771 258.909 300.172 261.4 294.883ZM282.176 304.738C282.374 301.507 281.562 298.944 281.418 299.991C281.231 301.604 281.298 303.236 281.616 304.829C281.688 305.135 282.158 305.045 282.176 304.738ZM282.121 312.987C282.121 313.33 282.717 313.24 282.717 312.897C282.728 311.413 282.589 309.931 282.302 308.475C281.779 307.175 281.905 311.561 282.121 312.987ZM287.176 305.37C279.956 306.543 282.464 306.886 287.356 306.02C287.789 305.948 287.591 305.298 287.176 305.37ZM280.876 306.489C279.443 306.509 278.013 306.636 276.598 306.868C276.566 306.879 276.539 306.9 276.519 306.928C276.5 306.955 276.489 306.988 276.489 307.022C276.489 307.055 276.5 307.088 276.519 307.116C276.539 307.143 276.566 307.164 276.598 307.175C278.049 307.375 279.524 307.302 280.948 306.959C280.979 306.954 281.009 306.943 281.035 306.927C281.062 306.911 281.085 306.889 281.104 306.864C281.122 306.839 281.135 306.811 281.143 306.78C281.15 306.75 281.152 306.719 281.147 306.688C281.142 306.657 281.131 306.627 281.115 306.601C281.099 306.574 281.078 306.551 281.053 306.532C281.027 306.514 280.999 306.501 280.969 306.493C280.938 306.486 280.907 306.485 280.876 306.489Z" fill="#5669FF"/>
<path d="M29.1327 158.552C29.1699 158.863 29.3199 159.15 29.5544 159.358C29.789 159.566 30.0917 159.681 30.4053 159.681C30.7189 159.681 31.0216 159.566 31.2561 159.358C31.4906 159.15 31.6406 158.863 31.6778 158.552C31.6778 157.848 29.1327 156.855 29.1327 158.552ZM26.353 154.22C26.3905 154.536 26.5425 154.827 26.7804 155.038C27.0183 155.25 27.3254 155.366 27.6436 155.366C27.9618 155.366 28.269 155.25 28.5068 155.038C28.7447 154.827 28.8968 154.536 28.9342 154.22C28.8968 153.904 28.7447 153.612 28.5068 153.401C28.269 153.19 27.9618 153.073 27.6436 153.073C27.3254 153.073 27.0183 153.19 26.7804 153.401C26.5425 153.612 26.3905 153.904 26.353 154.22ZM23.1401 150.194C23.1401 150.534 23.2752 150.86 23.5155 151.101C23.7558 151.341 24.0818 151.476 24.4217 151.476C24.7616 151.476 25.0875 151.341 25.3279 151.101C25.5682 150.86 25.7032 150.534 25.7032 150.194C25.7032 149.49 23.1401 148.498 23.1401 150.194ZM112.632 125.881C112.943 125.881 113.242 125.757 113.462 125.537C113.682 125.317 113.805 125.019 113.805 124.708C113.805 124.397 113.682 124.098 113.462 123.878C113.242 123.658 112.943 123.535 112.632 123.535C111.91 123.535 111.08 125.881 112.632 125.881ZM122.126 130.267C122.146 130.11 122.133 129.949 122.086 129.797C122.04 129.645 121.961 129.505 121.856 129.386C121.751 129.267 121.622 129.171 121.477 129.106C121.332 129.04 121.175 129.006 121.016 129.006C120.857 129.006 120.7 129.04 120.555 129.106C120.411 129.171 120.281 129.267 120.176 129.386C120.071 129.505 119.993 129.645 119.946 129.797C119.9 129.949 119.886 130.11 119.906 130.267C119.906 130.935 122.126 131.765 122.126 130.267Z" fill="#5669FF"/>
</svg>
