<svg width="20" height="18" viewBox="0 0 20 18" fill="none" xmlns="http://www.w3.org/2000/svg">
<path d="M16.7372 5.71139C17.1301 5.5804 17.3425 5.15566 17.2115 4.76271C17.0805 4.36975 16.6558 4.15738 16.2628 4.28837C15.5622 4.52191 14.7002 5.02896 13.9497 5.5237C13.1823 6.02956 12.4637 6.56841 12.0315 6.91423C11.708 7.17298 11.6556 7.64495 11.9143 7.9684C12.1731 8.29185 12.6451 8.34429 12.9685 8.08553C13.3696 7.76468 14.051 7.25353 14.7753 6.77606C15.5165 6.28746 16.2378 5.87785 16.7372 5.71139Z" fill="#F2FEFF"/>
<path d="M17.2115 8.76271C17.3425 9.15566 17.1301 9.5804 16.7372 9.71139C16.2378 9.87785 15.5165 10.2875 14.7753 10.7761C14.051 11.2535 13.3696 11.7647 12.9685 12.0855C12.6451 12.3443 12.1731 12.2918 11.9143 11.9684C11.6556 11.645 11.708 11.173 12.0315 10.9142C12.4637 10.5684 13.1823 10.0296 13.9497 9.5237C14.7002 9.02896 15.5622 8.52191 16.2628 8.28837C16.6558 8.15738 17.0805 8.36975 17.2115 8.76271Z" fill="#F2FEFF"/>
<path fill-rule="evenodd" clip-rule="evenodd" d="M0 1.11996V12.6071C0 13.1157 0.38055 13.5443 0.883346 13.6208C1.95324 13.7836 3.76524 14.1132 5 14.6249C6.49481 15.2442 8.30043 16.6097 9.28098 17.4009C9.69084 17.7316 10.2898 17.7124 10.6787 17.3573C11.5502 16.5615 13.1093 15.2364 14.4444 14.6249C15.5827 14.1035 17.8405 13.7617 19.099 13.6029C19.6101 13.5384 20 13.1067 20 12.5916V1.10088C20 0.51068 19.4927 0.0509672 18.9075 0.127483C17.6223 0.295515 15.5271 0.628962 14.4444 1.12485C13.1093 1.73639 11.5502 3.06153 10.6787 3.8573C10.2898 4.21243 9.69083 4.23162 9.28097 3.90091C8.30043 3.10971 6.49481 1.74424 5 1.12485C3.84824 0.647613 2.19424 0.328744 1.10876 0.155913C0.51916 0.0620368 0 0.522941 0 1.11996ZM5.57419 13.2391C4.31224 12.7162 2.61257 12.3817 1.5 12.1996V1.7438C2.48324 1.92157 3.63014 2.18091 4.42581 2.5106C5.6979 3.0377 7.3525 4.27225 8.33903 5.06827C8.61511 5.29104 8.92556 5.44785 9.25 5.53958V15.4761C8.21564 14.7007 6.83091 13.7598 5.57419 13.2391ZM9.93026 15.9999C9.9327 16.0018 9.93513 16.0037 9.93757 16.0057C9.93972 16.0037 9.94188 16.0018 9.94405 15.9999H9.93026ZM10.75 15.3075C11.6355 14.5762 12.7596 13.7467 13.8198 13.2611C14.5605 12.9219 15.5582 12.6795 16.4363 12.5063C17.1682 12.3619 17.9036 12.2495 18.5 12.1685V1.69813C17.9991 1.77139 17.4401 1.86332 16.8983 1.97326C16.096 2.13608 15.4445 2.31666 15.0691 2.4886C13.9716 2.99131 12.5669 4.16438 11.6902 4.96496C11.4123 5.21869 11.0907 5.40117 10.75 5.51135V15.3075Z" fill="#F2FEFF"/>
</svg>
