<svg width="361" height="362" viewBox="0 0 361 362" fill="none" xmlns="http://www.w3.org/2000/svg">
<path d="M200.878 30.5771L239.578 34.5481C239.761 34.5639 239.943 34.5092 240.087 34.3951C240.232 34.2811 240.327 34.1163 240.354 33.9344L240.643 31.8948C240.668 31.7106 240.62 31.5236 240.509 31.3748C240.397 31.226 240.231 31.1274 240.047 31.1006L201.203 27.3101C201.111 27.3001 201.017 27.3086 200.928 27.335C200.839 27.3614 200.756 27.4053 200.683 27.464C200.611 27.5228 200.551 27.5953 200.507 27.6773C200.463 27.7593 200.436 27.8492 200.427 27.9418L200.247 29.7468C200.229 29.8435 200.231 29.9428 200.254 30.0384C200.276 30.134 200.319 30.2238 200.378 30.302C200.438 30.3802 200.513 30.4451 200.599 30.4925C200.685 30.5399 200.78 30.5687 200.878 30.5771ZM195.879 57.1467L238.928 61.8939C239.106 61.915 239.286 61.867 239.431 61.7596C239.575 61.6521 239.673 61.4935 239.704 61.3163L240.101 59.2044C240.133 59.018 240.09 58.8265 239.982 58.6713C239.874 58.516 239.709 58.4093 239.523 58.3741L196.203 53.8616C196.111 53.8517 196.017 53.8601 195.928 53.8865C195.839 53.913 195.756 53.9568 195.684 54.0156C195.611 54.0743 195.552 54.1468 195.508 54.2288C195.464 54.3108 195.436 54.4008 195.427 54.4934L195.229 56.2984C195.214 56.3971 195.218 56.4978 195.243 56.5945C195.268 56.6912 195.312 56.782 195.373 56.8612C195.433 56.9405 195.509 57.0066 195.596 57.0557C195.683 57.1048 195.779 57.1357 195.879 57.1467ZM195.229 62.7783L223.946 65.8829C224.127 65.8992 224.307 65.847 224.451 65.7366C224.594 65.6263 224.691 65.4659 224.722 65.2873L225.029 63.4823C225.061 63.2958 225.018 63.1044 224.91 62.9491C224.802 62.7938 224.638 62.6872 224.452 62.652L195.572 59.5293C195.479 59.5194 195.386 59.5278 195.296 59.5542C195.207 59.5807 195.124 59.6245 195.052 59.6833C194.98 59.742 194.92 59.8145 194.876 59.8965C194.832 59.9785 194.805 60.0685 194.796 60.1611L194.597 61.9661C194.582 62.0614 194.586 62.1588 194.61 62.2523C194.634 62.3457 194.677 62.4333 194.736 62.5094C194.796 62.5856 194.87 62.6488 194.955 62.695C195.039 62.7413 195.133 62.7697 195.229 62.7783ZM192.359 78.3013L235.354 83.0485C235.54 83.0639 235.724 83.0067 235.869 82.8889C236.014 82.7711 236.107 82.6019 236.13 82.4167L236.292 80.1966C236.308 80.0126 236.25 79.8301 236.132 79.6883C236.014 79.5465 235.844 79.4568 235.661 79.4385L192.702 75.0162C192.609 75.0037 192.514 75.0103 192.424 75.0357C192.334 75.0611 192.25 75.1048 192.177 75.164C192.104 75.2232 192.044 75.2967 192.001 75.38C191.958 75.4632 191.932 75.5544 191.926 75.648L191.727 77.453C191.712 77.5503 191.716 77.6497 191.74 77.7454C191.763 77.841 191.806 77.931 191.865 78.01C191.923 78.089 191.997 78.1555 192.082 78.2055C192.167 78.2555 192.261 78.2881 192.359 78.3013ZM220.896 83.7163L192.016 80.6117C191.923 80.6018 191.83 80.6102 191.74 80.6366C191.651 80.6631 191.568 80.7069 191.496 80.7657C191.424 80.8244 191.364 80.8969 191.32 80.9789C191.276 81.0609 191.249 81.1509 191.24 81.2435L191.059 83.0485C191.047 83.1414 191.053 83.236 191.079 83.3263C191.104 83.4166 191.148 83.5007 191.207 83.5734C191.266 83.6462 191.34 83.706 191.423 83.7492C191.506 83.7924 191.597 83.8181 191.691 83.8246L220.39 86.9112C220.569 86.9324 220.749 86.8843 220.893 86.7769C221.038 86.6694 221.136 86.5108 221.167 86.3336L221.473 84.5286C221.489 84.4373 221.486 84.3439 221.466 84.2536C221.445 84.1634 221.407 84.0781 221.353 84.0027C221.299 83.9272 221.231 83.8631 221.153 83.8139C221.075 83.7648 220.987 83.7317 220.896 83.7163ZM200.066 36.9849L230.083 40.3963C230.263 40.4222 230.445 40.3759 230.591 40.2677C230.736 40.1595 230.833 39.998 230.859 39.8187L231.257 37.6166C231.289 37.4328 231.248 37.2436 231.144 37.0887C231.04 36.9339 230.879 36.8256 230.697 36.7863L200.463 33.5373C200.371 33.5274 200.277 33.5358 200.188 33.5622C200.099 33.5887 200.016 33.6325 199.943 33.6913C199.871 33.75 199.811 33.8225 199.767 33.9045C199.723 33.9865 199.696 34.0765 199.687 34.1691L199.434 36.1907C199.414 36.3796 199.469 36.5688 199.587 36.7175C199.705 36.8662 199.878 36.9622 200.066 36.9849Z" fill="#5669FF"/>
<path d="M186.89 97.5968C187.088 101.586 187.648 111.568 191.546 111.568C195.445 111.568 202.376 102.236 204.055 99.9975C212.632 101.214 221.31 101.564 229.957 101.044C238.729 100.268 243.711 97.1636 246.112 90.9725C249.595 82.4348 254.018 47.9954 251.779 32.8515C250.606 24.9275 246.924 20.8482 239.144 18.7725C218.676 13.3575 186.113 12.9243 181.005 13.3575C172.937 14.0073 167.666 15.8123 164.616 23.0323C160.284 33.393 157.558 56.3165 157.739 71.2258C157.847 76.8935 157.955 83.3193 161.475 88.0123C165.807 93.7702 175.536 95.7738 186.89 97.5968ZM159.309 71.0814C159.183 56.4248 161.854 33.3569 165.879 23.7001C168.695 16.9314 174.002 15.1625 181.132 14.6751C194.128 13.7907 224.307 16.3899 238.675 20.2887C245.895 22.2561 249.126 25.8481 250.173 33.1042C252.267 47.5442 247.881 82.3446 244.758 90.449C242.664 96.1167 238.224 98.8964 229.903 99.7628C221.223 100.325 212.509 100.011 203.893 98.8242C203.733 98.8113 203.572 98.8374 203.424 98.9003C203.276 98.9632 203.146 99.0609 203.044 99.1852C201.402 101.243 194.164 110.304 191.565 110.015C189.994 109.871 188.839 105.051 188.442 97.1275C188.44 96.985 188.388 96.8476 188.296 96.7389C188.204 96.6302 188.077 96.557 187.936 96.5319C170.139 93.4453 165.627 91.0086 162.666 87.0195C159.49 82.7417 159.399 76.4964 159.309 71.0814ZM154.327 167.198C157.373 167.524 160.448 166.949 163.169 165.543C165.891 164.137 168.139 161.962 169.635 159.289C171.131 156.616 171.808 153.562 171.583 150.507C171.358 147.452 170.241 144.531 168.369 142.106C166.498 139.68 163.955 137.859 161.057 136.867C158.159 135.875 155.033 135.756 152.068 136.525C149.103 137.295 146.429 138.918 144.379 141.195C142.329 143.471 140.993 146.299 140.537 149.328C140.269 151.407 140.412 153.518 140.96 155.542C141.508 157.565 142.449 159.461 143.73 161.12C145.011 162.78 146.606 164.17 148.424 165.213C150.242 166.256 152.248 166.93 154.327 167.198Z" fill="#5669FF"/>
<path d="M179.471 45.1255C177.454 45.1255 175.482 45.7236 173.805 46.8442C172.128 47.9648 170.821 49.5575 170.049 51.421C169.277 53.2845 169.075 55.3351 169.469 57.3133C169.862 59.2916 170.833 61.1087 172.26 62.535C173.686 63.9612 175.503 64.9325 177.481 65.326C179.46 65.7195 181.51 65.5176 183.374 64.7457C185.237 63.9738 186.83 62.6667 187.95 60.9896C189.071 59.3125 189.669 57.3408 189.669 55.3237C189.669 52.619 188.595 50.025 186.682 48.1125C184.77 46.1999 182.176 45.1255 179.471 45.1255ZM180.067 61.0997C179.711 60.7578 179.253 60.5438 178.762 60.4915C178.272 60.4393 177.778 60.5516 177.359 60.8109C177.152 60.9653 176.893 61.0327 176.637 60.999C176.38 60.9653 176.148 60.8331 175.987 60.6304C174.706 58.9698 179.399 57.2731 181.529 59.8001C181.614 59.8961 181.68 60.008 181.722 60.1293C181.764 60.2507 181.782 60.3791 181.774 60.5074C181.766 60.6356 181.734 60.7611 181.678 60.8766C181.622 60.9922 181.543 61.0956 181.447 61.181C181.351 61.2663 181.24 61.3319 181.118 61.374C180.997 61.4161 180.868 61.4339 180.74 61.4263C180.612 61.4188 180.486 61.3861 180.371 61.33C180.255 61.274 180.152 61.1957 180.067 61.0997ZM182.774 57.598C181.794 56.7493 180.58 56.2161 179.292 56.0679C178.004 55.9198 176.701 56.1637 175.554 56.7677C175.436 56.827 175.307 56.8623 175.174 56.8717C175.042 56.8811 174.909 56.8644 174.784 56.8225C174.658 56.7806 174.542 56.7143 174.442 56.6275C174.342 56.5407 174.26 56.435 174.2 56.3165C174.141 56.198 174.106 56.0689 174.096 55.9368C174.087 55.8046 174.104 55.6719 174.146 55.5462C174.188 55.4204 174.254 55.3042 174.341 55.2041C174.427 55.104 174.533 55.022 174.652 54.9627C176.141 54.1412 177.85 53.8057 179.539 54.0031C181.228 54.2006 182.814 54.921 184.074 56.0638C184.277 56.2361 184.404 56.4822 184.426 56.748C184.448 57.0137 184.363 57.2773 184.191 57.4807C184.019 57.6842 183.773 57.8108 183.507 57.8328C183.241 57.8548 182.978 57.7704 182.774 57.598ZM185.157 53.988C183.714 52.6177 181.881 51.7302 179.911 51.4488C177.941 51.1675 175.933 51.5061 174.164 52.4177C173.947 52.5138 173.702 52.5271 173.475 52.455C173.248 52.3829 173.056 52.2304 172.934 52.0263C172.812 51.8221 172.769 51.5804 172.812 51.3467C172.856 51.1129 172.984 50.9032 173.172 50.7571C175.298 49.6628 177.71 49.249 180.08 49.5719C182.45 49.8948 184.664 50.9387 186.42 52.5621C186.577 52.7388 186.664 52.9664 186.666 53.2026C186.667 53.4389 186.583 53.6676 186.429 53.8464C186.274 54.0251 186.06 54.1416 185.826 54.1743C185.592 54.2071 185.354 54.1537 185.157 54.0241V53.988ZM177.341 76.9657L180.049 75.8105L177.828 73.4279L177.341 76.9657ZM176.439 83.5359L179.886 81.2255L177.07 78.9512L176.439 83.5359Z" fill="#5669FF"/>
<path d="M177.449 67.9949C175.436 68.0091 173.471 68.6193 171.803 69.7486C170.136 70.8778 168.84 72.4755 168.079 74.3402C167.318 76.2049 167.127 78.2531 167.528 80.2266C167.93 82.2001 168.907 84.0105 170.336 85.4295C171.765 86.8485 173.582 87.8127 175.558 88.2004C177.535 88.5881 179.582 88.3819 181.441 87.608C183.3 86.834 184.889 85.5269 186.006 83.8514C187.123 82.1759 187.72 80.207 187.72 78.1931C187.722 76.8471 187.458 75.5139 186.942 74.2708C186.425 73.0277 185.668 71.8993 184.713 70.9508C183.758 70.0024 182.624 69.2528 181.377 68.7454C180.13 68.238 178.795 67.9829 177.449 67.9949ZM181.89 76.2076C181.691 77.1643 180.933 77.2726 178.785 78.1751L181.222 80.1064C181.513 80.3461 181.698 80.6916 181.735 81.0672C181.772 81.4427 181.659 81.8177 181.42 82.11C180.025 83.2398 178.54 84.254 176.98 85.1424C176.744 85.2959 176.468 85.3786 176.186 85.3808C175.904 85.383 175.627 85.3046 175.388 85.1548C175.149 85.005 174.958 84.79 174.837 84.5352C174.716 84.2803 174.671 83.9963 174.706 83.7164L175.265 79.6371L172.143 80.9548C172.024 81.0045 171.897 81.0305 171.768 81.0311C171.64 81.0317 171.513 81.0071 171.394 80.9585C171.275 80.9098 171.166 80.8383 171.075 80.7478C170.984 80.6574 170.911 80.5498 170.861 80.4313C170.811 80.3128 170.785 80.1856 170.785 80.0571C170.784 79.9285 170.809 79.8011 170.857 79.6821C170.906 79.5631 170.978 79.4549 171.068 79.3635C171.159 79.2722 171.266 79.1995 171.385 79.1498L174.995 77.5975L171.655 74.89C171.489 74.7182 171.391 74.4912 171.381 74.2521C171.371 74.013 171.449 73.7786 171.601 73.5935C171.753 73.4083 171.967 73.2855 172.203 73.2483C172.44 73.2111 172.682 73.2622 172.883 73.3918L175.771 75.7203L176.312 71.8756C176.33 71.7376 176.375 71.6045 176.445 71.4841C176.515 71.3636 176.608 71.2583 176.718 71.1743C176.829 71.0903 176.956 71.0292 177.091 70.9947C177.226 70.9601 177.366 70.9528 177.504 70.9731C178.045 70.9731 177.901 70.9731 181.493 74.89C181.665 75.0582 181.791 75.2673 181.861 75.4977C181.93 75.7281 181.94 75.9723 181.89 76.2076ZM182.305 20.7039C180.627 20.7038 178.975 21.1176 177.496 21.9086C176.016 22.6996 174.755 23.8434 173.823 25.2387C172.892 26.6339 172.318 28.2374 172.155 29.9071C171.991 31.5768 172.242 33.261 172.885 34.8106C173.528 36.3602 174.543 37.7272 175.841 38.7905C177.139 39.8538 178.679 40.5806 180.324 40.9063C181.97 41.232 183.671 41.1467 185.276 40.6579C186.881 40.1691 188.34 39.2919 189.525 38.1041C190.948 36.6768 191.917 34.8596 192.309 32.8821C192.7 30.9046 192.496 28.8555 191.724 26.9936C190.951 25.1317 189.644 23.5404 187.968 22.421C186.291 21.3015 184.321 20.704 182.305 20.7039ZM186.113 26.877L187.738 25.5954C187.916 25.4875 188.128 25.449 188.333 25.4874C188.538 25.5258 188.722 25.6384 188.849 25.8036C188.976 25.9688 189.038 26.1751 189.023 26.3831C189.008 26.591 188.917 26.7861 188.767 26.9311C186.962 28.3029 186.962 28.3751 186.637 28.3751C186.456 28.3904 186.276 28.3463 186.123 28.2494C185.969 28.1524 185.852 28.0081 185.789 27.8383C185.725 27.6685 185.719 27.4827 185.771 27.3091C185.823 27.1355 185.931 26.9837 186.077 26.877H186.113ZM182.395 23.267C182.438 23.0591 182.558 22.8749 182.73 22.7508C182.902 22.6267 183.115 22.5716 183.325 22.5966C183.536 22.6215 183.73 22.7246 183.869 22.8855C184.007 23.0463 184.08 23.2533 184.074 23.4655L183.821 25.5232C183.779 25.7338 183.658 25.9204 183.484 26.0456C183.309 26.1708 183.094 26.2251 182.881 26.1976C182.668 26.1701 182.473 26.0629 182.336 25.8975C182.199 25.7322 182.13 25.521 182.142 25.3066L182.395 23.267ZM174.724 30.7577C174.556 30.7378 174.398 30.6683 174.271 30.5581C174.143 30.4479 174.051 30.3021 174.006 30.1393C173.961 29.9766 173.966 29.8042 174.02 29.6442C174.074 29.4843 174.175 29.3441 174.309 29.2415C174.67 28.9527 174.832 29.061 176.98 29.3318C177.182 29.3717 177.362 29.4837 177.488 29.6469C177.613 29.81 177.675 30.0132 177.662 30.2186C177.649 30.4239 177.561 30.6175 177.416 30.7631C177.27 30.9088 177.077 30.9967 176.872 31.0104L174.724 30.7577ZM178.46 34.9814C176.655 36.3713 176.655 36.4254 176.33 36.4254C176.21 36.4291 176.09 36.4065 175.98 36.3594C175.869 36.3122 175.77 36.2415 175.689 36.1522C175.608 36.063 175.548 35.9572 175.512 35.8423C175.477 35.7274 175.466 35.6061 175.482 35.4868C175.482 35.0175 175.717 34.9814 177.431 33.6818C177.605 33.5969 177.803 33.5739 177.992 33.6168C178.18 33.6597 178.349 33.7658 178.469 33.9175C178.589 34.0692 178.654 34.2575 178.652 34.451C178.65 34.6445 178.583 34.8317 178.46 34.9814ZM178.244 27.1477C176.818 25.3427 176.745 25.3427 176.8 24.9095C176.823 24.7462 176.893 24.5932 177.002 24.4693C177.111 24.3454 177.254 24.256 177.413 24.2119C177.572 24.1678 177.74 24.1711 177.897 24.2213C178.055 24.2714 178.194 24.3663 178.298 24.4944L179.579 26.1189C179.655 26.2953 179.668 26.4922 179.617 26.6773C179.567 26.8624 179.454 27.0247 179.299 27.1379C179.144 27.251 178.956 27.3082 178.764 27.3002C178.572 27.2921 178.389 27.2193 178.244 27.0936V27.1477ZM182.179 38.5373C182.159 38.7049 182.089 38.8627 181.979 38.9906C181.869 39.1185 181.723 39.2106 181.56 39.2552C181.397 39.2998 181.225 39.2948 181.065 39.2408C180.905 39.1869 180.765 39.0865 180.662 38.9524C180.392 38.5914 180.482 38.429 180.662 36.281C180.669 36.1648 180.7 36.0513 180.752 35.9474C180.805 35.8436 180.878 35.7517 180.968 35.6774C181.058 35.6031 181.161 35.5481 181.273 35.5157C181.385 35.4834 181.502 35.4743 181.618 35.4892C181.733 35.5041 181.844 35.5426 181.944 35.6023C182.044 35.662 182.131 35.7416 182.199 35.8362C182.266 35.9308 182.314 36.0383 182.339 36.1521C182.363 36.2659 182.364 36.3835 182.341 36.4976L182.179 38.5373ZM182.179 34.2233C181.516 34.2221 180.869 34.0192 180.324 33.6417C179.779 33.2642 179.362 32.7298 179.128 32.1097C178.894 31.4895 178.854 30.8128 179.014 30.1695C179.173 29.5261 179.525 28.9465 180.022 28.5077C180.519 28.0689 181.137 27.7915 181.795 27.7125C182.453 27.6335 183.12 27.7565 183.707 28.0653C184.293 28.3741 184.772 28.854 185.079 29.4412C185.387 30.0285 185.508 30.6954 185.428 31.3534C185.318 32.1138 184.946 32.8119 184.376 33.3263C183.805 33.8407 183.072 34.139 182.305 34.1692L182.179 34.2233ZM186.15 37.4182C184.724 35.6132 184.651 35.6132 184.706 35.18C184.721 35.0117 184.786 34.852 184.895 34.7222C185.003 34.5924 185.148 34.4986 185.311 34.4535C185.474 34.4084 185.646 34.414 185.806 34.4697C185.965 34.5253 186.104 34.6282 186.204 34.7648L187.485 36.3893C187.535 36.553 187.534 36.7278 187.482 36.8908C187.43 37.0538 187.331 37.1974 187.196 37.3028C187.061 37.4082 186.898 37.4704 186.727 37.4813C186.557 37.4922 186.387 37.4514 186.24 37.364L186.15 37.4182ZM189.669 32.7252L187.503 32.4725C187.34 32.4491 187.187 32.3787 187.063 32.2698C186.939 32.1608 186.85 32.0182 186.806 31.8592C186.762 31.7002 186.765 31.5318 186.815 31.3747C186.865 31.2175 186.96 31.0784 187.088 30.9743C187.467 30.6675 187.63 30.7758 189.76 30.9743C189.985 30.9743 190.2 31.0637 190.359 31.2228C190.518 31.3819 190.608 31.5977 190.608 31.8227C190.608 32.0477 190.518 32.2634 190.359 32.4225C190.2 32.5816 189.985 32.671 189.76 32.671L189.669 32.7252ZM347.607 278.151C354.285 271.888 352.733 262.411 349.267 254.036C355.801 245.932 346.271 209.886 309.449 186.836C280.389 168.678 254.956 173.046 230.534 167.577C228.278 158.552 221.347 137.469 212.069 138.119C212.864 130.376 209.055 126.766 200.319 121.676C189.344 115.268 163.786 108.86 153.75 107.362C136.873 104.835 131.368 110.791 122.74 125.231C119.401 123.571 115.141 121.459 104.888 117.235C103.499 111.116 101.278 107.362 97.867 105.413C96.4591 103.969 83.9865 95.5031 77.1275 91.0989C55.3434 77.2428 32.6309 64.9035 9.15123 54.1686C9.11106 54.151 9.06721 54.1434 9.02346 54.1465C8.97972 54.1496 8.93738 54.1633 8.90009 54.1864C8.8628 54.2094 8.83167 54.2412 8.80939 54.279C8.78711 54.3168 8.77434 54.3594 8.77218 54.4032C8.77218 55.1613 8.77218 55.414 8.91658 55.5223C34.8725 68.4642 70.1061 87.2542 93.7516 104.257C83.5714 102.705 72.0916 114.871 67.4166 120.34C31.6776 162.667 22.2375 239.632 43.3199 249.776C31.864 249.9 20.4113 249.327 9.02488 248.062C8.98642 248.057 8.94729 248.06 8.91015 248.071C8.87302 248.082 8.83873 248.101 8.80963 248.127C8.78053 248.153 8.75729 248.184 8.74149 248.22C8.72568 248.255 8.71768 248.294 8.71803 248.332C8.71803 248.982 8.71803 249.235 8.95268 249.271C21.3584 250.704 33.8513 251.241 46.3342 250.877C50.2511 251.545 54.4206 250.101 59.4746 246.311C60.2869 246.419 64.8896 247.033 66.3697 247.195C57.7972 280.369 55.5015 314.853 59.601 348.871C59.601 349.178 59.8898 349.106 60.7923 349.106C62.4348 349.106 53.0669 311.201 67.0556 251.96C73.5717 224.38 84.0046 199.615 94.9429 185.879C97.7667 182.002 101.385 178.771 105.556 176.403C118.985 169.725 124.635 192.034 125.772 206.872C128.588 242.448 116.928 283.205 117.307 284.613C117.326 284.688 117.359 284.759 117.406 284.821C117.453 284.883 117.512 284.935 117.579 284.974C117.647 285.013 117.721 285.038 117.799 285.047C117.876 285.056 117.954 285.05 118.029 285.028C146.024 277.303 174.688 255.354 192.846 227.719C192.94 227.582 192.984 227.416 192.972 227.25C192.178 203.785 194.001 142.415 211.781 139.617C220.336 138.191 226.997 160.122 229.109 168.606C234.524 191.655 234.65 221.709 229.704 257.899C229.596 258.693 231.004 258.585 231.13 257.899C233.883 240.796 235.182 223.49 235.011 206.168C266.887 219.543 257.248 281.328 254.974 293.62C254.83 294.378 256.129 294.414 256.274 293.62C257.793 286.185 258.836 278.661 259.396 271.093C273.836 287.338 270.533 320.334 264.414 341.019C264.234 341.615 265.227 341.886 265.425 341.29C267.198 335.594 268.561 329.78 269.504 323.89C273.891 331.236 275.082 340.261 275.353 348.817C275.357 348.885 275.388 348.95 275.438 348.997C275.488 349.044 275.555 349.07 275.623 349.069H276.273C276.345 349.069 276.414 349.041 276.465 348.99C276.515 348.939 276.544 348.871 276.544 348.799C276.635 341.793 275.461 334.829 273.078 328.24C279.414 332.716 284.703 339.178 290.551 340.64C299.81 342.878 300.244 330.929 297.374 321.832C293.348 307.915 283.493 294.45 274.089 283.512C280.572 285.674 286.748 288.665 292.464 292.411C305.045 300.316 313.023 309.612 319.485 317.049C324.9 323.366 333.022 333.492 340.603 330.911C341.724 330.496 342.747 329.856 343.61 329.031C344.473 328.205 345.158 327.211 345.621 326.11C348.401 320.442 347.101 312.085 345.152 306.11C352.895 300.786 351.524 288.241 347.607 278.151ZM108.661 153.227C104.762 162.252 103.715 169.472 105.556 174.887C101.838 176.457 97.8489 179.851 93.6974 184.977C78.8423 203.46 69.8895 233.838 66.6224 246.347L37.5078 241.69C23.4649 211.745 48.8973 130.231 81.4234 109.167L122.126 126.206C117.099 134.935 112.603 143.958 108.661 153.227ZM124.419 149.906C124.225 149.756 124.071 149.56 123.97 149.337C123.869 149.114 123.825 148.869 123.841 148.624C124.123 146.073 124.837 143.589 125.953 141.278C126.045 141.079 126.184 140.906 126.356 140.771C126.529 140.636 126.731 140.544 126.946 140.502C128.831 140.199 130.741 140.084 132.649 140.159C133.714 140.159 133.317 138.859 136.62 135.177C137.252 134.473 136.476 134.238 135.032 128.95C134.958 128.67 134.972 128.375 135.072 128.103C135.173 127.832 135.354 127.598 135.591 127.434C137.696 126.016 139.891 124.738 142.162 123.607C142.365 123.501 142.591 123.446 142.82 123.446C143.05 123.446 143.276 123.501 143.479 123.607C147.884 126.224 148.172 127.632 149.147 127.343C151.318 126.741 153.555 126.413 155.807 126.369C156.963 126.369 156.403 125.015 159.417 120.683C159.548 120.505 159.72 120.361 159.918 120.264C160.116 120.166 160.334 120.118 160.555 120.123C163.14 120.226 165.692 120.738 168.118 121.639C168.337 121.716 168.533 121.848 168.688 122.022C168.843 122.195 168.951 122.405 169.002 122.632C169.369 124.845 169.55 127.085 169.544 129.329C169.544 130.34 170.825 130.033 174.471 133.354C175.374 134.202 176.421 132.433 181.962 131.693C182.181 131.661 182.404 131.684 182.612 131.76C182.82 131.835 183.006 131.961 183.153 132.127C184.852 134.013 186.23 136.166 187.233 138.498C187.322 138.71 187.359 138.941 187.34 139.17C187.321 139.4 187.247 139.621 187.124 139.816C185.704 141.785 184.116 143.627 182.377 145.321C181.691 146.025 182.612 146.494 182.864 150.88C182.866 151.047 182.916 151.209 183.009 151.347C183.102 151.485 183.234 151.593 183.388 151.657C185.671 152.51 187.836 153.65 189.832 155.05C190.001 155.179 190.138 155.346 190.232 155.537C190.326 155.728 190.375 155.938 190.373 156.151C190.283 158.636 189.739 161.083 188.767 163.371C188.681 163.581 188.546 163.768 188.373 163.916C188.201 164.063 187.995 164.167 187.774 164.219C185.129 164.705 182.449 164.977 179.76 165.032C178.893 165.032 179.164 165.952 176.439 168.967C175.644 169.869 177.359 170.772 178.244 176.692C178.269 176.904 178.245 177.118 178.172 177.319C178.1 177.519 177.983 177.7 177.828 177.847C175.971 179.543 173.817 180.883 171.475 181.8C171.273 181.881 171.056 181.913 170.839 181.894C170.623 181.875 170.414 181.806 170.229 181.692C168.215 180.333 166.33 178.792 164.598 177.089C163.876 176.403 163.28 177.45 158.461 177.721C157.233 177.721 157.901 179.418 154.382 184.092C154.248 184.261 154.078 184.398 153.884 184.492C153.69 184.585 153.478 184.634 153.262 184.634C150.766 184.475 148.32 183.863 146.042 182.829C145.84 182.748 145.66 182.622 145.515 182.459C145.371 182.296 145.267 182.101 145.212 181.89C144.755 179.691 144.484 177.457 144.4 175.212C144.39 175.064 144.343 174.92 144.265 174.794C144.186 174.668 144.077 174.564 143.949 174.49C139.039 171.818 138.877 170.122 137.776 170.627C135.971 171.579 134.046 172.284 132.054 172.721C131.82 172.769 131.577 172.757 131.349 172.684C131.122 172.611 130.917 172.481 130.754 172.306C129.136 170.502 127.852 168.423 126.964 166.169C126.881 165.961 126.85 165.736 126.872 165.513C126.894 165.29 126.968 165.075 127.09 164.887C130.086 160.555 131.747 160.393 131.404 159.292C129.834 154.202 130.88 152.974 129.779 152.541C127.899 151.866 126.101 150.982 124.419 149.906ZM118.895 283.476C120.267 277.952 121.368 272.646 122.379 267.574C129.085 270.165 136.078 271.941 143.209 272.862C135.603 277.457 127.429 281.038 118.895 283.512V283.476ZM154.634 262.267C145.161 261.866 135.803 260.041 126.873 256.852C125.79 256.473 126.224 254.524 127.379 254.776C138.371 257.213 141.927 258.386 154.833 260.191C155.094 260.24 155.328 260.385 155.488 260.597C155.648 260.809 155.723 261.073 155.698 261.338C155.673 261.602 155.55 261.848 155.353 262.027C155.156 262.205 154.9 262.304 154.634 262.303V262.267ZM157.468 247.502C157.45 247.759 157.336 248 157.149 248.177C156.962 248.354 156.715 248.455 156.457 248.459C146.816 247.667 137.309 245.684 128.155 242.556C127.91 242.456 127.713 242.265 127.605 242.022C127.498 241.78 127.488 241.506 127.577 241.257C127.848 240.408 128.01 240.463 130.917 241.167C138.137 242.972 147.017 244.777 154.111 245.986C157.396 246.545 157.594 246.582 157.468 247.538V247.502ZM158.894 234.596C151.169 234.181 136.115 231.221 129.021 228.171C128.01 227.737 128.444 225.842 129.599 226.131C139.31 228.87 149.185 230.992 159.165 232.485C159.45 232.528 159.706 232.682 159.877 232.914C160.048 233.146 160.119 233.436 160.076 233.721C160.033 234.006 159.879 234.262 159.647 234.433C159.415 234.604 159.125 234.676 158.84 234.632L158.894 234.596ZM129.671 209.471C140.274 212.809 151.047 215.58 161.944 217.774C162.215 217.815 162.459 217.96 162.624 218.179C162.788 218.398 162.861 218.673 162.825 218.944C162.79 219.216 162.649 219.463 162.434 219.632C162.219 219.801 161.946 219.879 161.674 219.85C150.502 218.344 139.547 215.52 129.039 211.438C127.974 211.005 128.552 209.146 129.671 209.471ZM191.33 227.106C182.53 240.285 171.705 251.993 159.255 261.798C159.255 247.213 164.417 229.145 174.507 208.063C174.525 208.02 174.531 207.974 174.527 207.928C174.523 207.882 174.508 207.838 174.483 207.799C174.459 207.76 174.425 207.728 174.385 207.705C174.345 207.681 174.301 207.668 174.255 207.666C171.944 207.666 169.002 209.2 155.41 205.337C145.826 202.594 138.461 201.565 128.696 197.143C128.696 197.143 127.812 193.533 127.577 192.702C133.962 195.578 140.612 197.827 147.432 199.417C164.381 203.929 175.771 208.64 187.142 195.067C196.745 183.461 189.796 178.551 191.33 227.106ZM344.755 304.955C337.788 284.487 316.94 264.018 302.139 256.563C302.072 256.527 301.998 256.506 301.923 256.5C301.847 256.494 301.771 256.504 301.699 256.53C301.628 256.555 301.563 256.596 301.508 256.648C301.453 256.7 301.41 256.764 301.381 256.834C300.695 258.206 303.565 257.303 315.207 267.014C322.932 273.639 341.343 291.328 345.242 312.139C346.65 319.359 345.332 323.637 344.412 325.532C344.032 326.483 343.458 327.344 342.728 328.062C341.998 328.78 341.127 329.338 340.17 329.702C333.383 332.012 325.532 321.94 320.839 316.417C314.449 308.872 306.399 299.486 293.403 291.382C282.176 284.36 272.97 281.725 272.266 282.537C271.562 283.349 290.316 302.663 296.056 322.392C298.601 330.243 299.016 341.434 290.858 339.395C284.666 337.806 278.114 329.503 272.32 326.435C271.617 324.919 270.79 323.464 269.847 322.085C272.32 304.685 272.013 281.761 259.667 269.234C260.913 248.928 259.36 213.676 235.047 204.507C234.888 192.529 233.485 180.6 230.859 168.912C255.389 174.634 280.497 170.717 308.655 188.118C326.885 199.399 347.571 221.799 349.863 244.289C350.025 245.787 350.35 250.661 348.78 252.899C342.86 239.813 329.683 225.968 319.611 218.983C319.07 218.604 318.438 219.47 318.961 219.868C331.831 229.254 354.339 253.675 350.657 270.317C350.161 272.864 348.902 275.199 347.047 277.014C340.441 260.769 325.983 244.524 314.07 235.373C313.546 234.975 312.842 235.752 313.33 236.203C321.569 242.758 328.923 250.354 335.206 258.801C351.506 280.985 352.336 298.674 344.755 304.955Z" fill="#5669FF"/>
</svg>
