<svg width="24" height="24" viewBox="0 0 24 24" fill="none" xmlns="http://www.w3.org/2000/svg">
<g clip-path="url(#clip0_162_2684)">
<path d="M8 6.14239L8 4.4709C8 3.30611 8 2.72371 8.34942 2.36186C8.69883 2 9.26121 2 10.386 2L13.614 2C14.7388 2 15.3012 2 15.6506 2.36186C16 2.72371 16 3.30611 16 4.4709V6.14239" stroke="#FF5659" stroke-width="2"/>
<path d="M14 11.2153V16.2153" stroke="#FF5659" stroke-width="2" stroke-linecap="round"/>
<path d="M10 11.2153V16.2153" stroke="#FF5659" stroke-width="2" stroke-linecap="round"/>
<path d="M18.1145 15.5237C17.9656 16.8716 17.861 17.8079 17.7072 18.525C17.5572 19.2237 17.3796 19.6123 17.1451 19.8991C16.9486 20.1395 16.7159 20.3478 16.4555 20.5168C16.1447 20.7184 15.7389 20.8523 15.0279 20.9246C14.2983 20.9988 13.3562 21 12.0001 21C10.6439 21 9.70181 20.9988 8.97221 20.9246C8.26123 20.8523 7.85545 20.7184 7.54464 20.5168C7.2842 20.3478 7.05155 20.1395 6.85503 19.8991C6.62049 19.6123 6.44288 19.2237 6.29297 18.525C6.13912 17.8079 6.0345 16.8716 5.88562 15.5237L4.88129 6.43042L19.1188 6.43042L18.1145 15.5237Z" stroke="#FF5659" stroke-width="2"/>
<path d="M3 6.12207H21" stroke="#FF5659" stroke-width="2" stroke-linecap="round"/>
</g>
<defs>
<clipPath id="clip0_162_2684">
<rect width="24" height="24" fill="white"/>
</clipPath>
</defs>
</svg>
