<svg width="357" height="359" viewBox="0 0 357 359" fill="none" xmlns="http://www.w3.org/2000/svg">
<path d="M86.5722 253.095C87.2505 253.203 90.9633 253.382 90.9633 252.736C90.9633 252.359 90.285 252.377 90.285 252.377C90.3743 249.505 93.9978 248.787 96.5861 250.295C97.2995 250.708 97.9591 251.208 98.5496 251.785C94.8903 251.982 90.0351 254.495 90.3564 258.139C90.541 259.089 90.9371 259.985 91.5153 260.759C92.0934 261.533 92.8384 262.165 93.6944 262.608C94.7644 263.414 95.9831 263.997 97.2794 264.323C98.5758 264.65 99.9238 264.714 101.245 264.511C103.598 263.908 105.668 262.499 107.1 260.526C110.335 260.63 113.501 259.567 116.025 257.529C116.131 257.444 116.219 257.338 116.284 257.217C116.348 257.097 116.388 256.965 116.4 256.829C116.4 256.2 116.4 256.236 112.83 252.251C112.729 252.138 112.602 252.051 112.46 251.997C112.319 251.943 112.166 251.924 112.016 251.941C111.865 251.959 111.721 252.012 111.596 252.098C111.47 252.183 111.367 252.297 111.294 252.431C111.233 252.509 111.179 252.593 111.134 252.682C110.85 253.218 110.392 253.638 109.836 253.874C109.28 254.109 108.66 254.145 108.082 253.975C106.297 253.454 103.994 248.697 99.7991 245.861C96.1398 243.384 91.2311 242.648 87.7682 245.592C86.2778 246.878 85.2181 248.596 84.7337 250.51C84.541 251.1 84.5793 251.742 84.8408 252.305C85.3096 252.762 85.9216 253.041 86.5722 253.095ZM93.2838 259.754C92.7945 259.403 92.4548 258.879 92.3324 258.287C92.21 257.695 92.3139 257.078 92.6234 256.559C93.415 255.459 94.5151 254.622 95.7828 254.154C94.7601 255.898 93.9225 257.745 93.2838 259.665V259.754ZM110.099 256.918C110.527 255.626 110.099 256.075 110.813 255.752C111.354 255.481 111.843 255.116 112.258 254.675L113.883 256.613C112.538 257.471 111.05 258.079 109.492 258.408C109.67 257.941 109.956 257.223 110.099 256.829V256.918ZM103.637 252.341C105.333 254.477 106.743 256.38 109.331 256.164C108.962 256.937 108.663 257.742 108.438 258.57C107.135 258.659 106.957 258.354 106.439 258.57C105.422 258.965 103.744 262.644 99.6741 262.626C99.9275 262.057 100.09 261.451 100.156 260.831C101.308 260.598 102.386 260.086 103.298 259.342C103.689 259.001 103.942 258.529 104.012 258.013C104.012 257.385 103.797 256.577 102.477 255.518C102.969 254.47 103.357 253.376 103.637 252.251V252.341ZM97.6392 259.126C96.0684 258.283 98.7459 256.793 100.477 256.847C100.875 256.85 101.264 256.966 101.599 257.182C101.934 257.398 102.201 257.705 102.369 258.067C102.131 258.453 101.817 258.786 101.446 259.046C101.075 259.305 100.655 259.486 100.212 259.577C99.7693 259.668 99.3126 259.667 98.8702 259.574C98.4278 259.481 98.0089 259.298 97.6392 259.036V259.126ZM99.7455 248.141C100.958 249.177 102.058 250.338 103.03 251.605C102.465 252.641 102.033 253.745 101.745 254.89C100.995 254.673 100.208 254.614 99.4344 254.716C98.6606 254.818 97.9159 255.079 97.2465 255.482C93.98 257.277 94.7475 261.208 99.2814 260.76C99.015 261.276 98.817 261.825 98.6924 262.393C96.8823 262.03 95.1897 261.223 93.7658 260.042C95.0312 258.065 96.0165 255.92 96.6932 253.669C97.3871 253.349 98.1378 253.171 98.9011 253.146C99.6644 253.122 100.425 253.251 101.138 253.526L101.513 252.108L101.12 251.928C100.281 251.354 99.9062 250.905 98.9423 250.133C99.3001 249.478 99.5701 248.778 99.7455 248.051V248.141ZM92.8197 245.269C95.0535 245.31 97.2165 246.064 98.9958 247.423C98.6762 248.154 98.4368 248.919 98.2818 249.702C97.4262 249.027 96.4169 248.577 95.3449 248.392C94.2729 248.207 93.1719 248.293 92.1414 248.643C92.5181 247.554 92.7463 246.419 92.8197 245.269ZM88.7321 246.669C89.7216 245.895 90.9108 245.421 92.1593 245.305C91.6054 246.511 91.2613 247.804 91.1418 249.128C90.61 249.449 90.1747 249.909 89.8824 250.459C89.59 251.009 89.4516 251.628 89.4818 252.251C88.2312 252.321 86.9797 252.131 85.8047 251.695C86.0702 249.701 87.1099 247.894 88.6964 246.669H88.7321ZM62.0642 243.671C58.8512 242.271 51.7112 246.418 50.4081 248.643C50.2197 249.134 50.2197 249.678 50.4081 250.169C51.5327 254.459 62.0285 269.609 63.9741 271.96C64.3133 272.391 64.7774 271.799 64.4739 271.296C63.5457 269.753 63.6528 272.858 68.4009 257.403C68.8408 257.23 69.2505 256.987 69.6147 256.685C69.7803 256.5 69.872 256.26 69.872 256.012C69.872 255.763 69.7803 255.523 69.6147 255.339C69.4527 255.137 69.2669 254.956 69.0614 254.8L70.1859 250.618L74.6484 253.095C73.746 255.363 73.0877 257.722 72.6849 260.131C70.8852 260.784 69.1987 261.717 67.6869 262.896C66.6338 264.062 68.2938 266.216 69.3291 267.509C70.3644 268.801 71.2391 269.681 71.4354 269.878C71.6318 270.076 72.2565 269.878 72.203 269.555C72.0897 269.295 71.9393 269.053 71.7567 268.837C70.7895 267.323 69.9592 265.725 69.2756 264.062C70.6629 263.228 72.1275 262.53 73.6488 261.98C74.2022 261.783 75.9158 261.244 76.3799 261.531C78.6699 262.745 81.0586 263.759 83.5199 264.565C83.6193 264.613 83.7335 264.619 83.8372 264.582C83.941 264.544 84.0259 264.468 84.0732 264.368C84.1206 264.268 84.1265 264.153 84.0897 264.048C84.0529 263.944 83.9763 263.859 83.8769 263.811L80.7888 261.926C81.4463 260.427 81.8678 258.835 82.0383 257.206L89.6603 261.352C90.1244 261.621 90.4814 260.885 90.1422 260.688C89.8031 260.49 66.6695 245.7 62.0642 243.671ZM59.351 245.574C59.9739 245.386 60.638 245.386 61.2609 245.574C61.6715 245.753 62.6711 246.292 64.0277 247.046C63.5701 248.316 63.2587 249.635 63.0995 250.977C61.9035 250.295 61.1895 249.774 60.2435 249.936C59.7278 250.052 59.2455 250.285 58.8333 250.618C59.0118 249.218 59.1725 248.141 59.351 245.574ZM52.211 249.523C54.0623 247.748 56.3082 246.443 58.7619 245.718C57.8093 249.952 57.1414 254.245 56.7627 258.57C54.9628 255.703 53.4443 252.667 52.2288 249.505L52.211 249.523ZM60.3149 264.619C59.3331 262.985 58.2621 261.172 57.2447 259.395C57.8516 256.829 58.0479 255.644 58.4228 253.221C59.3994 254.924 60.5287 256.534 61.7964 258.031C61.0768 260.168 60.5861 262.377 60.3327 264.619H60.3149ZM63.4386 269.788C62.796 268.765 61.9749 267.383 60.9039 265.606C61.5816 263.354 62.0301 261.039 62.2427 258.695C62.6354 259.647 66.134 258.283 67.08 257.924C66.3839 260.131 63.9563 267.814 63.4565 269.788H63.4386ZM62.9031 258.139C61.7969 256.214 60.819 254.217 59.9757 252.162L60.5291 251.856C60.779 252 66.8837 255.626 67.3299 255.913C65.9388 256.803 64.4616 257.549 62.921 258.139H62.9031ZM68.2581 254.19C66.9194 253.292 65.0987 252.197 63.7064 251.39C64.1828 250.119 64.4947 248.792 64.6346 247.441L69.704 250.313C69.6147 250.995 69.0078 252.395 68.3652 254.19H68.2581ZM80.0748 261.37L77.3259 259.701C76.1045 259.216 74.7454 259.216 73.5239 259.701C74.2157 257.602 74.7176 255.446 75.0233 253.257L81.485 256.847C80.8248 258.31 80.3856 259.865 80.1819 261.46L80.0748 261.37Z" fill="#5669FF"/>
<path d="M346.915 267.76C344.023 240.691 319.104 199.065 304.217 176.323C312.53 176.991 320.872 177.201 329.207 176.951C331.581 176.951 337.793 176.52 338.989 176.287C339.685 176.143 339.792 175.479 338.739 175.443C337.686 175.407 330.189 175.048 329.172 175.03H311.018C308.234 175.138 303.878 175.389 303.628 175.389C298.273 167.186 294.543 162.053 294.507 162.035C294.466 161.993 294.417 161.96 294.362 161.939C294.307 161.918 294.249 161.909 294.191 161.912C294.132 161.916 294.075 161.932 294.024 161.959C293.972 161.987 293.927 162.025 293.891 162.071C293.855 162.118 293.829 162.171 293.816 162.228C293.802 162.285 293.801 162.345 293.812 162.403C293.823 162.46 293.846 162.515 293.88 162.563C293.913 162.611 293.957 162.651 294.007 162.681C294.828 163.345 330.903 216.351 341.934 252.862C346.308 267.347 348.896 285.531 334.794 290.557C301.308 302.583 39.0378 306.496 14.2442 292.352C10.7991 290.395 9.99586 286.32 10.6742 280.828C11.7273 273.199 15.815 262.878 20.7416 251.318C26.2929 256.703 72.3459 299.226 79.8072 297.629C87.2685 296.031 129.234 276.43 130.965 272.678C131.971 270.073 132.503 267.306 132.536 264.511C132.747 264.219 132.846 263.859 132.813 263.499C132.78 263.139 132.618 262.803 132.358 262.555C129.591 259.79 74.7021 216.028 71.1678 216.154C68.7045 216.262 64.242 218.81 62.1179 220.067C61.4292 218.934 60.4038 218.047 59.1867 217.532C57.9695 217.016 56.6222 216.898 55.3349 217.195C54.1211 217.688 53.0343 218.451 52.1563 219.427C51.2782 220.404 50.6317 221.567 50.2655 222.831C50.2855 222.928 50.3381 223.015 50.4145 223.078C50.4909 223.14 50.5864 223.175 50.6849 223.175C50.7835 223.175 50.879 223.14 50.9554 223.078C51.0318 223.015 51.0844 222.928 51.1044 222.831C52.178 221.005 53.88 219.639 55.8882 218.99C56.7232 218.861 57.5774 218.973 58.3516 219.313C59.1258 219.653 59.788 220.207 60.2615 220.911L40.4123 229.437C39.3583 228.347 38.0426 227.55 36.5924 227.121C33.2009 226.224 30.9161 228.468 29.5595 231.752C29.5296 231.847 29.533 231.949 29.5692 232.041C29.6054 232.133 29.6721 232.21 29.7581 232.259C29.8441 232.307 29.9441 232.324 30.0412 232.307C30.1384 232.29 30.2267 232.24 30.2913 232.165C32.5761 228.844 35.2179 227.714 38.3774 230.37C34.5575 232.075 29.2203 234.499 25.4718 236.366C25.7396 235.935 64.2599 165.786 64.2599 165.607C65.9556 162.447 69.365 156.793 72.8814 156.057C74.4708 155.709 76.0921 155.528 77.7188 155.519C75.2376 159.647 55.1028 193.214 55.0671 197.953C55.0671 203.338 55.9953 202.494 58.8513 203.338C61.7073 204.181 221.518 203.194 221.804 203.194C224.571 203.194 235.388 202.835 236.387 202.099C239.493 199.801 238.797 196.373 237.441 192.765C237.119 191.903 235.495 188.331 233.317 183.557C242.688 180.721 249.739 184.328 250.382 199.712C251.024 213.013 245.812 217.069 235.834 216.495C227.819 216.028 222.286 213.659 220.537 216.8C218.573 220.3 224 228.162 226.356 231.429C226.017 231.429 211.076 231.124 207.31 230.963C202.002 230.756 196.688 230.822 191.388 231.16C187.737 231.241 184.108 231.741 180.57 232.65C179.232 233.314 177.5 236.778 176.768 238.232C175.323 241.086 168.736 259 166.915 264.17C165.844 267.15 162.221 277.022 164.648 278.763C164.559 280.684 164.862 283.251 166.54 284.148C168.218 285.046 191.28 285.692 193.048 285.728C196.171 285.818 227.748 286.231 247.901 285.333C268.053 284.436 276.853 282.497 276.336 282.551C276.848 282.399 277.307 282.107 277.664 281.708C278.02 281.309 278.258 280.817 278.353 280.289C278.628 278.962 278.542 277.586 278.103 276.304C280.352 271.907 263.341 235.396 258.629 232.829C258.35 232.672 258.038 232.585 257.718 232.578C256.772 232.578 235.602 231.681 227.373 231.411C225.588 228.88 219.787 219.349 222.018 217.321C225.41 214.341 253.738 229.275 252.22 199.55C251.435 186.106 245.277 178.225 232.782 182.785C231.693 180.415 222.554 160.778 220.108 155.555C229.582 156.125 239.086 155.915 248.525 154.926C248.661 156.602 249.14 158.231 249.933 159.71C250.725 161.19 251.814 162.489 253.131 163.524C260.271 168.909 288.688 168.102 293.847 161.514C295.292 159.526 296.291 157.246 296.775 154.832C297.259 152.418 297.216 149.927 296.649 147.531C297.124 147.227 297.492 146.781 297.702 146.257C297.988 145.7 297.702 145 296.471 144.749C294.882 144.509 293.275 144.413 291.669 144.462C291.669 142.99 291.758 140.243 291.669 137.12C291.829 137.012 292.99 135.612 293.115 135.451C294.537 133.779 295.66 131.872 296.435 129.814C297.024 128.145 297.256 126.224 295.703 125.291C293.311 123.981 291.633 126.386 290.83 129.078C290.08 124.932 288.349 118.847 284.208 119.457C277.175 120.534 282.03 137.676 284.315 144.462C282.308 144.177 280.271 144.177 278.264 144.462C280.495 138.825 281.637 131.538 275.907 130.443C275.039 130.249 274.133 130.317 273.302 130.636C272.47 130.955 271.75 131.512 271.231 132.238C271.116 131.831 270.901 131.461 270.605 131.161C270.309 130.861 269.942 130.642 269.539 130.524C269.136 130.405 268.71 130.392 268.3 130.484C267.89 130.577 267.511 130.773 267.197 131.053C264.573 132.956 266.072 137.317 269.124 138.753C268.964 140.599 268.964 142.455 269.124 144.3C267.224 144.069 265.301 144.111 263.412 144.426C263.307 140.043 262.829 135.677 261.984 131.376C263.069 130.6 263.981 129.606 264.664 128.456C265.346 127.307 265.783 126.027 265.947 124.699C266.197 122.311 265.358 120.319 263.377 119.798C260.895 119.152 259.432 120.893 259.003 123.388C256.808 120.337 252.506 119.242 250.418 122.742C243.724 115.742 240.493 119.655 242.189 122.742C243.456 125.111 246.758 126.44 249.329 127.176C249.329 131.196 251.114 134.589 253.327 138.053C254.809 140.387 256.469 142.631 257.754 144.282C254.976 144.192 252.197 144.373 249.454 144.821C247.776 145.269 247.508 146.49 249.061 147.369C248.57 149.473 248.389 151.639 248.525 153.796C238.937 153.282 229.323 153.51 219.769 154.478C219.162 153.167 217.359 149.344 217.145 148.895C216.931 148.446 218.645 143.241 221.054 94.8477C232.121 93.9143 281.887 95.0272 286.457 93.2502C286.719 93.1556 286.951 92.9927 287.13 92.7783C287.308 92.5638 287.427 92.3054 287.474 92.0296C288.991 87.0215 290.027 43.9774 287.474 39.9746C286.849 38.9873 284.618 38.6822 283.386 38.5027C267.482 36.1692 201.116 37.1744 197.706 38.9873C194.297 40.8003 195.743 58.499 196.386 62.0172C161.917 60.9043 82.3241 63.0762 74.8271 65.8944C73.0421 66.5406 72.3816 68.9997 72.0246 70.8486C69.0615 86.2317 77.3796 135.738 80.1642 151.031C79.9857 151.031 80.1642 151.031 77.9865 154.442C76.1433 154.304 74.2901 154.401 72.4709 154.729C68.4011 155.357 64.6526 161.011 62.582 164.53C62.4927 164.709 57.227 173.505 56.4416 174.941C51.9612 174.241 31.1303 174.51 28.4885 174.653C25.8467 174.797 23.1335 174.994 20.7416 175.174C20.3132 175.174 20.2775 176 20.7416 176.018C25.7396 176.323 27.5781 176.43 31.4516 176.484C40.9299 176.628 54.9065 177.023 55.3527 176.969C54.4245 178.602 40.68 203.194 38.8415 206.676C30.8447 221.754 24.5615 235.558 24.1866 236.725C22.1116 237.673 20.1628 238.879 18.3854 240.315C17.8121 241.896 17.4694 243.553 17.3679 245.233C17.2787 248.123 18.314 248.823 19.9026 250.438C15.6399 259.623 12.1354 269.145 9.42466 278.907C8.53971 282.857 8.50319 286.951 9.31756 290.916C10.0464 294.879 11.4087 298.698 13.3517 302.224C14.2244 303.115 15.3554 303.706 16.5825 303.911C21.2771 305.24 35.8248 306.945 40.6979 307.501C40.3305 309.695 40.2286 311.925 40.3944 314.143C40.3992 316.428 40.7298 318.701 41.3762 320.892C41.382 320.946 41.3984 320.999 41.4245 321.047C41.4505 321.094 41.4857 321.137 41.528 321.171C41.5702 321.205 41.6188 321.23 41.6708 321.246C41.7229 321.261 41.7774 321.266 41.8313 321.26C41.8853 321.254 41.9375 321.238 41.9851 321.211C42.0326 321.185 42.0746 321.15 42.1086 321.107C42.1426 321.065 42.1679 321.016 42.1831 320.964C42.1983 320.911 42.2031 320.857 42.1973 320.802C42.4828 318.565 42.5605 316.305 42.4293 314.053C42.4176 311.885 42.1722 309.724 41.6975 307.609C44.1608 307.824 46.5348 308.004 48.6054 308.076C48.2761 310.171 48.1863 312.297 48.3377 314.412C48.3437 316.697 48.6743 318.97 49.3194 321.161C49.3194 321.271 49.3627 321.376 49.4397 321.453C49.5167 321.531 49.6211 321.574 49.73 321.574C49.8389 321.574 49.9433 321.531 50.0203 321.453C50.0973 321.376 50.1405 321.271 50.1405 321.161C50.4357 318.925 50.5194 316.665 50.3904 314.412C50.3782 312.316 50.1388 310.227 49.6764 308.183C53.657 308.273 112.241 313.568 213.414 311.558C240.529 311.02 273.123 309.763 299.969 306.801C299.615 308.966 299.513 311.165 299.666 313.353C299.674 315.634 300.011 317.901 300.665 320.084C300.653 320.144 300.653 320.207 300.668 320.266C300.682 320.326 300.709 320.382 300.748 320.43C300.786 320.478 300.835 320.516 300.89 320.543C300.945 320.569 301.006 320.583 301.067 320.583C301.128 320.583 301.188 320.569 301.244 320.543C301.299 320.516 301.347 320.478 301.386 320.43C301.424 320.382 301.452 320.326 301.466 320.266C301.48 320.207 301.481 320.144 301.469 320.084C301.78 317.849 301.864 315.588 301.718 313.335C301.699 311.118 301.442 308.909 300.951 306.747C302.932 306.532 307.52 305.958 307.912 305.904C307.561 308.057 307.465 310.244 307.627 312.42C307.628 314.705 307.959 316.979 308.609 319.169C308.62 319.278 308.675 319.379 308.76 319.448C308.846 319.517 308.955 319.549 309.064 319.537C309.173 319.525 309.272 319.47 309.341 319.384C309.41 319.298 309.441 319.189 309.43 319.079C309.723 316.848 309.801 314.594 309.662 312.348C309.65 310.136 309.393 307.932 308.894 305.778C316.944 304.683 341.56 301.345 344.915 294.434C348.878 286.554 348.557 276.304 346.915 267.76ZM184.48 238.861C184.676 238.376 190.656 237.066 197.189 238.861C197.249 238.848 197.311 238.849 197.37 238.863C197.429 238.877 197.485 238.905 197.532 238.944C197.58 238.982 197.618 239.031 197.645 239.087C197.671 239.142 197.685 239.203 197.685 239.264C197.685 239.326 197.671 239.387 197.645 239.442C197.618 239.498 197.58 239.547 197.532 239.585C197.485 239.624 197.429 239.651 197.37 239.666C197.311 239.68 197.249 239.681 197.189 239.668C193.936 240.249 190.614 240.334 187.336 239.92C185.801 239.668 183.855 239.65 184.426 238.861H184.48ZM276.246 281.546C259.735 284.705 168.522 283.987 167.147 283.341C165.773 282.694 165.648 280.612 165.612 279.248C175.501 282.479 272.123 279.984 277.496 277.13C277.782 278.71 277.853 281.241 276.193 281.546H276.246ZM241.6 239.058C241.6 238.448 245.527 238.107 245.705 238.089C248.04 237.908 250.385 237.908 252.72 238.089C254.023 238.232 255.826 238.412 255.683 238.968C255.54 239.525 252.845 239.758 252.381 239.83C250.637 239.992 248.885 240.063 247.133 240.045C245.955 240.009 241.475 239.794 241.546 239.058H241.6ZM264.537 245.035C269.003 253.592 272.752 262.508 275.747 271.691C276.127 272.851 276.338 274.06 276.371 275.281C268.321 277.794 175.537 280.379 166.148 277.668C165.701 277.543 165.576 277.668 165.469 276.915C164.791 272.032 172.734 252.628 174.573 248.105C208.345 246.974 264.18 245.233 264.483 245.035H264.537ZM249.507 126.368C247.555 125.29 245.784 123.908 244.259 122.275C243.563 121.216 243.724 120.48 245.777 121.486C247.062 122.078 248.865 123.137 250.078 123.873C249.766 124.672 249.574 125.512 249.507 126.368ZM292.347 129.581C293.775 126.996 295.185 126.26 295.043 127.786C294.275 130.516 293.185 133.144 291.794 135.612C291.687 133.817 291.562 132.615 291.419 131.43C291.49 131.179 291.847 130.425 292.294 129.581H292.347ZM284.761 145.197C285.118 146.221 285.35 146.831 285.368 146.867C285.388 146.918 285.417 146.964 285.455 147.003C285.492 147.043 285.537 147.074 285.587 147.096C285.637 147.118 285.691 147.129 285.745 147.13C285.799 147.131 285.853 147.121 285.903 147.1C286.689 146.795 285.528 146.059 283.672 135.235C283.119 132.004 281.477 122.042 284.725 121.575C287.367 121.18 288.795 127.768 289.295 130.371C290.221 135.388 290.817 140.461 291.08 145.556C291.079 145.656 291.113 145.752 291.177 145.828C291.241 145.904 291.33 145.954 291.427 145.97C291.525 145.985 291.625 145.964 291.709 145.912C291.792 145.859 291.854 145.777 291.883 145.682C291.889 145.58 291.889 145.479 291.883 145.377C293.497 145.425 295.101 145.647 296.667 146.041C296.468 146.275 296.217 146.459 295.935 146.58C292.187 148.518 280.852 148.141 276.943 148.069C277.478 146.992 277.853 146.167 278.264 145.18C280.397 145.532 282.572 145.538 284.707 145.197H284.761ZM270.838 141.266C271.248 137.676 272.159 131.95 275.765 132.632C279.37 133.315 278.46 138.574 277.674 142.092C277.19 144.11 276.594 146.1 275.889 148.052H270.534C270.491 145.787 270.575 143.522 270.784 141.266H270.838ZM268.571 132.83C268.654 132.75 268.753 132.689 268.861 132.65C268.968 132.611 269.083 132.596 269.198 132.604C269.312 132.613 269.423 132.645 269.524 132.699C269.626 132.754 269.714 132.829 269.785 132.92C270.069 133.206 270.326 133.518 270.552 133.853C270.045 134.998 269.691 136.205 269.499 137.443C268.571 136.151 267.375 133.799 268.571 132.83ZM262.948 121.916C265.269 122.652 263.448 128.791 261.895 130.658C261.466 128.726 260.825 126.848 259.985 125.058C260.503 123.478 261.377 121.414 262.948 121.898V121.916ZM258.557 145.395C259.432 146.508 260.003 147.19 260.003 147.19C260.074 147.26 260.168 147.302 260.267 147.308C260.367 147.314 260.465 147.284 260.543 147.222C260.622 147.161 260.676 147.072 260.695 146.974C260.713 146.876 260.696 146.774 260.646 146.687C260.646 146.687 257.486 142.164 254.88 137.479C252.917 133.889 251.042 130.299 251.56 126.332C251.97 123.209 253.613 121.88 256.379 123.693C260.378 126.278 262.199 142.218 262.77 147.028C262.775 147.154 262.819 147.275 262.896 147.375C262.973 147.475 263.078 147.548 263.198 147.585C263.68 147.585 263.609 147.064 263.591 146.813C263.573 146.562 263.591 145.305 263.591 145.18C265.487 145.421 267.406 145.421 269.303 145.18C269.41 146.49 269.535 147.513 269.624 148.052C263.287 148.052 255.63 148.482 250.382 146.418C253.079 145.881 255.811 145.54 258.557 145.395ZM250.007 148.034C252.618 149.051 255.37 149.657 258.164 149.829C261.324 150.116 282.833 150.152 285.279 150.026C288.966 149.965 292.617 149.279 296.078 147.998C296.41 150.202 296.285 152.451 295.71 154.604C295.136 156.758 294.125 158.768 292.74 160.509C288.402 165.625 260.967 166.791 254.38 162.124C250.043 159.127 249.257 153.131 250.007 148.016V148.034ZM235.62 200.735C235.995 201.937 65.795 201.991 65.6165 201.973C58.4765 201.973 60.2615 201.973 57.8696 201.381C57.227 201.237 57.102 201.237 56.9771 200.609C56.8257 199.624 56.7837 198.624 56.8521 197.629C56.8895 197.703 56.95 197.762 57.0242 197.798C57.0984 197.834 57.1822 197.844 57.2627 197.827C57.2627 197.827 235.566 195.386 236.727 195.35C237.209 197.45 237.28 199.406 235.62 200.735ZM285.832 91.7962C285.832 91.7962 285.939 91.6167 285.975 91.6706C286.01 91.7244 285.832 91.7783 285.743 91.7962H285.832ZM197.064 46.5263C197.064 45.3596 197.528 40.9439 198.563 40.4054C200.919 39.2207 275.8 38.2155 286.028 41.4285C287.813 45.198 287.242 87.5421 285.743 91.7962C276.96 93.1784 232.764 93.0707 221.268 94.2554C221.965 80.1287 222.268 68.2279 221.697 65.9123C221.587 65.6104 221.409 65.3381 221.176 65.117C220.944 64.8959 220.664 64.7319 220.358 64.6379C216.449 62.9326 201.741 62.448 197.457 62.3044C196.901 57.0644 196.769 51.7877 197.064 46.5263ZM73.6311 91.7244C73.3634 87.9549 72.0425 68.9279 75.6125 67.5996C77.3975 66.9714 83.6807 66.3431 92.802 65.8046C110.277 64.7097 137.82 63.8301 162.881 63.6506C168.45 63.6506 215.503 63.2378 220.108 66.4149C221.465 72.6256 217.127 141.625 216.163 148.285C173.984 149.667 124.004 151.749 81.4673 150.708C80.7533 146.598 75.2912 114.88 73.6311 91.7244ZM80.9139 151.911C80.9173 151.869 80.9173 151.827 80.9139 151.785C110.991 152.719 205.114 149.613 216.574 149.541C217.841 152.503 235.638 192.209 236.387 194.416C236.191 194.416 57.1199 196.858 56.8878 197.037C59.1369 189.462 77.7366 157.439 80.9139 151.911ZM129.984 272.176C128.663 274.761 88.643 292.746 80.4141 295.242C80.5737 294.414 80.6336 293.57 80.5926 292.729C92.7485 288.492 119.131 277.309 130.965 269.394C130.74 270.36 130.411 271.299 129.984 272.194V272.176ZM131.215 268.209C127.645 270.327 124.236 271.799 80.5748 291.759C80.5765 290.947 80.4684 290.137 80.2535 289.354C85.9655 286.661 124.7 271.565 131.608 265.552C131.519 266.324 131.394 267.257 131.215 268.227V268.209ZM39.2699 231.375C40.1282 232.392 40.6594 233.647 40.7933 234.974C40.9272 236.301 40.6574 237.637 40.0196 238.807C39.734 239.255 40.4123 239.722 40.6979 239.255C41.7755 238.074 42.4125 236.554 42.5004 234.953C42.5883 233.353 42.1216 231.771 41.1798 230.478C49.8549 226.475 58.3872 222.706 60.7256 221.682C61.3106 222.878 61.6237 224.189 61.6422 225.521C61.6607 226.852 61.3842 228.172 60.8327 229.383C60.6185 229.957 61.2611 230.173 61.5645 229.796C62.5463 228.541 63.1573 227.035 63.3277 225.447C63.4982 223.86 63.2212 222.257 62.5284 220.821C64.4562 219.726 68.9544 217.231 71.15 217.231C73.8989 217.231 129.68 262.86 130.715 263.901C126.057 268.729 82.806 285.943 79.1646 287.703C71.4891 285.908 24.6507 245.394 20.2596 241.23C22.9907 238.95 36.1997 232.811 39.2699 231.375ZM18.903 242.056C24.4722 247.53 70.9358 288.313 78.7184 289.605C78.5622 290.282 78.4903 290.975 78.5042 291.669C66.0092 285.531 30.3092 254.441 18.4925 244.443C18.546 244.443 18.8138 242.684 18.9566 242.056H18.903ZM19.1708 248.213C18.6673 247.442 18.4175 246.531 18.4568 245.61C30.1307 257.457 63.0818 286.59 78.4863 292.657C78.4545 293.617 78.5506 294.576 78.7719 295.511C69.6149 293.447 20.3846 249.684 19.2243 248.213H19.1708ZM344.041 293.841C332.51 316.853 19.5992 310.84 14.5298 301.865C12.381 298.109 10.9293 293.991 10.2458 289.713C10.9344 291.229 12.0845 292.487 13.5302 293.303C39.8054 308.686 301.219 304.665 335.348 292.334C342.577 289.713 346.218 284.059 347.04 276.179C347.524 282.229 346.48 288.305 344.005 293.841H344.041Z" fill="#5669FF"/>
<path d="M76.7548 171.763C202.972 173.558 215.021 172.463 218.555 171.907C219.394 171.781 219.93 171.494 219.894 170.507C219.894 167.904 213.825 155.967 212.218 155.142C211.504 154.765 83.6984 156.578 83.2522 156.721C83.1691 156.741 83.0911 156.779 83.0234 156.832C82.9557 156.884 82.8999 156.951 82.8595 157.026C81.6457 159.019 75.7195 168.856 75.9872 171.081C76.0162 171.267 76.1088 171.437 76.2489 171.561C76.389 171.686 76.5679 171.757 76.7548 171.763ZM83.7698 157.96C85.055 157.798 210.79 156.542 211.558 156.614C212.891 158.541 214.084 160.563 215.128 162.663C212.201 162.663 81.3601 163.363 80.6818 163.381C81.4672 161.801 82.5025 160.006 83.7698 157.96ZM80.1998 164.242C80.896 164.242 213.289 163.56 215.556 163.506C216.731 165.706 217.659 168.03 218.323 170.435C211.969 171.458 154.063 170.956 77.3974 170.435C78.1137 168.261 79.0404 166.163 80.1641 164.171L80.1998 164.242ZM175.269 177.866C174.913 177.074 174.331 176.405 173.597 175.945C172.863 175.485 172.01 175.254 171.146 175.282C166.612 175.282 128.538 174.223 125.11 175.623C122.923 178.289 121.23 181.329 120.112 184.598C120.005 185.387 120.398 185.746 120.88 185.8C131.59 186.967 167.094 188.08 176.304 186.375C177.447 186.159 177.589 184.939 177.357 183.772C176.805 181.755 176.107 179.781 175.269 177.866ZM121.38 184.598C122.405 181.685 123.797 178.916 125.521 176.359C128.234 175.461 163.524 177.328 171.199 177.31C171.656 177.294 172.108 177.41 172.501 177.646C172.893 177.881 173.21 178.226 173.413 178.638C174.28 180.503 174.956 182.451 175.43 184.454C166.38 185.872 127.949 185.064 121.38 184.598ZM299.237 180.164C296.72 176.682 284.1 176.843 279.87 176.969C276.3 176.969 263.323 177.561 263.323 181.079C263.338 181.364 263.42 181.642 263.563 181.888C263.706 182.135 263.905 182.344 264.144 182.498C264.483 182.767 262.145 206.425 265.358 219.116C266.411 223.316 267.768 225.398 271.748 227.139C279.388 230.478 292.062 229.742 297.149 222.616C298.166 220.534 297.952 214.466 298.041 212.618C305.949 214.197 312.428 210.966 314.106 202.404C315.159 196.893 313.803 193.285 311.464 191.096C309.902 189.817 308.055 188.936 306.082 188.53C304.108 188.124 302.066 188.203 300.13 188.762C300.062 188.785 299.99 188.791 299.92 188.781C299.849 188.77 299.782 188.742 299.724 188.7C299.667 188.658 299.62 188.602 299.588 188.538C299.556 188.474 299.54 188.403 299.541 188.331C299.541 187.38 299.88 180.936 299.237 180.164ZM265.322 180.541C270.142 177.705 289.777 177.489 296.113 180.379C296.328 180.487 297.131 180.9 297.131 181.079C297.131 181.259 296.31 181.69 296.113 181.78C291.33 183.951 274.247 184.939 265.269 181.636C264.644 181.295 265.269 180.613 265.269 180.541H265.322ZM300.63 190.593C302.252 190.123 303.963 190.055 305.617 190.396C307.271 190.737 308.818 191.476 310.126 192.55C312.053 194.345 313.017 197.432 312.125 202.009C311.947 203.6 311.399 205.127 310.524 206.465C309.65 207.803 308.473 208.915 307.091 209.71C304.164 211.035 300.868 211.289 297.774 210.428C297.621 210.372 297.46 210.349 297.298 210.359C297.137 210.369 296.979 210.413 296.835 210.487C296.691 210.561 296.564 210.664 296.461 210.79C296.358 210.915 296.283 211.061 296.238 211.218C295.756 212.582 296.435 218.092 295.453 221.575C290.937 227.732 279.388 228.288 272.551 225.398C269.089 223.908 268.125 222.364 267.196 218.649C264.805 209.835 264.662 191.885 265.197 183.054C270.82 185.729 290.294 186.5 297.952 182.551C297.952 188.116 297.274 189.049 298.666 190.18C298.935 190.384 299.246 190.527 299.576 190.599C299.906 190.67 300.247 190.668 300.576 190.593H300.63ZM127.235 228.629C122.547 224.631 117.504 221.074 112.169 218.003C110.114 216.783 107.928 215.802 105.654 215.077C103.744 214.574 102.941 215.561 103.333 216.872C104.138 218.753 105.202 220.511 106.493 222.095C110.6 227.323 115.323 232.031 120.559 236.114C128.52 242.81 138.837 250.923 146.37 256.685C146.754 256.967 147.189 257.169 147.652 257.279C148.114 257.39 148.594 257.406 149.063 257.327C149.532 257.249 149.98 257.077 150.382 256.822C150.784 256.567 151.131 256.233 151.403 255.841C152.724 254.387 153.546 251.838 152.064 250.456C150.35 248.913 139.872 238.986 127.235 228.629ZM110.134 224.644L107.689 220.677C108.559 220.314 109.296 219.686 109.795 218.882L113.669 220.462C112.697 220.656 111.818 221.174 111.177 221.934C110.535 222.693 110.168 223.648 110.134 224.644ZM115.614 229.221C114.324 228.13 113.13 226.929 112.044 225.631C112.169 223.459 112.847 222.49 115.007 222.418C116.446 223.11 117.805 223.959 119.059 224.949C118.099 225.184 117.243 225.73 116.62 226.501C115.998 227.273 115.645 228.228 115.614 229.221ZM146.138 255.339C144.156 253.669 117.81 231.196 116.185 229.76C116.322 228.755 116.758 227.815 117.437 227.065C118.116 226.315 119.005 225.79 119.987 225.56C126.146 230.155 134.999 237.766 150.44 250.69C149.839 250.659 149.238 250.761 148.68 250.988C148.123 251.216 147.621 251.563 147.211 252.006C146.801 252.449 146.493 252.977 146.307 253.553C146.122 254.128 146.064 254.738 146.138 255.339ZM287.581 275.227C289.812 276.753 291.365 276.053 292.811 273.935C296.381 268.837 308.876 246.274 308.876 246.094C308.876 245.915 309.019 246.256 308.43 239.004C308.404 238.731 308.307 238.471 308.146 238.249C307.986 238.028 307.77 237.854 307.519 237.745C307.269 237.637 306.995 237.599 306.725 237.634C306.455 237.669 306.199 237.776 305.984 237.945L299.88 242.415C299.88 242.415 286.332 270.578 286.189 270.829C285.944 271.618 285.946 272.462 286.195 273.249C286.444 274.036 286.928 274.727 287.581 275.227ZM306.484 240.135C306.591 241.445 306.734 243.186 306.841 244.389C305.515 243.751 304.128 243.252 302.7 242.899L306.484 240.135ZM301.379 244.12C302.926 245.223 304.714 245.937 306.591 246.202C306.324 246.669 292.686 271.691 292.543 271.942C292.129 271.094 291.448 270.408 290.605 269.989C289.763 269.57 288.806 269.443 287.885 269.627C289.277 267.024 300.879 245.017 301.379 244.12Z" fill="#5669FF"/>
<path d="M293.168 208.525C292.976 208.253 292.731 208.023 292.449 207.847C292.167 207.672 291.854 207.554 291.526 207.502C290.47 207.218 289.397 207.002 288.313 206.856C288.92 211.128 289.277 215.831 289.259 216.243C289.232 216.517 289.099 216.768 288.888 216.943C288.677 217.118 288.406 217.202 288.134 217.177C287.861 217.145 287.611 217.007 287.438 216.793C287.264 216.578 287.181 216.304 287.206 216.028C287.206 215.723 287.099 214.484 287.01 206.676C283.44 206.227 266.25 204.881 266.929 208.328C266.929 208.507 265.519 217.303 270.981 221.521C276.443 225.739 287.367 224.913 291.187 220.623C292.271 219.317 292.986 217.743 293.257 216.064C293.679 213.566 293.649 211.012 293.168 208.525ZM297.452 192.28C297.452 193.088 296.381 199.263 295.667 207.556L296.524 207.735C299.665 208.406 302.936 208.047 305.86 206.712C306.879 206.143 307.723 205.302 308.299 204.283C308.875 203.263 309.161 202.104 309.126 200.932C309.247 199.475 308.995 198.011 308.394 196.68C307.793 195.349 306.863 194.194 305.693 193.327C304.522 192.459 303.15 191.908 301.708 191.724C300.265 191.541 298.8 191.733 297.452 192.28ZM298.255 192.891C299.395 192.709 300.559 192.776 301.671 193.085C302.783 193.395 303.815 193.941 304.699 194.686C305.548 195.468 306.205 196.438 306.62 197.518C307.035 198.599 307.196 199.761 307.091 200.914C306.931 205.527 302.218 206.407 297.702 205.94C297.916 202.673 298.095 198.922 298.255 192.891ZM279.138 87.524C279.133 87.8438 279.192 88.1613 279.309 88.4583C279.427 88.7552 279.603 89.0258 279.825 89.2544C280.047 89.483 280.312 89.6651 280.605 89.7902C280.898 89.9153 281.212 89.9809 281.53 89.9832C282.016 89.9939 282.494 89.8588 282.903 89.5952C283.312 89.3316 283.634 88.9513 283.827 88.503C284.02 88.0547 284.077 87.5587 283.988 87.0782C283.9 86.5976 283.672 86.1544 283.332 85.8051C282.992 85.4558 282.556 85.2162 282.081 85.1168C281.605 85.0175 281.11 85.063 280.66 85.2474C280.211 85.4318 279.825 85.7469 279.554 86.1524C279.283 86.5579 279.138 87.0354 279.138 87.524ZM83.7698 146.741C84.1804 147.549 84.7159 147.639 85.055 147.387C85.3942 147.136 198.438 146.149 206.846 145.7C208.654 145.728 210.457 145.498 212.201 145.018C216.217 141.428 217.788 74.3128 216.217 71.2075C212.201 63.1479 86.5009 68.3355 78.7718 70.6869C72.6136 72.5537 80.9317 141.015 83.7698 146.741ZM78.4327 73.5948C78.4327 73.2717 78.8254 72.0152 79.1288 71.9255C87.679 69.3407 211.826 65.0865 215.199 71.8357C215.487 73.1862 215.619 74.5655 215.592 75.9463C215.896 83.7725 215.592 100.538 214.789 115.562C214.628 118.434 213.361 141.966 211.504 144.102C204.097 145.682 89.9459 146.041 84.8765 146.238C81.9848 139.489 75.7373 85.4418 78.4327 73.5948ZM281.762 47.9443C282.247 47.955 282.724 47.8203 283.133 47.5575C283.542 47.2946 283.863 46.9154 284.057 46.4682C284.251 46.0209 284.308 45.5258 284.222 45.0458C284.135 44.5658 283.908 44.1226 283.57 43.7726C283.232 43.4226 282.798 43.1816 282.324 43.0802C281.849 42.9789 281.355 43.0218 280.905 43.2034C280.455 43.3851 280.068 43.6974 279.795 44.1005C279.522 44.5036 279.374 44.9793 279.37 45.4672C279.363 45.7884 279.42 46.1079 279.536 46.4069C279.653 46.706 279.828 46.9787 280.05 47.2092C280.273 47.4397 280.539 47.6234 280.833 47.7496C281.127 47.8758 281.443 47.942 281.762 47.9443Z" fill="#5669FF"/>
<path d="M113.365 118.829H134.571C137.025 118.819 139.375 117.831 141.105 116.081C142.835 114.331 143.804 111.962 143.799 109.495V92.191C143.8 89.7181 142.831 87.3445 141.104 85.5841C139.377 83.8238 137.03 82.8182 134.571 82.7852H113.365C112.136 82.7805 110.917 83.0205 109.78 83.4915C108.643 83.9625 107.61 84.6552 106.741 85.5295C105.871 86.4039 105.183 87.4426 104.714 88.586C104.246 89.7293 104.007 90.9545 104.012 92.191V109.495C104.016 110.725 104.262 111.943 104.735 113.078C105.207 114.213 105.898 115.243 106.766 116.11C107.635 116.977 108.664 117.663 109.797 118.129C110.929 118.596 112.142 118.834 113.365 118.829ZM105.529 92.191C105.562 90.1163 106.399 88.1365 107.863 86.6743C109.327 85.2121 111.302 84.3833 113.365 84.3648H134.571C135.613 84.353 136.647 84.5488 137.614 84.9411C138.58 85.3334 139.459 85.9143 140.201 86.6503C140.943 87.3863 141.533 88.2628 141.936 89.2292C142.339 90.1956 142.548 91.2328 142.55 92.2808V109.495C142.545 110.544 142.335 111.582 141.932 112.549C141.528 113.516 140.939 114.394 140.198 115.132C139.457 115.871 138.579 116.455 137.613 116.852C136.648 117.249 135.614 117.451 134.571 117.447H113.365C112.331 117.442 111.309 117.233 110.355 116.83C109.402 116.428 108.537 115.841 107.809 115.103C107.082 114.364 106.506 113.489 106.115 112.527C105.723 111.565 105.524 110.534 105.529 109.495V92.191ZM170.699 131.645C171.056 132.704 171.949 132.471 172.199 131.807C172.538 130.855 174.519 124.016 174.769 122.832C176.144 122.401 172.27 123.747 184.248 119.367C184.372 119.319 184.479 119.234 184.554 119.123C184.629 119.013 184.669 118.882 184.669 118.748C184.669 118.614 184.629 118.483 184.554 118.373C184.479 118.262 184.372 118.177 184.248 118.129L165.898 110.751C165.785 110.698 165.66 110.675 165.536 110.685C165.412 110.695 165.292 110.737 165.189 110.808C165.086 110.879 165.004 110.975 164.95 111.088C164.895 111.201 164.871 111.326 164.88 111.451C164.88 111.451 169.718 128.791 170.699 131.645ZM166.719 112.672L182.177 118.793C180.106 119.565 176.608 120.893 174.93 121.575C174.18 121.862 173.877 121.988 173.698 122.221C173.52 122.455 174.144 121.055 171.52 129.186L166.719 112.672ZM208.845 60.0426C208.866 60.1502 208.924 60.247 209.009 60.316C209.094 60.3849 209.2 60.4216 209.309 60.4195C209.684 60.4195 221.233 61.5324 223.589 60.9042C225.106 60.4913 225.374 57.7988 225.517 56.2192C225.695 53.8319 225.517 47.9802 224.517 45.9877C223.161 43.2952 213.147 44.1927 210.237 44.7133C209.465 44.8225 208.727 45.1047 208.077 45.539C207.699 45.9803 207.479 46.5365 207.453 47.1186C207.435 51.4653 207.902 55.8004 208.845 60.0426ZM209.362 46.9211C212.183 46.0416 220.215 45.7005 222.768 46.9211C223.642 49.2546 224.107 57.2783 223.053 59.1451C221.393 59.5759 211.255 59.5759 209.559 59.5938C209.505 58.1937 208.684 50.6368 209.362 46.9211ZM232.8 59.9708C232.824 60.0769 232.882 60.1717 232.967 60.2401C233.051 60.3085 233.155 60.3464 233.264 60.3477C233.638 60.3477 245.187 61.4606 247.544 60.8324C249.061 60.4195 249.329 57.727 249.489 56.1474C249.65 53.7601 249.489 47.9084 248.472 45.9159C247.115 43.2055 237.101 44.1209 234.192 44.6415C233.421 44.7581 232.685 45.0397 232.032 45.4672C231.662 45.9134 231.443 46.4668 231.407 47.0468C231.391 51.3935 231.858 55.7284 232.8 59.9708ZM233.317 46.8493C236.137 45.9518 244.17 45.6287 246.723 46.8493C247.597 49.1828 248.061 57.2065 247.008 59.0553C245.348 59.5041 235.209 59.5041 233.514 59.522C233.46 58.1219 232.639 50.565 233.317 46.8493ZM257.861 60.7606C257.882 60.8682 257.94 60.965 258.025 61.034C258.11 61.1029 258.216 61.1396 258.325 61.1375C258.7 61.1375 270.249 62.2504 272.605 61.6222C274.122 61.2093 274.39 58.5168 274.533 56.9372C274.711 54.5499 274.533 48.6982 273.533 46.7057C272.177 44.0132 262.163 44.9107 259.253 45.4313C258.482 45.5452 257.745 45.8269 257.093 46.257C256.715 46.6983 256.495 47.2545 256.469 47.8366C256.451 52.1833 256.918 56.5184 257.861 60.7606ZM258.379 47.6391C261.199 46.7596 269.231 46.4185 271.784 47.6391C272.659 49.9726 273.123 57.9963 272.07 59.8631C270.409 60.2939 260.271 60.2939 258.575 60.3118C258.521 58.9117 257.7 51.3548 258.379 47.6391ZM232.96 87.5779C233.085 87.9369 233.371 87.9728 233.424 87.9548C233.817 87.9548 245.348 89.0677 247.704 88.4395C249.222 88.0266 249.489 85.3341 249.65 83.7545C249.811 81.3672 249.65 75.5155 248.65 73.541C247.276 70.8305 237.262 71.746 234.37 72.2486C233.593 72.3599 232.85 72.6418 232.193 73.0743C231.819 73.5253 231.6 74.0856 231.568 74.6718C231.551 79.0126 232.018 83.3416 232.96 87.5779ZM233.496 74.4564C236.316 73.5769 244.331 73.2358 246.883 74.4564C247.758 76.7899 248.222 84.8136 247.169 86.6804C245.509 87.1112 235.388 87.1112 233.692 87.1291C233.621 85.729 232.8 78.1721 233.496 74.4564ZM274.693 72.805C277.549 68.5688 280.048 64.7455 280.138 64.566C280.227 64.3865 278.924 62.771 278.156 63.9198C272.694 72.3742 273.444 71.5665 273.051 71.4229C269.91 70.2741 259.771 70.669 258.182 72.1588C257.111 73.164 257.522 76.8079 257.647 78.3695C256.504 77.7233 255.63 77.2566 255.308 77.131C254.487 76.8079 254.541 77.6156 254.987 77.9028L257.772 79.6978C257.997 82.0568 258.361 84.4003 258.861 86.7163C258.878 86.8256 258.935 86.9246 259.021 86.9942C259.106 87.0638 259.215 87.099 259.325 87.0932C259.699 87.0932 271.248 88.2061 273.605 87.5779C276.675 86.7163 275.729 75.3898 274.693 72.805ZM259.378 73.541C263.577 72.5802 267.928 72.5007 272.159 73.3076L265.965 83.1263C265.34 82.7673 262.002 80.7928 259.218 79.2132C259.1 77.3394 259.154 75.4587 259.378 73.5948V73.541ZM273.069 85.747C271.391 86.1957 261.27 86.1957 259.575 86.2137C259.575 85.4957 259.307 83.1442 259.182 80.5415L265.965 84.7777C266.136 84.7965 266.309 84.766 266.464 84.6898C266.619 84.6135 266.749 84.4946 266.839 84.3469C267.411 83.6109 270.285 79.4106 273.212 75.0847C273.765 78.3157 273.944 84.2033 273.105 85.747H273.069ZM202.098 47.3519C202.582 47.359 203.057 47.2213 203.464 46.9562C203.87 46.6912 204.189 46.3107 204.38 45.8631C204.571 45.4154 204.626 44.9208 204.537 44.442C204.448 43.9631 204.22 43.5216 203.881 43.1734C203.543 42.8251 203.109 42.5859 202.634 42.4861C202.16 42.3862 201.667 42.4302 201.218 42.6125C200.769 42.7948 200.384 43.1071 200.111 43.5099C199.839 43.9126 199.691 44.3877 199.688 44.8748C199.688 45.5226 199.94 46.1446 200.39 46.6076C200.841 47.0706 201.454 47.3378 202.098 47.3519Z" fill="#5669FF"/>
</svg>
