<svg width="357" height="357" viewBox="0 0 357 357" fill="none" xmlns="http://www.w3.org/2000/svg">
<path d="M266.875 214.575C269.392 212.344 271.927 209.987 271.409 206.721C271.144 204.976 270.204 203.405 268.792 202.347C267.379 201.288 265.608 200.827 263.859 201.062L254.005 156.848C254.737 157.741 254.827 158.062 255.309 158.062C255.428 158.062 255.546 158.033 255.652 157.977C255.758 157.921 255.848 157.84 255.915 157.741C258.737 153.801 261.266 149.661 263.484 145.353C267.518 138.927 260.717 135.392 256.969 141.783C256.668 140.705 256.144 139.704 255.43 138.842C254.717 137.981 253.83 137.28 252.827 136.785C251.765 136.409 250.606 136.409 249.543 136.785L224.25 23.3836C223.145 18.5163 220.161 14.2833 215.947 11.6081C211.734 8.93284 206.633 8.03253 201.759 9.10355C133.661 24.2046 90.0711 33.4688 85.68 34.4862C75.3091 36.9138 67.83 57.6912 70.1505 67.7408L91.5169 163.256C91.3889 163.15 91.2279 163.092 91.0617 163.092C90.8956 163.092 90.7346 163.15 90.6066 163.256C73.6491 175.644 61.9216 195.386 56.3524 215.2C47.8201 245.241 54.1033 279.46 65.0097 308.591C67.2868 315.092 70.5825 321.189 74.7736 326.655C75.202 327.208 76.0945 326.53 75.7197 325.959C68.4369 314.892 65.1525 305.414 61.2612 291.776C54.2997 268.25 51.4437 243.153 57.1021 219.198C66.6519 180.41 90.8386 165.755 91.7668 164.399L99.5137 199.188C92.4266 206.977 86.6676 215.878 82.467 225.535C82.1278 226.302 82.824 226.642 83.2345 225.803C89.8962 212.038 99.4347 199.864 111.205 190.103C117.542 184.944 124.379 179.767 132.197 178.357C135.414 177.753 138.737 178.069 141.783 179.268C153.956 184.23 149.994 197.421 143.353 208.792C127.717 235.567 126.182 238.351 124.004 244.367C119.595 257.79 124.004 269.357 126.146 282.78C131.162 313.339 119.381 323.567 116.953 327.048C115.989 328.458 117.114 328.726 117.56 328.351C121.174 325.254 123.986 321.328 125.753 316.909L129.448 333.527C129.989 335.967 131.005 338.276 132.44 340.322C133.874 342.368 135.698 344.111 137.807 345.451C139.917 346.791 142.27 347.701 144.731 348.13C147.193 348.559 149.715 348.498 152.153 347.95L265.59 322.675C275.033 320.497 286.296 304.539 283.886 292.419C283.815 289.813 285.064 296.132 266.875 214.575ZM106.083 192.477L75.7375 56.4953C74.8038 52.3428 75.4658 47.991 77.5921 44.304C79.7183 40.6169 83.1533 37.8643 87.2151 36.5926C87.8934 36.3605 200.902 10.9064 202.098 10.6386C204.305 10.1471 206.588 10.0964 208.814 10.4894C211.041 10.8825 213.169 11.7114 215.074 12.9288C216.98 14.1462 218.626 15.728 219.919 17.5833C221.212 19.4387 222.125 21.5312 222.607 23.7406L248.008 137.677C247.306 138.245 246.77 138.991 246.455 139.837C244.349 144.603 248.454 149.708 251.631 153.885L262.216 201.384C261.061 201.751 259.996 202.36 259.093 203.169C258.968 198.903 257.218 195.047 253.22 194.797L250.007 180.339C252.131 175.341 253.006 173.752 253.702 169.807C253.904 168.722 253.843 167.605 253.524 166.549C253.204 165.492 252.636 164.528 251.866 163.738C251.096 162.947 250.148 162.353 249.101 162.005C248.053 161.657 246.938 161.566 245.848 161.739L217.288 33.2189C216.304 28.9459 213.672 25.2348 209.964 22.8944C206.256 20.5539 201.773 19.7738 197.492 20.7239L98.175 42.7329C93.9044 43.721 90.1963 46.3545 87.8566 50.0612C85.5169 53.768 84.7347 58.2483 85.68 62.5286L113.33 186.586C110.67 188.443 108.349 190.388 106.083 192.477ZM137.445 176.572C128.913 175.662 121.38 180.606 114.561 185.497L87.0544 62.1894C86.2031 58.3152 86.9217 54.2615 89.0528 50.916C91.184 47.5704 94.5539 45.2056 98.4249 44.3395C205.971 20.2955 198.635 21.8306 201.045 21.8127C204.461 21.8073 207.776 22.9714 210.439 25.1114C213.102 27.2514 214.952 30.2385 215.682 33.5759L244.242 162.096C239.493 163.363 236.78 168.558 236.155 172.806C232.996 168.433 227.123 166.558 223.66 170.807C222.873 172.147 222.498 173.689 222.58 175.241C222.663 176.793 223.2 178.286 224.125 179.535C225.462 181.43 226.942 183.22 228.551 184.89L219.144 187.604C218.484 178.286 213.522 161.543 203.686 147.923C201.981 145.297 199.743 143.06 197.118 141.354C200.32 138.401 203.005 134.931 205.061 131.09C205.144 130.947 205.177 130.779 205.154 130.615C205.132 130.45 205.055 130.297 204.937 130.181C204.818 130.065 204.665 129.991 204.5 129.971C204.335 129.952 204.168 129.987 204.025 130.073C203.633 130.323 203.204 130.555 202.794 130.769C203.338 129.942 203.759 129.04 204.043 128.092C204.071 127.967 204.065 127.837 204.027 127.715C203.988 127.593 203.919 127.484 203.825 127.397C203.731 127.311 203.616 127.25 203.492 127.221C203.367 127.193 203.237 127.198 203.115 127.235C201.33 127.967 199.849 126.075 199.384 124.183C198.046 118.613 199.384 116.257 196.154 109.474C198.919 104.88 200.626 99.7273 201.152 94.3909C201.473 93.2133 201.416 91.9648 200.991 90.8209C200.692 90.3133 200.236 89.9169 199.692 89.6915C199.147 89.4661 198.545 89.4239 197.974 89.5714C193.687 90.3279 189.536 91.7176 185.658 93.6947C186.229 89.1787 186.925 84.9125 187.068 80.6285C190.102 79.2897 198.546 75.452 196.778 68.2585C195.868 64.4921 190.727 59.7619 186.657 60.9578C186.877 58.5803 186.271 56.1997 184.941 54.2166C183.612 52.2335 181.64 50.7689 179.357 50.0693C176.785 49.499 174.097 49.7977 171.713 50.9185C169.329 52.0393 167.385 53.919 166.183 56.2633C164.367 54.1749 162.168 52.454 159.704 51.1939C157.845 50.4049 155.814 50.1085 153.808 50.3333C151.801 50.5581 149.886 51.2964 148.248 52.4771C146.61 53.6577 145.303 55.2407 144.456 57.0734C143.608 58.906 143.246 60.9262 143.407 62.9391C137.57 61.6182 131.037 65.5452 131.358 71.8641C131.405 73.3059 131.809 74.7135 132.535 75.9599C133.261 77.2064 134.286 78.2525 135.517 79.0042C137.18 79.6973 138.908 80.2235 140.676 80.575C141.656 80.9111 142.542 81.4769 143.26 82.2253C143.977 82.9737 144.505 83.8828 144.799 84.8768C146.607 89.8374 148.039 94.9271 149.083 100.103C149.083 100.281 149.387 99.7459 147.798 101.442C146.548 100.233 145.192 99.1398 143.746 98.175C142.157 96.872 140.712 95.7118 139.23 94.605C129.716 87.2151 129.377 101.87 133.554 111.241C134.894 114.396 136.699 117.332 138.909 119.952C138.802 120.47 138.73 121.005 138.659 121.523C137.873 121.255 136.874 122.683 136.677 123.486C136.643 123.595 136.636 123.709 136.655 123.821C136.674 123.933 136.719 124.038 136.787 124.129C136.855 124.22 136.944 124.293 137.046 124.343C137.148 124.392 137.26 124.417 137.374 124.415H138.373C138.129 126.912 138.046 129.422 138.123 131.929C138.248 134.714 138.123 141.265 135.41 141.497C135.286 141.493 135.165 141.528 135.061 141.595C134.958 141.663 134.877 141.76 134.831 141.875C134.784 141.99 134.773 142.116 134.8 142.236C134.827 142.357 134.891 142.466 134.982 142.55C135.686 143.151 136.459 143.666 137.284 144.085H135.642C135.531 144.083 135.422 144.112 135.327 144.168C135.231 144.225 135.154 144.308 135.104 144.407C135.053 144.506 135.032 144.617 135.042 144.727C135.052 144.838 135.093 144.943 135.16 145.031C140.176 151.047 147.655 153.117 155.616 153.956C154.974 157.134 153.564 162.185 151.35 164.827C150.552 165.632 149.615 166.285 148.583 166.755C143.782 167.915 141.443 173.895 143.871 178.786C141.911 177.598 139.72 176.843 137.445 176.572ZM212.04 212.933C208.791 218.52 206.078 219.377 199.777 220.198L160.507 225.785C156.152 226.57 140.515 228.891 141.747 224.696C142.996 221.572 150.065 212.897 151.868 210.684C150.868 218.288 153.921 221.394 161.257 220.108C200.527 212.968 198.742 214.129 199.509 212.772C200.973 213.058 202.062 211.63 203.079 210.362C204.781 207.95 206.331 205.434 207.72 202.83C208.951 200.801 209.776 198.551 210.148 196.207C213.852 195.488 217.646 195.349 221.394 195.797C221.538 195.922 221.652 196.079 221.726 196.256C221.8 196.432 221.833 196.623 221.822 196.814C221.447 197.76 222.625 194.708 212.058 212.933H212.04ZM222.411 198.992C222.864 201.714 222.222 204.505 220.626 206.757L214.575 216.985C213.302 219.682 211.649 222.183 209.666 224.41C208.363 225.473 206.757 226.097 205.079 226.195C203.615 226.409 153.082 232.728 153.082 232.728C146.227 233.924 143.086 233.692 141.693 227.248C146.191 229.926 158.133 227.052 199.545 221.644C205.882 220.822 209.63 220.091 213.129 213.807L222.411 198.992ZM166.612 192.423C166.995 192.687 167.348 192.993 167.665 193.333C166.682 194.22 165.824 195.234 165.112 196.35C165.103 196.397 165.103 196.445 165.112 196.492C165.122 196.539 165.14 196.584 165.167 196.623C165.193 196.663 165.227 196.697 165.267 196.724C165.307 196.751 165.351 196.769 165.398 196.778C165.445 196.788 165.493 196.788 165.54 196.779C165.587 196.769 165.632 196.751 165.671 196.724C165.711 196.698 165.745 196.664 165.772 196.624C165.799 196.584 165.817 196.54 165.826 196.493C166.563 195.631 167.376 194.836 168.254 194.119C168.632 194.737 168.966 195.382 169.254 196.047C169.111 196.243 169.022 196.314 169.022 196.439C169.017 196.498 169.023 196.557 169.042 196.613C169.06 196.669 169.088 196.721 169.127 196.766C169.165 196.81 169.211 196.847 169.264 196.874C169.316 196.901 169.373 196.917 169.432 196.921C169.825 196.921 170.414 195.618 173.002 193.351C173.181 193.583 173.288 193.798 173.591 193.798C173.657 193.8 173.722 193.789 173.783 193.765C173.844 193.74 173.899 193.703 173.945 193.656C173.99 193.609 174.025 193.552 174.047 193.491C174.069 193.429 174.078 193.363 174.073 193.298C174.04 193.067 173.967 192.844 173.859 192.637C174.45 192.122 175.103 191.684 175.805 191.334C176.189 191.804 176.524 192.313 176.804 192.851C175.702 193.961 174.688 195.155 173.77 196.421C173.715 196.488 173.687 196.573 173.69 196.659C173.693 196.745 173.726 196.827 173.785 196.89C173.844 196.953 173.924 196.993 174.009 197.002C174.095 197.011 174.181 196.989 174.252 196.939C174.502 196.939 174.751 196.207 177.322 193.815C177.418 194.164 177.617 194.475 177.893 194.708C175.805 196.939 174.037 199.17 174.894 202.294C175.031 202.824 175.271 203.321 175.602 203.756C175.933 204.191 176.348 204.556 176.822 204.829C176.974 205.629 177.432 206.34 178.098 206.809C178.764 207.279 179.587 207.471 180.392 207.346C181.461 207.202 182.485 206.824 183.391 206.239C185.604 207.703 187.639 205.525 188.996 204.204C190.762 202.438 192.363 200.514 193.78 198.456C194.672 197.171 194.369 197.492 194.565 197.546C195.065 197.689 195.225 196.814 197.046 194.815C197.271 195.266 197.553 195.686 197.885 196.064C197.944 196.161 198.04 196.231 198.15 196.258C198.26 196.285 198.377 196.266 198.474 196.207C198.571 196.148 198.641 196.053 198.668 195.942C198.694 195.832 198.676 195.715 198.617 195.618C198.383 195.076 198.089 194.561 197.742 194.083C198.322 193.424 198.968 192.826 199.67 192.298C200.02 192.815 200.331 193.358 200.598 193.922C199.403 195.136 198.36 196.49 197.492 197.957C197.314 198.51 198.189 198.635 198.189 198.153C199.034 196.948 199.997 195.83 201.062 194.815C201.437 195.547 201.705 196.279 202.205 196.064C202.325 195.998 202.42 195.894 202.474 195.768C202.529 195.642 202.541 195.502 202.508 195.368C202.396 194.869 202.228 194.384 202.008 193.922C203.262 192.872 204.592 191.917 205.989 191.066C201.684 196.178 199.104 202.519 198.617 209.184C198.653 209.965 198.617 210.748 198.51 211.523V211.665C198.064 212.683 196.386 212.701 196.154 212.736C195.422 212.736 198.171 212.379 162.239 218.573C158.151 219.269 154.278 219.377 153.546 215.36C152.439 207.613 156.794 197.403 166.612 192.423ZM167.719 191.941C168.729 191.423 169.803 191.039 170.914 190.799C167.487 192.78 169.111 193.066 167.79 191.941H167.719ZM171.753 191.656C172.806 192.941 172.485 191.656 169.968 194.993C169.766 194.415 169.464 193.877 169.075 193.405C169.893 192.715 170.792 192.127 171.753 191.656ZM172.752 191.138C173.461 190.892 174.138 190.562 174.769 190.156C175.144 190.549 175.162 190.156 173.502 191.459C173.02 191.816 173.377 191.798 172.752 191.138ZM179.892 191.548C180.053 191.888 179.892 191.816 180.142 192.084C179.839 192.477 178.964 193.565 178.625 193.869C178.522 193.54 178.384 193.223 178.214 192.923C178.5 192.78 178.75 192.512 179.964 191.548H179.892ZM177.643 191.995C177.516 191.744 177.366 191.505 177.197 191.281C177.052 191.1 176.897 190.927 176.733 190.763C177.348 190.439 177.979 190.147 178.625 189.888C178.869 190.102 179.096 190.335 179.303 190.585C178.751 191.028 178.22 191.498 177.715 191.995H177.643ZM197.064 193.155C197.544 192.309 197.967 191.432 198.331 190.531L199.01 191.495C198.281 191.983 197.636 192.586 197.1 193.28L197.064 193.155ZM200.509 191.656C201.294 191.156 201.455 191.084 202.008 190.692C202.794 190.692 203.597 190.692 204.4 190.817C200.455 193.173 202.33 193.94 200.58 191.656H200.509ZM207.114 197.885C207.008 197.731 206.848 197.623 206.665 197.583C206.483 197.543 206.292 197.575 206.132 197.671C205.81 197.921 205.81 197.992 204.882 199.277C204.686 199.063 204.49 198.885 204.311 198.671C204.24 198.577 204.136 198.514 204.02 198.494C203.904 198.474 203.785 198.499 203.686 198.563C203.151 198.92 203.793 199.706 204.186 200.348C203.865 200.848 203.544 201.366 203.276 201.866C203.215 201.947 203.181 202.045 203.175 202.146C203.17 202.247 203.194 202.348 203.246 202.435C203.297 202.523 203.373 202.593 203.464 202.638C203.555 202.683 203.657 202.7 203.758 202.687C203.758 202.687 204.025 202.687 204.079 202.562C205.489 201.134 204.579 201.205 205.864 202.098C206.018 202.194 206.202 202.232 206.382 202.205C205.525 203.776 201.509 211.023 199.866 211.737C199.91 204.231 202.697 196.999 207.703 191.406C207.705 191.467 207.723 191.527 207.754 191.58C207.785 191.633 207.829 191.677 207.881 191.709C208.06 192.066 208.238 192.423 208.399 192.798C209.016 195.685 208.471 198.699 206.881 201.187C206.881 200.955 206.757 200.938 205.882 200.277C207.06 198.885 207.56 198.456 207.185 197.885H207.114ZM208.024 189.567C207.929 189.503 207.817 189.468 207.703 189.468C207.588 189.468 207.476 189.503 207.381 189.567C204.624 189.146 201.831 189.008 199.045 189.157C204.091 178.016 205.07 165.459 201.812 153.671C201.787 153.577 201.745 153.489 201.686 153.412C201.627 153.335 201.554 153.27 201.47 153.221C201.387 153.172 201.294 153.14 201.198 153.127C201.102 153.114 201.004 153.12 200.911 153.144C200.817 153.169 200.729 153.212 200.652 153.27C200.574 153.329 200.51 153.402 200.461 153.486C200.412 153.57 200.38 153.662 200.367 153.758C200.354 153.854 200.359 153.952 200.384 154.046C202.217 161.142 202.573 168.54 201.431 175.78C200.289 183.02 197.672 189.948 193.744 196.136C192.134 198.508 190.387 200.785 188.514 202.955C187.55 204.079 186.604 205.668 184.194 205.061C184.011 204.961 183.861 204.81 183.763 204.626C183.665 204.442 183.622 204.233 183.641 204.026C183.801 202.348 184.587 202.241 184.908 200.17C184.908 200.052 184.861 199.938 184.777 199.854C184.694 199.771 184.58 199.724 184.462 199.724C184.344 199.724 184.23 199.771 184.146 199.854C184.063 199.938 184.016 200.052 184.016 200.17C183.65 200.936 183.233 201.675 182.766 202.383C182.515 202.817 182.359 203.299 182.307 203.797C182.254 204.295 182.308 204.799 182.463 205.275L181.642 205.686C179.714 206.596 178.429 205.918 178.072 204.757C177.215 201.991 180.624 199.652 180.517 199.028C180.508 198.949 180.478 198.875 180.431 198.812C180.384 198.749 180.321 198.699 180.248 198.668C180.176 198.637 180.096 198.626 180.018 198.636C179.94 198.646 179.866 198.676 179.803 198.724C178.305 199.741 177.241 201.282 176.822 203.044C175.037 200.83 176.822 197.814 178.607 196.082C188.978 186.086 190.227 170.432 185.747 156.812C185.658 156.348 184.872 156.455 184.962 156.812C187.371 167.915 187.943 178.696 182.338 188.639C178.094 188.425 173.84 188.761 169.682 189.638C164.541 191.102 166.701 191.923 166.665 188.853C167.495 181.673 166.658 174.398 164.22 167.594C163.917 166.755 163.149 167.165 163.327 167.808C163.696 168.998 164.018 170.247 164.291 171.556C163.913 173.165 163.442 174.75 162.881 176.305C162.194 178.299 160.851 180.001 159.07 181.133C157.29 182.264 155.179 182.758 153.082 182.534C153.422 182.443 153.739 182.281 154.012 182.06C154.286 181.839 154.51 181.562 154.67 181.249C154.808 181.323 154.96 181.366 155.116 181.374C156.152 181.374 157.794 179.589 158.419 178.857C158.911 178.084 159.161 177.181 159.135 176.265C159.11 175.348 158.811 174.461 158.276 173.716C157.54 172.052 156.637 170.467 155.581 168.986C155.622 168.877 155.622 168.756 155.581 168.647C154.582 167.495 153.223 166.715 151.725 166.433C154.849 163.702 156.509 157.848 157.08 153.831C170.557 154.795 186.247 150.993 196.35 142.122C197.3 142.885 198.2 143.708 199.045 144.585C204.9 150.493 213.593 165.666 216.895 182.606C217.038 183.32 217.77 187.282 218.073 187.961C214.503 188.978 211.79 189.746 209.148 190.727C208.888 190.267 208.528 189.871 208.095 189.567H208.024ZM140.462 144.05C140.283 143.282 139.194 143.8 136.713 142.122C140.569 139.748 138.891 130.394 139.391 124.165C141.176 124.165 142.961 123.968 144.746 123.736C144.765 125.178 145.12 126.594 145.783 127.874C146.447 129.154 147.399 130.261 148.566 131.108C147.744 131.108 146.923 130.948 146.12 130.93C145.317 130.912 142.782 130.93 142.55 131.483C142.524 131.539 142.51 131.6 142.508 131.661C142.507 131.723 142.519 131.784 142.542 131.841C142.565 131.898 142.601 131.95 142.645 131.993C142.689 132.036 142.742 132.069 142.8 132.09C144.92 132.054 147.041 132.125 149.155 132.304C151.322 132.592 153.464 133.046 155.563 133.661C155.667 133.661 155.767 133.619 155.84 133.546C155.914 133.472 155.955 133.372 155.955 133.268C155.955 133.164 155.914 133.064 155.84 132.99C155.767 132.917 155.667 132.875 155.563 132.875L155.206 132.751C157.447 132.475 159.513 131.398 161.022 129.718C162.531 128.038 163.382 125.869 163.417 123.611C163.686 123.593 163.956 123.642 164.202 123.754C164.543 125.842 165.584 127.752 167.154 129.169C168.724 130.587 170.73 131.428 172.842 131.555C172.792 131.594 172.756 131.648 172.737 131.708C172.718 131.768 172.717 131.833 172.734 131.894C172.913 132.233 173.341 131.894 174.127 131.537C176.33 131.378 178.405 130.442 179.982 128.895C183.944 127.11 186.051 126.325 188.639 125.075C189.192 124.95 188.764 124.058 188.371 124.272C176.055 128.627 183.909 128.395 182.588 120.702C189.478 120.702 191.655 118.667 196.296 113.776C197.724 119.417 196.921 126.271 200.545 128.377C201.04 128.689 201.62 128.839 202.205 128.806C201.645 130.024 200.8 131.089 199.741 131.912C199.605 132.013 199.506 132.157 199.463 132.322C199.419 132.486 199.432 132.661 199.501 132.816C199.569 132.972 199.689 133.1 199.84 133.179C199.99 133.258 200.164 133.283 200.331 133.25C201.083 133.04 201.823 132.784 202.544 132.483C199.947 136.663 196.565 140.3 192.584 143.193C172.467 157.08 144.585 153.635 136.981 145.103C138 145.094 139.017 144.986 140.015 144.781C140.171 144.743 140.306 144.645 140.39 144.508C140.473 144.371 140.499 144.206 140.462 144.05ZM159.722 53.0145C162.034 54.4649 164.071 56.3143 165.737 58.4766C165.843 58.5856 165.976 58.665 166.122 58.707C166.269 58.749 166.423 58.7521 166.571 58.7161C166.719 58.68 166.855 58.6061 166.965 58.5015C167.076 58.3969 167.157 58.2653 167.201 58.1197C168.088 55.8638 169.739 53.9915 171.867 52.8299C173.994 51.6683 176.462 51.2914 178.839 51.765C181.001 52.4029 182.823 53.8704 183.906 55.847C184.99 57.8236 185.248 60.1486 184.623 62.3144C184.572 62.501 184.583 62.699 184.655 62.8786C184.726 63.0582 184.854 63.2097 185.019 63.3104C185.184 63.411 185.378 63.4554 185.57 63.4367C185.762 63.418 185.944 63.3374 186.086 63.2069C188.139 61.4219 191.102 63.546 191.959 64.2243C192.898 64.87 193.682 65.7153 194.256 66.6998C194.83 67.6842 195.18 68.7833 195.279 69.9185C195.279 75.1128 189.567 77.594 185.765 79.2541C185.63 79.3299 185.518 79.4417 185.442 79.5772C185.367 79.7127 185.33 79.8666 185.337 80.0216C185.212 84.7876 184.444 89.732 183.873 94.5515C182.088 95.4619 181.392 95.8546 181.392 95.8546C181.224 95.8071 181.063 95.7412 180.91 95.6582C181.124 94.1588 182.356 85.9478 182.302 84.4305C182.267 84.3234 182.199 84.2301 182.107 84.164C182.016 84.0979 181.906 84.0623 181.793 84.0623C181.681 84.0623 181.571 84.0979 181.479 84.164C181.388 84.2301 181.32 84.3234 181.285 84.4305C180.945 85.6622 180.089 95.1406 180.071 95.2477C177.771 94.1957 175.319 93.5149 172.806 93.2306C172.949 91.8026 173.252 70.0256 173.252 69.258C173.252 68.9725 172.966 68.9903 172.788 68.9903C172.72 68.9902 172.654 69.0159 172.605 69.0623C172.555 69.1087 172.525 69.1723 172.52 69.2402C171.646 78.5758 171.449 90.214 171.574 93.1057H171.039C166.667 92.5368 162.223 93.0517 158.097 94.605C157.883 92.4987 156.312 84.3591 155.188 79.3612C155.188 78.9506 154.456 78.8078 154.456 79.3612C154.448 79.4024 154.448 79.4448 154.456 79.4861C155.813 86.9831 156.562 93.2663 156.919 95.0691C154.332 96.2178 151.926 97.7393 149.779 99.5852C149.066 95.4988 148.136 91.453 146.995 87.465C144.246 77.9867 141.086 79.5754 137.106 78.1652C136.078 77.7304 135.166 77.0607 134.444 76.21C133.722 75.3592 133.209 74.3509 132.947 73.2662C132.685 72.1814 132.681 71.0503 132.935 69.9637C133.189 68.877 133.695 67.865 134.41 67.009C135.582 65.6701 137.151 64.7403 138.888 64.355C140.625 63.9697 142.439 64.1491 144.067 64.867C144.656 65.099 145.156 64.5099 145.085 63.903C144.718 62.0303 144.888 60.0921 145.575 58.3119C146.263 56.5317 147.44 54.9821 148.97 53.8419C150.5 52.7017 152.321 52.0174 154.224 51.8678C156.126 51.7183 158.032 52.1096 159.722 52.9967V53.0145ZM180.285 96.3901L179.821 96.6221C179.715 96.7126 179.646 96.8387 179.626 96.9766C179.607 97.1146 179.638 97.2549 179.715 97.3712C179.792 97.4874 179.909 97.5716 180.043 97.6079C180.178 97.6442 180.321 97.63 180.446 97.5682C185.034 95.0077 189.889 92.9548 194.922 91.4456C196.261 91.0886 199.277 89.9462 199.974 91.285C199.984 91.4454 199.984 91.6064 199.974 91.7669C198.035 91.8261 196.164 92.4875 194.619 93.659L185.212 99.014C184.48 99.4424 185.676 100.21 185.765 99.5495C185.765 99.371 185.337 99.6923 196.939 93.5162C197.207 93.3734 199.688 92.1596 200.045 93.2128C198.742 104.048 195.547 107.029 193.887 110.367C193.815 110.499 193.794 110.653 193.83 110.8C193.865 110.946 193.954 111.074 194.079 111.159C194.204 111.244 194.355 111.279 194.505 111.258C194.654 111.237 194.79 111.161 194.886 111.045C194.993 110.92 195.065 110.777 195.172 110.652C195.388 111.105 195.579 111.57 195.743 112.045C187.711 120.398 189.085 117.649 182.373 119.898C181.797 117.683 180.426 115.757 178.521 114.488C176.616 113.219 174.31 112.696 172.044 113.018C169.778 113.34 167.709 114.485 166.233 116.235C164.757 117.985 163.977 120.216 164.041 122.505C163.8 122.392 163.54 122.325 163.274 122.308C162.978 120.073 161.88 118.02 160.184 116.534C158.488 115.048 156.31 114.228 154.054 114.228C151.799 114.228 149.621 115.048 147.925 116.534C146.229 118.02 145.131 120.073 144.835 122.308C143.05 122.558 141.265 122.63 139.48 122.719C140.173 117.013 142.111 111.529 145.156 106.654C157.401 87.0902 180.071 96.3901 180.285 96.3901ZM178.875 128.324C175.305 130.109 175.305 130.412 173.52 130.412C171.61 130.435 169.752 129.786 168.271 128.58C166.79 127.374 165.78 125.686 165.416 123.811C165.051 121.936 165.357 119.992 166.278 118.319C167.2 116.646 168.68 115.349 170.459 114.655C172.239 113.961 174.206 113.914 176.017 114.521C177.828 115.128 179.368 116.352 180.37 117.978C181.371 119.605 181.77 121.531 181.497 123.422C181.224 125.313 180.296 127.047 178.875 128.324ZM162.221 124.432C161.993 126.496 160.982 128.395 159.398 129.737C157.813 131.079 155.775 131.764 153.701 131.649C151.628 131.535 149.677 130.631 148.249 129.123C146.822 127.614 146.026 125.617 146.026 123.54C146.026 121.463 146.822 119.465 148.249 117.957C149.677 116.449 151.628 115.545 153.701 115.43C155.775 115.316 157.813 116.001 159.398 117.343C160.982 118.685 161.993 120.583 162.221 122.647C161.043 123.54 161.168 125.111 162.185 124.504L162.221 124.432ZM144.585 106.1C143.014 103.423 139.748 99.4781 138.32 97.5324C136.892 95.5868 136.124 94.4087 134.232 94.605C133.804 94.605 133.75 94.9799 133.911 95.1584C134.41 95.7475 134.91 94.2124 137.017 97.2647C138.68 99.3202 140.229 101.465 141.658 103.691C144.317 107.546 144.442 106.261 143.639 107.546C142.806 106.253 141.694 105.163 140.384 104.357C139.074 103.551 137.6 103.048 136.071 102.887C135.953 102.885 135.839 102.923 135.748 102.997C135.656 103.07 135.593 103.173 135.57 103.287C135.546 103.402 135.564 103.522 135.62 103.625C135.675 103.728 135.765 103.808 135.874 103.851C138.8 104.344 141.415 105.966 143.157 108.367L142.764 109.046C141.998 108.286 141.033 107.76 139.98 107.528C138.8 107.293 137.608 107.126 136.41 107.029C136.299 107.019 136.189 107.05 136.098 107.115C136.008 107.18 135.944 107.275 135.918 107.383C135.893 107.491 135.906 107.605 135.957 107.703C136.008 107.802 136.092 107.879 136.195 107.921C138.266 108.707 140.444 108.082 142.407 109.92C142.122 110.438 141.854 110.974 141.622 111.509C140.757 111.602 139.922 111.882 139.176 112.33C137.802 112.991 138.391 113.901 139.016 113.58C139.637 113.198 140.31 112.909 141.015 112.723C140.249 114.612 139.652 116.565 139.23 118.56C132.947 110.777 131.215 100.817 132.947 95.2655C133.067 94.7179 133.394 94.2378 133.86 93.9253C134.325 93.6127 134.893 93.4918 135.446 93.5876C136.498 93.935 137.465 94.5007 138.284 95.2477C144.817 100.442 144.067 100.353 147.048 102.263C146.077 103.439 145.25 104.728 144.585 106.1ZM145.549 179.553C145.586 179.425 145.586 179.289 145.549 179.161C141.979 170.432 148.619 165.041 154.099 168.932C153.974 169.432 154.867 170.825 155.17 171.235C158.294 176.715 158.133 177.215 155.473 179.518C155.134 179.803 155.027 179.857 154.956 179.803C154.751 179.585 154.588 179.331 154.474 179.053C152.957 176.305 152.689 175.483 152.171 175.698C152.105 175.72 152.046 175.759 151.999 175.81C151.952 175.862 151.919 175.924 151.903 175.992C151.886 176.06 151.888 176.131 151.907 176.198C151.926 176.265 151.961 176.326 152.011 176.376C152.189 176.537 151.725 176.037 153.117 179.357C153.885 181.142 154.028 180.267 153.117 180.874C151.707 181.642 150.618 181.713 149.547 177.483C149.506 177.369 149.427 177.273 149.324 177.21C149.221 177.147 149.1 177.12 148.98 177.135C148.86 177.149 148.749 177.204 148.664 177.29C148.579 177.375 148.525 177.487 148.512 177.608C148.374 178.868 148.697 180.137 149.422 181.178C149.014 181.492 148.537 181.706 148.03 181.802C147.36 180.896 146.516 180.132 145.549 179.553ZM148.94 183.123C149.33 183.014 149.698 182.839 150.029 182.606C156.884 185.801 163.024 181.499 164.934 175.109C165.633 179.548 165.789 184.055 165.398 188.532C165.214 189.469 165.214 190.433 165.398 191.37C160.672 193.831 156.838 197.715 154.438 202.473C152.02 203.088 149.637 203.833 147.298 204.704C150.69 197.832 153.01 189.567 148.94 183.105V183.123ZM146.37 206.56C154.884 203.651 151.725 204.597 153.867 203.865C153.163 205.466 152.625 207.135 152.26 208.845C148.047 213.342 144.281 218.238 141.015 223.464C140.691 223.911 140.516 224.448 140.515 224.999C140.507 225.019 140.503 225.04 140.503 225.062C140.503 225.083 140.507 225.104 140.515 225.124C140.467 227.824 141.28 230.468 142.836 232.675C143.583 233.346 144.464 233.852 145.421 234.16C146.377 234.467 147.388 234.57 148.387 234.46C150.333 234.46 144.817 234.96 204.739 227.766C210.094 227.516 212.183 224.607 214.771 219.876C216.396 216.895 222.286 207.078 222.411 206.899C223.372 205.347 223.96 203.593 224.131 201.776C224.301 199.958 224.048 198.125 223.393 196.421C223.407 196.137 223.364 195.852 223.266 195.584C223.168 195.316 223.017 195.071 222.822 194.863C222.627 194.654 222.392 194.487 222.132 194.372C221.871 194.256 221.589 194.195 221.304 194.19C217.636 193.75 213.921 193.877 210.291 194.565C210.287 193.443 210.063 192.333 209.63 191.299C214.2 190.174 215.699 189.638 229.605 185.783C233.304 189.492 237.22 192.979 241.332 196.225C241.402 196.318 241.492 196.393 241.596 196.444C241.7 196.496 241.814 196.523 241.93 196.523C242.046 196.523 242.16 196.496 242.264 196.444C242.368 196.393 242.458 196.318 242.528 196.225C244.866 191.584 247.026 187.05 248.954 182.695L251.649 194.779C250.739 194.967 249.887 195.37 249.163 195.953C248.44 196.537 247.866 197.285 247.49 198.135C245.866 201.277 246.294 205.275 246.669 208.756C246.669 209.416 247.812 221.09 248.276 225.41C248.285 225.625 248.378 225.827 248.535 225.974C248.692 226.121 248.9 226.2 249.115 226.195C252.055 224.84 254.89 223.265 257.593 221.483L267.518 266.019C268.369 269.893 267.651 273.947 265.519 277.292C263.388 280.638 260.018 283.002 256.147 283.869L156.83 306.003C152.955 306.839 148.906 306.112 145.563 303.979C142.221 301.847 139.855 298.481 138.98 294.614L127.128 241.421C130.091 233.96 142.229 214.289 146.37 206.56ZM282.137 293.418C282.102 297.255 280.763 300.965 278.34 303.94C275.916 306.915 272.553 308.977 268.803 309.787L155.295 335.08C150.88 336.04 146.265 335.219 142.451 332.796C138.638 330.373 135.935 326.544 134.928 322.139C130.287 301.451 129.234 296.114 129.234 296.114C129.325 293.476 129.182 290.836 128.806 288.224C127.146 271.784 120.862 259.664 126.003 244.295L137.445 295.096C138.385 299.368 140.979 303.093 144.658 305.458C148.338 307.823 152.804 308.635 157.08 307.716L256.469 285.6C260.742 284.616 264.453 281.984 266.793 278.276C269.134 274.568 269.914 270.085 268.964 265.804L258.914 220.715C261.145 219.198 263.287 217.556 265.358 215.824C283.922 298.756 282.173 289.813 282.119 293.418H282.137Z" fill="#5669FF"/>
<path d="M208.845 299.88C207.349 301.3 206.264 303.098 205.705 305.084C205.146 307.069 205.133 309.169 205.668 311.161C206.163 313.339 207.379 315.285 209.119 316.685C210.858 318.085 213.02 318.856 215.253 318.872C217.451 318.887 219.578 318.09 221.225 316.634C222.872 315.179 223.923 313.166 224.178 310.983C224.437 308.977 224.206 306.938 223.503 305.041C222.8 303.145 221.648 301.447 220.144 300.094C218.604 298.701 216.611 297.911 214.535 297.872C212.458 297.833 210.437 298.546 208.845 299.88ZM217.77 317.141C208.845 320.051 203.865 309.269 208.845 302.111C209.981 300.774 211.57 299.902 213.309 299.661C215.047 299.421 216.813 299.829 218.27 300.808C223.536 304.557 224.749 314.82 217.77 317.177V317.141ZM188.371 101.531C190.263 100.177 192.405 99.2126 194.672 98.6927C195.904 98.4785 196.332 98.3892 196.457 98.0322C196.463 97.9175 196.426 97.8048 196.353 97.7158C196.281 97.6268 196.178 97.5678 196.064 97.5503C193.123 97.6797 190.324 98.8573 188.175 100.87C188.125 100.92 188.09 100.983 188.073 101.051C188.056 101.12 188.057 101.191 188.077 101.259C188.097 101.326 188.135 101.387 188.187 101.435C188.239 101.483 188.302 101.516 188.371 101.531ZM196.082 101.745C194.802 101.388 193.458 101.321 192.149 101.549C190.839 101.778 189.597 102.296 188.514 103.066C188.446 103.12 188.398 103.194 188.377 103.279C188.355 103.363 188.363 103.451 188.397 103.531C188.432 103.61 188.492 103.676 188.568 103.718C188.644 103.76 188.732 103.775 188.817 103.762C190.399 102.881 192.183 102.426 193.994 102.441C195.297 102.441 196.154 102.852 196.332 102.281C196.367 102.176 196.361 102.062 196.314 101.963C196.268 101.863 196.185 101.785 196.082 101.745ZM189.317 104.601C189.255 104.588 189.19 104.589 189.129 104.604C189.067 104.619 189.009 104.648 188.96 104.688C188.91 104.728 188.871 104.779 188.843 104.837C188.816 104.894 188.802 104.957 188.802 105.02C188.802 105.084 188.816 105.147 188.843 105.204C188.871 105.262 188.91 105.313 188.96 105.353C189.009 105.393 189.067 105.422 189.129 105.437C189.19 105.452 189.255 105.453 189.317 105.44C190.451 105.548 191.532 105.968 192.441 106.654C192.498 106.707 192.571 106.742 192.649 106.751C192.727 106.761 192.806 106.746 192.875 106.709C192.944 106.672 193 106.613 193.034 106.542C193.068 106.472 193.079 106.392 193.066 106.315C192.604 105.772 192.029 105.338 191.382 105.042C190.734 104.746 190.029 104.595 189.317 104.601ZM174.18 133.393C178.536 130.912 181.981 130.894 185.247 129.948C185.783 129.948 185.658 128.984 185.247 129.056C181.201 129.366 177.289 130.646 173.841 132.786C173.288 133.036 173.645 133.732 174.18 133.393ZM141.747 136.356C146.114 134.938 150.747 134.529 155.295 135.16C155.795 135.16 155.884 134.411 155.206 134.268C150.619 133.202 145.812 133.621 141.479 135.464C141.015 135.553 141.301 136.356 141.747 136.356Z" fill="#5669FF"/>
<path d="M146.656 140.158C149.188 138.767 151.913 137.763 154.742 137.177C155.327 138.209 156.193 139.055 157.238 139.617C158.283 140.18 159.466 140.435 160.65 140.354C160.954 141.318 161.538 142.169 162.328 142.8C162.994 143.397 163.812 143.798 164.691 143.959C165.571 144.121 166.478 144.036 167.312 143.715C168.147 143.394 168.876 142.848 169.42 142.139C169.965 141.429 170.302 140.583 170.396 139.694C171.634 139.591 172.815 139.135 173.8 138.378C174.784 137.621 175.53 136.597 175.948 135.428C184.426 135.107 185.426 135.178 189.21 134.75C189.799 134.75 189.746 133.839 189.21 133.768C184.861 133.732 180.514 133.982 176.197 134.518C176.244 134.378 176.279 134.234 176.305 134.089C176.342 133.996 176.359 133.896 176.355 133.796C176.35 133.696 176.324 133.598 176.278 133.509C176.233 133.42 176.168 133.342 176.089 133.28C176.01 133.218 175.919 133.174 175.822 133.151C175.724 133.127 175.623 133.125 175.525 133.145C175.426 133.164 175.334 133.204 175.252 133.263C175.171 133.321 175.103 133.397 175.054 133.484C175.004 133.571 174.974 133.668 174.966 133.768C174.93 134.084 174.859 134.396 174.752 134.696C174.305 134.696 173.627 134.696 173.663 135.178C173.698 135.66 174.109 135.499 174.43 135.499C174.096 136.17 173.624 136.762 173.046 137.239C172.468 137.715 171.796 138.065 171.074 138.266C168.825 138.766 167.094 137.391 165.719 134.107C167.844 131.215 166.862 130.126 165.719 130.537C165.345 130.662 165.719 130.626 163.792 130.626C161.864 130.626 161.65 132.322 163.131 133.661L163.97 134.357C163.577 136.695 162.703 139.176 160.257 139.23C159.412 139.211 158.583 139.001 157.831 138.614C157.08 138.228 156.426 137.675 155.92 136.999L156.616 136.874C157.08 136.874 157.348 136.017 156.313 136.017C152.675 136.005 149.125 137.128 146.156 139.23C146.095 139.263 146.041 139.307 145.997 139.361C145.954 139.415 145.921 139.476 145.901 139.543C145.881 139.609 145.874 139.678 145.881 139.747C145.888 139.816 145.909 139.883 145.942 139.944C145.974 140.005 146.019 140.059 146.073 140.102C146.126 140.146 146.188 140.179 146.254 140.199C146.321 140.219 146.39 140.225 146.459 140.218C146.528 140.211 146.595 140.191 146.656 140.158ZM164.97 135.481C165.292 136.424 165.827 137.279 166.533 137.981C167.238 138.684 168.096 139.215 169.04 139.533C169.04 139.801 169.04 140.069 168.932 140.319C168.717 140.872 168.371 141.364 167.924 141.754C167.477 142.145 166.942 142.421 166.365 142.559C165.788 142.698 165.186 142.695 164.61 142.55C164.035 142.405 163.503 142.124 163.06 141.729C162.515 141.276 162.077 140.709 161.775 140.069C162.643 139.625 163.388 138.974 163.945 138.174C164.502 137.374 164.854 136.449 164.97 135.481ZM147.066 114.097C147.673 114.097 147.798 113.08 149.601 111.955C150.491 111.487 151.423 111.104 152.386 110.813C153.135 110.349 152.814 109.028 151.065 109.42L150.208 109.742C148.629 110.467 147.363 111.733 146.638 113.312C146.6 113.391 146.582 113.477 146.585 113.564C146.587 113.651 146.61 113.737 146.652 113.813C146.694 113.89 146.753 113.956 146.825 114.005C146.897 114.054 146.98 114.086 147.066 114.097ZM175.698 107.992C176.148 107.983 176.598 108.031 177.036 108.135C177.999 108.395 178.927 108.766 179.803 109.242C181.588 109.242 179.036 106.547 175.84 106.475C175.207 106.412 174.572 106.584 174.055 106.957C173.145 107.885 174.448 108.296 175.698 107.992ZM158.74 213.611C158.903 213.584 159.052 213.501 159.159 213.375C159.266 213.249 159.325 213.089 159.325 212.924C159.325 212.758 159.266 212.598 159.159 212.472C159.052 212.346 158.903 212.263 158.74 212.236C158.577 212.263 158.428 212.346 158.321 212.472C158.214 212.598 158.155 212.758 158.155 212.924C158.155 213.089 158.214 213.249 158.321 213.375C158.428 213.501 158.577 213.584 158.74 213.611ZM163.792 214.575C163.955 214.548 164.103 214.465 164.211 214.339C164.318 214.213 164.377 214.053 164.377 213.888C164.377 213.722 164.318 213.562 164.211 213.436C164.103 213.31 163.955 213.227 163.792 213.2C163.542 213.2 163.024 213.504 163.131 214.021C163.166 214.173 163.249 214.309 163.369 214.409C163.488 214.509 163.636 214.567 163.792 214.575ZM169.147 211.665C169.296 211.64 169.433 211.562 169.531 211.446C169.629 211.33 169.683 211.183 169.683 211.032C169.683 210.88 169.629 210.733 169.531 210.617C169.433 210.501 169.296 210.423 169.147 210.398C168.997 210.423 168.861 210.501 168.763 210.617C168.665 210.733 168.611 210.88 168.611 211.032C168.611 211.183 168.665 211.33 168.763 211.446C168.861 211.562 168.997 211.64 169.147 211.665ZM171.681 215.11C171.842 215.11 171.997 215.046 172.111 214.933C172.224 214.819 172.288 214.664 172.288 214.503C172.288 214.342 172.224 214.188 172.111 214.074C171.997 213.96 171.842 213.896 171.681 213.896C171.52 213.896 171.366 213.96 171.252 214.074C171.138 214.188 171.074 214.342 171.074 214.503C171.074 214.664 171.138 214.819 171.252 214.933C171.366 215.046 171.52 215.11 171.681 215.11ZM178.268 210.077C178.268 209.92 178.206 209.771 178.095 209.66C177.985 209.55 177.835 209.488 177.679 209.488C177.523 209.488 177.373 209.55 177.262 209.66C177.152 209.771 177.09 209.92 177.09 210.077C177.09 210.233 177.152 210.383 177.262 210.493C177.373 210.604 177.523 210.666 177.679 210.666C177.835 210.666 177.985 210.604 178.095 210.493C178.206 210.383 178.268 210.233 178.268 210.077ZM183.034 214.2C183.148 214.17 183.249 214.102 183.321 214.009C183.393 213.915 183.432 213.8 183.432 213.682C183.432 213.564 183.393 213.449 183.321 213.356C183.249 213.262 183.148 213.195 183.034 213.165C182.954 213.164 182.874 213.183 182.802 213.218C182.73 213.254 182.667 213.306 182.619 213.37C182.57 213.434 182.538 213.508 182.523 213.587C182.508 213.666 182.512 213.748 182.534 213.825C182.562 213.935 182.627 214.032 182.718 214.1C182.809 214.168 182.92 214.203 183.034 214.2ZM193.708 212.504C193.958 212.504 194.333 212.254 194.226 211.844C194.119 211.433 193.869 211.397 193.708 211.451C193.585 211.474 193.474 211.539 193.394 211.635C193.314 211.731 193.27 211.852 193.27 211.978C193.27 212.103 193.314 212.224 193.394 212.32C193.474 212.416 193.585 212.481 193.708 212.504ZM195.993 208.184C196.154 208.184 196.308 208.121 196.422 208.007C196.536 207.893 196.6 207.739 196.6 207.578C196.6 207.417 196.536 207.262 196.422 207.148C196.308 207.035 196.154 206.971 195.993 206.971C195.832 206.971 195.678 207.035 195.564 207.148C195.45 207.262 195.386 207.417 195.386 207.578C195.386 207.739 195.45 207.893 195.564 208.007C195.678 208.121 195.832 208.184 195.993 208.184ZM188.121 210.63C188.282 210.63 188.437 210.566 188.55 210.452C188.664 210.338 188.728 210.184 188.728 210.023C188.728 209.862 188.664 209.708 188.55 209.594C188.437 209.48 188.282 209.416 188.121 209.416C187.96 209.416 187.806 209.48 187.692 209.594C187.578 209.708 187.514 209.862 187.514 210.023C187.514 210.184 187.578 210.338 187.692 210.452C187.806 210.566 187.96 210.63 188.121 210.63ZM156.152 217.359C156.248 217.359 156.343 217.337 156.43 217.295C156.517 217.253 156.593 217.192 156.653 217.117C156.713 217.041 156.755 216.953 156.777 216.859C156.798 216.765 156.798 216.668 156.777 216.574C156.765 216.456 156.717 216.345 156.638 216.257C156.559 216.17 156.454 216.109 156.338 216.085C156.222 216.061 156.102 216.075 155.994 216.124C155.887 216.174 155.798 216.256 155.741 216.36C155.684 216.449 155.65 216.551 155.64 216.656C155.631 216.762 155.647 216.868 155.687 216.966C155.727 217.064 155.791 217.151 155.871 217.22C155.952 217.288 156.049 217.336 156.152 217.359ZM186.39 278.746L158.08 284.654C156.301 285.028 154.733 286.067 153.694 287.558C152.655 289.049 152.223 290.88 152.487 292.678C152.751 294.476 153.691 296.105 155.115 297.235C156.539 298.364 158.339 298.908 160.15 298.755C160.936 298.755 158.633 298.916 189.192 292.669C190.188 292.574 191.153 292.272 192.025 291.781C192.896 291.29 193.655 290.621 194.252 289.818C194.848 289.015 195.27 288.096 195.488 287.12C195.707 286.143 195.717 285.132 195.52 284.151C195.323 283.171 194.921 282.242 194.342 281.427C193.763 280.611 193.019 279.926 192.158 279.416C191.297 278.907 190.339 278.584 189.345 278.468C188.351 278.352 187.345 278.447 186.39 278.746ZM188.871 291.026L160.65 296.935C159.298 297.126 157.925 296.794 156.81 296.006C155.695 295.218 154.923 294.034 154.651 292.696C154.38 291.358 154.63 289.967 155.35 288.808C156.071 287.648 157.206 286.807 158.526 286.457C179.714 281.976 185.497 280.727 187.086 280.441C188.447 280.272 189.823 280.617 190.942 281.41C192.062 282.202 192.845 283.385 193.137 284.725C193.393 286.117 193.088 287.553 192.289 288.72C191.489 289.887 190.261 290.691 188.871 290.955V291.026Z" fill="#5669FF"/>
<path d="M185.104 285.118C182.891 285.404 174.198 288.938 160.828 290.884C160.311 290.884 160.364 291.723 160.828 291.723C165.095 291.723 181.713 288.153 185.479 286.1C185.569 286.026 185.634 285.926 185.664 285.814C185.694 285.701 185.688 285.582 185.647 285.474C185.605 285.365 185.53 285.272 185.433 285.208C185.336 285.144 185.221 285.113 185.104 285.118ZM242.76 267.286C236.155 269.607 235.977 279.031 242.653 280.352C243.545 280.498 244.458 280.459 245.335 280.238C246.212 280.016 247.034 279.617 247.751 279.065C248.467 278.512 249.062 277.819 249.499 277.027C249.937 276.235 250.207 275.362 250.293 274.462C251.56 270.445 246.83 266.162 242.76 267.286ZM244.134 279.281C243.415 279.344 242.691 279.248 242.013 279.001C241.335 278.754 240.719 278.362 240.209 277.852C239.699 277.341 239.306 276.726 239.059 276.047C238.812 275.369 238.717 274.645 238.779 273.926C239.154 270.606 242.135 267.607 245.312 268.571C252.006 270.963 248.918 278.889 244.206 279.281H244.134Z" fill="#5669FF"/>
<path d="M242.492 271.873C241.988 271.91 241.513 272.125 241.154 272.48C240.475 273.498 240.993 274.265 241.992 274.265C241.85 275.675 241.689 277.389 242.939 277.46C243.367 277.46 245.223 277.103 246.223 276.889C246.341 276.899 246.46 276.884 246.573 276.846C246.685 276.807 246.788 276.745 246.875 276.665C246.963 276.584 247.032 276.487 247.08 276.378C247.127 276.269 247.152 276.151 247.151 276.032C247.151 275.425 247.151 276.425 246.955 273.89C247.455 273.89 247.687 273.658 247.704 273.248L247.597 272.159C247.595 272.082 247.578 272.005 247.546 271.935C247.514 271.864 247.469 271.801 247.412 271.748C247.356 271.694 247.29 271.653 247.217 271.626C247.145 271.598 247.068 271.585 246.99 271.588C246.509 271.588 245.795 271.677 245.795 271.677C245.795 271.677 246.58 271.427 246.687 270.874C246.723 270.74 246.722 270.599 246.684 270.466C246.647 270.332 246.574 270.212 246.473 270.117C246.372 270.022 246.248 269.955 246.113 269.925C245.978 269.895 245.837 269.902 245.705 269.946C245.405 270.109 245.14 270.33 244.925 270.597C244.711 270.863 244.551 271.17 244.456 271.498C243.171 269.16 241.171 270.606 242.492 271.873ZM245.759 273.926C245.759 274.747 245.884 275.086 245.955 275.711C245.295 275.711 243.635 276.211 243.01 276.3C242.99 276.2 242.99 276.097 243.01 275.997V274.212C243.917 274.042 244.836 273.947 245.759 273.926ZM227.82 269.321C222.465 268.732 218.895 274.158 220.376 279.067C220.936 280.457 221.913 281.639 223.172 282.451C224.432 283.263 225.912 283.665 227.409 283.601C235.62 283.065 236.334 270.142 227.82 269.321ZM231.39 280.495C230.293 281.651 228.782 282.325 227.189 282.368C225.596 282.412 224.051 281.822 222.893 280.727C221.956 279.777 221.357 278.545 221.19 277.222C221.024 275.898 221.298 274.556 221.971 273.403C222.643 272.251 223.677 271.353 224.912 270.847C226.147 270.341 227.514 270.257 228.801 270.606C229.772 270.919 230.648 271.473 231.345 272.217C232.043 272.96 232.54 273.869 232.79 274.858C233.04 275.847 233.034 276.883 232.774 277.869C232.513 278.855 232.006 279.759 231.3 280.495H231.39ZM254.612 269.91L257.379 271.159C256.54 272.605 255.773 274.051 255.094 275.425C255.014 275.556 254.988 275.712 255.024 275.861C255.059 276.01 255.152 276.139 255.282 276.22C255.412 276.3 255.569 276.326 255.718 276.291C255.867 276.255 255.996 276.163 256.076 276.032C256.915 274.765 257.861 273.391 258.771 271.784C259.718 272.266 260.039 272.373 261.806 273.105C262.182 273.344 262.635 273.433 263.073 273.355C263.162 273.329 263.243 273.282 263.31 273.218C263.377 273.155 263.428 273.077 263.46 272.99C263.491 272.903 263.501 272.81 263.49 272.718C263.479 272.627 263.446 272.539 263.395 272.462C262.984 271.945 262.948 272.016 259.468 270.677C260.342 269.16 262.038 266.947 260.842 266.572C259.967 266.304 259.057 268.357 258.04 270.142L255.059 268.928C254.363 268.535 253.97 269.642 254.612 269.91ZM188.335 255.005C184.872 255.487 179.107 257.076 168.54 259.146C153.314 262.145 153.796 261.735 148.726 263.109C148.616 263.139 148.519 263.204 148.45 263.294C148.381 263.384 148.343 263.495 148.343 263.609C148.343 263.723 148.381 263.833 148.45 263.924C148.519 264.014 148.616 264.079 148.726 264.109C152.011 264.109 182.373 258.057 188.585 256.29C188.737 256.239 188.865 256.135 188.945 255.996C189.026 255.858 189.053 255.695 189.023 255.538C188.992 255.381 188.906 255.241 188.779 255.143C188.653 255.044 188.495 254.996 188.335 255.005ZM204.204 241.921C209.559 240.921 215.36 240.136 220.733 238.851C221.411 238.851 221.358 237.655 220.733 237.726C210.416 238.762 147.138 251.506 146.192 253.095C144.996 255.041 160.204 249.9 204.204 241.921ZM233.924 242.992C231.711 241.546 229.14 242.867 227.712 244.956C225.213 249.436 226.106 253.631 227.891 258.468C227.712 258.468 149.779 273.962 149.654 274.23C149.529 274.497 149.654 274.908 150.011 274.908C155.027 274.908 222.143 261.502 228.373 259.7C228.888 261.043 229.484 262.355 230.158 263.627C230.228 263.745 230.327 263.843 230.446 263.911C230.565 263.98 230.699 264.017 230.836 264.019C231.693 264.019 239.19 258.861 240.939 257.611C243.474 255.826 246.08 253.863 246.473 250.721C247.151 245.188 239.868 243.902 236.245 247.151C236.045 245.515 235.212 244.021 233.924 242.992ZM105.922 49.6408C104.855 49.0138 103.638 48.6875 102.4 48.6965C101.162 48.7055 99.95 49.0495 98.892 49.692C97.834 50.3345 96.9698 51.2514 96.391 52.3455C95.8122 53.4397 95.5405 54.6701 95.6046 55.9062C95.5467 55.9834 95.5154 56.0774 95.5154 56.1739C95.5154 56.2705 95.5467 56.3644 95.6046 56.4417C96.4576 57.4888 97.5747 58.2893 98.8405 58.7604C100.106 59.2314 101.475 59.3561 102.805 59.1214C104.135 58.8866 105.378 58.3011 106.406 57.4252C107.434 56.5493 108.21 55.4149 108.653 54.139C109.135 53.7463 108.849 53.2465 108.778 53.0145C108.303 51.5599 107.278 50.349 105.922 49.6408ZM96.39 56.0311C96.4432 54.8548 96.824 53.7168 97.4895 52.7453C98.155 51.7739 99.0787 51.0078 100.156 50.5333C97.8002 52.3183 98.532 57.3342 101.352 57.834C99.531 57.8748 97.7604 57.2316 96.39 56.0311ZM103.102 57.5484C103.747 57.0647 104.253 56.4181 104.567 55.6747C104.88 54.9314 104.991 54.118 104.887 53.3179C104.83 52.5916 104.573 51.8953 104.144 51.3061C103.716 50.717 103.132 50.2579 102.459 49.98C103.5 49.9848 104.517 50.293 105.386 50.8668C106.254 51.4406 106.937 52.2552 107.35 53.2108C107.05 54.2145 106.514 55.1319 105.788 55.8864C105.061 56.641 104.165 57.2108 103.173 57.5484H103.102ZM115.043 47.2489C115.01 47.1011 114.925 46.9699 114.804 46.8784C114.683 46.787 114.534 46.7412 114.383 46.7491C113.258 46.7491 114.115 48.1057 112.598 52.2648C112.566 52.3679 112.569 52.4789 112.608 52.5799C112.646 52.6809 112.717 52.766 112.81 52.8216C112.903 52.8772 113.011 52.9 113.118 52.8865C113.226 52.8729 113.325 52.8237 113.401 52.7467C113.795 52.0785 114.106 51.3653 114.329 50.6226C114.651 52.2826 114.99 53.8891 115.329 55.4242C115.35 55.5156 115.389 55.602 115.443 55.6784C115.498 55.7548 115.567 55.8197 115.646 55.8694C115.726 55.9191 115.815 55.9527 115.907 55.9682C116 55.9837 116.094 55.9808 116.186 55.9597C116.277 55.9386 116.363 55.8997 116.44 55.8453C116.516 55.7908 116.581 55.7218 116.631 55.6422C116.681 55.5627 116.714 55.4741 116.73 55.3816C116.745 55.289 116.742 55.1943 116.721 55.1029C116.221 52.5325 115.65 49.98 115.043 47.2489ZM126.182 52.122C124.557 52.4076 123.54 52.6039 122.273 52.9431C123.549 51.3126 124.274 49.3185 124.343 47.2489C124.295 46.6753 124.073 46.1301 123.706 45.6866C123.339 45.243 122.845 44.9224 122.29 44.7678C121.773 44.5806 121.211 44.5562 120.679 44.6978C120.148 44.8394 119.672 45.1402 119.317 45.56C118.961 45.9797 118.742 46.4982 118.69 47.0458C118.638 47.5934 118.754 48.1439 119.024 48.6234C119.149 49.141 120.023 48.6234 119.898 48.3199C119.741 47.8883 119.739 47.4155 119.892 46.9825C120.045 46.5494 120.344 46.183 120.737 45.9459C121.139 45.7804 121.587 45.7671 121.998 45.9084C122.409 46.0497 122.754 46.3359 122.969 46.7134C123.112 47.3228 123.126 47.9555 123.009 48.5706C122.893 49.1856 122.648 49.7692 122.29 50.2834C120.63 53.5678 119.434 53.8534 120.148 54.6031C120.226 54.6873 120.326 54.7485 120.436 54.78C120.546 54.8115 120.663 54.812 120.773 54.7816C122.734 54.5109 124.673 54.0993 126.574 53.55C126.719 53.4642 126.832 53.3331 126.895 53.177C126.958 53.0209 126.968 52.8483 126.923 52.686C126.879 52.5236 126.782 52.3805 126.648 52.2786C126.514 52.1766 126.35 52.1216 126.182 52.122ZM134.018 50.2834C134.275 49.5375 134.29 48.7291 134.059 47.9746C133.828 47.22 133.364 46.5581 132.733 46.084C132.102 45.6098 131.337 45.348 130.548 45.336C129.759 45.324 128.986 45.5625 128.342 46.0173C128.227 45.486 128.008 44.9826 127.699 44.5357C129.069 44.3648 130.406 43.9855 131.662 43.4112C131.828 43.3794 131.982 43.3027 132.108 43.1894C132.234 43.0761 132.327 42.9306 132.376 42.7686C132.404 42.6328 132.39 42.4916 132.336 42.3639C132.282 42.2362 132.19 42.1283 132.072 42.0546C131.572 41.7511 130.983 42.1617 130.591 42.3223C123.451 45.0534 127.413 42.9471 127.271 47.3739C127.274 47.5106 127.321 47.6426 127.404 47.7508C127.488 47.8591 127.604 47.9378 127.735 47.9756C127.867 48.0134 128.007 48.0084 128.135 47.9612C128.263 47.9139 128.373 47.827 128.449 47.713C128.493 47.6687 128.523 47.6131 128.538 47.5524C128.893 47.0636 129.422 46.7286 130.015 46.6159C130.609 46.5031 131.223 46.621 131.733 46.9455C132.078 47.1978 132.351 47.5348 132.528 47.9239C132.704 48.313 132.777 48.741 132.739 49.1664C132.701 49.5919 132.554 50.0004 132.312 50.3524C132.07 50.7045 131.742 50.9881 131.358 51.1759C130.447 51.5179 129.466 51.6283 128.502 51.4972C127.967 51.4972 127.717 52.0506 128.074 52.3719C128.578 52.7257 129.159 52.9542 129.77 53.0383C130.38 53.1224 131.001 53.0598 131.583 52.8556C132.164 52.6514 132.688 52.3115 133.111 51.8642C133.535 51.4168 133.846 50.8749 134.018 50.2834ZM135.892 47.6238C137.023 47.4926 138.141 47.2596 139.23 46.9276C139.256 48.1396 139.454 49.3417 139.819 50.4976C139.89 50.6 139.988 50.6807 140.103 50.7309C140.217 50.7812 140.342 50.799 140.466 50.7824C140.59 50.7658 140.706 50.7154 140.803 50.6368C140.9 50.5583 140.973 50.4545 141.015 50.337C141.119 49.0492 140.979 47.7534 140.604 46.5171C141.267 46.4234 141.887 46.138 142.389 45.696C142.456 45.6116 142.499 45.5116 142.515 45.4056C142.532 45.2996 142.521 45.1912 142.483 45.0908C142.445 44.9904 142.383 44.9013 142.3 44.8322C142.218 44.7632 142.12 44.7164 142.015 44.6964C139.837 44.4108 140.533 46.1065 139.962 43.3041C139.962 43.1573 139.904 43.0166 139.8 42.9128C139.696 42.809 139.555 42.7507 139.409 42.7507C139.262 42.7507 139.121 42.809 139.017 42.9128C138.913 43.0166 138.855 43.1573 138.855 43.3041C138.855 43.5897 138.855 43.4647 138.98 45.3033C138.338 45.4818 137.766 45.696 137.195 45.928C136.624 46.1601 137.624 43.9824 137.838 41.1799C137.839 41.087 137.808 40.9966 137.749 40.9247C137.69 40.8528 137.608 40.8041 137.516 40.7872C136.874 40.6623 136.856 41.3406 135.571 46.767C135.503 46.9236 135.499 47.1003 135.559 47.26C135.619 47.4197 135.738 47.5501 135.892 47.6238Z" fill="#5669FF"/>
<path d="M146.37 48.0344C150.279 48.0344 151.172 41.5548 147.387 38.8059C145.478 37.4315 143.585 37.7706 142.729 40.0019C141.658 43.0185 143.264 48.0344 146.37 48.0344ZM147.316 40.8944C148.833 42.8222 148.441 45.9459 146.709 46.5885C144.978 47.2311 143.514 44.4287 143.657 41.9118C143.889 38.4668 146.031 39.1094 147.37 40.823L147.316 40.8944Z" fill="#5669FF"/>
<path d="M153.938 46.4099C158.312 46.4099 159.293 39.0914 155.438 36.5567C155.084 36.2858 154.674 36.0982 154.237 36.0078C153.801 35.9174 153.35 35.9265 152.918 36.0346C152.485 36.1427 152.083 36.3469 151.741 36.632C151.398 36.9171 151.124 37.2757 150.94 37.6813C150.462 38.3869 150.179 39.2056 150.119 40.0553C149.44 42.8399 151.011 46.4099 153.938 46.4099ZM151.529 38.7344C151.63 38.447 151.79 38.1839 151.999 37.9623C152.208 37.7406 152.461 37.5652 152.742 37.4474C153.023 37.3297 153.325 37.2722 153.63 37.2786C153.934 37.2851 154.234 37.3554 154.51 37.4849C157.312 39.2699 156.759 45.9101 152.832 44.6249C152.267 44.2274 151.816 43.6883 151.525 43.0618C151.233 42.4353 151.112 41.7432 151.172 41.0549C151.159 40.2668 151.28 39.4823 151.529 38.7344ZM159.543 43.3576C159.882 43.3576 159.151 43.3576 161.56 43.0006C162.846 42.8042 162.649 42.8399 164.488 42.4651C165.129 42.4385 165.748 42.2278 166.273 41.8582C166.42 41.708 166.502 41.5061 166.502 41.2959C166.502 41.0856 166.42 40.8838 166.273 40.7336C165.844 40.3052 164.773 40.4659 164.22 40.7336C162.274 41.162 162.542 41.0906 161.328 41.4298C162.246 39.9881 162.854 38.3711 163.113 36.6817C163.345 34.8967 161.846 33.308 160.382 33.8078C160.088 33.8923 159.827 34.0647 159.634 34.3019C159.441 34.539 159.325 34.8296 159.301 35.1346C159.278 35.4396 159.349 35.7445 159.504 36.0082C159.658 36.272 159.89 36.4821 160.168 36.6103C161.15 37.0387 161.203 35.8427 160.811 35.7892C160.723 35.7646 160.646 35.7102 160.594 35.6352C160.542 35.5603 160.518 35.4696 160.525 35.3786C160.525 34.7539 161.132 34.7896 161.471 35.093C162.917 36.5032 160.543 40.5373 159.044 42.233C158.976 42.3354 158.936 42.453 158.926 42.5751C158.916 42.6971 158.937 42.8197 158.987 42.9316C159.036 43.0435 159.113 43.1411 159.211 43.2155C159.308 43.29 159.422 43.3388 159.543 43.3576ZM167.915 38.6273C168.54 38.6273 168.361 38.2703 169.218 35.3072C170.468 40.6622 170.539 41.0014 171.182 41.3048C171.279 41.3801 171.398 41.4209 171.521 41.4209C171.643 41.4209 171.763 41.3801 171.86 41.3048C172.324 40.6801 172.128 40.3945 170.932 36.1819C169.932 32.7011 169.932 32.5226 169.254 32.5048C169.127 32.5113 169.007 32.5609 168.913 32.6454C168.819 32.7298 168.756 32.844 168.736 32.9689C168.397 34.6289 167.951 36.2533 167.433 38.0561C167.435 38.1924 167.484 38.3238 167.572 38.4279C167.66 38.5321 167.781 38.6025 167.915 38.6273ZM224.107 231.622L226.445 233.871C226.999 234.567 228.373 235.959 229.248 235.959C230.122 235.959 231.033 234.727 231.675 233.764C233.308 231.895 234.557 229.724 235.352 227.373C236.156 223.214 230.908 219.983 228.319 225.588C226.374 222.518 219.002 223.428 220.537 227.373C221.383 229.046 222.605 230.5 224.107 231.622ZM284.565 111.063C283.974 110.676 283.273 110.492 282.569 110.537C281.864 110.582 281.193 110.854 280.656 111.313C279.374 112.625 278.457 114.249 277.996 116.025C277.027 118.268 276.181 120.562 275.461 122.897C275.122 124.343 275.925 124.343 276.247 124.075C279.424 124.325 289.991 121.898 289.759 118.328C289.578 117.487 289.08 116.749 288.368 116.267C287.657 115.785 286.787 115.596 285.939 115.739C286.2 114.911 286.209 114.025 285.964 113.192C285.719 112.359 285.232 111.618 284.565 111.063ZM284.154 170.521C286.689 167.076 288.992 162.988 288.51 158.312C288.462 157.081 288.142 155.877 287.574 154.785C287.007 153.692 286.204 152.739 285.225 151.993C282.976 150.654 280.424 152.582 278.71 153.885C270.035 160.418 267.34 171.538 264.912 181.07C264.412 183.087 263.877 185.158 263.573 187.193C262.449 191.066 265.483 191.87 268.071 192.084C275.729 192.673 286.939 188.335 294.686 186.158C298.434 185.104 304.717 183.337 304.61 177.875C304.539 171.86 293.829 166.291 284.154 170.521ZM274.158 108.617C274.225 108.706 274.311 108.778 274.41 108.827C274.509 108.877 274.619 108.903 274.729 108.903C274.84 108.903 274.95 108.877 275.049 108.827C275.148 108.778 275.234 108.706 275.301 108.617C280.515 100.961 285.18 92.9437 289.259 84.6268C292.562 77.4868 288.545 68.294 281.03 69.9184C277.96 70.6324 275.301 73.0064 273.141 76.9691C272.407 74.4835 270.754 72.3708 268.518 71.0608C261.11 66.8839 252.667 74.9164 256.754 82.3241C261.506 91.74 267.347 100.565 274.158 108.617ZM153.51 121.88C153.523 122.379 153.589 122.876 153.706 123.361C153.813 124.432 153.956 125.575 155.027 125.575C155.168 125.57 155.306 125.538 155.435 125.48C155.563 125.422 155.678 125.339 155.774 125.236C155.87 125.133 155.945 125.012 155.995 124.881C156.044 124.749 156.067 124.609 156.063 124.468C155.894 123.5 155.637 122.55 155.295 121.63C155.208 121.449 155.066 121.301 154.889 121.206C154.712 121.111 154.51 121.075 154.311 121.103C154.113 121.131 153.928 121.221 153.784 121.361C153.64 121.5 153.544 121.682 153.51 121.88ZM173.984 118.988C173.792 118.843 173.552 118.773 173.312 118.793C173.072 118.813 172.847 118.92 172.681 119.095C171.913 119.452 171.788 123.629 173.484 123.629C173.743 123.637 173.996 123.551 174.196 123.387C174.396 123.223 174.53 122.992 174.573 122.737C174.573 121.933 174.466 122.023 174.466 121.487C174.466 119.595 174.323 119.256 173.984 118.988ZM230.658 273.783C229.855 272.302 227.748 272.766 227.088 274.301C226.918 274.082 226.705 273.9 226.462 273.766C226.22 273.633 225.952 273.55 225.677 273.523C225.401 273.497 225.123 273.526 224.859 273.611C224.595 273.696 224.351 273.833 224.143 274.015C223.843 274.286 223.606 274.618 223.447 274.989C223.288 275.36 223.211 275.761 223.221 276.164C223.231 276.567 223.328 276.964 223.506 277.326C223.683 277.689 223.937 278.008 224.25 278.264C225.321 279.026 226.462 279.683 227.659 280.227C227.845 280.351 228.061 280.425 228.284 280.441C228.784 280.441 228.998 279.638 229.194 279.263C230.408 276.782 231.211 275.479 230.658 273.783ZM208.024 278.585C208.327 280.37 208.595 282.369 208.72 282.958L212.112 282.173C212.362 282.173 212.379 282.298 211.487 277.942C210.314 278.042 209.154 278.257 208.024 278.585Z" fill="#5669FF"/>
<path d="M208.202 273.89C206.91 274.4 205.779 275.249 204.931 276.349C204.082 277.449 203.547 278.758 203.383 280.138C203.233 281.01 203.274 281.904 203.504 282.758C203.733 283.613 204.146 284.407 204.713 285.086C205.28 285.765 205.988 286.313 206.788 286.691C207.588 287.07 208.46 287.27 209.345 287.278C210.717 287.217 212.05 286.805 213.216 286.079C214.382 285.354 215.342 284.341 216.003 283.137C218.002 278.46 213.575 272.391 208.202 273.89ZM213.557 282.423V282.673C213.165 283.636 212.594 283.726 209.434 284.279L208.934 284.368C208.747 284.429 208.548 284.451 208.352 284.433C208.156 284.415 207.965 284.356 207.792 284.261C207.651 284.169 207.534 284.045 207.451 283.899C207.367 283.754 207.319 283.59 207.31 283.422C207.31 283.244 207.31 282.726 207.167 282.066C206.964 280.886 206.851 279.693 206.828 278.496C206.757 278.269 206.757 278.026 206.828 277.8C206.889 277.659 206.983 277.534 207.1 277.435C207.218 277.335 207.357 277.265 207.506 277.228C208.832 276.88 210.18 276.624 211.54 276.461C211.778 276.457 212.01 276.53 212.203 276.668C212.395 276.806 212.539 277.002 212.611 277.228C212.951 278.906 213.147 279.959 213.29 280.655C213.481 281.224 213.572 281.823 213.557 282.423Z" fill="#5669FF"/>
</svg>
