<svg width="360" height="360" viewBox="0 0 360 360" fill="none" xmlns="http://www.w3.org/2000/svg">
<path d="M296.298 88.8668C297.031 88.7115 297.702 88.3418 298.224 87.8048C298.163 88.1029 298.085 88.3974 297.99 88.6868C297.846 89.1728 298.386 89.3168 298.566 89.0108C299.203 88.0657 299.454 86.913 299.268 85.7888C299.259 85.6825 299.219 85.5812 299.154 85.4968C299.089 85.4124 299.001 85.3484 298.901 85.3124C298.8 85.2765 298.692 85.27 298.588 85.2938C298.484 85.3176 298.389 85.3707 298.314 85.4468C297.558 86.3648 297.414 87.6608 296.136 88.0568C296.035 88.0843 295.948 88.1493 295.893 88.2385C295.838 88.3277 295.819 88.4345 295.839 88.5374C295.86 88.6402 295.918 88.7314 296.004 88.7925C296.089 88.8537 296.194 88.8802 296.298 88.8668ZM292.752 82.8008C292.853 82.8653 292.969 82.9016 293.088 82.906C293.207 82.9104 293.325 82.8826 293.43 82.8255C293.535 82.7685 293.623 82.6843 293.684 82.5818C293.745 82.4792 293.778 82.3621 293.778 82.2428C293.778 82.0988 293.778 81.9368 292.914 80.6408C292.734 80.3708 292.518 79.8668 292.05 80.1188C291.582 80.3708 291.906 80.8388 292.158 81.4688C292.662 82.8008 292.662 82.8008 292.752 82.8008ZM292.464 79.5068C293.346 79.5068 293.958 79.5068 294.066 80.2448C294.08 80.3546 294.138 80.4542 294.226 80.5217C294.313 80.5892 294.424 80.6191 294.534 80.6048C294.644 80.5904 294.744 80.5331 294.811 80.4453C294.879 80.3576 294.908 80.2466 294.894 80.1368C294.752 79.5536 294.408 79.0392 293.925 78.6837C293.441 78.3283 292.847 78.1545 292.248 78.1928C292.106 78.2519 291.988 78.3575 291.913 78.4923C291.838 78.6271 291.811 78.7832 291.836 78.9353C291.861 79.0874 291.936 79.2266 292.051 79.3304C292.165 79.4341 292.31 79.4963 292.464 79.5068ZM72.3061 134.371C67.2572 136.813 61.7009 138.023 56.0937 137.901C50.4864 137.779 44.988 136.328 40.0501 133.669C39.9594 133.614 39.8506 133.597 39.7477 133.623C39.6447 133.648 39.556 133.713 39.5011 133.804C39.4462 133.894 39.4296 134.003 39.4549 134.106C39.4802 134.209 39.5454 134.298 39.6361 134.353C49.5001 140.779 63.9901 141.139 72.5761 134.839C72.6382 134.803 72.6835 134.744 72.7021 134.675C72.7206 134.606 72.7109 134.532 72.6751 134.47C72.6393 134.408 72.5803 134.362 72.5111 134.344C72.4419 134.325 72.3682 134.335 72.3061 134.371ZM70.9741 81.0008C72.0001 81.4148 73.6921 81.0008 73.2421 80.0468C72.9417 79.3188 72.7302 78.5573 72.6121 77.7788C72.6121 77.669 72.5685 77.5637 72.4909 77.486C72.4132 77.4084 72.3079 77.3648 72.1981 77.3648C72.0883 77.3648 71.983 77.4084 71.9054 77.486C71.8277 77.5637 71.7841 77.669 71.7841 77.7788C71.7733 78.5404 71.8458 79.3009 72.0001 80.0468C71.7546 80.1864 71.4705 80.2432 71.1901 80.2088C71.1381 80.1946 71.0838 80.1908 71.0304 80.1976C70.9769 80.2044 70.9253 80.2216 70.8785 80.2484C70.8317 80.2751 70.7906 80.3108 70.7576 80.3534C70.7246 80.3961 70.7003 80.4448 70.6861 80.4968C70.6719 80.5488 70.6681 80.6031 70.6749 80.6565C70.6817 80.71 70.699 80.7616 70.7257 80.8084C70.7525 80.8552 70.7882 80.8963 70.8308 80.9293C70.8734 80.9623 70.9221 80.9866 70.9741 81.0008ZM68.9041 77.0588C69.1829 76.4112 69.4115 75.7433 69.5881 75.0608C69.6042 74.9981 69.6076 74.9329 69.5981 74.8689C69.5887 74.8049 69.5665 74.7434 69.533 74.6881C69.4995 74.6328 69.4552 74.5847 69.4029 74.5467C69.3505 74.5087 69.2911 74.4815 69.2281 74.4668C68.6881 74.3048 68.5981 74.8808 68.3281 75.5828C68.1731 75.9319 68.0467 76.2931 67.9501 76.6628C67.9496 76.7735 67.982 76.882 68.0432 76.9743C68.1045 77.0666 68.1919 77.1385 68.2942 77.181C68.3965 77.2235 68.5092 77.2345 68.6178 77.2128C68.7264 77.191 68.8261 77.1374 68.9041 77.0588ZM74.8981 78.7508C75.0006 78.7958 75.1146 78.8078 75.2242 78.7853C75.3338 78.7627 75.4338 78.7066 75.5101 78.6248C75.7862 77.9762 76.0148 77.3084 76.1941 76.6268C76.2131 76.5653 76.2192 76.5006 76.212 76.4367C76.2049 76.3728 76.1846 76.311 76.1525 76.2553C76.1204 76.1995 76.0772 76.151 76.0255 76.1127C75.9738 76.0744 75.9148 76.0472 75.8521 76.0328C75.2941 75.8708 75.1861 76.5188 74.9521 77.1308C74.7181 77.7428 74.2681 78.4988 74.8981 78.7508ZM66.2581 82.4408C66.9042 82.7643 67.6444 82.8472 68.3461 82.6748C68.7961 82.4768 68.4901 81.7928 68.0581 81.9368C67.5826 81.9042 67.1264 81.7355 66.7441 81.4508C66.5006 81.291 66.2909 81.0847 66.1272 80.8438C65.9635 80.6029 65.849 80.332 65.7901 80.0468C65.6641 79.2908 64.4761 79.5788 64.6561 80.3348C64.7435 80.7852 64.9335 81.2095 65.2113 81.5748C65.4891 81.94 65.8473 82.2363 66.2581 82.4408ZM194.22 279.487C194.22 279.009 194.03 278.552 193.693 278.214C193.355 277.876 192.898 277.687 192.42 277.687C191.943 277.687 191.485 277.876 191.147 278.214C190.81 278.552 190.62 279.009 190.62 279.487C190.62 279.964 190.81 280.422 191.147 280.76C191.485 281.097 191.943 281.287 192.42 281.287C192.898 281.287 193.355 281.097 193.693 280.76C194.03 280.422 194.22 279.964 194.22 279.487ZM194.184 297.217C194.469 297.243 194.755 297.211 195.026 297.12C195.297 297.03 195.546 296.883 195.758 296.691C195.969 296.499 196.138 296.264 196.253 296.003C196.368 295.742 196.428 295.459 196.428 295.174C196.428 294.888 196.368 294.606 196.253 294.344C196.138 294.083 195.969 293.849 195.758 293.656C195.546 293.464 195.297 293.318 195.026 293.228C194.755 293.137 194.469 293.104 194.184 293.131C193.9 293.104 193.613 293.137 193.342 293.228C193.071 293.318 192.822 293.464 192.611 293.656C192.399 293.849 192.231 294.083 192.115 294.344C192 294.606 191.94 294.888 191.94 295.174C191.94 295.459 192 295.742 192.115 296.003C192.231 296.264 192.399 296.499 192.611 296.691C192.822 296.883 193.071 297.03 193.342 297.12C193.613 297.211 193.9 297.243 194.184 297.217ZM194.706 311.797C194.216 311.844 193.761 312.072 193.429 312.436C193.098 312.8 192.915 313.275 192.915 313.768C192.915 314.26 193.098 314.735 193.429 315.099C193.761 315.464 194.216 315.692 194.706 315.739C195.196 315.692 195.652 315.464 195.983 315.099C196.314 314.735 196.498 314.26 196.498 313.768C196.498 313.275 196.314 312.8 195.983 312.436C195.652 312.072 195.196 311.844 194.706 311.797ZM183.78 233.623C184.667 238.322 185.268 243.071 185.58 247.843C185.58 248.01 185.646 248.17 185.765 248.288C185.883 248.406 186.043 248.473 186.21 248.473C186.377 248.473 186.537 248.406 186.656 248.288C186.774 248.17 186.84 248.01 186.84 247.843C186.487 242.991 185.747 238.176 184.626 233.443C184.58 233.357 184.507 233.288 184.419 233.246C184.33 233.205 184.231 233.194 184.135 233.214C184.04 233.235 183.954 233.285 183.889 233.359C183.825 233.433 183.787 233.525 183.78 233.623ZM187.2 286.327C187.2 286.203 187.151 286.084 187.063 285.996C186.975 285.908 186.856 285.859 186.732 285.859C186.608 285.859 186.489 285.908 186.401 285.996C186.313 286.084 186.264 286.203 186.264 286.327C186.084 298.657 185.868 328.123 185.976 331.327C186.001 331.469 186.075 331.598 186.185 331.69C186.295 331.783 186.435 331.834 186.579 331.834C186.723 331.834 186.863 331.783 186.973 331.69C187.083 331.598 187.157 331.469 187.182 331.327C187.434 325.513 187.2 289.207 187.2 286.327ZM235.512 162.523C235.531 162.573 235.566 162.616 235.611 162.645C235.657 162.674 235.71 162.688 235.764 162.685C240.516 160.23 244.795 156.952 248.4 153.001C248.451 152.947 248.479 152.876 248.479 152.803C248.479 152.729 248.451 152.658 248.4 152.605C244.278 149.689 232.632 144.847 232.614 146.215C232.523 151.787 233.507 157.324 235.512 162.523ZM102.996 188.641C104.454 188.701 105.895 188.303 107.115 187.502C108.336 186.701 109.275 185.539 109.8 184.177C110.286 182.647 110.106 182.377 108.63 173.467C109.706 174.33 110.837 175.124 112.014 175.843C112.385 175.986 112.795 175.986 113.165 175.843C113.536 175.701 113.84 175.426 114.02 175.072C114.199 174.718 114.241 174.309 114.136 173.926C114.032 173.543 113.788 173.213 113.454 172.999C110.443 171.432 108.13 168.792 106.974 165.601C106.812 165.043 104.706 164.863 103.914 166.213C103.914 166.375 106.668 181.675 106.704 181.837C106.821 182.297 106.821 182.78 106.704 183.241C106.437 183.819 106.027 184.32 105.515 184.698C105.002 185.075 104.402 185.317 103.77 185.401C103.267 185.5 102.749 185.499 102.246 185.396C101.743 185.293 101.266 185.092 100.842 184.803C100.417 184.514 100.055 184.144 99.7753 183.714C99.4956 183.284 99.3042 182.802 99.2123 182.297C99.1204 181.792 99.1298 181.274 99.24 180.773C99.3502 180.272 99.5589 179.798 99.8541 179.378C100.149 178.958 100.525 178.602 100.959 178.328C101.394 178.055 101.878 177.871 102.384 177.787C102.807 177.713 103.182 177.474 103.429 177.123C103.675 176.772 103.772 176.337 103.698 175.915C103.624 175.492 103.385 175.116 103.034 174.87C102.683 174.624 102.249 174.527 101.826 174.601C100.577 174.809 99.4056 175.343 98.4291 176.149C97.4526 176.955 96.7058 178.004 96.2641 179.191C95.8587 180.264 95.7237 181.42 95.8711 182.557C96.0184 183.694 96.4436 184.778 97.109 185.712C97.7744 186.646 98.6595 187.402 99.6863 187.912C100.713 188.423 101.85 188.673 102.996 188.641Z" fill="#5669FF"/>
<path d="M122.94 176.166C122.751 172.529 121.478 169.032 119.283 166.125C117.089 163.219 114.074 161.036 110.628 159.858C95.0942 154.602 80.8022 172.8 90.0002 186.606C92.1701 189.838 95.3295 192.28 99.0045 193.564C102.679 194.849 106.672 194.908 110.383 193.732C114.094 192.555 117.324 190.208 119.588 187.041C121.852 183.874 123.028 180.058 122.94 176.166ZM94.1402 164.646C105.174 154.494 121.374 162.846 121.806 176.184C121.765 179.581 120.785 182.901 118.975 185.776C117.164 188.651 114.593 190.969 111.546 192.474C101.502 196.848 89.3702 189.306 88.5242 178.686C88.3021 176.075 88.6888 173.448 89.6539 171.012C90.619 168.575 92.1362 166.396 94.0862 164.646H94.1402ZM223.2 162.18C224.764 164.573 226.879 166.556 229.369 167.96C231.859 169.365 234.65 170.151 237.507 170.251C240.364 170.352 243.204 169.764 245.786 168.538C248.368 167.312 250.618 165.483 252.346 163.205C254.074 160.927 255.229 158.268 255.714 155.45C256.199 152.633 255.999 149.74 255.133 147.016C254.266 144.292 252.757 141.816 250.733 139.797C248.71 137.778 246.23 136.274 243.504 135.414C227.34 130.41 214.344 149.238 223.2 162.18ZM227.34 140.238C238.59 129.87 254.574 138.852 254.988 151.776C254.952 155.165 253.982 158.479 252.185 161.353C250.387 164.227 247.832 166.55 244.8 168.066C234.774 172.44 222.624 164.916 221.76 154.278C221.543 151.661 221.939 149.029 222.917 146.591C223.895 144.154 225.428 141.979 227.394 140.238H227.34ZM112.194 76.9678C98.8922 48.8878 64.8002 36.9178 37.2962 55.6378C1.6562 79.9918 10.0802 131.4 50.1482 145.224C89.2802 159.12 131.994 118.8 112.194 76.9678ZM87.1202 141.588C83.8537 143.187 80.4099 144.396 76.8602 145.188C77.0942 142.956 77.3822 137.196 77.4902 134.496C79.1822 137.196 82.2422 139.896 86.0402 139.356C89.3522 138.834 92.2862 135.756 95.0402 130.356C97.7365 124.455 99.253 118.083 99.5042 111.6C99.7975 110.849 99.9853 110.062 100.062 109.26C100.977 107.152 102.042 105.113 103.248 103.158C103.896 102.593 104.46 101.938 104.922 101.214C105.425 99.8185 105.537 98.3122 105.246 96.8578C105.19 95.3992 104.652 94.0003 103.716 92.8798C104.454 91.3858 106.506 84.5638 106.848 83.2318C106.878 83.0891 106.853 82.9405 106.78 82.8144C106.707 82.6882 106.591 82.5934 106.452 82.5478C102.844 81.9976 99.1933 81.7687 95.5442 81.8638C95.4182 81.6298 88.9382 100.134 88.3442 101.664C88.3168 101.748 88.3067 101.836 88.3147 101.924C88.3227 102.012 88.3486 102.097 88.3907 102.175C88.4328 102.252 88.4904 102.32 88.5597 102.375C88.6291 102.429 88.7089 102.469 88.7942 102.492C90.5831 102.769 92.3858 102.95 94.1942 103.032C94.1942 103.806 93.8522 105.948 93.7262 106.632C93.2129 107.283 92.7948 108.005 92.4842 108.774C90.2494 110.718 88.6763 113.31 87.9842 116.19C84.7982 102.204 82.5842 96.1918 69.9842 89.1898C69.3542 88.8478 68.5982 88.5958 67.9142 88.1458C76.6262 90.2338 77.5982 91.2238 77.9222 90.7918C87.7862 76.8958 83.1962 61.0018 73.0802 54.6118C63.6122 47.7718 54.2702 54.2338 50.8682 65.0518C48.3482 73.5658 52.6682 81.0178 54.9002 84.1138C52.8482 84.3118 52.1462 84.5458 50.5082 84.7258C36.6482 86.2198 25.4162 102.834 20.2682 115.812C4.9142 80.5858 38.3582 40.4818 77.2382 49.7698C121.68 61.9558 129.762 120.96 87.1202 141.588ZM32.0582 132.588C33.4262 130.464 36.8462 124.56 37.6382 123.174C47.6462 130.878 66.4382 131.886 76.3022 125.316C76.3022 125.622 75.8522 142.974 75.8522 145.44C68.0559 146.867 60.0337 146.447 52.4287 144.216C44.8236 141.984 37.847 138.001 32.0582 132.588ZM88.5242 120.204C88.4917 119.642 88.4256 119.083 88.3262 118.53C88.4882 118.026 88.5962 117.576 88.7582 116.982C89.9282 118.926 93.7982 122.382 95.4002 122.58C95.4808 122.586 95.5612 122.565 95.6285 122.52C95.6957 122.475 95.7458 122.409 95.7708 122.332C95.7957 122.255 95.7941 122.172 95.766 122.096C95.738 122.02 95.6852 121.956 95.6162 121.914C92.9513 120.257 90.8105 117.879 89.4422 115.056C89.8567 113.927 90.466 112.879 91.2422 111.96C92.6531 114.174 94.6373 115.966 96.9842 117.144C97.0256 117.154 97.0686 117.157 97.1109 117.151C97.1532 117.145 97.1939 117.131 97.2307 117.109C97.2674 117.087 97.2996 117.058 97.3252 117.024C97.3509 116.99 97.3696 116.951 97.3802 116.91C97.3908 116.868 97.3932 116.825 97.3872 116.783C97.3812 116.741 97.3669 116.7 97.3452 116.663C97.3235 116.627 97.2947 116.594 97.2606 116.569C97.2264 116.543 97.1876 116.524 97.1462 116.514C95.041 115.067 93.3078 113.142 92.0882 110.898C92.3222 110.61 92.5742 110.322 92.8262 110.052C94.272 111.475 96.199 112.303 98.2262 112.374C97.9078 117.769 96.798 123.088 94.9322 128.16C93.4572 131.726 91.1486 134.886 88.2002 137.376C90.6807 132.561 91.2467 126.985 89.7842 121.77C89.7482 121.646 89.6719 121.539 89.5675 121.464C89.4631 121.389 89.3366 121.351 89.2082 121.356C87.6782 121.356 89.8202 127.62 79.0382 134.55C78.4812 133.752 77.9819 132.916 77.5442 132.048C77.6522 125.928 77.4002 119.826 77.1482 113.922C77.1482 113.812 77.1046 113.707 77.0269 113.629C76.9493 113.551 76.844 113.508 76.7342 113.508C76.6244 113.508 76.5191 113.551 76.4415 113.629C76.3638 113.707 76.3202 113.812 76.3202 113.922C76.4282 117.054 76.3202 120.15 76.3202 123.858C70.2722 127.656 63.3422 128.97 54.4862 127.98C48.5951 127.669 42.9194 125.663 38.1422 122.202C38.7722 121.05 41.4002 116.01 42.1382 114.66C42.1738 114.598 42.1922 114.528 42.1915 114.457C42.1907 114.386 42.1709 114.317 42.1341 114.256C42.0973 114.195 42.0449 114.146 41.9822 114.112C41.9196 114.079 41.8491 114.063 41.7782 114.066C41.3462 114.066 41.7782 113.958 38.1782 120.132C32.5001 117.908 27.9146 113.555 25.3982 108C28.3117 102.438 32.132 97.401 36.7022 93.0958C39.0497 96.3551 42.0285 99.1092 45.4614 101.194C48.8944 103.28 52.7115 104.654 56.686 105.235C60.6604 105.816 64.7111 105.592 68.5973 104.576C72.4835 103.561 76.126 101.775 79.3082 99.3238C79.3692 99.2587 79.4053 99.1741 79.41 99.0851C79.4146 98.996 79.3876 98.9081 79.3338 98.837C79.2799 98.7659 79.2026 98.7161 79.1156 98.6965C79.0285 98.6769 78.9374 98.6887 78.8582 98.7298C76.246 100.525 73.4073 101.965 70.4162 103.014C64.516 104.883 58.177 104.845 52.2995 102.906C46.4219 100.968 41.3045 97.2263 37.6742 92.2138C39.3981 90.8149 41.2691 89.6078 43.2542 88.6138C50.0762 103.968 66.9062 105.066 75.0422 94.0138C79.2542 97.2898 80.5502 97.7038 83.9162 105.84C76.1942 112.572 69.1562 115.92 62.4242 115.848C56.8302 115.887 51.3003 114.655 46.252 112.244C41.2037 109.834 36.7689 106.308 33.2822 101.934C32.9942 101.538 32.3462 101.934 32.6342 102.366C38.0342 110.592 48.2762 115.992 60.8042 117.18C69.2822 118.008 78.2822 113.166 84.3302 107.01C85.2662 110.106 86.4002 114.66 86.5262 115.2C85.9682 117 79.9382 122.598 78.9842 122.814C78.4262 122.94 78.7142 123.804 79.2182 123.588C82.1193 121.909 84.7325 119.776 86.9582 117.27C87.1562 118.206 87.5162 119.88 87.5702 120.294C87.6242 120.708 88.5602 120.78 88.5242 120.204ZM99.3242 93.0598C99.1011 92.997 98.8661 92.9897 98.6395 93.0385C98.413 93.0873 98.2018 93.1907 98.0244 93.3398C97.8469 93.4888 97.7086 93.679 97.6214 93.8937C97.5342 94.1085 97.5009 94.3412 97.5242 94.5718C95.5982 94.9858 95.7242 96.3718 96.8402 97.2718C97.9449 97.969 99.0866 98.606 100.26 99.1798C99.8462 100.17 99.5222 100.98 99.0902 101.934C97.2902 101.934 91.6922 101.592 89.7482 101.43C90.4682 99.1798 94.2662 88.7218 96.3542 83.0698C98.1542 83.1598 103.788 83.3038 105.606 83.5918C105.174 85.3918 103.338 90.6298 102.816 92.2678C102.538 92.0844 102.226 91.9593 101.899 91.8998C101.571 91.8404 101.235 91.8479 100.91 91.9219C100.585 91.9959 100.279 92.1349 100.01 92.3304C99.7402 92.526 99.5132 92.7741 99.3422 93.0598H99.3242ZM100.116 102.798C100.422 101.826 100.8 100.89 101.304 99.6658C101.384 99.6799 101.467 99.6677 101.54 99.6311C101.612 99.5945 101.671 99.5354 101.708 99.4625C101.744 99.3897 101.756 99.3071 101.742 99.227C101.727 99.1469 101.688 99.0735 101.628 99.0178C101.178 98.6038 97.0022 96.3898 97.1642 95.9578C97.3262 95.5258 98.3702 95.8318 98.9642 96.1738C100.136 96.6562 101.338 97.0592 102.564 97.3798C102.643 97.3883 102.722 97.3707 102.79 97.3296C102.858 97.2885 102.91 97.2262 102.939 97.1524C102.967 97.0786 102.971 96.9974 102.949 96.9213C102.927 96.8453 102.88 96.7787 102.816 96.7318C101.411 96.2216 100.04 95.6204 98.7122 94.9318C98.4422 94.6798 98.3162 93.9958 98.7122 94.0138C100.035 94.3289 101.267 94.9449 102.312 95.8138C102.354 95.8528 102.402 95.8833 102.455 95.9035C102.508 95.9237 102.565 95.9332 102.622 95.9315C102.679 95.9299 102.735 95.917 102.787 95.8937C102.838 95.8704 102.885 95.8372 102.924 95.7958C102.963 95.7544 102.994 95.7058 103.014 95.6526C103.034 95.5995 103.044 95.5429 103.042 95.4861C103.04 95.4292 103.027 95.3733 103.004 95.3214C102.981 95.2696 102.948 95.2228 102.906 95.1838C102.23 94.6499 101.514 94.1685 100.764 93.7438C99.8642 93.2218 100.512 92.5738 101.412 92.6998C102.618 92.8798 104.166 94.4998 104.004 97.8298C104.154 98.7242 104.038 99.643 103.67 100.472C103.302 101.301 102.698 102.003 101.934 102.492C100.774 104.332 99.7918 106.279 99.0002 108.306C98.2087 108.511 97.3752 108.486 96.5973 108.234C95.8195 107.982 95.1295 107.514 94.6082 106.884C94.7342 106.254 95.1122 104.094 95.2202 103.284C99.2342 103.41 99.9362 103.392 100.134 102.798H100.116ZM89.0822 124.596C89.702 129.189 88.9439 133.862 86.9042 138.024C85.5891 138.401 84.1893 138.359 82.8991 137.904C81.6089 137.449 80.4923 136.604 79.7042 135.486C84.0905 133.167 87.4397 129.278 89.0822 124.596ZM55.9622 85.7338C55.9942 85.7717 56.0361 85.8001 56.0832 85.8157C56.1303 85.8314 56.1808 85.8338 56.2292 85.8226C56.2775 85.8115 56.3219 85.7872 56.3573 85.7525C56.3928 85.7177 56.418 85.6739 56.4302 85.6258C59.1482 74.9338 59.0762 75.5998 58.8242 75.4558C55.8002 73.7998 56.7542 70.5778 57.9782 70.1998C58.5902 70.0018 59.4002 70.3978 60.2102 71.2978C60.7392 71.7951 61.1405 72.4125 61.3802 73.0978C63.1802 78.1378 73.1522 71.4958 77.4722 68.3098C77.7719 68.0606 78.1265 67.886 78.5068 67.8003C78.8871 67.7146 79.2822 67.7203 79.6599 67.8169C80.0376 67.9136 80.3869 68.0983 80.6794 68.3561C80.9718 68.6138 81.199 68.9373 81.3422 69.2998C81.7562 70.0918 81.0002 70.7578 80.5502 69.8938C79.6142 68.3098 77.9762 69.1918 78.0122 69.6238C78.3722 74.0878 77.5442 80.4238 74.0702 83.5198C70.5962 86.6158 66.5642 85.0138 66.2042 85.3198C65.8442 85.6258 66.0422 85.9138 66.0422 86.2558C65.8812 86.6378 65.8098 87.0516 65.8333 87.4655C65.8568 87.8794 65.9747 88.2824 66.178 88.6437C66.3812 89.005 66.6644 89.3151 67.0059 89.5501C67.3474 89.7852 67.7381 89.939 68.1482 89.9998C69.6191 90.5557 71.0205 91.2805 72.3242 92.1598C65.9162 102.06 51.9122 100.602 46.5482 87.2638C49.5468 86.24 52.6722 85.6343 55.8362 85.4638L55.9622 85.7338ZM24.8042 109.134C25.9672 111.913 27.7033 114.416 29.8993 116.478C32.0953 118.541 34.7016 120.117 37.5482 121.104C37.3322 121.446 32.3102 129.654 31.1222 131.67C26.7517 127.471 23.1994 122.496 20.6462 117C22.4282 113.796 23.4002 111.852 24.8042 109.152V109.134ZM339.408 77.2378C329.274 44.8378 292.752 29.9518 264.384 47.1958C232.416 66.5998 230.508 109.8 261 131.616C301.068 160.2 353.34 120.744 339.408 77.2378ZM284.688 126.342C290.646 134.244 296.622 134.856 300.618 133.938C308.07 132.246 314.604 123.876 316.512 113.562C316.538 113.44 316.515 113.313 316.448 113.208C316.38 113.104 316.274 113.03 316.152 113.004C316.03 112.978 315.903 113.001 315.799 113.068C315.694 113.136 315.62 113.242 315.594 113.364C314.747 117.768 312.899 121.919 310.194 125.496C299.61 139.284 288.594 132.552 280.152 117.288C277.408 112.911 275.868 107.888 275.688 102.726C279.972 100.71 279.882 100.602 280.386 101.034C285.39 105.336 294.48 115.596 295.74 116.982C295.763 117.101 295.826 117.209 295.92 117.287C296.014 117.365 296.132 117.407 296.253 117.407C296.375 117.407 296.493 117.365 296.586 117.287C296.68 117.209 296.744 117.101 296.766 116.982C298.782 108.846 300.366 100.404 306.36 94.5898C308.586 94.0775 310.84 93.6988 313.11 93.4558C321.084 103.536 319.95 116.982 319.914 129.744C314.569 133.826 308.428 136.743 301.886 138.309C295.345 139.874 288.549 140.053 281.934 138.834C282.323 134.571 283.249 130.373 284.688 126.342ZM314.64 93.2938C315.612 93.2938 315.522 91.7098 314.64 91.8358C310.883 92.1492 307.195 93.0229 303.696 94.4278C303.21 94.6258 302.652 94.7338 302.832 95.2198C303.012 95.7058 303.408 95.3458 304.758 95.0038C299.466 100.602 297.468 108.486 296.082 115.578C295.092 114.372 292.644 111.582 292.014 110.862C297.558 98.6398 297.252 98.2618 300.51 95.7958C301.77 94.7878 306.9 91.0798 311.148 88.4158C313.416 86.9758 315.036 85.9678 318.816 91.2058C322.326 96.0838 322.416 96.1558 320.166 106.866C319.49 101.934 317.542 97.263 314.514 93.3118L314.64 93.2938ZM275.04 82.6918C275.364 82.6918 275.526 82.9438 275.778 83.3218C281.718 92.3218 281.268 91.2958 281.268 91.4758C281.268 92.3398 282.438 93.6358 283.608 94.7338C282.654 95.0938 280.872 95.8138 279.81 96.2458C279.81 92.9338 277.47 92.9338 276.84 94.3198C275.724 92.6818 273.24 89.4418 272.736 88.8118C272.6 88.6179 272.415 88.4629 272.2 88.3619C271.986 88.2609 271.749 88.2175 271.512 88.2358C270.666 87.1558 268.758 84.6358 268.02 83.5378C268.2 83.5018 274.464 82.7998 275.022 82.6918H275.04ZM287.28 99.7558C287.01 101.952 283.572 99.5038 284.904 98.2798C285.15 98.6966 285.493 99.0482 285.903 99.305C286.314 99.5619 286.78 99.7165 287.262 99.7558H287.28ZM287.082 98.6218C286.344 98.4958 284.85 96.8218 285.282 96.4438C285.714 96.0658 287.568 98.3338 287.532 98.6038C287.381 98.6547 287.219 98.661 287.064 98.6218H287.082ZM291.204 110.052C289.638 108.396 282.528 101.052 282.348 100.908C282.087 100.518 281.75 100.185 281.357 99.9281C280.965 99.6714 280.524 99.4965 280.062 99.4138C279.826 98.801 279.733 98.142 279.792 97.4878L284.436 95.5078C284.868 95.8858 284.436 95.5078 284.22 96.3358C284.117 96.7221 284.162 97.133 284.346 97.4878C282.546 98.8198 284.346 101.916 286.722 101.682C287.428 102.166 288.038 102.776 288.522 103.482C289.055 105.319 289.81 107.084 290.772 108.738C291.366 109.8 291.33 109.674 291.186 110.052H291.204ZM289.674 103.626C289.674 103.05 291.744 100.89 292.068 100.62C293.033 100.9 293.972 101.262 294.876 101.7C294.354 102.888 292.68 106.686 291.852 108.612C290.949 107.031 290.213 105.36 289.656 103.626H289.674ZM288.936 102.474C288.588 102.015 288.176 101.609 287.712 101.268C287.934 101.028 288.101 100.743 288.2 100.432C288.3 100.121 288.33 99.7917 288.288 99.4678C288.392 99.3989 288.479 99.3086 288.544 99.203C288.609 99.0974 288.651 98.979 288.666 98.8558C288.81 98.0098 287.856 97.3078 287.226 96.7138C285.362 95.2508 283.703 93.5434 282.294 91.6378C283.725 92.3543 285.092 93.1913 286.38 94.1398C288.54 95.7418 291.312 97.2538 291.096 99.9178C290.302 100.709 289.573 101.564 288.918 102.474H288.936ZM271.8 89.3158C273.63 91.3823 275.308 93.578 276.822 95.8858C276.875 95.9661 276.949 96.0291 277.038 96.0669C277.126 96.1048 277.223 96.1157 277.317 96.0984C277.411 96.0811 277.498 96.0363 277.567 95.9696C277.636 95.903 277.684 95.8174 277.704 95.7238C277.704 95.2198 277.938 94.3198 278.406 94.5178C279.396 95.8678 278.406 97.9738 279.072 99.6478C274.248 101.772 278.19 101.232 275.22 97.8478C272.466 94.9498 271.386 90.2338 271.8 89.3158ZM290.358 87.5158C291.015 85.1608 291.015 82.6708 290.358 80.3158C290.091 79.2664 289.928 78.1932 289.872 77.1118C290.953 77.2271 292.046 77.1786 293.112 76.9678C296.262 76.4458 297.882 74.7538 298.656 75.2758C299.16 75.6178 299.25 76.6798 298.926 78.3718C298.919 78.4267 298.929 78.4824 298.955 78.5315C298.98 78.5806 299.02 78.6206 299.069 78.6461C299.119 78.6717 299.174 78.6815 299.229 78.6743C299.284 78.6671 299.335 78.6432 299.376 78.6058C300.061 78.0445 300.921 77.739 301.806 77.7418C304.2 77.9398 304.11 81.3418 301.806 82.7998C301.757 82.8392 301.722 82.8948 301.71 82.9568C301.697 83.0189 301.706 83.0834 301.736 83.1392C301.766 83.195 301.815 83.2384 301.874 83.2619C301.933 83.2854 301.998 83.2875 302.058 83.2678C302.922 82.9709 303.849 82.9062 304.746 83.0799C305.644 83.2536 306.479 83.6598 307.17 84.2578C307.547 85.7648 308.059 87.2347 308.7 88.6498C306.198 90.3598 302.85 92.6998 300.456 94.5538C298.296 90.0178 295.614 93.2398 293.76 89.6038C291.888 86.4898 290.7 87.5698 290.268 87.4618L290.358 87.5158ZM320.526 109.116C321.823 105.163 322.568 101.05 322.74 96.8938C322.485 94.8929 321.674 93.0036 320.4 91.4398C315.288 84.0598 313.2 85.2838 309.258 87.9478C308.898 86.8498 308.106 84.5638 307.962 83.9518C308.196 83.7178 308.808 83.1238 308.988 82.9978C309.654 82.0634 310.17 81.031 310.518 79.9378C310.979 78.4106 311.168 76.8143 311.076 75.2218C311.167 73.7123 310.927 72.2012 310.374 70.7938C309.229 68.7924 307.419 67.2554 305.259 66.4498C303.098 65.6441 300.724 65.6208 298.548 66.3838C295.182 65.2678 290.844 64.1158 289.206 64.8178C287.904 65.1319 286.736 65.8553 285.875 66.8818C285.014 67.9084 284.505 69.1839 284.423 70.5212C284.34 71.8585 284.688 73.187 285.417 74.3116C286.145 75.4363 287.214 76.2979 288.468 76.7698C288.414 78.1596 288.572 79.5496 288.936 80.8918C289.547 82.7811 289.597 84.8067 289.08 86.7238C288.756 88.1638 289.224 88.8118 290.88 88.5238C292.824 88.6678 291.762 92.1238 296.172 92.7718C297.234 92.9518 298.08 93.1138 299.178 95.1478C297.342 96.6154 295.962 98.576 295.2 100.8C294.221 100.223 293.183 99.7519 292.104 99.3958C291.985 98.4983 291.672 97.6375 291.187 96.8729C290.702 96.1083 290.057 95.4583 289.296 94.9678C287.619 93.5671 285.811 92.3314 283.896 91.2778C283.518 91.0798 282.726 90.4678 282.096 90.5938C275.832 81.0538 276.48 81.4678 274.518 81.4678C271.984 81.565 269.465 81.9025 266.994 82.4758C266.905 82.5091 266.825 82.562 266.76 82.6306C266.695 82.6992 266.645 82.7816 266.616 82.8718C266.508 83.3038 266.616 83.0518 269.136 86.6518C271.476 89.9278 270.63 88.3258 270.774 90.0898C271.093 93.4908 272.479 96.7038 274.734 99.2698C275.163 99.9295 275.336 100.723 275.22 101.502L274.986 101.61C274.374 101.916 275.148 108.054 275.58 109.494C277.558 115.151 280.406 120.465 284.022 125.244C282.25 129.498 281.163 134.006 280.8 138.6C264.726 135 250.992 124.074 244.8 109.89C238.608 95.7058 240.192 79.0738 249.588 63.5398C275.598 25.3618 332.64 40.6978 339.408 85.3018C341.892 102.24 334.476 118.314 321.156 128.862C321.338 122.282 321.085 115.698 320.4 109.152L320.526 109.116ZM313.434 145.656C313.591 148.543 314.093 151.401 314.928 154.17C314.986 154.342 315.109 154.483 315.271 154.564C315.433 154.645 315.62 154.659 315.792 154.602C317.16 154.206 315.144 152.316 314.55 145.602C314.496 144.9 313.38 144.936 313.434 145.656ZM318.942 167.166C318.906 167.015 318.812 166.885 318.681 166.804C318.549 166.723 318.391 166.698 318.24 166.734C318.09 166.77 317.96 166.864 317.879 166.995C317.798 167.127 317.772 167.285 317.808 167.436C320.112 179.136 319.806 180.27 320.976 180.036C322.146 179.802 321.318 178.686 318.942 167.166ZM323.172 194.994C322.182 195.264 323.496 195.408 324.378 206.334C324.378 207.324 325.998 207.27 325.89 206.334C325.437 202.64 324.721 198.982 323.748 195.39C323.743 195.323 323.723 195.258 323.689 195.2C323.656 195.142 323.61 195.093 323.555 195.055C323.499 195.017 323.436 194.991 323.37 194.981C323.304 194.97 323.236 194.975 323.172 194.994ZM277.488 165.222C279.41 159.519 281.015 153.714 282.294 147.834C282.321 147.698 282.296 147.558 282.222 147.441C282.149 147.324 282.034 147.239 281.9 147.205C281.766 147.17 281.624 147.188 281.504 147.255C281.383 147.322 281.292 147.432 281.25 147.564C279.81 153.342 277.902 158.94 276.12 164.808C276.09 164.981 276.125 165.159 276.217 165.309C276.309 165.458 276.453 165.569 276.621 165.62C276.789 165.671 276.97 165.659 277.13 165.585C277.29 165.512 277.417 165.383 277.488 165.222ZM270.18 189C271.188 189 271.008 187.776 273.87 177.066C273.908 176.937 273.894 176.798 273.83 176.68C273.766 176.562 273.657 176.474 273.528 176.436C273.399 176.398 273.261 176.412 273.142 176.476C273.024 176.54 272.936 176.649 272.898 176.778C272.34 178.578 269.892 186.156 269.442 188.064C269.415 188.175 269.413 188.292 269.438 188.404C269.462 188.516 269.512 188.622 269.583 188.712C269.654 188.802 269.745 188.875 269.848 188.925C269.952 188.975 270.065 189 270.18 189ZM262.008 212.4C262.638 212.4 262.602 211.932 263.124 209.844C263.826 207 264.924 202.644 265.356 201.42C265.626 200.7 264.528 200.376 264.258 201.06C263.044 204.586 262.088 208.195 261.396 211.86C261.41 212.011 261.481 212.151 261.595 212.252C261.709 212.352 261.857 212.405 262.008 212.4ZM256.068 227.718C254.41 230.931 253.129 234.326 252.252 237.834C252.204 238.015 252.231 238.208 252.325 238.37C252.42 238.532 252.575 238.65 252.756 238.698C252.938 238.746 253.131 238.719 253.293 238.625C253.455 238.53 253.572 238.375 253.62 238.194C256.626 227.988 257.598 227.898 256.716 227.394C256.653 227.369 256.584 227.357 256.516 227.36C256.448 227.363 256.381 227.38 256.32 227.411C256.259 227.441 256.205 227.485 256.161 227.537C256.118 227.59 256.086 227.652 256.068 227.718ZM237.258 175.392C237.438 176.796 238.086 182.592 238.302 184.194C238.315 184.293 238.348 184.389 238.398 184.476C238.448 184.562 238.514 184.638 238.594 184.699C238.673 184.76 238.764 184.805 238.86 184.831C238.957 184.857 239.058 184.864 239.157 184.851C239.256 184.838 239.352 184.805 239.439 184.755C239.526 184.705 239.602 184.639 239.663 184.559C239.724 184.48 239.769 184.389 239.795 184.293C239.821 184.196 239.827 184.095 239.814 183.996C239.58 182.448 238.572 176.634 238.356 175.248C238.248 174.6 237.168 174.726 237.258 175.392ZM240.084 201.15C240.282 202.284 241.02 207.18 241.254 208.476C241.434 209.448 242.874 209.088 242.694 208.134C242.262 205.74 241.686 203.328 241.236 200.934C241.092 200.124 239.958 200.412 240.084 201.15ZM243 226.188C243.081 229.209 243.406 232.219 243.972 235.188C244.188 236.178 245.664 235.782 245.484 234.81C244.869 231.95 244.4 229.06 244.08 226.152C243.918 225.486 242.874 225.468 243 226.188ZM196.2 76.3918C195.858 75.7438 194.904 76.2838 195.21 76.9318C201.06 88.9378 200.61 89.0458 201.456 89.0458C201.596 89.0445 201.733 89.008 201.854 88.9396C201.976 88.8713 202.078 88.7733 202.152 88.6547C202.226 88.5362 202.268 88.401 202.275 88.2617C202.283 88.1224 202.255 87.9834 202.194 87.8578C200.214 83.9878 198.126 80.2258 196.2 76.3918ZM207.36 99.8638C207.09 99.2518 206.172 99.7378 206.442 100.35C208.242 104.364 209.736 108.486 211.572 112.518C211.968 113.418 213.282 112.698 212.886 111.816C211.104 107.676 208.998 103.518 207.36 99.8638ZM223.2 136.53C223.309 136.536 223.418 136.515 223.517 136.469C223.616 136.423 223.702 136.353 223.768 136.266C223.834 136.179 223.877 136.077 223.894 135.969C223.911 135.861 223.902 135.751 223.866 135.648C223.236 133.848 220.122 127.242 219.33 125.46C219.006 124.722 217.926 125.298 218.232 126.036C222.516 135.864 222.444 136.53 223.2 136.53ZM255.996 129.996C255.33 131.13 252.27 135.288 251.442 136.35C251.381 136.429 251.335 136.519 251.309 136.616C251.283 136.713 251.275 136.814 251.288 136.913C251.3 137.013 251.332 137.109 251.382 137.196C251.432 137.283 251.498 137.359 251.577 137.421C251.656 137.482 251.747 137.528 251.844 137.554C251.94 137.58 252.041 137.588 252.141 137.575C252.24 137.563 252.336 137.531 252.423 137.481C252.51 137.431 252.587 137.365 252.648 137.286C254.198 135.124 255.605 132.863 256.86 130.518C256.929 130.403 256.95 130.266 256.918 130.136C256.886 130.006 256.804 129.894 256.689 129.825C256.575 129.756 256.437 129.735 256.307 129.767C256.177 129.799 256.065 129.881 255.996 129.996ZM224.55 62.0998C225.288 62.0998 225.684 60.9838 224.91 60.6418C223.272 59.9038 216.378 57.6178 214.668 57.0418C213.966 56.7718 213.606 57.8518 214.308 58.1218C216.126 58.7698 223.956 62.0998 224.55 62.0998ZM230.796 64.7998C234.027 66.5577 237.421 67.9984 240.93 69.1018C241.132 69.1365 241.339 69.0955 241.512 68.9866C241.685 68.8777 241.811 68.7087 241.867 68.5121C241.923 68.3155 241.904 68.1051 241.814 67.9215C241.724 67.738 241.57 67.5942 241.38 67.5178C237.935 66.5826 234.585 65.3292 231.372 63.7738C230.688 63.4678 230.112 64.5118 230.796 64.7998ZM144.882 63.7198C152.082 58.8778 154.242 59.9758 153.882 58.6978C153.862 58.6241 153.826 58.5554 153.779 58.4954C153.731 58.4355 153.672 58.3857 153.605 58.3488C153.538 58.312 153.465 58.2888 153.388 58.2807C153.312 58.2727 153.235 58.2798 153.162 58.3018C149.912 59.1565 146.82 60.5236 144 62.3518C143.172 62.9998 144 64.2958 144.882 63.7198ZM128.52 69.7858C127.962 70.2358 128.412 70.9738 129.042 70.9738C129.258 70.9738 129.294 70.9738 131.274 69.9838C133.254 68.9938 135.522 67.9318 136.368 67.6798C136.51 67.6238 136.626 67.5168 136.694 67.3796C136.761 67.2425 136.774 67.0852 136.731 66.9387C136.689 66.7921 136.592 66.6668 136.462 66.5875C136.331 66.5081 136.176 66.4804 136.026 66.5098C133.421 67.3491 130.907 68.4466 128.52 69.7858Z" fill="#5669FF"/>
<path d="M121.572 73.1879C120.636 73.7099 115.47 76.4279 114.912 76.7879C114.798 76.8678 114.71 76.981 114.662 77.1123C114.613 77.2435 114.606 77.3865 114.642 77.5218C114.677 77.6572 114.753 77.7785 114.859 77.8693C114.966 77.9601 115.097 78.0162 115.236 78.0299C117.628 76.9003 119.948 75.6259 122.184 74.2139C122.286 74.1183 122.351 73.9911 122.37 73.8532C122.389 73.7154 122.361 73.5751 122.29 73.4556C122.218 73.3361 122.108 73.2444 121.978 73.1957C121.848 73.1471 121.705 73.1443 121.572 73.1879ZM106.2 44.4239C108.616 44.4401 111.01 43.967 113.238 43.033C115.466 42.0989 117.482 40.7234 119.164 38.9893C120.846 37.2551 122.159 35.1983 123.025 32.9429C123.891 30.6874 124.29 28.28 124.2 25.8659C123.66 9.79187 102.834 2.12387 92.3044 15.8039C82.8004 27.7019 91.9444 44.4239 106.2 44.4239ZM95.4004 14.3999C106.434 4.22987 122.634 12.5999 123.048 25.9379C123.015 29.3232 122.039 32.6322 120.23 35.4938C118.421 38.3553 115.85 40.6561 112.806 42.1379C102.744 46.5299 90.6304 38.9879 89.7664 28.3679C89.5589 25.7623 89.9599 23.1441 90.9377 20.72C91.9154 18.296 93.4432 16.1323 95.4004 14.3999ZM146.232 29.1779C149.418 29.5199 152.622 29.5559 155.808 29.6999C155.952 29.6999 156.089 29.643 156.19 29.5417C156.292 29.4404 156.348 29.3031 156.348 29.1599C156.348 29.0167 156.292 28.8793 156.19 28.778C156.089 28.6768 155.952 28.6199 155.808 28.6199C152.46 28.3139 150.408 27.8999 146.232 27.6299C145.278 27.5759 145.26 29.0699 146.232 29.1779ZM127.368 27.2699C128.826 27.4319 134.82 27.8459 136.368 28.0439C137.178 28.1699 137.502 26.9459 136.656 26.8019C133.61 26.3236 130.539 26.0111 127.458 25.8659C127.366 25.86 127.274 25.8723 127.186 25.9021C127.099 25.9319 127.018 25.9787 126.949 26.0397C126.88 26.1007 126.823 26.1747 126.782 26.2576C126.741 26.3406 126.717 26.4307 126.711 26.5229C126.706 26.6151 126.718 26.7075 126.748 26.7949C126.777 26.8824 126.824 26.9631 126.885 27.0324C126.946 27.1018 127.02 27.1585 127.103 27.1992C127.186 27.2399 127.276 27.264 127.368 27.2699ZM55.8004 160.452C56.3224 157.14 56.4484 153.846 56.8444 150.552C56.9344 149.94 55.9264 149.796 55.8364 150.426C55.3324 153.666 54.5584 156.924 54.1804 160.218C54.1822 160.416 54.2547 160.606 54.3849 160.755C54.515 160.904 54.6942 161.002 54.89 161.03C55.0858 161.058 55.2853 161.016 55.4523 160.909C55.6193 160.803 55.7428 160.641 55.8004 160.452ZM53.8564 169.362C52.0564 179.244 51.6424 180.45 52.9384 180.45C53.9104 180.45 53.7304 179.802 54.9544 169.506C55.0444 168.84 54.0004 168.696 53.8564 169.362ZM86.9584 185.814C84.2224 187.254 80.8204 188.928 79.7584 189.558C79.6109 189.645 79.4965 189.779 79.4331 189.938C79.3698 190.097 79.3611 190.273 79.4085 190.438C79.4559 190.603 79.5566 190.747 79.6948 190.848C79.8331 190.95 80.0011 191.002 80.1724 190.998C82.6824 189.753 85.1221 188.371 87.4804 186.858C87.5905 186.774 87.6678 186.654 87.6991 186.52C87.7304 186.385 87.7137 186.243 87.6518 186.12C87.5899 185.996 87.4868 185.898 87.3602 185.842C87.2336 185.786 87.0915 185.776 86.9584 185.814ZM76.4284 191.358C74.4633 192.279 72.5467 193.3 70.6864 194.418C70.1104 194.94 70.7944 195.804 71.4784 195.48C72.1624 195.156 75.9964 192.78 76.8784 192.366C77.7604 191.952 77.0944 191.07 76.4284 191.358ZM148.914 206.352C149.562 206.766 150.174 205.776 149.544 205.344C148.176 204.444 142.974 200.592 141.534 199.836C141.348 199.746 141.135 199.728 140.936 199.784C140.737 199.84 140.566 199.968 140.454 200.142C139.716 201.294 142.2 201.942 148.914 206.352ZM123.984 189.72C124.884 190.35 125.784 190.944 126.702 191.52C132.84 195.588 132.552 195.714 132.93 195.714C133.055 195.712 133.176 195.674 133.278 195.603C133.381 195.533 133.46 195.433 133.507 195.318C133.553 195.202 133.564 195.076 133.538 194.954C133.512 194.832 133.451 194.721 133.362 194.634C130.63 192.385 127.775 190.288 124.812 188.352C123.948 187.83 123.156 189.162 123.984 189.72ZM301.23 249.372C298.278 249.786 295.236 250.092 292.23 250.776C292.046 250.833 291.887 250.954 291.784 251.118C291.681 251.282 291.64 251.477 291.668 251.668C291.696 251.86 291.792 252.035 291.938 252.162C292.084 252.288 292.271 252.359 292.464 252.36C293.166 252.36 297.648 251.154 301.464 250.56C302.4 250.488 302.04 249.228 301.23 249.372ZM285.318 252.288C282.294 252.738 278.964 253.008 275.688 253.566C274.77 253.728 275.022 255.06 275.922 255.06C276.822 255.06 283.266 253.764 285.552 253.404C286.29 253.278 286.038 252.18 285.318 252.288ZM176.4 187.758C176.31 187.605 176.162 187.495 175.99 187.451C175.818 187.407 175.635 187.433 175.482 187.524C175.33 187.615 175.219 187.762 175.175 187.934C175.131 188.107 175.158 188.289 175.248 188.442C176.137 189.889 177.536 190.95 179.17 191.414C180.804 191.877 182.552 191.71 184.068 190.944C184.17 190.882 184.244 190.784 184.276 190.67C184.307 190.555 184.295 190.433 184.24 190.328C184.185 190.223 184.092 190.142 183.98 190.103C183.868 190.063 183.745 190.068 183.636 190.116C182.345 190.636 180.913 190.684 179.59 190.253C178.266 189.822 177.137 188.938 176.4 187.758ZM189 181.098C188.874 182.142 187.938 181.566 187.866 182.196C187.866 182.538 188.154 182.664 188.514 182.664C188.834 182.653 189.145 182.557 189.415 182.386C189.685 182.215 189.905 181.975 190.051 181.691C190.198 181.406 190.266 181.088 190.249 180.769C190.232 180.45 190.13 180.141 189.954 179.874C188.945 178.792 188.024 177.63 187.2 176.4C187.169 176.288 187.095 176.192 186.994 176.135C186.893 176.078 186.773 176.063 186.66 176.094C186.548 176.125 186.453 176.199 186.396 176.3C186.338 176.402 186.323 176.522 186.354 176.634C186.777 177.586 187.309 178.486 187.938 179.316C188.35 179.874 188.706 180.471 189 181.098ZM179.442 167.922C179.395 167.707 179.264 167.52 179.078 167.402C178.892 167.284 178.667 167.244 178.452 167.292C178.238 167.34 178.051 167.471 177.932 167.656C177.814 167.842 177.775 168.067 177.822 168.282C178.326 171.702 178.02 173.16 179.37 173.16C179.628 173.16 179.875 173.057 180.058 172.875C180.24 172.693 180.342 172.446 180.342 172.188C180.342 171.738 179.586 168.678 179.442 167.922ZM193.59 168.084C193.552 167.888 193.444 167.712 193.287 167.589C193.129 167.466 192.932 167.404 192.732 167.415C192.533 167.426 192.344 167.509 192.2 167.648C192.057 167.788 191.969 167.975 191.952 168.174C191.952 168.444 192.204 171.666 192.294 171.918C192.321 172.157 192.441 172.375 192.628 172.525C192.815 172.675 193.055 172.745 193.293 172.719C193.532 172.693 193.751 172.573 193.901 172.385C194.051 172.198 194.121 171.959 194.094 171.72C194.058 171.504 193.77 169.74 193.59 168.084ZM176.616 167.004C176.848 166.239 177.327 165.572 177.979 165.109C178.63 164.646 179.418 164.414 180.216 164.448C180.356 164.464 180.497 164.427 180.611 164.343C180.724 164.26 180.802 164.136 180.828 163.998C181.008 162.702 176.166 163.224 175.104 166.59C175.05 166.79 175.077 167.004 175.179 167.185C175.282 167.366 175.453 167.498 175.653 167.553C175.854 167.608 176.068 167.581 176.249 167.478C176.429 167.375 176.562 167.204 176.616 167.004ZM190.08 163.8C190.735 163.762 191.384 163.941 191.928 164.308C192.471 164.676 192.878 165.212 193.086 165.834C193.41 166.536 194.544 166.068 194.328 165.312C193.976 164.463 193.34 163.763 192.53 163.33C191.719 162.897 190.784 162.757 189.882 162.936C189.785 162.977 189.705 163.051 189.657 163.145C189.609 163.24 189.595 163.348 189.619 163.451C189.642 163.554 189.702 163.646 189.786 163.709C189.871 163.773 189.975 163.805 190.08 163.8ZM328.986 224.37C328.986 224.37 328.032 220.014 327.78 218.754C327.749 218.613 327.664 218.49 327.542 218.413C327.421 218.335 327.273 218.309 327.132 218.34C326.992 218.371 326.869 218.457 326.791 218.578C326.714 218.7 326.687 218.847 326.718 218.988L327.564 224.118C324.705 223.756 321.801 224.005 319.046 224.85C316.29 225.695 313.745 227.116 311.58 229.019C309.415 230.922 307.68 233.263 306.488 235.887C305.296 238.512 304.676 241.36 304.668 244.242C305.748 271.368 344.682 270.828 345.222 244.242C345.259 239.556 343.656 235.004 340.691 231.375C337.726 227.747 333.586 225.268 328.986 224.37ZM333.63 252.756C330.786 260.838 320.058 259.398 320.058 249.75V243.918C319.744 243.958 319.425 243.931 319.122 243.838C318.818 243.745 318.539 243.589 318.301 243.379C318.063 243.17 317.872 242.912 317.742 242.623C317.611 242.334 317.544 242.021 317.544 241.704C317.544 241.387 317.611 241.074 317.742 240.785C317.872 240.496 318.063 240.238 318.301 240.029C318.539 239.819 318.818 239.663 319.122 239.57C319.425 239.477 319.744 239.45 320.058 239.49C320.058 237.69 320.058 235.89 320.184 233.928C320.191 233.637 320.256 233.351 320.373 233.085C320.491 232.819 320.66 232.579 320.871 232.378C321.082 232.177 321.33 232.02 321.601 231.916C321.872 231.811 322.162 231.761 322.452 231.768C323.041 231.787 323.599 232.038 324.003 232.466C324.408 232.894 324.627 233.465 324.612 234.054C324.612 235.944 324.612 237.744 324.504 239.454H328.302C328.593 239.447 328.882 239.498 329.152 239.604C329.423 239.71 329.67 239.869 329.878 240.072C330.086 240.275 330.251 240.518 330.364 240.786C330.476 241.054 330.535 241.341 330.534 241.632C330.539 241.924 330.486 242.214 330.378 242.486C330.27 242.758 330.109 243.005 329.905 243.214C329.701 243.424 329.457 243.59 329.189 243.705C328.92 243.819 328.631 243.88 328.338 243.882H324.45C324.45 250.452 324.27 251.55 325.17 252.666C326.448 254.286 328.392 253.746 329.4 251.262C329.599 250.701 330.011 250.242 330.548 249.985C331.085 249.729 331.701 249.696 332.262 249.894C332.823 250.092 333.283 250.505 333.539 251.042C333.796 251.578 333.829 252.195 333.63 252.756ZM184.338 18.7919C180.654 18.7728 177.003 19.4841 173.595 20.8847C170.187 22.2852 167.091 24.3473 164.485 26.9516C161.879 29.556 159.815 32.651 158.412 36.0578C157.009 39.4646 156.296 43.1156 156.312 46.7999C157.05 83.8799 211.626 83.8979 212.346 46.7999C212.366 43.1165 211.654 39.4658 210.253 36.0591C208.853 32.6524 206.79 29.5573 204.186 26.9527C201.581 24.3481 198.486 22.2857 195.079 20.885C191.672 19.4842 188.022 18.7728 184.338 18.7919ZM192.42 32.9399C192.145 33.4568 191.677 33.8446 191.118 34.0197C190.559 34.1948 189.954 34.1432 189.432 33.8759C188.504 33.3654 187.426 33.1975 186.386 33.4015C185.346 33.6055 184.411 34.1684 183.744 34.9919C181.674 37.1519 181.764 44.4959 181.764 44.8919L187.164 44.0639C187.747 43.9756 188.34 44.1222 188.815 44.4716C189.289 44.821 189.605 45.3445 189.693 45.9269C189.782 46.5093 189.635 47.1029 189.286 47.5772C188.936 48.0515 188.413 48.3676 187.83 48.4559L181.782 49.3739C181.782 53.6579 181.98 57.7979 182.124 61.9739C182.099 62.5336 181.864 63.0631 181.466 63.4575C181.068 63.8518 180.536 64.082 179.976 64.1024C179.416 64.1228 178.869 63.9319 178.443 63.5676C178.018 63.2033 177.745 62.6922 177.678 62.1359C177.48 56.2319 177.336 50.2379 177.264 43.8299C177.264 40.2299 177.264 35.5319 180.468 31.9859C185.49 26.4959 194.4 29.2499 192.42 32.9399Z" fill="#5669FF"/>
<path d="M269.604 261C276.966 239.616 276.606 240.876 276.48 240.696C276.354 240.516 253.08 240.084 240.156 240.336C235.002 232.608 228.266 226.063 220.394 221.132C212.522 216.201 203.692 212.998 194.49 211.734C193.091 210.199 191.16 209.253 189.09 209.088L186.84 208.314C186.75 206.557 186.75 204.797 186.84 203.04C191.891 201.116 196.018 197.337 198.378 192.474C201.024 186.534 199.71 178.938 198.162 159.624C201.87 160.776 201.96 156.96 199.71 153.972C199.811 153.333 199.779 152.681 199.616 152.055C199.452 151.429 199.161 150.845 198.76 150.337C198.359 149.83 197.858 149.411 197.287 149.107C196.716 148.803 196.089 148.621 195.444 148.572C195.79 148.041 195.99 147.428 196.023 146.795C196.057 146.162 195.922 145.531 195.634 144.967C195.345 144.402 194.913 143.924 194.38 143.581C193.847 143.237 193.233 143.04 192.6 143.01C192.225 142.186 191.602 141.5 190.817 141.048C190.033 140.596 189.127 140.401 188.226 140.49C188.099 139.884 187.812 139.324 187.395 138.866C186.979 138.409 186.448 138.071 185.857 137.887C185.266 137.704 184.637 137.681 184.034 137.823C183.432 137.964 182.878 138.263 182.43 138.69C182.052 138.114 181.116 136.692 180.63 136.152C181.015 135.773 181.279 135.29 181.391 134.762C181.503 134.233 181.458 133.684 181.26 133.182C182.142 132.906 182.913 132.355 183.46 131.611C184.007 130.866 184.302 129.966 184.302 129.042C184.302 128.118 184.007 127.218 183.46 126.473C182.913 125.728 182.142 125.178 181.26 124.902C182.682 119.718 177.822 116.532 173.412 118.602C173.174 118.007 172.764 117.496 172.236 117.134C171.707 116.772 171.083 116.575 170.442 116.568C174.042 112.032 168.912 108.864 164.034 110.412C163.713 109.589 163.174 108.869 162.475 108.329C161.776 107.79 160.943 107.451 160.066 107.349C159.189 107.247 158.3 107.387 157.496 107.752C156.692 108.117 156.003 108.694 155.502 109.422C154.321 109.112 153.065 109.277 152.005 109.883C150.945 110.489 150.165 111.487 149.832 112.662C149.076 112.484 148.29 112.475 147.531 112.637C146.772 112.799 146.058 113.127 145.44 113.598C145.028 112.886 144.371 112.348 143.591 112.085C142.812 111.823 141.963 111.853 141.204 112.171C140.445 112.488 139.828 113.072 139.468 113.811C139.108 114.551 139.03 115.397 139.248 116.19C138.75 116.329 138.308 116.621 137.985 117.025C137.662 117.428 137.474 117.923 137.448 118.44C137.25 118.407 137.047 118.416 136.853 118.466C136.659 118.517 136.478 118.608 136.321 118.734C136.165 118.86 136.037 119.018 135.945 119.196C135.854 119.375 135.802 119.571 135.792 119.772C135.323 119.653 134.83 119.673 134.373 119.831C133.915 119.988 133.514 120.276 133.218 120.658C132.922 121.04 132.743 121.501 132.705 121.983C132.667 122.465 132.77 122.948 133.002 123.372C132.416 123.504 131.881 123.805 131.465 124.239C131.049 124.672 130.77 125.219 130.662 125.81C130.555 126.401 130.624 127.011 130.861 127.563C131.097 128.116 131.492 128.586 131.994 128.916C129.15 129.744 127.314 132.516 128.394 135.036C125.154 136.998 123.822 140.976 126.108 143.748C125.697 144.892 125.715 146.147 126.158 147.279C126.602 148.411 127.441 149.344 128.52 149.904C128.049 150.483 127.75 151.181 127.656 151.921C127.562 152.661 127.677 153.413 127.988 154.091C128.299 154.769 128.793 155.347 129.415 155.758C130.037 156.17 130.762 156.399 131.508 156.42C131.563 157.072 131.785 157.699 132.154 158.239C132.522 158.78 133.024 159.217 133.611 159.506C134.198 159.796 134.849 159.929 135.503 159.893C136.156 159.857 136.789 159.653 137.34 159.3C137.633 159.768 138.057 160.139 138.559 160.369C139.062 160.599 139.62 160.676 140.166 160.592C140.711 160.508 141.22 160.265 141.63 159.895C142.039 159.525 142.332 159.042 142.47 158.508C143.351 158.839 144.297 158.963 145.233 158.869C146.17 158.775 147.072 158.467 147.87 157.968C147.132 162.45 143.73 162.774 144.792 167.472C144.165 168.297 143.818 169.301 143.802 170.337C143.785 171.373 144.101 172.388 144.702 173.232C144.498 173.666 144.383 174.136 144.363 174.616C144.343 175.095 144.419 175.573 144.587 176.023C144.755 176.472 145.01 176.883 145.339 177.233C145.668 177.582 146.063 177.862 146.502 178.056C146.334 178.386 146.254 178.755 146.271 179.126C146.288 179.497 146.4 179.856 146.598 180.17C146.796 180.484 147.072 180.742 147.399 180.917C147.726 181.092 148.093 181.179 148.464 181.17C148.818 182.493 149.498 183.707 150.441 184.701C151.384 185.694 152.561 186.436 153.864 186.858C154.044 209.484 154.872 206.766 152.712 209.394C150.723 210.439 149.092 212.057 148.032 214.038C116.46 225 103.716 250.038 99.5401 283.644C97.1281 283.266 97.0201 283.176 96.9301 283.482C95.9584 287.264 95.6178 291.181 95.9221 295.074C95.9221 295.308 95.9221 295.29 98.8021 295.992C99.6121 309.87 107.118 324.918 122.202 327.564C122.004 330.48 121.77 347.184 122.202 350.964C122.221 351.052 122.27 351.131 122.341 351.188C122.411 351.245 122.499 351.276 122.589 351.276C122.68 351.276 122.767 351.245 122.838 351.188C122.908 351.131 122.957 351.052 122.976 350.964C122.976 348.948 123.228 330.84 123.39 327.834C132.552 328.734 137.916 324.9 145.134 317.034C156.474 304.434 162.9 290.844 169.596 276.588C170.772 274.286 171.719 271.875 172.422 269.388C173.478 269.815 174.643 269.897 175.748 269.622C176.854 269.347 177.845 268.73 178.578 267.858C181.156 268.69 183.895 268.9 186.57 268.47C187.023 268.386 187.453 268.21 187.834 267.952C188.215 267.694 188.539 267.361 188.786 266.972C189.033 266.584 189.196 266.149 189.267 265.694C189.338 265.239 189.315 264.775 189.198 264.33C191.502 264.222 192.942 262.134 190.638 260.388C189.905 259.824 189.128 259.319 188.316 258.876C190.224 258.75 195.264 258.192 196.902 257.076C198.54 255.96 198.486 253.17 196.218 252.864C195.264 252.738 181.242 253.314 178.056 253.764C174.903 254.098 171.918 255.35 169.47 257.364C165.87 260.334 140.418 281.484 131.328 289.116C126.054 288.162 106.29 284.778 101.034 283.95C105.39 247.644 120.186 225.936 147.546 215.712C145.872 222.552 153.972 229.572 156.546 231.66C160.776 235.134 167.688 238.86 173.61 237.24C177.372 236.232 180.18 233.334 181.98 228.6C189.972 235.53 193.734 234.756 194.994 234.108C199.836 231.57 199.638 219.222 195.606 213.282C204.245 214.62 212.515 217.725 219.899 222.405C227.282 227.085 233.621 233.238 238.518 240.48C230.256 240.66 230.76 240.66 230.688 240.876C228.736 246.142 226.84 251.428 225 256.734C224.28 252.252 223.2 246.15 222.732 244.386C222.692 244.29 222.619 244.211 222.525 244.165C222.432 244.118 222.325 244.107 222.224 244.134C222.123 244.16 222.035 244.222 221.976 244.308C221.918 244.394 221.892 244.498 221.904 244.602C222.426 246.798 223.506 255.132 224.1 259.344C216.792 280.494 211.068 299.556 211.212 299.754C211.356 299.952 229.212 299.952 231.516 299.916C233.316 314.964 234.684 346.338 234.63 350.064C234.63 350.169 234.672 350.27 234.746 350.344C234.82 350.418 234.921 350.46 235.026 350.46C235.131 350.46 235.232 350.418 235.306 350.344C235.38 350.27 235.422 350.169 235.422 350.064C235.746 343.44 235.422 323.532 235.116 319.23C239.373 318.524 243.274 316.421 246.204 313.254C248.4 311.004 251.604 304.344 253.818 298.98C257.31 298.746 257.418 298.8 257.418 298.566C259.47 293.796 261.504 288.18 263.214 282.708C271.71 281.43 276.012 269.514 272.574 264.114C271.803 262.887 270.793 261.828 269.604 261ZM122.85 299.268C124.002 299.07 122.724 297.468 166.176 261.756C173.376 255.87 173.934 255.312 182.664 254.718C185.904 254.502 194.31 254.196 195.264 254.178C196.002 254.178 196.65 254.178 196.596 254.844C196.596 255.996 194.796 256.338 193.554 256.644C189.828 257.546 186.011 258.017 182.178 258.048C182.064 258.048 181.954 258.093 181.873 258.174C181.792 258.255 181.746 258.365 181.746 258.48C181.746 258.594 181.792 258.704 181.873 258.785C181.954 258.866 182.064 258.912 182.178 258.912H185.922C187.07 259.468 188.166 260.124 189.198 260.874C189.63 261.18 190.404 261.468 190.458 261.882C190.746 264.276 184.698 262.062 182.574 261.036C182.5 260.998 182.414 260.99 182.335 261.016C182.255 261.041 182.189 261.097 182.151 261.171C182.113 261.245 182.106 261.331 182.131 261.41C182.156 261.49 182.212 261.556 182.286 261.594C183.816 262.548 189.108 264.402 187.884 266.202C186.318 268.47 182.214 267.498 179.496 266.958C180.064 266.499 180.747 266.204 181.47 266.106C182.194 266.007 182.93 266.109 183.6 266.4C183.692 266.423 183.788 266.412 183.873 266.37C183.957 266.328 184.024 266.257 184.061 266.171C184.098 266.084 184.102 265.987 184.074 265.897C184.046 265.807 183.986 265.73 183.906 265.68C182.8 265.215 181.577 265.105 180.406 265.366C179.236 265.627 178.175 266.247 177.372 267.138C175.23 269.19 172.566 268.704 170.496 266.616C170.422 266.55 170.327 266.514 170.228 266.512C170.13 266.51 170.034 266.544 169.958 266.607C169.881 266.67 169.83 266.758 169.814 266.856C169.797 266.953 169.816 267.053 169.866 267.138C170.28 267.774 170.819 268.319 171.45 268.74C168.243 276.627 164.639 284.347 160.65 291.87C153.45 305.37 146.142 314.91 137.934 321.858C129.042 329.508 115.974 326.7 108.468 317.952C103.968 312.75 101.142 305.46 100.098 296.352C103.842 297 118.8 299.142 122.85 299.268ZM154.062 149.112C152.509 150.203 151.308 151.723 150.606 153.486C149.903 152.866 149.36 152.086 149.022 151.212C148.684 150.338 148.56 149.395 148.662 148.464C150.264 141.264 157.662 134.964 163.8 133.11C167.58 131.58 177.192 133.29 180.288 137.916C179.278 137.824 178.27 138.113 177.462 138.726C176.978 138.096 176.357 137.584 175.647 137.227C174.937 136.871 174.156 136.679 173.362 136.667C172.567 136.655 171.78 136.823 171.06 137.157C170.339 137.492 169.703 137.985 169.2 138.6C168.215 138.887 167.326 139.434 166.626 140.184C165.964 139.829 165.212 139.676 164.464 139.743C163.715 139.81 163.003 140.095 162.414 140.562C161.787 140.732 161.236 141.109 160.85 141.632C160.465 142.155 160.267 142.793 160.29 143.442C159.5 143.364 158.702 143.452 157.949 143.702C157.195 143.952 156.502 144.357 155.915 144.892C155.328 145.426 154.86 146.078 154.54 146.805C154.221 147.532 154.058 148.318 154.062 149.112ZM188.1 223.902C179.694 232.614 154.44 222.462 152.802 214.362C152.672 213.491 152.75 212.602 153.028 211.767C153.307 210.932 153.778 210.175 154.404 209.556C154.584 209.376 154.71 209.178 154.89 208.998C154.911 208.946 154.911 208.888 154.89 208.836L155.232 208.404C155.682 207.558 155.124 189.648 155.034 187.074C155.712 187.083 156.374 186.877 156.927 186.486C157.48 186.094 157.895 185.538 158.112 184.896C158.495 185.104 158.932 185.195 159.367 185.156C159.802 185.118 160.215 184.951 160.556 184.678C160.896 184.405 161.148 184.037 161.28 183.621C161.412 183.205 161.419 182.759 161.298 182.34L165.726 177.588C165.72 178.179 165.883 178.759 166.196 179.26C166.509 179.762 166.959 180.163 167.493 180.416C168.027 180.67 168.622 180.765 169.208 180.692C169.795 180.618 170.348 180.378 170.802 180C171.267 179.662 171.652 179.225 171.929 178.721C172.206 178.217 172.368 177.658 172.404 177.084C172.411 177.022 172.396 176.959 172.363 176.907C172.329 176.855 172.278 176.816 172.218 176.797C172.159 176.777 172.095 176.779 172.037 176.802C171.979 176.825 171.93 176.867 171.9 176.922C171.601 177.37 171.158 177.703 170.645 177.867C170.131 178.03 169.577 178.015 169.074 177.822C169.25 177.076 169.216 176.295 168.974 175.567C168.732 174.839 168.293 174.193 167.706 173.7C165.006 165.06 165.258 161.64 170.1 158.4C173.7 155.682 186.3 149.634 194.778 157.356C195.361 158.033 196.055 158.605 196.83 159.048C199.026 188.946 200.43 189.342 192.222 198.018C189.708 200.567 186.36 202.126 182.79 202.41C182.16 202.41 182.088 203.328 182.79 203.4C183.704 203.525 184.63 203.525 185.544 203.4C185.544 209.502 185.274 209.034 187.02 209.646C192.978 212.4 192.456 219.348 188.1 223.902ZM241.038 315.378C239.147 316.427 237.126 317.22 235.026 317.736C234.756 314.712 233.658 305.136 232.938 299.736C239.49 299.592 246.078 299.322 252.36 298.926C249.732 305.478 245.754 313.074 241.038 315.378ZM252.936 255.978C248.976 255.87 248.976 250.974 252.936 250.866C256.896 250.758 256.896 255.96 252.936 256.068V255.978ZM236.898 246.708C236.058 247.21 235.377 247.94 234.936 248.814C234.396 249.84 218.934 291.906 218.196 294.3C218.158 294.429 218.07 294.537 217.952 294.601C217.834 294.665 217.695 294.68 217.566 294.642C217.437 294.604 217.329 294.516 217.265 294.398C217.2 294.28 217.186 294.141 217.224 294.012C218.142 290.61 231.48 252.414 231.624 252.18C234.81 244.224 236.052 244.35 242.136 244.152C244.926 244.062 265.23 243.972 268.164 244.458C268.812 244.566 268.668 245.484 268.164 245.538C266.562 245.736 238.158 246.168 236.898 246.798V246.708ZM263.754 280.908C264.438 278.604 265.068 276.354 265.554 274.212C266.355 274.536 267.188 274.777 268.038 274.932C268.131 274.953 268.229 274.937 268.31 274.886C268.391 274.836 268.449 274.755 268.47 274.662C268.492 274.569 268.475 274.471 268.425 274.39C268.374 274.309 268.293 274.251 268.2 274.23C266.238 273.462 264.414 272.38 262.8 271.026C261.702 269.784 261.198 268.866 262.476 267.966C264.924 269.892 268.11 271.566 269.28 272.412C269.355 272.449 269.439 272.459 269.52 272.44C269.601 272.421 269.673 272.375 269.724 272.31C269.775 272.244 269.802 272.163 269.799 272.08C269.797 271.996 269.766 271.917 269.712 271.854C268.398 270.666 263.952 267.678 261.63 265.356C261.593 264.989 261.67 264.619 261.851 264.297C262.031 263.975 262.306 263.716 262.638 263.556C264.727 265.377 267.008 266.965 269.442 268.29C269.521 268.338 269.616 268.354 269.707 268.333C269.797 268.313 269.877 268.259 269.928 268.182C270.198 267.84 269.928 267.714 268.128 266.22C266.778 265.104 264.888 263.538 263.502 262.17C261.54 260.37 265.302 260.694 268.74 262.17C269.937 262.854 270.913 263.867 271.551 265.089C272.189 266.311 272.463 267.691 272.34 269.064C272.07 274.266 268.866 279.666 263.754 281.088V280.908ZM116.244 21.6899C115.521 21.7953 114.784 21.6492 114.156 21.2759C113.742 20.2215 113.039 19.3047 112.129 18.63C111.219 17.9554 110.137 17.5499 109.008 17.4599C106.254 17.6399 105.714 21.5279 103.608 21.8159C102.348 21.9959 100.8 20.6999 99.0001 17.9999C98.978 17.9542 98.9435 17.9157 98.9005 17.8888C98.8575 17.8618 98.8078 17.8476 98.7571 17.8476C98.7064 17.8476 98.6567 17.8618 98.6137 17.8888C98.5707 17.9157 98.5362 17.9542 98.5141 17.9999C98.3155 18.6755 98.2562 19.3845 98.3397 20.0837C98.4233 20.783 98.6479 21.458 99.0001 22.0679C98.7085 22.0544 98.4324 21.9324 98.2261 21.7259C97.6141 21.1319 97.3081 23.3279 98.7841 24.8399C98.331 24.8157 97.8887 24.6929 97.4881 24.4799C96.5881 23.7779 96.9661 27.4859 99.9181 29.1779C99.0831 29.1251 98.2673 28.9051 97.5191 28.5309C96.7708 28.1568 96.1053 27.6361 95.5621 26.9999C95.5267 26.9508 95.4758 26.915 95.4176 26.8983C95.3594 26.8816 95.2973 26.8849 95.2412 26.9078C95.1852 26.9306 95.1384 26.9716 95.1084 27.0242C95.0785 27.0768 95.0671 27.138 95.0761 27.1979C95.396 29.8683 96.6303 32.3457 98.5695 34.2094C100.509 36.0731 103.033 37.2082 105.714 37.4219C111.672 37.4219 115.434 31.0139 114.048 26.0999C114.4 25.9893 114.777 25.9893 115.128 26.0999C115.18 26.1389 115.244 26.1578 115.309 26.1532C115.374 26.1486 115.435 26.1207 115.481 26.0748C115.527 26.0288 115.555 25.9678 115.559 25.903C115.564 25.8382 115.545 25.7739 115.506 25.7219C115.322 25.4283 115.199 25.1006 115.145 24.7583C115.09 24.4161 115.106 24.0665 115.19 23.7303C115.274 23.3941 115.425 23.0784 115.634 22.802C115.843 22.5256 116.106 22.2943 116.406 22.1219C116.435 22.0854 116.453 22.0422 116.461 21.9964C116.468 21.9506 116.463 21.9037 116.447 21.8603C116.43 21.8169 116.403 21.7784 116.368 21.7486C116.332 21.7187 116.29 21.6985 116.244 21.6899ZM110.7 23.0759C110.344 23.0361 110.014 22.8663 109.775 22.599C109.536 22.3316 109.404 21.9855 109.404 21.6269C109.404 21.2682 109.536 20.9221 109.775 20.6548C110.014 20.3875 110.344 20.2177 110.7 20.1779C111.057 20.2177 111.386 20.3875 111.625 20.6548C111.864 20.9221 111.996 21.2682 111.996 21.6269C111.996 21.9855 111.864 22.3316 111.625 22.599C111.386 22.8663 111.057 23.0361 110.7 23.0759ZM62.2261 202.554C56.3614 202.227 50.4785 202.522 44.6761 203.436C44.6157 203.445 44.5605 203.475 44.5207 203.521C44.481 203.568 44.4595 203.627 44.4601 203.688C44.4454 206.822 44.8695 209.942 45.7201 212.958C45.7374 213.007 45.7688 213.051 45.8103 213.083C45.8519 213.115 45.9018 213.134 45.9541 213.138C51.1626 213.552 56.4004 213.407 61.5781 212.706C62.6041 212.562 63.3421 202.626 62.2261 202.554ZM57.3841 208.44C57.265 209.026 56.9756 209.565 56.552 209.988C56.1284 210.411 55.5894 210.699 55.0026 210.817C54.4159 210.935 53.8073 210.877 53.2532 210.651C52.699 210.425 52.2239 210.04 51.8874 209.545C51.5508 209.05 51.3677 208.467 51.3611 207.869C51.3544 207.27 51.5244 206.683 51.8499 206.181C52.1754 205.678 52.6418 205.283 53.1907 205.045C53.7397 204.806 54.3468 204.735 54.9361 204.84C55.3354 204.911 55.7166 205.061 56.057 205.282C56.3974 205.502 56.6903 205.789 56.9184 206.124C57.1465 206.46 57.3052 206.837 57.3852 207.235C57.4651 207.633 57.4648 208.042 57.3841 208.44ZM58.4281 200.484C58.7425 200.542 59.0652 200.537 59.3778 200.47C59.6904 200.404 59.9868 200.276 60.2501 200.095C60.5133 199.913 60.7383 199.682 60.9121 199.413C61.0859 199.145 61.2052 198.845 61.2631 198.531C61.321 198.216 61.3164 197.894 61.2496 197.581C61.1828 197.269 61.0551 196.972 60.8737 196.709C60.6924 196.446 60.461 196.221 60.1927 196.047C59.9244 195.873 59.6245 195.754 59.3101 195.696C58.6752 195.579 58.0198 195.719 57.4881 196.085C56.9564 196.451 56.592 197.014 56.4751 197.649C56.3581 198.284 56.4982 198.939 56.8644 199.471C57.2307 200.003 57.7932 200.367 58.4281 200.484Z" fill="#5669FF"/>
<path d="M67.9323 194.545C58.9323 181.513 38.4483 186.121 35.9643 201.439C35.4614 204.004 35.5419 206.65 36.1996 209.181C36.8573 211.711 38.0754 214.061 39.7639 216.058C41.4524 218.054 43.5681 219.645 45.9544 220.713C48.3408 221.781 50.9367 222.299 53.5503 222.229C68.5262 222.229 75.6003 205.705 67.9323 194.545ZM64.1522 214.345C64.1414 214.396 64.1147 214.443 64.076 214.478C64.0373 214.514 63.9884 214.536 63.9363 214.543C57.2487 215.44 50.4851 215.627 43.7582 215.101C43.7046 215.093 43.6541 215.07 43.6127 215.035C43.5713 215 43.5407 214.954 43.5243 214.903C41.7364 208.278 41.4048 201.345 42.5522 194.581C42.5604 194.523 42.5882 194.47 42.6308 194.431C42.6734 194.392 42.7283 194.368 42.7863 194.365C50.0276 193.533 57.3445 193.612 64.5662 194.599C64.6199 194.609 64.6692 194.635 64.7077 194.673C64.7463 194.712 64.7723 194.761 64.7823 194.815C65.9097 201.305 65.6953 207.958 64.1522 214.363V214.345Z" fill="#5669FF"/>
</svg>
