<svg width="360" height="359" viewBox="0 0 360 359" fill="none" xmlns="http://www.w3.org/2000/svg">
<path d="M220.075 104.11C219.752 104.11 219.41 104.398 219.752 104.99C222.229 109.732 224.271 114.688 225.855 119.799C226.016 120.301 226.842 120.373 226.644 119.458C225.441 114.185 223.392 109.141 220.577 104.523C220.416 104.272 220.254 104.11 220.075 104.11Z" fill="#5669FF"/>
<path d="M205.374 95.6911C209.538 98.0964 219.357 103.697 219.626 103.858C219.691 103.892 219.766 103.899 219.836 103.879C219.906 103.859 219.965 103.813 220.003 103.751C220.003 103.607 222.66 98.1682 223.934 95.4398C227.632 95.4398 231.24 95.3142 234.937 95.2244C238.389 99.5704 241.532 104.153 244.343 108.938C244.393 109.031 244.478 109.1 244.579 109.131C244.68 109.161 244.789 109.15 244.882 109.1C244.974 109.05 245.044 108.965 245.074 108.864C245.104 108.763 245.093 108.654 245.043 108.561C242.534 103.827 239.596 99.3323 236.266 95.1347C247.161 94.9013 257.608 94.8654 263.998 85.8186C273.709 72.0151 262.293 51.9111 242.692 54.1369C244.066 52.1014 244.95 49.7749 245.274 47.3403C245.597 44.9056 245.352 42.429 244.557 40.1051C243.762 37.7812 242.439 35.6733 240.692 33.9469C238.945 32.2206 236.822 30.9228 234.489 30.1557C231.798 29.1214 228.865 28.8966 226.048 29.509C223.232 30.1214 220.656 31.5441 218.639 33.6021C218.172 26.9606 214.402 20.8217 208.012 16.2265C197.817 8.97465 182.775 6.7309 169.653 10.5902C158.022 14.0725 146.551 23.227 147.252 35.8997C142.044 32.4344 135.869 30.7177 129.621 30.9985C123.372 31.2793 117.376 33.543 112.5 37.4613C109.589 39.7648 107.429 42.8834 106.298 46.4193C105.166 49.9552 105.113 53.748 106.146 57.314C95.9325 53.5266 84.265 57.1884 78.8262 65.9659C76.7954 69.2804 75.8745 73.1561 76.1974 77.0298C76.5202 80.9035 78.0698 84.5733 80.6212 87.5059C86.6703 94.0756 96.7761 94.9731 105.877 95.2962C131.491 96.1937 180.441 95.9604 205.374 95.6911ZM80.1185 66.7737C84.9291 58.9116 95.8787 54.4241 107.295 58.8757C107.343 58.8895 107.394 58.8905 107.442 58.8786C107.491 58.8667 107.536 58.8423 107.572 58.8078C107.608 58.7734 107.635 58.73 107.649 58.6821C107.664 58.6342 107.665 58.5833 107.654 58.5346L107.492 58.032C106.437 54.5632 106.457 50.8561 107.55 47.3989C108.642 43.9417 110.756 40.8964 113.613 38.664C118.421 34.9067 124.291 32.7611 130.388 32.5323C136.485 32.3035 142.499 34.0031 147.575 37.3895C147.952 37.6588 148.077 37.8203 148.293 37.7126C148.508 37.6049 148.436 37.3357 148.4 36.9228C147.575 24.663 158.416 15.4905 170.102 12.08C189.847 6.31805 213.182 14.97 217.077 30.8737C217.437 32.3679 217.635 33.8964 217.669 35.433C217.669 35.6663 217.939 35.8099 218.154 35.5766C220.705 32.6518 224.296 30.8377 228.164 30.5201C232.031 30.2026 235.87 31.4068 238.864 33.8764C241.857 36.346 243.769 39.8862 244.192 43.7438C244.615 47.6013 243.517 51.4718 241.13 54.5318L240.789 55.0164C240.756 55.0588 240.737 55.11 240.734 55.1634C240.73 55.2169 240.743 55.2701 240.77 55.3163C240.797 55.3625 240.837 55.3997 240.885 55.423C240.933 55.4463 240.987 55.4548 241.04 55.4472C259.942 52.9522 272.219 71.4945 262.67 85.1006C256.459 93.95 245.905 93.7525 235.296 94.0756C233.074 91.3204 230.676 88.7122 228.116 86.2674C229.498 83.1261 230.701 80.3259 231.706 77.7052C231.733 77.6403 231.735 77.568 231.711 77.5019C231.688 77.4358 231.642 77.3804 231.581 77.3462C222.606 73.2536 214.008 69.6457 206.074 66.5762C206.016 66.5503 205.951 66.547 205.891 66.567C205.831 66.5869 205.781 66.6287 205.751 66.6839C201.439 73.8338 197.491 81.1967 193.922 88.7445C193.898 88.8051 193.896 88.8718 193.916 88.9338C193.935 88.9957 193.975 89.0492 194.029 89.0855C196.56 90.5933 199.612 92.3883 203.291 94.4705C180.172 94.7577 131.491 95.0449 105.805 94.1833C98.625 93.9141 87.6396 93.5192 81.4648 86.5905C79.2158 83.8335 77.8783 80.4461 77.6372 76.8964C77.396 73.3466 78.2631 69.8095 80.1185 66.7737ZM227.775 87.0033C229.996 89.205 232.071 91.5495 233.986 94.0218L224.437 94.2372C225.621 91.778 226.734 89.3548 227.775 87.0033ZM228.027 78.8002L218.675 98.5452L197.512 86.8777C200.689 80.9901 204.027 74.8512 207.079 69.9329C215.031 73.0741 225.226 77.4539 228.027 78.8002ZM267.265 238.214C262.993 237.712 258.29 242.702 254.808 247.728C259.408 236.093 261.7 223.674 261.557 211.163C261.414 206.12 260.588 197.162 256.675 193.734C251.29 189.031 245.079 197.934 241.561 204.073C244.167 196.008 245.268 187.532 244.81 179.069C244.361 172.463 242.405 162.232 235.835 162.232C230.755 162.232 226.734 168.083 224.634 171.961C222.839 166.576 215.049 144.82 211.566 136.348C205.876 122.67 201.855 118.739 187.962 121.665C182.075 122.975 158.668 129.76 152.654 131.483C136.32 136.186 120.901 140.638 114.152 145.556C111.885 147.041 110.1 149.154 109.016 151.638C107.932 154.122 107.596 156.867 108.049 159.539C109.072 167.383 124.491 218.326 129.337 233.709C121.027 242.325 115.767 255.769 113.882 261.172C109.233 274.545 103.31 300.088 115.678 320.838C122.171 331.54 132.303 339.544 144.218 343.383C143.662 345.178 142.908 347.368 142.082 349.935C142.071 349.977 142.07 350.02 142.078 350.063C142.087 350.105 142.104 350.145 142.13 350.179C142.156 350.214 142.189 350.242 142.228 350.262C142.266 350.282 142.308 350.293 142.351 350.294H143.033C143.09 350.29 143.144 350.269 143.189 350.233C143.234 350.198 143.267 350.151 143.285 350.096C144.2 347.332 144.99 344.891 145.582 343.114C145.601 343.043 145.606 342.969 145.596 342.897C145.587 342.824 145.563 342.754 145.526 342.691C145.49 342.628 145.441 342.572 145.383 342.528C145.324 342.483 145.258 342.451 145.187 342.432C133.489 338.82 123.533 331.023 117.221 320.533C108.246 305.239 107.421 283.233 115.229 261.639C123.468 238.968 134.148 228.252 140.072 229.76C145.187 231.016 146.893 240.889 144.774 256.864C143.657 264.874 141.782 272.759 139.174 280.415C139.133 280.52 139.127 280.636 139.156 280.746C139.185 280.855 139.248 280.953 139.336 281.025C141.131 282.479 144.236 284.615 146.336 286.123C148.559 292.657 151.265 299.017 154.432 305.15C157.339 310.283 160.463 313.496 167.104 313.64C173.261 313.802 184.534 310.678 190.439 309.027C186.775 313.012 183.862 317.628 181.841 322.651C179.867 327.946 179.095 335.719 183.439 340.188C183.543 340.293 183.686 340.352 183.834 340.352C183.982 340.352 184.124 340.293 184.229 340.188C184.333 340.083 184.392 339.941 184.392 339.793C184.392 339.645 184.333 339.503 184.229 339.398C180.531 335.216 181.482 328.036 183.421 323.243C185.703 317.938 188.725 312.983 192.396 308.524C211.62 303.139 235.566 294.613 239.066 293.159C245.025 290.718 250.159 288.187 252.546 282.12C255.598 274.347 250.751 262.034 250.177 257.672C253.282 251.91 261.055 238.86 266.996 239.578C273.314 240.35 272.381 255.177 272.13 258.121C269.563 285.728 252.385 317.212 216.485 340.691C214.385 342.055 214.205 342.198 214.241 342.486C214.6 345.178 214.977 347.871 215.336 350.132C215.345 350.197 215.377 350.257 215.426 350.3C215.476 350.343 215.54 350.366 215.605 350.366H216.431C216.469 350.366 216.508 350.358 216.543 350.342C216.578 350.327 216.61 350.304 216.635 350.275C216.661 350.246 216.68 350.212 216.691 350.175C216.702 350.138 216.705 350.099 216.7 350.061C216.467 348.05 216.162 345.645 215.785 342.755C232.604 332.918 254.646 312.958 266.26 286.32C270.164 277.415 272.589 267.932 273.44 258.246C273.979 253.705 274.589 239.058 267.265 238.214ZM188.07 122.796C204.799 119.206 206.558 125.38 216.054 151.21C234.524 201.47 249.656 258.48 251.774 269.68C255.005 286.697 245.51 289.91 228.26 295.726C220.864 298.221 209.376 302.314 193.455 306.891C159.817 316.512 158.74 315.453 147.97 286.643C145.869 281.025 144.272 276.645 142.8 272.409C144.184 267.53 145.275 262.573 146.067 257.564C148.49 265.498 158.74 299.962 165.327 303.552C168.809 305.491 173.889 304.198 177.982 303.157C185.718 301.201 239.389 285.961 243.589 280.038C244.279 279.048 244.677 277.885 244.738 276.681C245.205 268.065 230.091 217.536 226.483 206.891L231.599 204.755C231.662 204.728 231.712 204.677 231.738 204.613C231.765 204.55 231.766 204.479 231.742 204.414C223.862 181.815 217.041 161.909 206.971 139.094C206.943 139.031 206.893 138.981 206.829 138.955C206.766 138.928 206.695 138.926 206.63 138.951C187.944 145.987 154.701 158.139 136.266 165.876C135.764 166.091 136.069 165.463 143.662 185.926C139.623 187.721 134.13 190.575 131.097 192.118C130.998 192.172 130.922 192.261 130.886 192.367C130.849 192.474 130.854 192.59 130.899 192.693C142.046 217.015 146.3 228.162 158.686 250.42C158.793 250.635 159.063 250.761 159.458 250.618C167.571 247.799 185.97 238.86 189.973 236.976C202.412 231.16 211.513 225.541 219.59 221.287C219.651 221.246 219.699 221.189 219.731 221.123C219.762 221.057 219.776 220.983 219.77 220.91C219.787 220.858 219.787 220.801 219.77 220.749C218.89 218.415 217.095 214.018 215.713 211.307L225.406 207.25C228.062 216.225 243.876 268.101 243.356 276.573C243.305 277.563 242.982 278.52 242.422 279.338C238.617 284.723 182.918 300.716 177.408 302.098C173.62 303.032 168.917 304.234 165.812 302.511C160.57 299.621 153.139 276.25 147.718 259.198C147.216 257.6 146.713 256.074 146.246 254.602C147.467 244.856 147.539 226.565 137.846 228.162C131.994 207.017 119.411 167.814 118.208 158.857C117.928 157.632 118.066 156.348 118.599 155.209C119.133 154.071 120.031 153.144 121.152 152.575C129.427 146.938 185.198 130.388 192.755 130.083C196.578 129.904 198.032 131.43 200.204 135.845C201.622 138.789 201.425 138.825 201.802 138.987C202.179 139.148 202.789 138.789 202.448 138.035C202.107 137.281 201.855 136.779 201.191 135.361C199.271 131.304 197.853 128.827 193.006 129.024C188.878 129.168 169.115 134.409 166.279 135.253C157.411 137.712 126.789 147.315 120.506 151.623C119.2 152.314 118.156 153.411 117.531 154.749C116.905 156.087 116.734 157.592 117.042 159.037C118.298 168.873 133.843 218.846 136.912 228.485C134.382 229.401 132.097 230.887 130.235 232.829C128.44 226.959 110.149 165.481 109.305 159.396C108.808 156.942 109.055 154.396 110.014 152.084C110.974 149.771 112.602 147.798 114.69 146.418C124.096 139.579 183.367 123.855 188.07 122.796ZM205.876 180.236C205.821 180.281 205.778 180.339 205.75 180.405C205.722 180.47 205.71 180.541 205.715 180.613L205.894 181.995L205.392 181.097C205.248 180.864 205.086 180.864 204.835 180.918C204.043 181.157 203.206 181.205 202.391 181.058C201.577 180.912 200.809 180.574 200.15 180.074L199.396 177.705C200.528 177.806 201.666 177.599 202.69 177.106C203.714 176.613 204.585 175.852 205.212 174.904L206.684 176.987C206.854 177.542 206.869 178.134 206.727 178.697C206.584 179.26 206.29 179.774 205.876 180.182V180.236ZM204.404 184.974C203.149 185.16 201.869 184.872 200.814 184.167C200.386 183.753 200.081 183.229 199.932 182.652C199.783 182.076 199.797 181.469 199.971 180.9C201.241 181.786 202.797 182.164 204.333 181.959C204.17 182.93 204.194 183.923 204.404 184.885V184.974ZM192.234 172.625C192.174 172.694 192.091 172.738 192.001 172.75C191.778 172.748 191.56 172.695 191.361 172.595C191.162 172.496 190.988 172.352 190.852 172.176C190.633 171.967 190.471 171.706 190.38 171.417C190.289 171.129 190.272 170.821 190.332 170.525C190.493 170.202 190.852 170.255 191.193 170.417C191.479 171.163 191.827 171.883 192.234 172.571V172.625ZM197.153 158.139C201.981 158.139 205.966 163.865 205.912 169.412C205.387 168.508 204.55 167.827 203.559 167.496C202.567 167.166 201.489 167.209 200.527 167.617C200.597 167.43 200.652 167.238 200.689 167.042C200.72 166.947 200.711 166.844 200.666 166.754C200.621 166.665 200.542 166.598 200.446 166.567C200.351 166.536 200.248 166.544 200.158 166.589C200.069 166.635 200.002 166.714 199.971 166.809C199.882 167.043 199.768 167.265 199.63 167.473C199.545 167.621 199.412 167.735 199.253 167.796C198.983 167.886 198.624 167.581 198.409 167.276C197.848 166.398 197.476 165.414 197.314 164.386C197.295 164.302 197.249 164.227 197.182 164.173C197.115 164.12 197.032 164.091 196.946 164.091C196.86 164.091 196.777 164.12 196.71 164.173C196.643 164.227 196.597 164.302 196.578 164.386C196.578 165.84 197.206 167.976 198.499 168.532C195.519 170.453 194.909 172.858 195.734 175.084C188.537 169.214 190.708 157.96 197.153 158.085V158.139ZM202.017 169.573C202.361 169.549 202.706 169.602 203.027 169.727C203.349 169.853 203.638 170.048 203.875 170.298C204.112 170.549 204.29 170.849 204.397 171.177C204.504 171.504 204.537 171.852 204.494 172.194C204.261 175.174 200.15 177.202 198.391 175.138C196.632 173.074 199.055 169.519 202.017 169.519V169.573ZM205.804 164.188C205.866 163.986 205.992 163.81 206.163 163.686C206.774 163.381 207.187 164.44 207.223 165.14C207.258 165.84 207.007 166.432 206.487 166.396C206.321 165.648 206.093 164.916 205.804 164.206V164.188ZM207.51 177.13C209.305 177.328 210.346 179.787 208.748 182.731C208.475 181.741 207.832 180.893 206.953 180.361C207.26 179.892 207.468 179.365 207.564 178.812C207.659 178.26 207.641 177.693 207.51 177.148V177.13ZM191.947 183.969C189.075 181.636 186.024 181.761 184.929 180.523C184.812 180.355 184.738 180.162 184.713 179.959C184.688 179.756 184.713 179.55 184.785 179.359C184.858 179.169 184.976 178.998 185.129 178.863C185.282 178.728 185.466 178.632 185.665 178.584C187.366 178.063 189.184 178.06 190.888 178.574C192.591 179.089 194.103 180.098 195.232 181.474C196.577 183.05 197.591 184.882 198.212 186.859C198.812 188.744 199.209 190.688 199.396 192.657L195.806 194.667C196.121 192.706 195.932 190.697 195.256 188.829C194.581 186.961 193.443 185.295 191.947 183.987V183.969ZM192.539 198.078C192.458 198.14 192.405 198.231 192.392 198.332C192.378 198.433 192.406 198.535 192.468 198.616C192.529 198.697 192.621 198.75 192.722 198.764C192.823 198.777 192.925 198.75 193.006 198.688C193.437 198.371 193.829 198.003 194.173 197.593C194.675 198.419 195.483 199.658 195.968 200.376C195.842 203.75 191.444 205.132 189.183 203.283C189.021 202.512 188.644 201.183 188.321 200.214H189.398C189.486 200.195 189.565 200.146 189.622 200.076C189.678 200.006 189.709 199.918 189.709 199.828C189.709 199.738 189.678 199.65 189.622 199.58C189.565 199.51 189.486 199.461 189.398 199.442C188.357 199.547 187.305 199.414 186.322 199.054C185.34 198.693 184.452 198.114 183.726 197.36C181.59 194.955 181.698 190.485 182.757 187.434C182.936 187.418 183.116 187.418 183.295 187.434C183.4 187.457 183.509 187.442 183.603 187.391C183.698 187.341 183.771 187.258 183.81 187.159C183.849 187.059 183.851 186.949 183.816 186.848C183.781 186.747 183.711 186.662 183.618 186.608C183.452 186.524 183.278 186.457 183.098 186.41C183.742 184.951 184.294 183.452 184.749 181.923C184.839 181.456 184.749 181.456 184.982 181.636C186.49 182.677 190.888 182.695 193.383 186.913C195.591 190.629 195.717 195.314 192.539 198.096V198.078ZM183.887 181.779C183.367 183.574 182.828 184.472 182.092 186.428C181.768 186.502 181.467 186.654 181.214 186.869C180.961 187.085 180.763 187.359 180.639 187.667C180.581 187.772 180.568 187.895 180.602 188.009C180.636 188.124 180.713 188.22 180.818 188.277C180.923 188.334 181.046 188.348 181.16 188.314C181.275 188.28 181.371 188.202 181.428 188.098C181.472 188.013 181.526 187.935 181.59 187.864C180.889 190.122 180.796 192.524 181.321 194.829C181.568 195.915 182.079 196.924 182.808 197.766C183.537 198.608 184.463 199.258 185.503 199.658L182.38 200.986C179.149 197.701 176.259 191.383 176.995 186.626C177.623 182.874 180.872 180.074 182.828 179.913C183.834 179.823 184.103 180.9 183.887 181.797V181.779ZM169.276 190.754C169.86 192.401 170.729 193.932 171.843 195.278C171.269 198.868 168.02 200.34 164.484 198.491C164.159 196.684 163.553 194.94 162.689 193.321C162.658 193.267 162.617 193.221 162.567 193.183C162.518 193.146 162.461 193.12 162.401 193.106C161.486 192.944 158.345 191.831 156.191 184.885C153.498 176.161 160.463 177.292 162.294 174.402C163.981 176.412 167.445 176.556 168.845 180.595C169.979 183.761 170.13 187.196 169.276 190.449C169.245 190.542 169.245 190.643 169.276 190.736V190.754ZM164.214 199.155C167.93 201.417 172.13 199.711 172.633 195.565L174.428 195.439C174.369 196.721 173.957 197.961 173.237 199.022C172.516 200.084 171.516 200.925 170.347 201.453C169.178 201.981 167.885 202.175 166.613 202.013C165.34 201.851 164.137 201.341 163.137 200.537C163.521 200.09 163.881 199.623 164.214 199.137V199.155ZM207.294 176.269L205.715 174.115C206.734 172.015 207.066 169.647 206.666 167.348C207.635 167.348 208.192 166.091 208.12 165.14C208.012 163.524 206.935 162.322 205.733 162.95L205.32 161.765C206.487 160.832 206.522 158.678 205.033 158.283C205.346 157.854 205.516 157.337 205.519 156.806C205.522 156.275 205.359 155.757 205.051 155.324C204.743 154.891 204.307 154.566 203.805 154.395C203.302 154.224 202.758 154.215 202.25 154.37C202.206 153.739 201.949 153.143 201.522 152.677C201.095 152.211 200.524 151.903 199.9 151.803C199.276 151.703 198.636 151.817 198.085 152.127C197.535 152.436 197.105 152.923 196.865 153.508C196.608 153.227 196.278 153.022 195.912 152.914C195.547 152.806 195.159 152.8 194.79 152.896C194.421 152.992 194.085 153.186 193.818 153.459C193.551 153.731 193.364 154.071 193.275 154.441C191.139 152.359 187.406 154.836 188.357 157.924C184.964 157.762 183.941 163.057 187.047 164.475C186.745 164.874 186.571 165.353 186.548 165.852C186.524 166.351 186.651 166.845 186.913 167.27C187.175 167.695 187.56 168.031 188.016 168.234C188.472 168.437 188.979 168.497 189.47 168.407L190.116 169.627C188.321 170.417 189.919 173.863 191.911 173.684C192.151 173.648 192.378 173.556 192.575 173.415C193.889 175.476 195.914 176.983 198.265 177.651L199.055 180.11C198.194 180.648 197.368 181.223 196.56 181.905C192.091 175.946 184.462 176.753 183.744 179.464C183.288 179.281 182.794 179.214 182.306 179.267C181.817 179.32 181.35 179.493 180.944 179.769C179.719 180.455 178.653 181.391 177.815 182.517C176.976 183.643 176.385 184.933 176.079 186.303C174.143 184.578 172.926 182.188 172.669 179.607C172.328 175.102 171.592 170.184 167.158 169.107C166.313 168.95 165.445 168.97 164.608 169.165C163.771 169.359 162.983 169.725 162.294 170.237C160.548 169.437 158.577 169.277 156.725 169.786C154.874 170.295 153.261 171.44 152.17 173.02C149.208 176.735 149.693 181.169 153.66 186.572C156.729 190.772 153.067 197.952 159.601 202.512C158.883 203.158 158.129 203.84 157.321 204.684C154.737 198.132 145.887 174.833 143.823 169.537C164.053 161.191 182.81 154.37 203.399 146.831C207.905 156.829 211.836 166.235 215.408 175.551C212.663 175.507 209.92 175.741 207.223 176.251L207.294 176.269ZM157.932 205.419C159.601 203.624 161.109 202.476 162.545 201.094C163.643 202.083 165.007 202.73 166.467 202.955C167.928 203.181 169.423 202.975 170.768 202.363C172.114 201.751 173.252 200.76 174.042 199.511C174.832 198.262 175.241 196.809 175.218 195.332L177.569 195.152C178.577 197.713 180.063 200.058 181.949 202.063C182.038 202.119 182.14 202.148 182.245 202.148C182.35 202.148 182.453 202.119 182.541 202.063L186.742 200.142C186.789 200.154 186.838 200.154 186.885 200.142H187.46C187.621 200.842 187.908 201.937 188.303 203.068C182.918 206.012 180.495 209.925 180.998 215.005C181 215.048 181.012 215.091 181.035 215.128C181.057 215.166 181.088 215.197 181.125 215.22C181.162 215.243 181.204 215.257 181.247 215.26C181.291 215.263 181.335 215.256 181.374 215.238C188.447 212.312 210.418 203.463 211.01 203.248C211.207 203.248 211.261 203.05 211.118 202.889C207.653 198.652 203.309 197.647 196.596 199.514C196.147 198.742 195.429 197.629 194.801 196.821C194.974 196.55 195.13 196.268 195.268 195.978L200.258 193.465C200.353 193.413 200.431 193.334 200.482 193.238C200.533 193.143 200.555 193.034 200.545 192.926C200.289 189.231 199.157 185.65 197.242 182.479C197.871 181.995 198.517 181.546 199.163 181.115C198.499 184.705 201.532 186.339 205.068 185.746C205.126 185.734 205.18 185.71 205.228 185.675C205.276 185.641 205.316 185.597 205.347 185.547C205.377 185.496 205.396 185.44 205.404 185.382C205.412 185.324 205.408 185.264 205.392 185.208C205.118 184.258 205.038 183.263 205.158 182.282L206.199 183.808C206.24 183.873 206.302 183.922 206.374 183.948C206.447 183.974 206.526 183.974 206.599 183.949C206.672 183.924 206.734 183.875 206.775 183.811C206.817 183.746 206.835 183.669 206.828 183.592L206.666 181.295C207.475 181.894 208.037 182.769 208.246 183.754C208.261 183.817 208.293 183.874 208.338 183.92C208.383 183.967 208.44 184 208.503 184.016C208.565 184.033 208.631 184.032 208.693 184.014C208.755 183.997 208.812 183.962 208.856 183.915C211.064 181.6 210.812 178.028 208.982 176.825C211.264 176.437 213.578 176.263 215.892 176.305C219.357 185.28 222.103 193.034 224.293 199.64C209.933 205.24 165.184 223.118 165.184 223.118C162.581 217.159 160.158 211.235 157.824 205.384L157.932 205.419ZM162.348 232.344C162.375 232.407 162.426 232.457 162.489 232.484C162.553 232.511 162.624 232.512 162.689 232.488C176.797 227.48 198.894 218.487 215.049 211.792C215.892 214.089 218.082 219.187 218.8 220.767C207.851 226.367 191.534 235.306 159.565 249.666C144.756 220.785 142.297 213.605 131.994 192.747C131.994 192.747 142.495 187.631 144.038 186.841C149.782 202.063 155.509 217.32 162.276 232.255L162.348 232.344ZM237.953 213.605C241.292 206.425 249.908 189.444 255.759 194.703C259.349 197.916 259.942 207.268 260.013 211.128C260.092 226.6 256.584 241.881 249.764 255.769C248.454 250.725 244.271 234.75 237.953 213.605ZM237.396 211.72C233.806 199.765 229.157 185.082 225.101 173.253C228.062 168.407 231.652 163.488 235.871 163.488C241.525 163.488 243.14 173.451 243.446 179.087C243.82 190.304 241.757 201.468 237.396 211.81V211.72ZM145.457 283.879C144.146 282.892 142.028 281.33 140.341 280.199C141.041 278.171 141.633 276.196 142.136 274.294C143.285 277.471 144.326 280.54 145.457 283.879Z" fill="#5669FF"/>
<path d="M185.377 260.275L188.752 262.178C188.853 262.235 188.965 262.272 189.08 262.285C189.195 262.299 189.312 262.29 189.424 262.258C189.536 262.226 189.641 262.173 189.732 262.101C189.823 262.028 189.898 261.939 189.954 261.837L192.019 257.942L196.704 272.302C196.769 272.502 196.896 272.676 197.067 272.799C197.239 272.922 197.444 272.986 197.655 272.984C199.082 272.664 200.476 272.213 201.819 271.638C202.072 271.552 202.28 271.369 202.397 271.13C202.515 270.891 202.533 270.615 202.448 270.363L197.655 256.524L200.724 257.996C200.931 258.092 201.166 258.107 201.382 258.037C201.599 257.967 201.781 257.818 201.891 257.619L203.866 254.029C203.922 253.925 203.956 253.812 203.967 253.695C203.979 253.578 203.966 253.46 203.931 253.348C203.896 253.236 203.839 253.132 203.763 253.042C203.687 252.952 203.594 252.879 203.489 252.826L192.126 247.405C191.85 247.275 191.533 247.258 191.245 247.359C190.956 247.459 190.718 247.669 190.583 247.944L184.946 259.055C184.892 259.163 184.86 259.28 184.853 259.401C184.845 259.522 184.862 259.643 184.902 259.757C184.942 259.871 185.005 259.975 185.087 260.064C185.168 260.154 185.267 260.225 185.377 260.275Z" fill="#5669FF"/>
<path d="M181.356 288.511C181.459 288.8 181.669 289.039 181.944 289.176C182.218 289.313 182.535 289.338 182.828 289.246L224.347 275.981C224.639 275.886 224.882 275.682 225.026 275.41C225.17 275.139 225.203 274.823 225.119 274.527L220.846 260.509C220.803 260.361 220.731 260.223 220.635 260.104C220.538 259.984 220.419 259.885 220.284 259.811C220.149 259.738 220 259.692 219.847 259.676C219.694 259.66 219.54 259.675 219.393 259.719L215.892 260.76C215.743 260.803 215.603 260.876 215.482 260.973C215.361 261.071 215.261 261.192 215.187 261.329C215.114 261.467 215.068 261.617 215.054 261.772C215.039 261.927 215.056 262.083 215.102 262.232L217.741 271.099C217.786 271.261 217.766 271.434 217.686 271.581C217.605 271.729 217.471 271.839 217.31 271.889L186.023 281.905C185.862 281.956 185.686 281.941 185.535 281.864C185.384 281.787 185.269 281.653 185.216 281.492L182.003 272.032C181.954 271.886 181.877 271.75 181.775 271.633C181.674 271.517 181.55 271.421 181.412 271.353C181.273 271.284 181.122 271.244 180.968 271.234C180.814 271.225 180.659 271.246 180.513 271.296L177.048 272.463C176.755 272.565 176.513 272.779 176.375 273.058C176.238 273.336 176.215 273.658 176.313 273.953L181.356 288.511ZM188.536 191.634C188.622 191.596 188.691 191.529 188.732 191.445C188.772 191.36 188.781 191.264 188.758 191.174C188.734 191.083 188.679 191.004 188.602 190.95C188.526 190.896 188.432 190.872 188.339 190.88C188.049 190.944 187.749 190.944 187.459 190.88C187.083 190.755 187.334 190.36 187.603 190.001C187.638 189.969 187.666 189.93 187.685 189.887C187.704 189.844 187.714 189.797 187.714 189.75C187.714 189.702 187.704 189.656 187.685 189.612C187.666 189.569 187.638 189.53 187.603 189.498C187.442 189.373 187.172 189.498 186.921 189.624C186.778 189.717 186.655 189.839 186.561 189.982C186.467 190.125 186.404 190.286 186.375 190.455C186.347 190.623 186.353 190.796 186.395 190.962C186.436 191.128 186.511 191.284 186.616 191.419C186.875 191.647 187.199 191.79 187.542 191.829C187.886 191.867 188.233 191.8 188.536 191.634ZM189.937 191.922C189.898 192.224 189.786 192.513 189.611 192.764C189.436 193.014 189.203 193.218 188.931 193.358C188.355 193.589 187.712 193.589 187.136 193.358C187.032 193.3 186.908 193.287 186.794 193.321C186.68 193.355 186.583 193.432 186.526 193.537C186.469 193.642 186.456 193.765 186.489 193.879C186.523 193.994 186.601 194.09 186.706 194.147C187.163 194.442 187.696 194.599 188.24 194.599C188.785 194.599 189.317 194.442 189.775 194.147C190.149 193.916 190.451 193.585 190.647 193.192C190.844 192.799 190.927 192.359 190.888 191.922C190.888 191.795 190.838 191.674 190.749 191.585C190.659 191.496 190.538 191.446 190.412 191.446C190.286 191.446 190.165 191.496 190.076 191.585C189.987 191.674 189.937 191.795 189.937 191.922ZM189.093 186.339C188.303 186.662 188.788 188.134 189.631 188.134C189.751 188.135 189.869 188.1 189.968 188.032C190.068 187.965 190.144 187.869 190.188 187.757C190.493 187.129 189.757 186.07 189.093 186.339ZM184.39 188.888C183.744 188.421 183.098 189.085 183.457 189.983C183.654 190.432 184.103 190.809 184.516 190.629C184.929 190.45 184.946 189.301 184.39 188.888ZM187.585 185.208C187.759 184.905 188.031 184.671 188.357 184.544C188.703 184.446 189.07 184.446 189.416 184.544C189.523 184.577 189.638 184.568 189.739 184.521C189.839 184.473 189.919 184.389 189.962 184.286C190.004 184.183 190.007 184.068 189.969 183.963C189.931 183.858 189.856 183.771 189.757 183.718C189.501 183.571 189.216 183.481 188.922 183.454C188.628 183.426 188.331 183.462 188.052 183.559C187.773 183.656 187.518 183.812 187.304 184.016C187.09 184.22 186.923 184.467 186.813 184.742C186.751 184.844 186.733 184.967 186.761 185.083C186.79 185.199 186.863 185.299 186.966 185.361C187.068 185.423 187.191 185.441 187.307 185.413C187.423 185.384 187.523 185.311 187.585 185.208ZM166.817 187.075C166.35 186.949 166.35 187.47 165.668 188.008C165.293 188.309 164.832 188.483 164.351 188.505C163.871 188.528 163.396 188.398 162.994 188.134C162.903 188.056 162.785 188.016 162.666 188.025C162.546 188.033 162.435 188.089 162.356 188.179C162.278 188.269 162.238 188.387 162.247 188.507C162.255 188.626 162.311 188.738 162.401 188.816C162.748 189.167 163.179 189.422 163.654 189.556C164.129 189.689 164.63 189.696 165.109 189.577C165.587 189.457 166.026 189.215 166.383 188.874C166.739 188.532 167 188.104 167.14 187.632C167.156 187.574 167.161 187.513 167.153 187.454C167.146 187.394 167.126 187.337 167.096 187.285C167.066 187.233 167.026 187.188 166.978 187.152C166.93 187.116 166.875 187.09 166.817 187.075ZM164.448 186.357C164.546 186.305 164.622 186.218 164.659 186.113C164.697 186.008 164.695 185.892 164.652 185.789C164.609 185.686 164.53 185.603 164.429 185.555C164.328 185.507 164.213 185.499 164.107 185.531C163.209 185.962 162.868 184.006 162.868 183.018C162.881 182.953 162.88 182.886 162.864 182.821C162.848 182.757 162.818 182.697 162.776 182.645C162.734 182.594 162.681 182.552 162.62 182.524C162.56 182.495 162.495 182.48 162.428 182.48C162.362 182.48 162.296 182.495 162.236 182.524C162.176 182.552 162.123 182.594 162.081 182.645C162.039 182.697 162.009 182.757 161.993 182.821C161.977 182.886 161.975 182.953 161.988 183.018C161.988 184.885 162.706 187.021 164.448 186.357ZM160.337 179.985C160.337 179.536 159.637 179.375 159.224 179.41C158.792 179.488 158.398 179.706 158.103 180.031C157.807 180.355 157.627 180.768 157.591 181.205C157.583 181.269 157.589 181.333 157.608 181.394C157.627 181.455 157.659 181.511 157.701 181.558C157.744 181.606 157.796 181.644 157.854 181.67C157.913 181.695 157.976 181.709 158.039 181.708C158.65 181.708 158.668 180.416 159.834 180.416C160.175 180.452 160.355 180.236 160.337 179.985ZM162.706 178.585C163.065 178.585 163.801 177.956 164.86 178.441C164.97 178.491 165.095 178.497 165.209 178.456C165.323 178.416 165.417 178.334 165.471 178.226C165.776 177.526 163.909 176.431 162.401 177.813C162.337 177.875 162.293 177.954 162.274 178.041C162.255 178.128 162.263 178.218 162.295 178.301C162.328 178.384 162.385 178.455 162.458 178.505C162.531 178.556 162.617 178.584 162.706 178.585ZM160.193 182.947C159.332 183.377 160.193 185.208 161.109 184.742C162.024 184.275 161.055 182.534 160.193 182.947ZM164.142 180.864C163.299 181.277 164.142 183.126 165.058 182.659C165.973 182.193 165.022 180.434 164.142 180.864ZM198.965 172.518C200.049 172.475 201.092 172.092 201.945 171.423C202.304 173.02 201.73 174.007 200.778 174.402C200.706 174.437 200.648 174.495 200.612 174.567C200.577 174.639 200.567 174.721 200.583 174.8C200.6 174.878 200.642 174.949 200.703 175.001C200.765 175.052 200.842 175.082 200.922 175.084C201.441 174.998 201.915 174.739 202.268 174.349C202.702 173.778 202.967 173.097 203.033 172.383C203.1 171.669 202.965 170.951 202.645 170.31C202.594 170.194 202.5 170.102 202.384 170.052C202.267 170.002 202.136 169.998 202.017 170.041C201.134 170.889 200.055 171.505 198.876 171.836C198.785 171.847 198.703 171.895 198.648 171.967C198.592 172.04 198.568 172.131 198.579 172.221C198.591 172.312 198.639 172.394 198.711 172.449C198.783 172.505 198.875 172.53 198.965 172.518ZM200.85 163.094C200.67 163.084 200.491 163.13 200.338 163.226C200.185 163.321 200.064 163.461 199.994 163.627C199.923 163.793 199.905 163.977 199.942 164.154C199.98 164.331 200.07 164.491 200.202 164.615C200.334 164.738 200.501 164.818 200.679 164.843C200.858 164.868 201.04 164.838 201.201 164.756C201.362 164.674 201.494 164.545 201.579 164.386C201.664 164.227 201.698 164.045 201.676 163.866C201.662 163.656 201.569 163.46 201.416 163.316C201.262 163.173 201.06 163.093 200.85 163.094ZM195.555 166.271C195.587 166.131 195.584 165.985 195.546 165.847C195.509 165.708 195.438 165.581 195.34 165.476C195.242 165.371 195.12 165.292 194.985 165.245C194.849 165.198 194.704 165.185 194.562 165.207C194.42 165.229 194.286 165.285 194.171 165.371C194.056 165.457 193.964 165.57 193.902 165.7C193.841 165.829 193.812 165.972 193.819 166.116C193.825 166.259 193.867 166.399 193.939 166.522C194.022 166.683 194.154 166.814 194.315 166.896C194.476 166.978 194.659 167.007 194.838 166.979C195.016 166.951 195.182 166.868 195.311 166.741C195.439 166.614 195.525 166.449 195.555 166.271ZM201.101 160.724C201.182 160.695 201.256 160.649 201.318 160.59C201.381 160.531 201.43 160.46 201.464 160.38C201.497 160.301 201.514 160.216 201.514 160.13C201.513 160.044 201.495 159.959 201.46 159.881C201.209 159.073 199.665 159.037 198.84 159.468C198.445 159.665 198.158 159.953 198.176 160.33C198.194 160.707 198.571 160.994 199.037 161.012C199.737 161.043 200.437 160.946 201.101 160.724ZM195.716 162.861C195.716 162.376 195.304 161.891 194.388 162.125C193.932 162.236 193.515 162.472 193.186 162.807C192.396 163.596 192.827 164.404 193.455 164.404C194.083 164.404 195.519 163.507 195.716 162.861ZM282.9 136.725C277.209 128.504 264.77 110.662 258.344 103.033C258.296 102.994 258.236 102.972 258.173 102.972C258.111 102.972 258.051 102.994 258.003 103.033L221.008 124.627C220.909 124.69 220.839 124.789 220.812 124.903C220.785 125.017 220.804 125.137 220.864 125.237C228.655 137.659 238.689 151.014 247.323 162.932C247.355 162.98 247.397 163.021 247.445 163.053C247.494 163.084 247.548 163.106 247.605 163.116C247.662 163.126 247.72 163.124 247.777 163.111C247.833 163.098 247.886 163.074 247.933 163.04C258.703 155.429 268.252 148.68 282.81 137.372C282.86 137.336 282.902 137.291 282.933 137.239C282.965 137.186 282.986 137.128 282.994 137.068C283.002 137.007 282.998 136.946 282.982 136.887C282.966 136.828 282.938 136.773 282.9 136.725ZM253.246 123.209C253.194 123.16 253.13 123.125 253.06 123.109C252.991 123.092 252.918 123.094 252.849 123.114C252.78 123.133 252.718 123.171 252.668 123.222C252.618 123.274 252.582 123.337 252.564 123.406C252.493 123.958 252.21 124.46 251.774 124.807C251.146 125.094 250.554 124.196 250.213 124.142C250.108 124.126 250.002 124.151 249.915 124.211C249.828 124.271 249.768 124.362 249.746 124.465C249.531 125.776 248.813 127.158 247.771 127.284C246.73 127.409 246.551 126.961 246.282 127.14C246.229 127.167 246.185 127.208 246.154 127.259C246.123 127.31 246.107 127.368 246.107 127.427C246.107 127.487 246.123 127.545 246.154 127.595C246.185 127.646 246.229 127.687 246.282 127.714C247.933 128.576 249.746 127.84 250.392 125.237C250.618 125.446 250.899 125.584 251.202 125.635C251.505 125.686 251.816 125.648 252.097 125.525C252.577 125.254 252.937 124.811 253.103 124.286C254.877 126.423 255.921 129.071 256.082 131.843C256.643 133.122 257.414 134.299 258.362 135.325C257.913 137.12 257.052 138.09 254.072 138.036C253.711 136.901 253.197 135.82 252.546 134.823C252.133 134.194 249.261 135.038 246.12 128.432C246.081 128.35 246.011 128.286 245.926 128.253C245.841 128.22 245.746 128.22 245.661 128.255C245.577 128.289 245.508 128.354 245.47 128.438C245.432 128.521 245.427 128.615 245.456 128.702C245.755 129.503 246.109 130.283 246.515 131.035C244.289 131.807 242.117 128.648 245.258 127.068C245.33 127.045 245.393 126.999 245.437 126.938C245.482 126.876 245.505 126.803 245.505 126.727C245.505 126.652 245.482 126.578 245.437 126.517C245.393 126.455 245.33 126.41 245.258 126.386C241.956 125.596 241.453 123.029 243.338 120.732C245.223 118.434 247.61 118.578 249.602 121.504C249.633 121.56 249.679 121.607 249.734 121.639C249.789 121.672 249.852 121.689 249.917 121.689C249.981 121.689 250.044 121.672 250.099 121.639C250.154 121.607 250.2 121.56 250.231 121.504C250.437 121.053 250.781 120.68 251.213 120.438C251.646 120.195 252.144 120.097 252.636 120.157C253.749 120.319 253.839 121.199 253.857 122.078V122.401C253.857 123.029 254.916 122.401 255.364 123.819C255.457 124.122 255.477 124.441 255.424 124.753C255.371 125.065 255.246 125.36 255.059 125.614C254.56 124.739 253.95 123.93 253.246 123.209ZM249.656 146.239C250.445 143.434 251.898 140.86 253.892 138.736C255.032 138.987 256.223 138.861 257.285 138.377C257.805 138.078 258.241 137.653 258.555 137.142C258.868 136.631 259.049 136.05 259.08 135.451C261.388 134.346 263.922 133.795 266.48 133.842C269.039 133.888 271.551 134.532 273.817 135.72C267.319 140.531 256.531 148.124 249.854 152.809C249.115 150.688 249.065 148.389 249.71 146.239H249.656ZM274.463 135.235C272.099 133.879 269.439 133.119 266.715 133.022C263.99 132.925 261.284 133.494 258.829 134.679C258.121 133.726 257.462 132.737 256.854 131.717C256.806 129.691 256.264 127.707 255.275 125.937C255.648 125.654 255.925 125.262 256.069 124.816C256.214 124.37 256.218 123.891 256.082 123.442C256.016 123.049 255.831 122.684 255.552 122.399C255.273 122.113 254.913 121.92 254.521 121.845C254.631 121.236 254.511 120.607 254.184 120.081C253.857 119.556 253.346 119.17 252.751 119C252.156 118.83 251.519 118.888 250.963 119.161C250.408 119.435 249.974 119.905 249.746 120.481C244.846 113.695 237.001 124.465 244.092 126.763C243.486 127.114 243.038 127.683 242.837 128.353C242.637 129.024 242.7 129.746 243.014 130.371C243.328 130.997 243.869 131.479 244.526 131.719C245.183 131.959 245.908 131.939 246.551 131.663C246.643 131.64 246.728 131.597 246.802 131.538C247.317 132.519 248.043 133.374 248.927 134.041C249.812 134.708 250.833 135.171 251.918 135.397C252.403 136.33 252.851 137.192 253.246 138.269C249.207 142.595 247.018 147.89 249.19 153.293L247.053 154.819C245.258 152.144 240.25 146.023 226.411 125.919C236.93 119.063 248.256 112.206 256.818 107.539C264.627 116.962 273.404 129.886 276.132 133.979L274.463 135.235ZM217.526 83.7908C218.112 83.8341 218.699 83.6995 219.208 83.4047C219.717 83.1098 220.125 82.6683 220.379 82.1379C220.634 81.6074 220.722 81.0126 220.633 80.4311C220.545 79.8495 220.282 79.3083 219.881 78.8779C219.48 78.4476 218.959 78.1482 218.385 78.0187C217.811 77.8893 217.211 77.9358 216.664 78.1523C216.117 78.3688 215.648 78.7452 215.318 79.2323C214.989 79.7194 214.813 80.2946 214.815 80.8829C214.791 81.6274 215.063 82.3512 215.57 82.8962C216.078 83.4411 216.781 83.7627 217.526 83.7908ZM217.526 78.8545C217.938 78.8035 218.356 78.8792 218.725 79.0717C219.093 79.2641 219.394 79.5641 219.588 79.9318C219.781 80.2995 219.858 80.7174 219.809 81.13C219.759 81.5426 219.585 81.9303 219.309 82.2415C219.034 82.5527 218.67 82.7726 218.267 82.8721C217.863 82.9716 217.439 82.9459 217.051 82.7984C216.662 82.6509 216.328 82.3887 216.092 82.0465C215.856 81.7043 215.73 81.2984 215.731 80.8829C215.706 80.3774 215.88 79.8822 216.215 79.5032C216.551 79.1242 217.021 78.8914 217.526 78.8545ZM201.101 86.1602C204.459 85.8276 207.843 85.8758 211.189 86.3038C214.581 86.7246 217.924 87.4761 221.17 88.5475C221.25 88.5598 221.333 88.5411 221.4 88.4952C221.467 88.4494 221.515 88.3796 221.533 88.3001C221.551 88.2206 221.539 88.1371 221.498 88.0665C221.457 87.9958 221.391 87.9433 221.313 87.9193C214.869 85.3469 207.866 84.4993 200.994 85.4601C200.581 85.4422 200.455 86.1602 201.101 86.1602ZM204.297 79.411C206.425 80.7128 208.299 82.3916 209.825 84.3652C209.885 84.4185 209.961 84.4501 210.041 84.4551C210.121 84.4601 210.201 84.4381 210.267 84.3926C210.333 84.3472 210.382 84.2809 210.406 84.2043C210.43 84.1278 210.428 84.0454 210.4 83.9703C208.605 80.3803 204.817 78.5853 204.315 78.8366C204.265 78.8659 204.224 78.9071 204.195 78.9565C204.166 79.0058 204.15 79.0616 204.148 79.1189C204.146 79.1761 204.159 79.2329 204.185 79.2839C204.211 79.335 204.249 79.3787 204.297 79.411ZM151.739 63.3816C159.511 69.1974 159.134 69 159.314 69C159.493 69 159.314 69.4128 163.101 62.7534C168.881 64.0458 170.963 64.9433 171.789 65.1228C172.615 65.3023 172.507 64.5304 172.13 64.3868C169.344 63.3834 166.503 62.5384 163.622 61.8559L164.34 60.6173C164.364 60.5939 164.383 60.566 164.396 60.5352C164.409 60.5044 164.415 60.4713 164.415 60.4378C164.415 60.4044 164.409 60.3713 164.396 60.3405C164.383 60.3097 164.364 60.2817 164.34 60.2583L157.052 56.0401C157.001 55.9993 156.938 55.9771 156.873 55.9771C156.807 55.9771 156.744 55.9993 156.693 56.0401L151.775 62.9508C151.736 62.9699 151.702 62.9988 151.677 63.0348C151.653 63.0708 151.638 63.1125 151.634 63.156C151.631 63.1995 151.638 63.2431 151.657 63.2827C151.675 63.3223 151.703 63.3564 151.739 63.3816ZM162.778 60.8327L162.329 61.5866C160.795 61.2631 159.242 61.0293 157.68 60.8866C157.602 60.8794 157.524 60.8948 157.454 60.9307C157.384 60.9667 157.326 61.0219 157.286 61.0897C157.247 61.1575 157.227 61.2353 157.23 61.3137C157.233 61.3922 157.259 61.4682 157.303 61.5328C157.501 61.802 157.465 61.5328 161.827 62.4841L159.152 67.0434L153.39 62.8252L157.106 57.6017L162.778 60.8327ZM224.329 159.917C227.517 153.302 229.139 146.042 229.068 138.7C229.048 138.607 228.997 138.524 228.924 138.465C228.85 138.405 228.758 138.373 228.664 138.373C228.569 138.373 228.477 138.405 228.404 138.465C228.33 138.524 228.279 138.607 228.26 138.7C227.887 145.869 226.296 152.922 223.557 159.558C223.359 160.024 224.095 160.383 224.329 159.917ZM190.816 74.1337C197.87 78.9802 197.511 78.9802 197.924 78.9802C197.997 78.9676 198.065 78.9347 198.12 78.8853C198.176 78.8359 198.216 78.772 198.236 78.7009C198.257 78.6297 198.257 78.5543 198.237 78.483C198.217 78.4118 198.177 78.3477 198.122 78.2981C196.048 76.3992 193.737 74.7763 191.247 73.4695C191.159 73.4124 191.052 73.3926 190.949 73.4145C190.846 73.4364 190.757 73.4981 190.699 73.5862C190.642 73.6743 190.623 73.7814 190.644 73.8841C190.666 73.9868 190.728 74.0766 190.816 74.1337ZM258.954 160.186C258.95 160.076 258.906 159.971 258.83 159.892C258.754 159.813 258.651 159.764 258.541 159.755C257.321 159.755 259.457 163.166 254.951 187.524C254.944 187.621 254.971 187.718 255.028 187.797C255.085 187.876 255.168 187.933 255.263 187.956C255.358 187.98 255.458 187.969 255.545 187.926C255.633 187.883 255.702 187.811 255.741 187.721C258.538 178.827 259.628 169.485 258.954 160.186ZM191.139 65.0869C198.786 67.4742 200.383 68.6769 200.868 68.5333C200.942 68.5044 201.006 68.4538 201.051 68.3882C201.096 68.3225 201.12 68.2448 201.12 68.1653C201.12 68.0858 201.096 68.0081 201.051 67.9424C201.006 67.8768 200.942 67.8262 200.868 67.7973C197.858 66.2233 194.653 65.0524 191.337 64.315C191.234 64.2889 191.126 64.3044 191.035 64.3583C190.944 64.4121 190.878 64.4999 190.852 64.6022C190.826 64.7046 190.841 64.8132 190.895 64.904C190.949 64.9949 191.037 65.0607 191.139 65.0869Z" fill="#5669FF"/>
<path d="M167.337 61.2276L173.764 61.7123L173.135 69.7359C173.13 69.7998 173.149 69.8633 173.19 69.9133C173.23 69.9634 173.287 69.9962 173.351 70.0052C178.736 70.9206 189.039 72.6079 188.859 72.6079C189.236 72.6079 189.075 73.1644 190.493 55.3759C190.499 55.3368 190.496 55.2968 190.484 55.2592C190.471 55.2215 190.45 55.1873 190.422 55.1593C190.394 55.1313 190.36 55.1103 190.323 55.0981C190.285 55.0858 190.245 55.0826 190.206 55.0887L174.446 55.9683C174.379 55.9683 174.315 55.9948 174.268 56.0419C174.221 56.089 174.194 56.1529 174.194 56.2196L173.835 60.8148C171.69 60.5745 169.532 60.4487 167.373 60.4378C167.269 60.4331 167.166 60.4701 167.089 60.5408C167.011 60.6115 166.965 60.7101 166.96 60.8148C166.956 60.9195 166.993 61.0219 167.063 61.0993C167.134 61.1767 167.233 61.2229 167.337 61.2276ZM174.894 67.4024C174.894 67.5819 175.217 67.6537 175.379 67.6178C178.915 66.8563 182.548 66.6444 186.149 66.9896C186.201 66.9955 186.253 66.9911 186.304 66.9767C186.354 66.9623 186.401 66.9382 186.441 66.9057C186.482 66.8732 186.516 66.8329 186.542 66.7873C186.567 66.7416 186.583 66.6914 186.589 66.6396C186.595 66.5877 186.59 66.5352 186.576 66.485C186.562 66.4349 186.537 66.388 186.505 66.3472C186.472 66.3063 186.432 66.2723 186.386 66.247C186.341 66.2217 186.291 66.2057 186.239 66.1998C184.94 66.0553 183.633 65.9893 182.326 66.0023V64.8715C182.747 65.0448 183.198 65.1361 183.654 65.1407C184.254 65.1861 184.848 64.996 185.311 64.6106C185.773 64.2253 186.067 63.675 186.131 63.0765C188.357 61.6405 186.975 57.5838 183.995 58.9659C181.859 56.2016 178.61 57.9069 179.454 60.007C178.971 59.9998 178.5 60.1638 178.127 60.47C177.753 60.7762 177.499 61.2047 177.411 61.6799C177.323 62.155 177.406 62.6459 177.645 63.0658C177.884 63.4857 178.264 63.8074 178.718 63.974C178.813 63.9865 178.91 63.9653 178.992 63.9138C179.073 63.8624 179.134 63.7841 179.164 63.6925C179.194 63.6008 179.191 63.5016 179.155 63.4121C179.119 63.3225 179.054 63.2483 178.969 63.2021C177.677 62.7713 178.143 60.6353 180.1 60.7968C180.176 60.805 180.253 60.7908 180.322 60.7558C180.39 60.7209 180.447 60.6668 180.485 60.6001C180.523 60.5335 180.541 60.4571 180.536 60.3805C180.532 60.3038 180.505 60.2302 180.459 60.1686C179.238 58.5351 181.877 57.4761 183.564 59.7198C183.622 59.7994 183.707 59.8545 183.804 59.8744C183.9 59.8943 184 59.8776 184.085 59.8275C186.329 58.5531 187.19 61.7123 185.503 62.5021C185.454 62.5268 185.411 62.5608 185.376 62.6021C185.341 62.6435 185.314 62.6914 185.298 62.7431C185.281 62.7948 185.275 62.8492 185.279 62.9034C185.283 62.9575 185.299 63.0102 185.323 63.0585C185.305 63.2291 185.249 63.3934 185.159 63.5394C185.069 63.6854 184.947 63.8094 184.803 63.9022C184.439 64.1546 184.007 64.2899 183.564 64.2899C183.122 64.2899 182.689 64.1546 182.326 63.9022V63.5073C182.306 63.4147 182.255 63.3317 182.182 63.2721C182.108 63.2126 182.016 63.1801 181.922 63.1801C181.827 63.1801 181.735 63.2126 181.662 63.2721C181.588 63.3317 181.538 63.4147 181.518 63.5073V65.9126H180.423L180.692 63.256C180.692 63.1513 180.651 63.0508 180.577 62.9768C180.503 62.9027 180.402 62.8611 180.297 62.8611C180.193 62.8611 180.092 62.9027 180.018 62.9768C179.944 63.0508 179.902 63.1513 179.902 63.256L179.615 66.0023C178.08 66.1005 176.562 66.3776 175.092 66.828C174.996 66.8494 174.912 66.9074 174.858 66.9896L175.271 61.82C175.72 61.82 175.9 61.9277 176.079 61.82C176.184 61.8057 176.279 61.7504 176.343 61.6663C176.407 61.5821 176.434 61.476 176.42 61.3712C176.406 61.2665 176.351 61.1717 176.266 61.1078C176.182 61.0438 176.076 61.0159 175.971 61.0302H175.415L175.702 57.4402L188.806 56.7042L187.675 70.0052L174.841 68.2102L174.894 67.4024ZM235.691 113.426C233.416 107.633 230.328 102.193 226.519 97.2712C226.455 97.1954 226.366 97.146 226.268 97.1328C226.17 97.1196 226.071 97.1435 225.99 97.1998C225.909 97.2561 225.852 97.3407 225.83 97.437C225.808 97.5333 225.823 97.6343 225.872 97.72C229.259 102.895 232.294 108.292 234.955 113.875C235.015 113.973 235.11 114.043 235.222 114.069C235.333 114.096 235.45 114.078 235.547 114.019C235.645 113.959 235.715 113.863 235.742 113.752C235.769 113.641 235.751 113.524 235.691 113.426ZM199.971 72.4284C197.398 70.9193 194.695 69.6457 191.893 68.623C191.795 68.5798 191.684 68.5762 191.584 68.613C191.483 68.6498 191.401 68.7242 191.355 68.8205C191.316 68.9188 191.314 69.0281 191.351 69.1274C191.387 69.2267 191.459 69.3091 191.552 69.359C193.132 70.077 199.576 73.1823 199.755 73.1823C199.842 73.1788 199.925 73.148 199.994 73.0943C200.062 73.0406 200.111 72.9668 200.135 72.8832C200.159 72.7997 200.156 72.7108 200.127 72.6292C200.097 72.5475 200.042 72.4773 199.971 72.4284Z" fill="#5669FF"/>
</svg>
