<svg width="360" height="359" viewBox="0 0 360 359" fill="none" xmlns="http://www.w3.org/2000/svg">
<path d="M323.503 111.936C323.736 112.205 322.39 111.936 341.973 115.401V114.27L324.418 110.769C300.921 83.9701 268.396 74.1873 232.496 75.2284C229.804 66.2534 217.149 24.2684 214.887 18.4526C212.374 11.9906 208.084 8.97501 201.389 8.97501C195.088 8.97501 102.664 33.746 97.2787 35.2359C87.0651 37.9822 55.4911 45.8084 34.4537 51.2293C14.4215 56.4169 16.6293 69.1972 18.0115 76.826C25.73 120.265 44.039 184.364 73.5129 252.287C70.7192 260.88 69.61 269.93 70.246 278.943C72.7231 312.653 98.7685 336.957 125.568 344.389L127.507 350.025H129.427C127.076 343.581 127.237 343.06 126.483 342.845C98.7865 334.893 74.9848 310.086 72.4359 278.763C70.6409 256.2 81.4109 232.722 96.7223 218.81C101.299 214.682 111.082 208.04 114.331 213.21C100.187 235.773 90.1885 261.514 87.837 279.535C89.0715 279.329 90.3392 279.471 91.4969 279.947C92.6546 280.423 93.6563 281.213 94.3887 282.228C94.7837 282.766 94.6221 283.825 93.7246 282.928C93.0517 282.304 92.2594 281.824 91.3955 281.515C90.5316 281.207 89.6142 281.077 88.6986 281.133C88.5299 281.152 88.3669 281.205 88.2189 281.288C88.0709 281.371 87.9411 281.483 87.837 281.618C87.2806 282.389 87.837 283.538 88.573 284.166C90.1017 285.319 91.9248 286.016 93.8323 286.177C94.1366 286.201 94.4421 286.152 94.7233 286.033C95.0045 285.914 95.253 285.73 95.4478 285.495C101.282 278.28 106.545 270.622 111.19 262.59C113.228 269.599 116.321 276.257 120.362 282.336L116.737 288.995C116.716 289.028 116.703 289.065 116.697 289.103C116.691 289.141 116.693 289.18 116.702 289.217C116.711 289.255 116.728 289.29 116.751 289.321C116.773 289.352 116.802 289.379 116.835 289.399C116.868 289.419 116.905 289.432 116.943 289.438C116.981 289.444 117.02 289.442 117.058 289.433C117.095 289.424 117.13 289.407 117.162 289.385C117.193 289.362 117.219 289.333 117.239 289.3L122.122 282.712C122.187 282.611 122.222 282.492 122.222 282.371C122.222 282.25 122.187 282.132 122.122 282.03C119.3 277.854 116.895 273.411 114.942 268.765C113.054 264.174 111.652 259.397 110.759 254.513C104.782 219.116 144.074 239.722 153.552 289.408C158.111 313.102 151.362 327.103 151.362 328.252C151.37 328.339 151.406 328.421 151.466 328.485C151.525 328.549 151.604 328.591 151.69 328.606C151.777 328.62 151.865 328.605 151.942 328.564C152.019 328.523 152.08 328.457 152.116 328.377C155.983 317.407 157.213 305.68 155.706 294.147C158.614 294.275 161.524 293.966 164.34 293.231C167.086 300.411 167.715 306.891 164.968 314.304C164.908 314.415 164.877 314.538 164.877 314.663C164.877 314.789 164.908 314.912 164.968 315.022L189.434 350.025H191.678L166.422 314.484C166.767 313.62 167.066 312.74 167.32 311.845C167.32 311.845 213.99 298.724 226.285 294.559C234.201 291.867 266.763 281.402 277.838 277.884C289.433 274.204 294.298 270.901 296.38 265.319C298.462 259.736 295.357 251.928 288.267 234.499C284.515 225.255 264.932 172.948 263.711 169.879C274.481 169.681 288.985 164.314 297.816 158.714L341.901 180.846V179.051L297.798 156.057C291.049 159.97 280.512 167.025 263.406 168.981C252.528 140.028 254.09 145.251 248.166 126.404C250.644 126.117 253.139 125.758 255.598 125.363L270.442 136.779C270.523 136.846 270.627 136.877 270.732 136.867C270.836 136.857 270.932 136.806 270.999 136.725C271.065 136.644 271.097 136.54 271.087 136.436C271.077 136.331 271.026 136.235 270.945 136.169L256.37 123.855C255.813 123.406 255.634 123.855 247.682 124.537C239.03 125.417 219.446 126.476 212.518 121.288C208.928 118.488 209.7 114.952 212.769 111.505C225.334 97.9711 261.755 93.0528 281.338 92.3707C281.386 92.3821 281.435 92.3826 281.483 92.3722C281.53 92.3617 281.575 92.3406 281.614 92.3104C281.652 92.2801 281.683 92.2416 281.704 92.1976C281.726 92.1537 281.737 92.1054 281.737 92.0566C281.737 92.0077 281.726 91.9595 281.704 91.9155C281.683 91.8716 281.652 91.833 281.614 91.8028C281.575 91.7725 281.53 91.7514 281.483 91.7409C281.435 91.7305 281.386 91.731 281.338 91.7424C267.101 91.7596 252.923 93.5688 239.138 97.1274C237.055 90.3064 234.919 83.288 232.837 76.3952C299.27 76.7901 319.356 109.28 323.503 111.936ZM35.8538 56.3809C57.9502 50.6728 181.805 18.2193 198.589 14.7549C200.847 14.101 203.255 14.1827 205.463 14.9883C208.246 16.173 209.43 18.8296 210.848 22.8145C172.758 31.1074 48.5265 63.8302 22.6426 72.1949C21.8528 65.8047 22.9477 59.7196 35.8538 56.3809ZM22.6964 72.5359C40.0182 67.1509 99.0558 51.6063 116.683 46.9931C188.321 28.1097 210.866 23.1376 210.902 23.1196C211.925 26.1891 213.469 31.0715 215.336 37.1386C179.921 44.1391 57.3758 77.3645 25.5325 87.3985C24.6171 83.2341 23.1811 76.2336 22.6964 72.5718V72.5359ZM25.6223 87.7216C49.1188 80.5416 182.344 44.2288 215.444 37.4617C217.239 43.3672 219.411 50.3856 221.69 57.9067C194.316 63.7584 60.4273 98.9404 30.4688 108.167C28.4763 100.215 26.8249 93.1784 25.6223 87.7575V87.7216ZM114.942 212.313C110.939 206.784 101.03 213.21 95.8068 217.698C90.6597 222.264 86.182 227.533 82.5059 233.35C79.5082 232.273 76.9952 226.17 74.3027 219.493C70.4223 210.143 67.1603 200.549 64.5379 190.773C63.8199 187.631 63.7122 185.208 66.2252 183.108C69.2946 180.487 82.3802 176.287 86.2394 175.048C93.5989 172.679 101.892 170.74 109.413 169.071C112.393 168.425 115.57 168.497 117.347 170.399C119.985 173.164 124.778 187.201 127.489 195.099C124.509 198.689 121.619 202.44 118.855 206.425C112.475 202.345 105.675 198.962 98.5711 196.337C100.366 193.178 107.941 179.59 110.31 175.174C110.365 175.079 110.38 174.966 110.351 174.86C110.323 174.754 110.253 174.663 110.158 174.609C110.063 174.554 109.95 174.539 109.844 174.568C109.737 174.596 109.647 174.666 109.592 174.761C104.62 182.246 100.528 188.888 96.7581 195.637C87.8729 192.352 80.6031 190.252 72.2564 187.99C72.1517 187.955 72.037 187.962 71.9377 188.011C71.8384 188.06 71.7626 188.146 71.7269 188.251C71.6912 188.355 71.6985 188.47 71.7473 188.569C71.7962 188.669 71.8824 188.744 71.9871 188.78C77.7132 191.042 87.855 194.363 95.7889 197.36C91.0806 205.804 87.1397 214.653 84.0136 223.801C83.9933 223.896 84.0071 223.995 84.0526 224.081C84.0981 224.166 84.1724 224.233 84.2624 224.27C84.3525 224.306 84.4525 224.31 84.5449 224.28C84.6373 224.25 84.7161 224.188 84.7675 224.106C91.3193 209.889 96.7941 199.64 97.6377 198.06C104.686 200.689 111.512 203.883 118.047 207.61C116.97 209.082 115.929 210.679 114.942 212.313ZM123.917 237.03C124.706 235.145 125.478 233.26 126.214 231.375C131.132 231.573 140.861 232.363 143.518 236.527C146.174 240.692 140.628 244.982 135.62 246.615C132.426 242.643 128.44 239.378 123.917 237.03ZM136.912 248.195C143.679 249.451 159.529 252.359 160.696 259.162C161.629 264.296 153.911 267.222 148.346 267.832C145.407 260.827 141.582 254.228 136.966 248.195H136.912ZM155.401 293.177C154.492 286.232 152.806 279.41 150.375 272.84C156.837 275.156 171.789 281.815 169.617 288.151C168.217 292.298 160.229 293.249 155.455 293.177H155.401ZM291.336 263.416C290.151 266.611 287.19 269.304 276.168 272.804C220.416 290.503 223.665 290.539 168.145 306.065C168.281 301.497 167.184 296.977 164.968 292.98C166.189 292.691 167.33 292.133 168.308 291.348C169.286 290.562 170.077 289.568 170.622 288.439C173.207 281.007 157.016 274.078 149.747 271.26C149.011 269.322 148.867 269.053 148.741 268.747C154.898 267.868 162.599 264.601 161.629 259.018C161.499 258.264 161.232 257.54 160.84 256.882C160.84 256.882 273.153 223.657 277.82 222.472C286.292 244.443 293.167 258.606 291.39 263.416H291.336ZM211.997 110.841C207.312 116.101 209.718 119.421 209.7 119.655C210.258 120.592 210.996 121.409 211.872 122.06C213.118 123.051 214.503 123.856 215.982 124.447C188.537 132.83 68.7741 167.294 68.2715 167.456C61.6659 169.251 57.304 170.543 53.9115 160.922C61.0915 152.575 84.9829 124.77 89.8115 121.324C91.5124 120.053 93.5759 119.361 95.6991 119.35C103.112 119.134 140.772 136.869 147.359 133.71C151.883 131.52 167.553 106.892 167.715 106.659C178.933 89.373 177.479 90.3603 203.022 94.5247C208.712 95.4581 216.485 96.7146 226.591 98.3121L227.362 101.094C221.565 103.41 215.731 106.659 212.051 110.823L211.997 110.841ZM53.3909 159.755C50.3215 150.78 42.0286 124.232 42.5132 120.265C42.7296 118.844 43.3535 117.516 44.3093 116.442C45.2651 115.369 46.5118 114.595 47.8982 114.216C53.8397 112.546 209.017 70.1306 213.272 70.1306C216.664 70.1306 217.975 71.9256 219.267 75.2105C221.956 82.437 224.28 89.7937 226.232 97.2531C188.537 91.0424 185.611 89.8038 180.297 91.0424C175.828 92.0835 173.835 94.6324 166.476 105.815C160.965 114.324 149.729 130.838 146.731 132.327C144.146 133.584 142.764 133.153 135.135 130.766C125.37 127.696 120.039 125.973 108.659 121.468C101.802 118.739 95.1247 115.777 88.914 120.175C83.2598 124.286 57.8605 154.37 53.3909 159.755ZM234.004 98.5634C232.209 99.1378 230.288 99.802 228.368 100.574C226.11 91.8688 223.377 83.2938 220.182 74.8874C218.728 71.2974 217.113 69.2331 213.2 69.1793C211.028 69.1793 117.526 93.34 47.5572 113.264C45.987 113.709 44.5772 114.595 43.4954 115.816C42.4136 117.038 41.7052 118.545 41.4542 120.157C40.8439 124.77 48.9214 150.672 52.637 160.706C56.9989 172.482 61.8095 170.148 70.2998 167.886C105.428 158.732 181.59 136.402 217.616 125.094C225.37 127.678 234.65 127.481 242.746 126.889C245.743 136.492 248.131 143.851 249.423 147.118C251.81 153.203 273.35 210.625 277.748 222.113C269.222 224.231 264.986 225.596 160.696 256.559C156.837 250.6 144.756 247.746 137.594 246.884C141.561 245.089 145.403 242.217 145.133 237.909C144.864 233.601 138.151 231.86 135.961 231.322C132.932 230.617 129.842 230.208 126.735 230.101C131.035 219.17 134.175 207.817 136.105 196.229C136.625 192.945 131.079 190.844 129.302 192.819L127.758 194.614C123.575 182.228 119.914 172.158 117.544 169.627C115.749 167.599 112.016 167.994 109.287 168.407C99.8814 169.879 71.4127 177.723 65.8123 182.462C63.8737 184.382 62.7788 185.818 63.9096 190.755C66.4909 200.624 69.7475 210.304 73.6565 219.726C75.7925 224.949 78.7902 232.578 82.1648 233.799C79.8798 237.409 77.8755 241.19 76.1695 245.107C59.099 206.192 47.4495 176.897 30.5406 108.687C58.381 100.233 199.737 63.2199 221.78 58.4272C223.324 63.3276 231.617 90.4321 234.004 98.5634Z" fill="#5669FF"/>
<path d="M137.235 186.141C135.907 185.657 133.251 189.732 132.586 190.862C132.568 190.891 132.557 190.923 132.554 190.957C132.551 190.99 132.555 191.024 132.568 191.056C132.58 191.087 132.599 191.115 132.624 191.138C132.649 191.16 132.679 191.177 132.712 191.185C133.727 191.416 134.677 191.87 135.494 192.514C135.514 192.537 135.539 192.555 135.567 192.568C135.595 192.58 135.625 192.587 135.656 192.587C135.686 192.587 135.717 192.58 135.744 192.568C135.772 192.555 135.797 192.537 135.817 192.514C136.374 191.329 138.564 186.68 137.235 186.141ZM40.2695 74.0797C36.811 74.7563 33.4599 75.8975 30.3072 77.4722C31.3516 75.8703 32.2929 74.2036 33.1254 72.4821C33.1406 72.4425 33.1412 72.3987 33.1271 72.3587C33.1131 72.3186 33.0853 72.2848 33.0487 72.2633C33.0122 72.2418 32.9691 72.2339 32.9273 72.2411C32.8855 72.2483 32.8475 72.2701 32.8202 72.3026C31.6398 74.073 30.5784 75.9199 29.6431 77.8312C29.3379 78.4774 34.6691 79.9493 35.3691 80.057C35.4068 80.057 35.4435 80.0451 35.4741 80.0231C35.5047 80.0011 35.5275 79.97 35.5394 79.9343C35.5513 79.8985 35.5517 79.8599 35.5405 79.824C35.5292 79.788 35.507 79.7565 35.4768 79.7339C33.8597 78.9387 32.1547 78.3363 30.397 77.9389C33.6329 76.574 36.9548 75.4228 40.3413 74.4925C40.6644 74.2951 40.5746 74.0258 40.2695 74.0797ZM59.0811 69.2332C57.0806 68.1647 54.9977 67.2584 52.8524 66.5227C52.8115 66.5125 52.7682 66.5171 52.7303 66.5356C52.6924 66.5541 52.6622 66.5854 52.645 66.624C52.6279 66.6626 52.6249 66.7059 52.6366 66.7465C52.6482 66.7871 52.6738 66.8222 52.7088 66.8458C54.4415 67.7906 56.2413 68.6066 58.0939 69.287C54.6655 69.6184 51.3069 70.4656 48.1316 71.8C48.0966 71.8236 48.071 71.8587 48.0593 71.8993C48.0476 71.9399 48.0506 71.9832 48.0678 72.0218C48.0849 72.0604 48.1151 72.0917 48.1531 72.1102C48.191 72.1287 48.2342 72.1333 48.2752 72.1231C50.6446 71.3692 54.073 70.7051 58.5246 69.7896C57.3689 71.1903 56.3416 72.6922 55.4552 74.2771C55.4437 74.3166 55.4448 74.3587 55.4583 74.3975C55.4719 74.4364 55.4973 74.47 55.5309 74.4937C55.5645 74.5175 55.6047 74.5301 55.6458 74.5299C55.687 74.5297 55.727 74.5166 55.7603 74.4925C57.0454 72.9714 58.1815 71.3304 59.1529 69.5922C59.1797 69.5671 59.1996 69.5356 59.2108 69.5007C59.222 69.4658 59.2241 69.4286 59.2169 69.3927C59.2097 69.3567 59.1935 69.3232 59.1697 69.2953C59.1459 69.2674 59.1154 69.246 59.0811 69.2332ZM75.1105 66.8638C75.0541 67.9162 74.6202 68.9131 73.8882 69.6714C73.1562 70.4298 72.1754 70.8987 71.1255 70.9922C70.117 71.0716 69.1109 70.8106 68.2681 70.251C67.4254 69.6913 66.7945 68.8652 66.4765 67.9049C66.2113 66.9157 66.3042 65.8647 66.7386 64.9374C67.173 64.01 67.9211 63.266 68.8508 62.8366C69.7804 62.4071 70.8319 62.32 71.8196 62.5905C72.8073 62.861 73.6677 63.4717 74.2489 64.3149C73.3803 64.273 72.5097 64.303 71.6461 64.4046C71.5985 64.4046 71.5528 64.4235 71.5192 64.4572C71.4855 64.4908 71.4666 64.5365 71.4666 64.5841C71.4666 64.6317 71.4855 64.6774 71.5192 64.711C71.5528 64.7447 71.5985 64.7636 71.6461 64.7636C72.6424 64.8707 73.6474 64.8707 74.6437 64.7636C74.6831 64.7545 74.7191 64.7346 74.7477 64.706C74.7763 64.6774 74.7962 64.6414 74.8053 64.6021C75.0292 63.5646 75.0838 62.4977 74.9668 61.4428C74.9668 61.3952 74.9479 61.3496 74.9143 61.3159C74.8806 61.2823 74.835 61.2634 74.7873 61.2634C74.7397 61.2634 74.6941 61.2823 74.6604 61.3159C74.6268 61.3496 74.6078 61.3952 74.6078 61.4428C74.4271 62.2736 74.3606 63.1251 74.4104 63.9738C71.1255 59.235 64.2866 63.1481 65.7944 68.2459C67.4278 73.972 76.1336 72.5 75.4874 66.9894C75.5041 66.9394 75.5002 66.8849 75.4766 66.8377C75.4531 66.7906 75.4117 66.7548 75.3618 66.7381C75.3118 66.7214 75.2572 66.7253 75.2101 66.7489C75.1629 66.7724 75.1271 66.8138 75.1105 66.8638ZM33.6459 61.03C33.1844 61.03 32.7333 61.1669 32.3495 61.4233C31.9658 61.6797 31.6667 62.0441 31.4901 62.4705C31.3135 62.8969 31.2672 63.3661 31.3573 63.8187C31.4473 64.2714 31.6696 64.6872 31.9959 65.0135C32.3223 65.3399 32.738 65.5621 33.1907 65.6522C33.6434 65.7422 34.1125 65.696 34.5389 65.5194C34.9653 65.3428 35.3298 65.0437 35.5862 64.6599C35.8426 64.2762 35.9794 63.825 35.9794 63.3635C35.9794 62.7446 35.7336 62.1511 35.296 61.7135C34.8584 61.2758 34.2648 61.03 33.6459 61.03ZM41.885 58.5529C41.4235 58.5529 40.9723 58.6898 40.5886 58.9462C40.2048 59.2026 39.9057 59.567 39.7291 59.9934C39.5525 60.4198 39.5063 60.889 39.5963 61.3416C39.6864 61.7943 39.9086 62.2101 40.235 62.5364C40.5613 62.8628 40.9771 63.085 41.4298 63.1751C41.8824 63.2651 42.3516 63.2189 42.778 63.0423C43.2044 62.8657 43.5688 62.5666 43.8252 62.1828C44.0816 61.7991 44.2185 61.3479 44.2185 60.8864C44.2185 60.2675 43.9726 59.674 43.535 59.2364C43.0974 58.7988 42.5039 58.5529 41.885 58.5529ZM50.142 56.1297C49.6805 56.1297 49.2293 56.2665 48.8456 56.5229C48.4618 56.7793 48.1627 57.1438 47.9861 57.5702C47.8095 57.9965 47.7633 58.4657 47.8533 58.9184C47.9434 59.371 48.1656 59.7868 48.492 60.1132C48.8183 60.4395 49.2341 60.6618 49.6868 60.7518C50.1394 60.8419 50.6086 60.7956 51.035 60.619C51.4614 60.4424 51.8258 60.1433 52.0822 59.7596C52.3386 59.3758 52.4755 58.9247 52.4755 58.4632C52.4755 57.8443 52.2296 57.2507 51.792 56.8131C51.3544 56.3755 50.7609 56.1297 50.142 56.1297ZM205.176 27.9482C203.776 27.9482 99.3968 54.4783 90.691 56.8118C85.306 58.2657 84.0675 58.3734 82.9905 60.1684C82.5983 60.8027 82.3836 61.5306 82.3689 62.2763C82.3541 63.0219 82.5399 63.7577 82.9067 64.407C83.2735 65.0563 83.808 65.5952 84.4542 65.9673C85.1005 66.3395 85.8348 66.5313 86.5805 66.5227C87.9915 66.3419 89.3769 65.9986 90.709 65.4996C113.631 59.235 204.009 36.7796 205.122 36.5642C205.843 36.4789 206.537 36.2391 207.156 35.8612C207.776 35.4832 208.307 34.9761 208.712 34.3743C209.097 33.7382 209.307 33.0122 209.322 32.2692C209.337 31.5261 209.156 30.7922 208.798 30.1411C208.44 29.49 207.916 28.9446 207.281 28.5597C206.645 28.1748 205.919 27.9639 205.176 27.9482ZM208.389 34.105C208.003 34.6548 207.504 35.1154 206.925 35.456C206.346 35.7966 205.701 36.0092 205.033 36.0795C74.3566 68.8023 87.819 66.1457 86.5625 66.1457C85.8963 66.135 85.2445 65.9495 84.6724 65.6078C84.1003 65.2661 83.628 64.7802 83.3027 64.1986C82.9774 63.617 82.8105 62.9602 82.8187 62.2939C82.8269 61.6276 83.0099 60.9751 83.3495 60.4018C84.3008 58.8581 85.1445 58.7863 90.7628 57.2785C100.815 54.568 203.848 28.4328 205.122 28.4328C205.787 28.4305 206.44 28.604 207.016 28.9356C207.592 29.2672 208.07 29.7451 208.402 30.321C208.733 30.8968 208.907 31.5501 208.905 32.2147C208.902 32.8792 208.725 33.5313 208.389 34.105Z" fill="#5669FF"/>
<path d="M92.7912 62.825C92.3142 62.4557 91.7887 62.1538 91.2295 61.9275C91.4667 61.4278 91.5025 60.856 91.3296 60.3306C91.1566 59.8052 90.7882 59.3664 90.3006 59.1053C89.813 58.8441 89.2436 58.7805 88.7104 58.9277C88.1772 59.0748 87.7211 59.4215 87.4365 59.8958C87.1519 60.3701 87.0607 60.9357 87.1818 61.4754C87.3028 62.0152 87.6269 62.4876 88.0868 62.795C88.5467 63.1023 89.1072 63.2209 89.6522 63.1262C90.1971 63.0316 90.6848 62.7309 91.0141 62.2865C91.5197 62.6267 92.0615 62.9097 92.6296 63.1301C92.6678 63.1383 92.7076 63.1337 92.743 63.1172C92.7783 63.1007 92.8074 63.0731 92.8256 63.0386C92.8439 63.0041 92.8504 62.9646 92.8442 62.926C92.838 62.8875 92.8194 62.852 92.7912 62.825ZM89.2012 62.825C88.8424 62.8466 88.4853 62.7599 88.1763 62.5762C87.8673 62.3926 87.6206 62.1203 87.4681 61.7948C87.3156 61.4693 87.2643 61.1055 87.3209 60.7505C87.3775 60.3956 87.5394 60.0657 87.7856 59.8038C88.0318 59.5419 88.351 59.3599 88.7018 59.2815C89.0526 59.2031 89.4189 59.2317 89.7532 59.3639C90.0875 59.496 90.3744 59.7254 90.5769 60.0225C90.7793 60.3195 90.8878 60.6705 90.8885 61.03C90.8903 61.4794 90.7235 61.913 90.4211 62.2454C90.1187 62.5777 89.7026 62.7846 89.255 62.825H89.2012ZM202.502 32.0946C202.125 29.5996 201.245 29.797 200.904 31.1612C200.82 31.4673 200.76 31.7793 200.725 32.0946C200.132 32.0946 198.804 31.9331 198.517 32.4716C198.229 33.0101 198.822 33.2973 199.271 33.4947C199.576 33.6255 199.895 33.7218 200.222 33.7819C199.809 34.3384 199.289 35.3974 199.827 35.7385C200.366 36.0795 201.371 35.0205 201.819 34.5358C202.286 34.9307 203.202 35.5949 203.722 35.2718C204.243 34.9487 203.417 33.9794 202.95 33.4768C203.561 33.3511 204.476 33.0639 204.332 32.4716C204.189 31.8792 203.058 32.0408 202.502 32.0946ZM202.699 33.3511C202.591 33.3511 202.555 33.4409 202.699 33.5486C202.843 33.6563 203.866 34.7871 203.597 35.0384C203.327 35.2897 202.322 34.5179 201.945 34.2486C201.919 34.2309 201.887 34.2214 201.855 34.2214C201.823 34.2214 201.792 34.2309 201.766 34.2486C201.173 34.823 200.258 35.6128 199.971 35.3974C199.683 35.182 200.473 33.9076 200.545 33.7101C200.561 33.6933 200.571 33.6708 200.571 33.6473C200.571 33.6238 200.561 33.6012 200.545 33.5845C200.222 33.4588 198.858 33.046 198.947 32.5972C199.037 32.1485 200.742 32.31 200.94 32.328C201.137 32.3459 201.084 32.2382 201.101 32.0946C201.443 30.2996 201.748 30.4253 201.891 30.6766C202.111 31.1719 202.297 31.6817 202.448 32.2023V32.2921C202.448 32.2921 203.991 32.2921 204.099 32.5972C204.207 32.9024 203.13 33.2614 202.699 33.3511ZM133.394 185.98C130.019 174.564 127.506 169.717 128.709 165.822C131.114 158.84 155.634 152.88 163.801 150.995C166.584 150.349 172.884 148.877 175.559 149.452C178.233 150.026 179.849 151.588 186.006 170.094C188.602 177.687 190.73 185.432 192.378 193.286C192.666 194.21 192.746 195.186 192.612 196.145C192.479 197.104 192.135 198.022 191.606 198.832C188.77 202.602 168.432 208.166 163.873 209.423C141.705 215.508 144.379 214.592 137.756 197.989C137.756 197.955 137.743 197.923 137.719 197.9C137.696 197.876 137.664 197.863 137.63 197.863C137.597 197.863 137.565 197.876 137.541 197.9C137.518 197.923 137.505 197.955 137.505 197.989C140.413 206.964 141.472 212.115 146.246 213.336C149.836 214.287 160.229 210.984 164.035 209.907C187.962 203.032 190.565 201.112 192.091 199.137C192.665 198.263 193.042 197.273 193.194 196.237C193.346 195.201 193.269 194.145 192.97 193.142C191.329 185.24 189.201 177.446 186.598 169.807C180.405 151.319 178.826 149.47 175.684 148.788C172.956 148.195 167.463 149.47 163.676 150.349C155.508 152.27 130.827 158.211 128.207 165.571C126.753 169.933 131.24 181.277 133.125 185.98C133.197 186.231 133.448 186.142 133.394 185.98ZM208.569 194.793C213.72 194.488 236.678 187.99 248.059 183.018C251.9 181.331 253.821 179.626 252.905 175.551C249.151 162.327 244.534 149.363 239.084 136.743C238.4 134.659 236.993 132.889 235.117 131.753C230.988 129.779 210.974 136.294 204.315 138.448C200.096 139.813 192.88 142.128 189.955 145.036C187.37 147.513 187.729 150.672 188.698 154.119C199.953 193.86 202.268 195.152 208.569 194.793ZM190.188 145.395C193.114 142.577 200.312 140.297 204.422 138.969C210.13 137.174 231.024 130.479 234.937 132.292C236.689 133.387 237.998 135.065 238.635 137.03C244.063 149.606 248.633 162.536 252.313 175.731C253.049 179.644 251.505 180.846 247.861 182.444C238.222 186.662 214.061 193.878 208.623 194.237C202.376 194.632 200.24 192.442 189.093 154.065C188.088 150.78 187.729 147.693 190.188 145.395ZM67.733 82.8931C67.7078 82.7801 67.6601 82.6733 67.5927 82.5791C67.5253 82.4849 67.4396 82.4053 67.3408 82.345C67.2419 82.2846 67.1319 82.2449 67.0173 82.228C66.9028 82.2112 66.786 82.2176 66.6739 82.2469L34.8486 90.6655C34.6106 90.7273 34.4069 90.8813 34.2823 91.0933C34.1578 91.3054 34.1226 91.5583 34.1844 91.7963C34.2463 92.0343 34.4002 92.238 34.6123 92.3626C34.8244 92.4871 35.0773 92.5223 35.3153 92.4605L67.1227 84.0419C67.2413 84.0116 67.3523 83.9568 67.4486 83.8812C67.5449 83.8055 67.6243 83.7105 67.6817 83.6024C67.7392 83.4942 67.7734 83.3753 67.7822 83.2532C67.7911 83.131 67.7743 83.0084 67.733 82.8931ZM60.8222 91.8681C60.7951 91.7567 60.7459 91.6518 60.6776 91.5597C60.6094 91.4675 60.5234 91.3899 60.4248 91.3313C60.3262 91.2728 60.2168 91.2346 60.1032 91.2189C59.9896 91.2032 59.874 91.2103 59.7632 91.2399L36.6077 97.3608C36.4932 97.3917 36.3862 97.4453 36.293 97.5186C36.1997 97.5919 36.1223 97.6832 36.0653 97.7872C36.0083 97.8911 35.9729 98.0055 35.9612 98.1235C35.9496 98.2415 35.9619 98.3606 35.9974 98.4737C36.0243 98.5848 36.0735 98.6893 36.1421 98.7808C36.2106 98.8722 36.297 98.9489 36.3961 99.0059C36.4951 99.063 36.6047 99.0994 36.7182 99.1128C36.8318 99.1262 36.9468 99.1164 37.0564 99.084L60.2119 92.9631C60.3244 92.932 60.4296 92.879 60.5213 92.8069C60.6131 92.7349 60.6896 92.6453 60.7464 92.5434C60.8032 92.4415 60.8391 92.3293 60.8522 92.2134C60.8652 92.0974 60.855 91.9801 60.8222 91.8681ZM81.016 78.98C81.0789 79.2031 81.2273 79.3924 81.4289 79.5067C81.6306 79.621 81.8693 79.651 82.093 79.5903L113.9 71.1718C114.012 71.1423 114.117 71.0911 114.21 71.021C114.302 70.9509 114.379 70.8634 114.438 70.7634C114.496 70.6634 114.534 70.5528 114.55 70.4381C114.565 70.3234 114.558 70.2067 114.529 70.0948C114.499 69.9828 114.448 69.8777 114.378 69.7855C114.308 69.6934 114.22 69.6159 114.12 69.5576C114.02 69.4992 113.91 69.4612 113.795 69.4455C113.68 69.4299 113.564 69.437 113.452 69.4665L81.6442 77.9569C81.4294 78.0161 81.245 78.1546 81.1284 78.3446C81.0118 78.5345 80.9716 78.7616 81.016 78.98ZM107.618 79.1416C107.555 78.9177 107.407 78.7271 107.206 78.6099C107.005 78.4927 106.767 78.4581 106.541 78.5133L83.3854 84.6522C83.2716 84.681 83.1649 84.7327 83.0718 84.8042C82.9787 84.8757 82.9012 84.9655 82.844 85.068C82.7869 85.1706 82.7513 85.2837 82.7394 85.4005C82.7276 85.5173 82.7397 85.6352 82.7751 85.7472C82.8343 85.9696 82.9783 86.1601 83.1763 86.2775C83.3743 86.395 83.6105 86.4301 83.8341 86.3754L107.008 80.2365C107.232 80.1697 107.422 80.0178 107.536 79.8132C107.65 79.6087 107.679 79.3676 107.618 79.1416ZM127.812 66.415C127.839 66.5264 127.888 66.6313 127.956 66.7235C128.024 66.8156 128.11 66.8933 128.209 66.9518C128.308 67.0103 128.417 67.0485 128.531 67.0642C128.644 67.0799 128.76 67.0728 128.871 67.0433L160.678 58.6247C160.793 58.5936 160.9 58.54 160.994 58.4671C161.088 58.3941 161.166 58.3032 161.225 58.1996C161.283 58.0961 161.321 57.982 161.335 57.8639C161.349 57.7458 161.339 57.6261 161.306 57.5118C161.24 57.2913 161.09 57.1049 160.89 56.9913C160.689 56.8776 160.453 56.8455 160.229 56.9015L128.422 65.2303C128.297 65.257 128.18 65.311 128.079 65.3885C127.978 65.4659 127.895 65.5649 127.836 65.6782C127.778 65.7916 127.746 65.9164 127.741 66.0438C127.737 66.1712 127.761 66.298 127.812 66.415ZM154.431 66.415C154.369 66.1919 154.22 66.0026 154.019 65.8883C153.817 65.774 153.578 65.744 153.354 65.8047L130.199 71.9257C129.961 71.9875 129.757 72.1415 129.633 72.3535C129.508 72.5656 129.473 72.8185 129.535 73.0565C129.597 73.2945 129.751 73.4982 129.963 73.6228C130.175 73.7473 130.428 73.7825 130.666 73.7207L153.821 67.5818C153.944 67.5545 154.059 67.5008 154.158 67.4246C154.258 67.3483 154.339 67.2512 154.397 67.1401C154.455 67.029 154.489 66.9066 154.494 66.7813C154.5 66.6561 154.479 66.5311 154.431 66.415ZM174.589 53.6167C174.618 53.7265 174.669 53.8294 174.738 53.9196C174.807 54.0098 174.893 54.0854 174.992 54.1421C175.09 54.1988 175.199 54.2355 175.312 54.2501C175.424 54.2647 175.539 54.2568 175.648 54.227L207.474 45.8084C207.586 45.7774 207.691 45.7243 207.783 45.6523C207.875 45.5802 207.951 45.4906 208.008 45.3887C208.065 45.2868 208.101 45.1746 208.114 45.0587C208.127 44.9428 208.117 44.8254 208.084 44.7135C208.055 44.6013 208.004 44.4961 207.934 44.4038C207.864 44.3115 207.776 44.2339 207.676 44.1755C207.576 44.1171 207.465 44.0791 207.351 44.0636C207.236 44.0481 207.119 44.0555 207.007 44.0852L175.2 52.5038C174.971 52.5704 174.778 52.7251 174.664 52.9338C174.55 53.1425 174.523 53.3881 174.589 53.6167ZM201.101 53.7064C201.074 53.595 201.025 53.4901 200.957 53.3979C200.889 53.3058 200.803 53.2282 200.704 53.1696C200.605 53.1111 200.496 53.0729 200.382 53.0572C200.269 53.0415 200.153 53.0486 200.042 53.0782L176.959 59.235C176.847 59.2645 176.742 59.3157 176.65 59.3858C176.557 59.4558 176.48 59.5434 176.422 59.6434C176.363 59.7434 176.325 59.8539 176.31 59.9686C176.294 60.0834 176.301 60.2 176.33 60.312C176.36 60.424 176.411 60.529 176.481 60.6212C176.551 60.7134 176.639 60.7908 176.739 60.8492C176.839 60.9075 176.949 60.9456 177.064 60.9612C177.179 60.9768 177.296 60.9697 177.407 60.9403L200.563 54.8193C200.672 54.783 200.773 54.7252 200.86 54.6492C200.947 54.5731 201.017 54.4805 201.068 54.3767C201.118 54.2729 201.147 54.1601 201.152 54.045C201.158 53.9299 201.141 53.8147 201.101 53.7064ZM194.155 208.22C194.12 208.109 194.064 208.006 193.989 207.916C193.914 207.827 193.822 207.754 193.719 207.7C193.615 207.647 193.502 207.614 193.386 207.605C193.27 207.596 193.153 207.609 193.042 207.646L151.883 220.462C151.772 220.496 151.669 220.552 151.58 220.626C151.49 220.7 151.416 220.791 151.362 220.893C151.308 220.996 151.275 221.108 151.264 221.223C151.253 221.339 151.265 221.455 151.299 221.566C151.333 221.677 151.389 221.78 151.463 221.869C151.537 221.958 151.628 222.032 151.73 222.086C151.833 222.14 151.945 222.174 152.06 222.185C152.176 222.195 152.292 222.183 152.403 222.149L193.562 209.333C193.788 209.263 193.976 209.106 194.087 208.898C194.198 208.69 194.222 208.446 194.155 208.22ZM184.946 220.462C184.912 220.351 184.855 220.247 184.78 220.158C184.706 220.069 184.614 219.995 184.51 219.942C184.407 219.889 184.293 219.856 184.177 219.847C184.061 219.837 183.944 219.851 183.834 219.888L154.234 229.096C154.123 229.131 154.02 229.187 153.93 229.262C153.841 229.337 153.768 229.429 153.714 229.532C153.661 229.636 153.628 229.749 153.619 229.865C153.61 229.981 153.623 230.098 153.66 230.209C153.73 230.434 153.886 230.622 154.095 230.733C154.303 230.844 154.546 230.868 154.773 230.801L184.354 221.575C184.579 221.504 184.768 221.348 184.879 221.14C184.989 220.932 185.014 220.688 184.946 220.462ZM197.601 224.878L156.442 237.712C156.331 237.747 156.228 237.804 156.14 237.879C156.051 237.954 155.978 238.046 155.924 238.149C155.871 238.253 155.838 238.366 155.829 238.481C155.819 238.597 155.832 238.714 155.867 238.825C155.903 238.936 155.96 239.038 156.035 239.127C156.11 239.216 156.202 239.289 156.305 239.342C156.408 239.396 156.521 239.428 156.637 239.438C156.753 239.448 156.87 239.435 156.98 239.399L198.14 226.583C198.251 226.548 198.354 226.492 198.443 226.417C198.533 226.342 198.606 226.25 198.66 226.147C198.713 226.043 198.745 225.93 198.755 225.814C198.764 225.698 198.75 225.581 198.714 225.47C198.644 225.245 198.487 225.056 198.279 224.945C198.071 224.835 197.827 224.81 197.601 224.878ZM252.582 189.929L211.423 202.835C211.312 202.869 211.209 202.925 211.12 202.999C211.03 203.073 210.957 203.164 210.902 203.266C210.848 203.369 210.815 203.481 210.804 203.596C210.793 203.712 210.805 203.828 210.839 203.939C210.874 204.05 210.929 204.153 211.003 204.242C211.077 204.331 211.168 204.405 211.271 204.459C211.373 204.513 211.485 204.547 211.601 204.558C211.716 204.569 211.833 204.556 211.943 204.522L253.156 191.634C253.395 191.565 253.595 191.404 253.715 191.187C253.834 190.97 253.863 190.714 253.794 190.476C253.725 190.238 253.564 190.038 253.347 189.918C253.13 189.799 252.874 189.77 252.636 189.839L252.582 189.929ZM244.397 202.727C244.364 202.617 244.31 202.514 244.236 202.425C244.163 202.336 244.073 202.262 243.971 202.209C243.869 202.155 243.757 202.122 243.642 202.113C243.527 202.103 243.411 202.117 243.302 202.153L213.666 211.361C213.441 211.432 213.253 211.588 213.142 211.796C213.031 212.004 213.007 212.248 213.074 212.474C213.109 212.585 213.165 212.689 213.24 212.778C213.315 212.867 213.407 212.941 213.51 212.994C213.614 213.048 213.727 213.08 213.843 213.089C213.959 213.099 214.076 213.085 214.187 213.049L243.787 203.84C243.901 203.809 244.008 203.756 244.101 203.682C244.195 203.609 244.272 203.518 244.329 203.414C244.386 203.31 244.421 203.195 244.433 203.078C244.445 202.96 244.432 202.84 244.397 202.727ZM215.461 221.072C215.494 221.183 215.549 221.286 215.622 221.376C215.695 221.466 215.784 221.54 215.886 221.595C215.988 221.65 216.099 221.685 216.214 221.697C216.329 221.709 216.446 221.698 216.556 221.665L257.716 208.848C257.84 208.826 257.959 208.777 258.063 208.705C258.167 208.633 258.255 208.54 258.321 208.432C258.387 208.324 258.429 208.203 258.445 208.078C258.461 207.952 258.45 207.824 258.413 207.703C258.376 207.582 258.314 207.47 258.231 207.375C258.148 207.279 258.045 207.203 257.93 207.15C257.815 207.097 257.69 207.069 257.563 207.068C257.437 207.067 257.311 207.092 257.195 207.143L216.036 219.959C215.925 219.994 215.821 220.05 215.732 220.125C215.643 220.2 215.569 220.292 215.516 220.396C215.463 220.499 215.43 220.612 215.421 220.728C215.411 220.845 215.425 220.961 215.461 221.072ZM165.201 266.396L185.305 260.293C185.507 260.205 185.669 260.046 185.761 259.846C185.853 259.646 185.868 259.419 185.804 259.209C185.74 258.998 185.601 258.819 185.413 258.704C185.225 258.59 185.001 258.548 184.785 258.588L164.681 264.691C164.556 264.713 164.438 264.762 164.334 264.834C164.229 264.906 164.141 264.999 164.075 265.107C164.009 265.215 163.967 265.336 163.951 265.461C163.936 265.587 163.946 265.715 163.983 265.836C164.02 265.957 164.083 266.069 164.166 266.164C164.249 266.259 164.352 266.336 164.467 266.389C164.582 266.442 164.707 266.47 164.833 266.471C164.96 266.472 165.085 266.447 165.201 266.396ZM165.704 272.643C165.774 272.868 165.931 273.056 166.139 273.167C166.347 273.278 166.591 273.302 166.817 273.235L193.921 264.996C194.119 264.907 194.277 264.749 194.367 264.552C194.457 264.355 194.473 264.132 194.412 263.925C194.351 263.717 194.217 263.538 194.034 263.422C193.852 263.305 193.633 263.259 193.419 263.291L166.243 271.53C166.027 271.611 165.851 271.772 165.751 271.979C165.651 272.186 165.634 272.423 165.704 272.643ZM172.381 278.889L188.429 274.007C188.541 273.976 188.646 273.923 188.737 273.851C188.828 273.778 188.903 273.688 188.959 273.586C189.014 273.484 189.048 273.371 189.059 273.255C189.07 273.139 189.057 273.023 189.021 272.912C188.988 272.801 188.934 272.698 188.861 272.608C188.788 272.518 188.698 272.444 188.596 272.389C188.495 272.334 188.383 272.299 188.268 272.287C188.153 272.275 188.037 272.286 187.926 272.319L171.771 277.184C171.653 277.218 171.543 277.275 171.448 277.352C171.352 277.429 171.272 277.523 171.213 277.631C171.154 277.738 171.116 277.856 171.103 277.978C171.089 278.1 171.1 278.224 171.134 278.342C171.168 278.46 171.225 278.57 171.302 278.665C171.379 278.761 171.473 278.841 171.581 278.9C171.688 278.959 171.806 278.997 171.928 279.01C172.05 279.024 172.174 279.013 172.292 278.979L172.381 278.889ZM174.32 285.064C174.39 285.289 174.547 285.478 174.755 285.588C174.963 285.699 175.207 285.724 175.433 285.656L198.409 278.692C198.611 278.604 198.773 278.444 198.865 278.244C198.957 278.045 198.972 277.818 198.908 277.607C198.843 277.397 198.704 277.217 198.516 277.103C198.328 276.988 198.105 276.947 197.888 276.986L174.912 283.951C174.687 284.021 174.499 284.178 174.388 284.386C174.277 284.594 174.253 284.838 174.32 285.064ZM191.732 287.415L172.579 293.213C172.461 293.247 172.351 293.305 172.255 293.381C172.159 293.458 172.08 293.553 172.021 293.66C171.961 293.768 171.924 293.886 171.91 294.008C171.897 294.13 171.908 294.253 171.942 294.371C171.976 294.489 172.033 294.599 172.11 294.695C172.186 294.791 172.281 294.87 172.389 294.929C172.496 294.989 172.614 295.026 172.736 295.04C172.858 295.053 172.982 295.042 173.099 295.008L192.252 289.192C192.476 289.123 192.663 288.968 192.772 288.761C192.882 288.554 192.905 288.312 192.836 288.089C192.766 287.865 192.611 287.678 192.404 287.568C192.197 287.459 191.955 287.436 191.732 287.505V287.415ZM201.586 255.805L218.154 251.103C218.392 251.038 218.595 250.882 218.718 250.668C218.84 250.455 218.873 250.201 218.809 249.963C218.745 249.725 218.589 249.522 218.375 249.399C218.161 249.276 217.907 249.243 217.669 249.308L201.101 254.1C200.987 254.129 200.88 254.181 200.787 254.252C200.693 254.323 200.614 254.413 200.556 254.515C200.497 254.617 200.46 254.73 200.446 254.847C200.431 254.963 200.441 255.082 200.473 255.195C200.544 255.421 200.699 255.611 200.907 255.724C201.114 255.838 201.358 255.867 201.586 255.805ZM202.627 262.07C202.658 262.182 202.711 262.288 202.783 262.379C202.855 262.471 202.945 262.548 203.047 262.604C203.149 262.661 203.261 262.697 203.377 262.71C203.493 262.723 203.61 262.713 203.722 262.68L222.911 257.295C223.149 257.231 223.352 257.075 223.474 256.861C223.597 256.647 223.63 256.394 223.566 256.155C223.502 255.917 223.345 255.715 223.132 255.592C222.918 255.469 222.664 255.436 222.426 255.5L203.238 260.885C203.113 260.912 202.996 260.966 202.894 261.043C202.793 261.121 202.71 261.22 202.652 261.333C202.594 261.447 202.561 261.571 202.557 261.699C202.553 261.826 202.577 261.953 202.627 262.07ZM222.354 263.865C222.284 263.639 222.128 263.449 221.921 263.336C221.713 263.222 221.47 263.193 221.241 263.255L205.374 267.76C205.256 267.792 205.145 267.847 205.049 267.921C204.952 267.996 204.871 268.089 204.81 268.194C204.687 268.408 204.654 268.662 204.718 268.9C204.783 269.138 204.939 269.341 205.153 269.464C205.366 269.587 205.62 269.619 205.858 269.555L221.744 265.05C221.864 265.015 221.976 264.957 222.072 264.877C222.169 264.798 222.248 264.7 222.305 264.589C222.362 264.478 222.396 264.357 222.404 264.232C222.413 264.108 222.396 263.983 222.354 263.865ZM206.899 275.73C206.93 275.842 206.983 275.948 207.055 276.039C207.128 276.131 207.217 276.208 207.319 276.264C207.421 276.321 207.533 276.357 207.649 276.37C207.765 276.383 207.882 276.373 207.994 276.34L226.752 270.955C226.866 270.926 226.973 270.875 227.066 270.803C227.159 270.732 227.236 270.642 227.293 270.539C227.351 270.437 227.386 270.324 227.398 270.207C227.41 270.09 227.398 269.972 227.362 269.86C227.332 269.744 227.277 269.635 227.203 269.54C227.129 269.445 227.035 269.367 226.929 269.31C226.823 269.253 226.707 269.218 226.587 269.207C226.467 269.197 226.346 269.212 226.231 269.25L207.474 274.635C207.256 274.709 207.075 274.864 206.968 275.068C206.861 275.272 206.836 275.509 206.899 275.73ZM222.641 277.794L209.682 281.474C209.444 281.538 209.241 281.694 209.118 281.908C208.995 282.122 208.962 282.376 209.026 282.614C209.091 282.852 209.247 283.055 209.461 283.177C209.674 283.3 209.928 283.333 210.166 283.269L223.126 279.589C223.364 279.525 223.567 279.369 223.69 279.155C223.813 278.941 223.846 278.687 223.781 278.449C223.717 278.211 223.561 278.009 223.347 277.886C223.133 277.763 222.88 277.73 222.641 277.794ZM136.715 115.006C137.636 115.921 138.768 116.596 140.012 116.97C141.256 117.343 142.573 117.404 143.846 117.147C145.12 116.89 146.31 116.323 147.311 115.496C148.313 114.669 149.095 113.608 149.589 112.407C150.083 111.206 150.273 109.901 150.142 108.609C150.011 107.317 149.563 106.077 148.838 104.999C148.114 103.921 147.134 103.038 145.987 102.429C144.84 101.82 143.56 101.504 142.261 101.507C140.692 101.494 139.154 101.951 137.846 102.82C136.538 103.689 135.52 104.929 134.924 106.381C134.327 107.833 134.179 109.431 134.498 110.968C134.817 112.505 135.589 113.911 136.715 115.006ZM137.487 104.595C138.285 103.805 139.266 103.225 140.342 102.905C141.418 102.584 142.557 102.534 143.657 102.757C144.757 102.981 145.785 103.472 146.651 104.188C147.516 104.903 148.192 105.821 148.619 106.859C149.046 107.898 149.211 109.025 149.099 110.142C148.986 111.26 148.601 112.332 147.976 113.265C147.351 114.198 146.506 114.962 145.516 115.491C144.526 116.02 143.42 116.297 142.297 116.298C140.941 116.299 139.615 115.896 138.488 115.141C137.361 114.387 136.484 113.314 135.968 112.059C135.453 110.805 135.322 109.425 135.592 108.096C135.862 106.767 136.522 105.548 137.487 104.595Z" fill="#5669FF"/>
<path d="M173.135 152.916C168.313 160.921 164.055 169.252 160.391 177.849C152.838 173.893 145.045 170.416 137.056 167.438C136.958 167.409 136.852 167.414 136.758 167.453C136.663 167.493 136.584 167.563 136.535 167.653C136.491 167.753 136.487 167.867 136.524 167.97C136.56 168.074 136.635 168.159 136.733 168.209C145.959 172.787 159.637 179.644 159.637 179.644C156.024 188.107 152.925 196.781 150.357 205.617C150.34 205.678 150.338 205.742 150.35 205.804C150.362 205.866 150.388 205.924 150.426 205.974C150.465 206.025 150.514 206.066 150.57 206.094C150.627 206.122 150.689 206.137 150.752 206.138C151.434 206.138 150.644 206.138 161.378 180.559C166.907 183.467 175.738 188.457 185.647 194.434C185.739 194.496 185.853 194.519 185.962 194.497C186.072 194.475 186.168 194.411 186.23 194.318C186.292 194.225 186.314 194.111 186.292 194.002C186.271 193.892 186.206 193.796 186.113 193.734C178.501 188.157 170.486 183.153 162.132 178.764C165.291 171.369 169.133 163.04 173.871 153.311C173.924 153.213 173.935 153.099 173.903 152.993C173.871 152.887 173.798 152.798 173.701 152.746C173.603 152.693 173.489 152.682 173.383 152.714C173.277 152.746 173.188 152.818 173.135 152.916ZM195.357 150.78C202.537 154.37 206.935 156.327 218.692 162.412C214.872 170.768 211.639 179.381 209.017 188.188C208.984 188.293 208.994 188.406 209.044 188.504C209.095 188.601 209.182 188.675 209.287 188.708C209.391 188.742 209.505 188.732 209.603 188.682C209.7 188.631 209.774 188.544 209.807 188.439C213.541 179.356 212.141 181.995 220.452 163.309C227.632 167.15 235.727 171.764 244.325 176.969C244.418 177.031 244.532 177.053 244.641 177.032C244.75 177.01 244.847 176.945 244.908 176.852C244.97 176.76 244.993 176.646 244.971 176.537C244.949 176.427 244.885 176.331 244.792 176.269C237.294 170.801 229.412 165.882 221.205 161.55C225.011 153.311 229.229 144.946 232.604 137.964C232.641 137.87 232.643 137.766 232.609 137.671C232.575 137.577 232.507 137.498 232.419 137.449C232.331 137.4 232.228 137.386 232.13 137.408C232.032 137.43 231.945 137.487 231.886 137.569C227.335 145.026 223.195 152.726 219.482 160.635C211.795 156.594 203.857 153.05 195.716 150.026C195.617 149.978 195.502 149.973 195.397 150.01C195.293 150.047 195.208 150.124 195.16 150.224C195.112 150.324 195.106 150.438 195.144 150.543C195.181 150.647 195.258 150.732 195.357 150.78ZM234.901 249.972C235.46 249.408 235.841 248.692 235.997 247.914C236.153 247.136 236.077 246.329 235.779 245.593C235.481 244.858 234.974 244.226 234.32 243.776C233.666 243.325 232.895 243.077 232.101 243.061C231.45 243.069 230.81 243.236 230.238 243.547C229.666 243.859 229.178 244.305 228.817 244.847C228.457 245.39 228.234 246.012 228.168 246.66C228.103 247.309 228.196 247.963 228.441 248.567C228.686 249.17 229.074 249.705 229.572 250.125C230.07 250.545 230.664 250.836 231.3 250.975C231.937 251.113 232.598 251.094 233.225 250.919C233.853 250.745 234.428 250.419 234.901 249.972ZM229.247 245.843C229.46 245.388 229.78 244.991 230.179 244.685C230.578 244.38 231.045 244.175 231.54 244.089C232.035 244.003 232.544 244.037 233.023 244.189C233.502 244.342 233.937 244.607 234.291 244.964C234.574 245.246 234.797 245.583 234.946 245.954C235.094 246.325 235.166 246.723 235.156 247.123C235.146 247.523 235.054 247.916 234.887 248.279C234.72 248.643 234.48 248.968 234.183 249.236C233.598 249.772 232.832 250.069 232.038 250.069C231.244 250.069 230.479 249.772 229.893 249.236C229.462 248.813 229.169 248.269 229.053 247.676C228.938 247.083 229.005 246.469 229.247 245.915V245.843ZM242.243 247.028C242.976 247.364 243.794 247.467 244.587 247.322C245.38 247.178 246.11 246.793 246.677 246.22C247.401 245.454 247.805 244.439 247.805 243.384C247.805 242.329 247.401 241.314 246.677 240.548C246.313 240.167 245.876 239.863 245.391 239.656C244.907 239.449 244.385 239.342 243.858 239.342C243.331 239.342 242.81 239.449 242.326 239.656C241.841 239.863 241.404 240.167 241.04 240.548C240.598 241.014 240.273 241.579 240.09 242.195C239.908 242.812 239.874 243.462 239.992 244.094C240.109 244.726 240.374 245.321 240.765 245.831C241.157 246.341 241.663 246.751 242.243 247.028ZM241.022 242.092C241.235 241.636 241.555 241.239 241.954 240.934C242.353 240.628 242.82 240.424 243.315 240.338C243.81 240.251 244.319 240.286 244.798 240.438C245.277 240.59 245.712 240.856 246.066 241.212C246.349 241.494 246.572 241.831 246.721 242.203C246.87 242.574 246.941 242.972 246.931 243.371C246.921 243.771 246.829 244.165 246.662 244.528C246.495 244.891 246.256 245.216 245.959 245.484C245.376 246.019 244.614 246.316 243.822 246.316C243.031 246.316 242.269 246.019 241.686 245.484C241.23 245.063 240.919 244.506 240.8 243.896C240.68 243.286 240.758 242.654 241.022 242.092ZM258.541 242.451C259.102 241.89 259.484 241.177 259.642 240.401C259.8 239.625 259.726 238.819 259.43 238.084C259.133 237.349 258.627 236.718 257.974 236.269C257.322 235.82 256.551 235.572 255.759 235.558C255.105 235.56 254.461 235.722 253.885 236.031C253.308 236.339 252.815 236.784 252.45 237.327C252.085 237.87 251.859 238.494 251.791 239.144C251.723 239.795 251.815 240.452 252.06 241.059C252.305 241.666 252.695 242.203 253.195 242.624C253.696 243.045 254.292 243.337 254.932 243.474C255.571 243.612 256.235 243.59 256.864 243.412C257.493 243.233 258.069 242.903 258.541 242.451ZM252.887 238.34C253.1 237.885 253.42 237.488 253.819 237.182C254.218 236.877 254.685 236.672 255.18 236.586C255.675 236.5 256.184 236.534 256.663 236.686C257.142 236.839 257.577 237.104 257.931 237.461C258.214 237.741 258.436 238.077 258.585 238.447C258.733 238.816 258.805 239.212 258.795 239.611C258.785 240.009 258.693 240.401 258.526 240.763C258.359 241.125 258.12 241.449 257.823 241.715C257.243 242.253 256.48 242.553 255.687 242.553C254.895 242.553 254.132 242.253 253.551 241.715C253.086 241.304 252.762 240.756 252.627 240.15C252.491 239.544 252.551 238.91 252.797 238.34H252.887ZM265.721 239.525C266.456 239.859 267.275 239.959 268.068 239.811C268.862 239.663 269.59 239.275 270.155 238.699C270.887 237.94 271.295 236.926 271.295 235.872C271.295 234.818 270.887 233.804 270.155 233.045C269.796 232.66 269.363 232.352 268.882 232.138C268.401 231.924 267.882 231.81 267.356 231.801C266.83 231.793 266.307 231.891 265.82 232.089C265.332 232.287 264.89 232.582 264.519 232.955C264.062 233.423 263.724 233.994 263.533 234.62C263.342 235.245 263.304 235.907 263.422 236.551C263.539 237.194 263.81 237.8 264.21 238.318C264.61 238.835 265.128 239.249 265.721 239.525ZM264.519 234.571C264.733 234.119 265.052 233.725 265.449 233.421C265.847 233.118 266.312 232.915 266.804 232.829C267.297 232.743 267.802 232.776 268.279 232.926C268.756 233.076 269.19 233.338 269.545 233.691C269.914 234.092 270.169 234.584 270.282 235.117C270.395 235.65 270.363 236.204 270.188 236.72C270.014 237.236 269.703 237.696 269.29 238.05C268.876 238.405 268.374 238.642 267.838 238.736C267.301 238.83 266.749 238.777 266.239 238.584C265.73 238.391 265.282 238.064 264.942 237.638C264.603 237.212 264.384 236.702 264.31 236.162C264.235 235.623 264.307 235.073 264.519 234.571Z" fill="#5669FF"/>
</svg>
